<?xml version="1.0" encoding="utf-8" standalone="no"?>
<!DOCTYPE svg PUBLIC "-//W3C//DTD SVG 1.1//EN"
  "http://www.w3.org/Graphics/SVG/1.1/DTD/svg11.dtd">
<svg xmlns:xlink="http://www.w3.org/1999/xlink" width="630.358507pt" height="423.030103pt" viewBox="0 0 630.358507 423.030103" xmlns="http://www.w3.org/2000/svg" version="1.1">
 <metadata>
  <rdf:RDF xmlns:dc="http://purl.org/dc/elements/1.1/" xmlns:cc="http://creativecommons.org/ns#" xmlns:rdf="http://www.w3.org/1999/02/22-rdf-syntax-ns#">
   <cc:Work>
    <dc:type rdf:resource="http://purl.org/dc/dcmitype/StillImage"/>
    <dc:date>2023-11-09T19:18:33.521568</dc:date>
    <dc:format>image/svg+xml</dc:format>
    <dc:creator>
     <cc:Agent>
      <dc:title>Matplotlib v3.7.0, https://matplotlib.org/</dc:title>
     </cc:Agent>
    </dc:creator>
   </cc:Work>
  </rdf:RDF>
 </metadata>
 <defs>
  <style type="text/css">*{stroke-linejoin: round; stroke-linecap: butt}</style>
 </defs>
 <g id="figure_1">
  <g id="patch_1">
   <path d="M 0 423.030103 
L 630.358507 423.030103 
L 630.358507 0 
L 0 0 
z
" style="fill: #ffffff"/>
  </g>
  <g id="axes_1">
   <g id="patch_2">
    <path d="M 57.7275 350.694687 
L 615.7275 350.694687 
L 615.7275 18.054687 
L 57.7275 18.054687 
z
" style="fill: #eaeaf2"/>
   </g>
   <g id="line2d_1">
    <path d="M 83.091136 143.303876 
L 83.567449 118.857737 
L 84.043761 114.818737 
L 84.520074 107.471419 
L 84.996386 73.699978 
L 85.472698 71.900974 
L 85.949011 91.263793 
L 86.425323 115.38889 
L 86.901636 125.992847 
L 87.377948 119.020105 
L 87.854261 147.942545 
L 88.330573 137.336731 
L 88.806885 130.332601 
L 89.283198 141.185669 
L 89.75951 140.303699 
L 90.235823 183.282348 
L 90.712135 188.852808 
L 91.188448 183.570181 
L 91.66476 181.125382 
L 92.141072 157.289974 
L 92.617385 181.260091 
L 93.093697 193.598472 
L 93.57001 194.760905 
L 94.046322 185.701308 
L 94.998947 189.170156 
L 95.475259 184.20122 
L 95.951572 177.824452 
L 96.427884 186.863741 
L 96.904197 208.822664 
L 97.380509 206.704457 
L 97.856821 226.088664 
L 98.333134 232.358238 
L 98.809446 226.00803 
L 99.285759 242.575474 
L 99.762071 266.963313 
L 100.238383 252.225693 
L 100.714696 254.674186 
L 101.191008 242.786187 
L 101.667321 234.088409 
L 102.143633 236.211788 
L 102.619946 245.288548 
L 103.096258 230.590227 
L 103.57257 236.64707 
L 104.048883 220.10878 
L 104.525195 207.713729 
L 105.001508 206.468265 
L 105.47782 190.253252 
L 105.954133 200.602603 
L 106.430445 188.175641 
L 106.906757 184.883919 
L 107.859382 210.691779 
L 108.335695 205.228351 
L 108.812007 214.233134 
L 109.288319 216.9702 
L 109.764632 204.017934 
L 110.240944 197.395767 
L 110.717257 203.442249 
L 111.193569 193.236833 
L 111.669882 190.738518 
L 112.146194 183.297105 
L 112.622506 182.874581 
L 113.098819 181.754582 
L 114.051444 211.419309 
L 114.527756 221.946902 
L 115.004069 223.007114 
L 115.480381 231.707829 
L 115.956693 218.558869 
L 116.433006 225.450616 
L 116.909318 225.64012 
L 117.385631 242.708327 
L 118.338255 241.443673 
L 118.814568 249.220345 
L 119.29088 243.559484 
L 119.767193 236.050339 
L 120.243505 230.83195 
L 120.719818 230.540224 
L 121.19613 234.245443 
L 121.672442 231.45652 
L 123.10138 243.822956 
L 123.577692 250.7673 
L 124.054004 248.526573 
L 124.530317 263.080599 
L 125.006629 268.158036 
L 125.482942 266.626396 
L 125.959254 269.012148 
L 126.435567 264.591769 
L 126.911879 257.722158 
L 127.388191 268.834833 
L 127.864504 269.616609 
L 128.340816 272.848364 
L 128.817129 267.778495 
L 129.293441 265.704011 
L 129.769754 270.36832 
L 130.246066 269.186886 
L 130.722378 266.722527 
L 131.198691 249.730152 
L 131.675003 249.606345 
L 132.151316 247.940555 
L 132.627628 241.61415 
L 133.10394 246.604132 
L 133.580253 249.49324 
L 134.056565 244.671356 
L 134.532878 242.25627 
L 135.00919 232.07999 
L 135.485503 231.162037 
L 135.961815 232.880226 
L 136.438127 230.51071 
L 136.91444 216.365559 
L 137.390752 232.081648 
L 137.867065 224.041126 
L 138.343377 229.4743 
L 138.81969 222.805429 
L 139.296002 221.502773 
L 139.772314 224.796892 
L 140.248627 227.039465 
L 140.724939 224.882319 
L 141.201252 215.510149 
L 141.677564 216.305412 
L 142.153876 213.401348 
L 142.630189 217.153434 
L 143.106501 222.352831 
L 143.582814 224.902608 
L 144.059126 223.235359 
L 144.535439 228.424594 
L 145.011751 239.540593 
L 145.488063 238.37079 
L 145.964376 234.329015 
L 146.440688 234.460949 
L 146.917001 238.269488 
L 147.393313 240.881269 
L 147.869625 245.946344 
L 148.345938 243.055947 
L 148.82225 243.125878 
L 149.298563 238.216531 
L 149.774875 239.955748 
L 150.251188 246.915777 
L 150.7275 255.845476 
L 151.203812 255.300792 
L 152.156437 259.571533 
L 152.63275 259.343838 
L 153.109062 263.628787 
L 153.585375 257.418081 
L 154.061687 258.637156 
L 154.537999 257.0199 
L 155.014312 256.147517 
L 155.490624 254.265483 
L 155.966937 252.848425 
L 156.443249 256.645333 
L 156.919561 254.444284 
L 157.872186 253.62356 
L 158.348499 254.60739 
L 158.824811 256.322255 
L 159.301124 270.086198 
L 159.777436 267.855436 
L 160.253748 273.843996 
L 160.730061 278.133189 
L 161.206373 272.128204 
L 161.682686 276.164799 
L 162.158998 274.438123 
L 162.63531 275.377113 
L 163.111623 271.030909 
L 163.587935 270.382897 
L 164.064248 270.260936 
L 164.54056 271.124634 
L 165.016873 283.045113 
L 165.493185 281.591333 
L 165.969497 281.392981 
L 166.44581 279.9916 
L 166.922122 282.860969 
L 167.398435 281.690049 
L 167.874747 286.370963 
L 168.35106 280.561384 
L 168.827372 277.134971 
L 169.303684 277.470419 
L 169.779997 273.25687 
L 170.256309 274.817673 
L 170.732622 273.563722 
L 171.685246 272.162341 
L 172.161559 268.777813 
L 172.637871 270.3102 
L 173.114184 270.903038 
L 173.590496 278.501287 
L 174.066809 277.306384 
L 174.543121 280.367456 
L 175.019433 280.19697 
L 175.495746 279.494523 
L 175.972058 277.953469 
L 176.448371 270.903038 
L 176.924683 260.214374 
L 177.400996 259.296611 
L 177.877308 257.523807 
L 178.35362 259.603823 
L 178.829933 258.401533 
L 179.306245 258.41629 
L 179.782558 253.017073 
L 180.25887 239.858338 
L 181.211495 248.58008 
L 181.687807 244.642022 
L 182.640432 243.655795 
L 183.116745 244.356576 
L 183.593057 251.737841 
L 184.069369 254.607571 
L 184.545682 255.673323 
L 185.021994 258.122916 
L 185.498307 265.531858 
L 185.974619 264.87444 
L 186.450931 267.027343 
L 186.927244 270.693245 
L 187.403556 278.946894 
L 187.879869 274.104711 
L 188.356181 281.181161 
L 188.832494 279.132695 
L 189.308806 278.635248 
L 189.785118 279.098748 
L 190.261431 280.904391 
L 190.737743 278.896702 
L 191.214056 278.413094 
L 191.690368 273.875917 
L 192.166681 276.770377 
L 192.642993 275.251648 
L 193.119305 278.896522 
L 193.595618 275.571041 
L 194.07193 277.638508 
L 195.024555 271.305093 
L 195.500867 270.507443 
L 195.97718 271.539429 
L 196.929805 264.361497 
L 197.406117 265.267819 
L 197.88243 266.539671 
L 198.358742 265.444584 
L 198.835054 262.572269 
L 199.311367 261.105939 
L 199.787679 261.339535 
L 200.263992 259.46488 
L 200.740304 269.960544 
L 201.216617 274.825421 
L 201.692929 275.971249 
L 202.169241 280.419674 
L 202.645554 279.038042 
L 203.121866 278.5059 
L 203.598179 278.662736 
L 204.074491 278.098133 
L 204.550803 275.044251 
L 205.027116 275.129129 
L 205.503428 274.566544 
L 205.979741 275.046647 
L 206.456053 279.400789 
L 206.932366 277.738332 
L 207.408678 277.235714 
L 207.88499 275.000708 
L 208.361303 271.028504 
L 209.313928 271.477246 
L 209.79024 273.603201 
L 210.266552 276.351339 
L 210.742865 275.455901 
L 211.219177 272.102374 
L 212.171802 273.482349 
L 212.648115 273.046896 
L 213.600739 274.328524 
L 214.077052 275.315858 
L 214.553364 273.948614 
L 215.029677 273.103727 
L 215.505989 273.734207 
L 215.982302 273.464078 
L 216.458614 272.554801 
L 216.934926 272.731746 
L 217.411239 273.785507 
L 217.887551 279.861333 
L 218.840176 279.312406 
L 219.316488 279.221258 
L 219.792801 273.582353 
L 220.269113 273.590291 
L 220.745426 274.543849 
L 221.221738 275.793376 
L 221.698051 276.001872 
L 222.174363 275.563104 
L 222.650675 275.689308 
L 223.126988 275.600556 
L 223.6033 275.811269 
L 224.079613 275.440405 
L 224.555925 275.801124 
L 225.032238 275.82954 
L 225.984862 275.614764 
L 226.461175 278.451843 
L 226.937487 278.421581 
L 227.4138 278.728982 
L 227.890112 277.618768 
L 228.366424 277.422074 
L 228.842737 277.923584 
L 229.319049 277.649211 
L 230.271674 276.083065 
L 230.747987 274.807519 
L 231.700611 277.474104 
L 232.176924 277.038651 
L 232.653236 277.000829 
L 233.129549 277.738882 
L 233.605861 277.956234 
L 234.082173 289.417088 
L 235.034798 292.420968 
L 235.511111 292.8125 
L 235.987423 291.535485 
L 236.463736 305.411794 
L 236.940048 313.154338 
L 237.41636 310.381108 
L 237.892673 314.739862 
L 238.368985 315.087302 
L 238.845298 323.692071 
L 239.32161 321.307977 
L 239.797923 325.567281 
L 240.274235 324.799889 
L 240.750547 316.7422 
L 241.22686 316.346848 
L 241.703172 321.173309 
L 242.179485 317.530957 
L 242.655797 318.911004 
L 243.132109 323.445361 
L 243.608422 322.287302 
L 244.561047 330.328238 
L 245.037359 332.194858 
L 245.513672 331.158309 
L 245.989984 328.60982 
L 246.466296 330.668588 
L 246.942609 332.109043 
L 247.418921 330.958381 
L 247.895234 334.155495 
L 248.371546 335.469088 
L 248.847859 335.574687 
L 249.324171 335.278038 
L 249.800483 329.87133 
L 250.276796 327.100046 
L 250.753108 326.179481 
L 251.229421 319.011315 
L 251.705733 323.400841 
L 252.182045 321.230248 
L 252.658358 321.510752 
L 253.13467 320.041679 
L 253.610983 324.896375 
L 254.087295 324.124983 
L 254.563608 327.860713 
L 255.03992 322.895736 
L 255.516232 324.805632 
L 255.992545 323.965287 
L 256.468857 326.239452 
L 257.421482 322.536107 
L 257.897794 324.504276 
L 258.374107 324.117235 
L 258.850419 324.3483 
L 259.326732 320.077964 
L 259.803044 321.026072 
L 260.755669 320.840671 
L 261.231981 327.416201 
L 261.708294 327.260455 
L 262.184606 327.741378 
L 262.660919 329.74054 
L 263.137231 326.915659 
L 263.613544 328.306463 
L 264.566168 327.422854 
L 265.042481 327.805251 
L 265.518793 326.500207 
L 265.995106 328.853759 
L 266.471418 329.314695 
L 266.94773 328.788008 
L 267.424043 329.146962 
L 267.900355 328.856494 
L 268.85298 328.827064 
L 269.329293 329.168315 
L 269.805605 331.262823 
L 270.281917 331.674905 
L 270.75823 330.972562 
L 271.234542 331.496374 
L 272.187167 330.328995 
L 272.66348 331.381594 
L 273.139792 331.471256 
L 273.616104 331.338344 
L 274.092417 332.308692 
L 274.568729 332.572474 
L 275.045042 327.640279 
L 275.521354 327.558662 
L 275.997666 327.208371 
L 276.473979 327.978853 
L 276.950291 327.88479 
L 277.902916 328.560989 
L 278.855541 328.322843 
L 279.331853 327.510088 
L 279.808166 323.047117 
L 280.284478 322.468113 
L 280.760791 321.495247 
L 281.237103 322.338516 
L 281.713415 321.389963 
L 282.189728 318.862128 
L 282.66604 324.989799 
L 283.142353 323.656344 
L 283.618665 324.179225 
L 284.094978 324.240308 
L 285.523915 323.993657 
L 286.000227 324.311744 
L 286.47654 325.891521 
L 286.952852 323.403954 
L 287.905477 323.125166 
L 288.381789 323.316189 
L 288.858102 322.168846 
L 289.334414 322.384983 
L 289.810727 323.240617 
L 290.287039 323.168123 
L 290.763351 323.213125 
L 291.239664 322.887425 
L 291.715976 322.213177 
L 292.192289 320.59288 
L 292.668601 321.026428 
L 293.144914 320.892133 
L 293.621226 320.178384 
L 294.097538 319.877883 
L 294.573851 320.950816 
L 295.050163 321.04969 
L 295.526476 320.830892 
L 296.002788 321.082903 
L 296.479101 322.173333 
L 296.955413 321.767215 
L 297.431725 319.885451 
L 297.908038 320.216818 
L 298.38435 319.676797 
L 298.860663 319.523916 
L 299.336975 319.547088 
L 299.813287 318.57325 
L 300.2896 305.25703 
L 300.765912 303.5384 
L 301.242225 304.465083 
L 301.718537 302.363804 
L 302.19485 301.93691 
L 302.671162 299.370708 
L 303.147474 297.693963 
L 303.623787 299.258865 
L 304.100099 297.052212 
L 304.576412 301.850735 
L 305.052724 301.388506 
L 305.529036 301.258473 
L 306.005349 299.945925 
L 306.481661 301.802381 
L 306.957974 298.694235 
L 307.434286 298.392032 
L 307.910599 297.53501 
L 308.386911 297.434879 
L 308.863223 296.806174 
L 309.339536 297.237104 
L 309.815848 295.671805 
L 310.292161 292.479781 
L 310.768473 294.463217 
L 311.244786 299.156329 
L 311.721098 297.886278 
L 312.19741 298.090297 
L 312.673723 297.779426 
L 313.150035 298.476639 
L 313.626348 296.569253 
L 314.10266 295.610325 
L 314.578972 293.71747 
L 315.055285 288.864666 
L 315.531597 287.704485 
L 316.00791 288.35875 
L 316.484222 289.261045 
L 316.960535 287.735225 
L 317.436847 284.912985 
L 318.389472 277.599038 
L 318.865784 262.359682 
L 319.342097 266.647767 
L 319.818409 251.10173 
L 320.771034 243.90105 
L 321.247346 249.810246 
L 321.723659 259.792661 
L 322.199971 261.133841 
L 322.676284 244.039038 
L 323.152596 248.086895 
L 323.628908 248.363323 
L 324.105221 253.589865 
L 324.581533 249.866753 
L 325.057846 247.91968 
L 325.534158 246.717164 
L 326.010471 235.264951 
L 326.486783 232.818998 
L 326.963095 234.402424 
L 327.439408 235.51826 
L 327.91572 241.791978 
L 328.392033 237.086352 
L 328.868345 237.27982 
L 329.344657 233.978116 
L 330.297282 253.078679 
L 330.773595 250.92983 
L 331.249907 250.970571 
L 331.72622 246.875712 
L 332.202532 248.533069 
L 332.678844 253.442056 
L 333.155157 247.680588 
L 333.631469 249.020434 
L 334.107782 244.995408 
L 334.584094 243.42582 
L 335.060407 234.884537 
L 336.013031 229.337051 
L 336.489344 223.324426 
L 336.965656 227.726723 
L 337.441969 224.188521 
L 337.918281 219.508553 
L 338.870906 197.836905 
L 339.823531 192.127862 
L 340.299843 177.739259 
L 340.776156 155.130594 
L 341.252468 188.959696 
L 341.72878 166.36559 
L 342.205093 174.631059 
L 342.681405 195.706445 
L 343.157718 200.024431 
L 343.63403 195.992026 
L 344.110343 174.59603 
L 344.586655 188.357613 
L 345.062967 192.730161 
L 346.015592 184.014004 
L 346.491905 168.6051 
L 346.968217 163.293806 
L 347.444529 170.993537 
L 347.920842 185.714931 
L 348.397154 177.276697 
L 348.873467 185.092811 
L 349.349779 206.059417 
L 349.826092 194.268449 
L 350.302404 220.422236 
L 350.778716 216.433778 
L 351.255029 198.486557 
L 351.731341 200.991324 
L 352.207654 196.629299 
L 352.683966 199.729751 
L 353.160278 204.45327 
L 353.636591 212.615004 
L 354.112903 214.254253 
L 354.589216 212.410671 
L 355.065528 213.177103 
L 355.541841 220.421569 
L 356.018153 219.034351 
L 356.494465 219.656434 
L 356.970778 218.027583 
L 357.44709 209.204088 
L 357.923403 203.409617 
L 358.399715 201.223028 
L 358.876028 195.622098 
L 359.35234 192.882853 
L 359.828652 177.467354 
L 360.304965 183.509872 
L 360.781277 174.952155 
L 361.25759 174.501233 
L 361.733902 176.410404 
L 362.210214 185.800502 
L 362.686527 182.671995 
L 363.162839 185.272946 
L 363.639152 194.254791 
L 364.115464 209.830027 
L 364.591777 205.035604 
L 365.068089 203.876991 
L 365.544401 206.508051 
L 366.020714 204.403376 
L 366.497026 193.881638 
L 366.973339 196.701392 
L 367.449651 208.236835 
L 367.925964 208.365886 
L 368.402276 203.256547 
L 368.878588 207.832546 
L 369.354901 208.228204 
L 369.831213 203.941913 
L 370.307526 207.361316 
L 370.783838 215.315257 
L 371.26015 219.821487 
L 371.736463 218.198258 
L 372.212775 217.59877 
L 372.689088 215.249795 
L 373.1654 204.385843 
L 373.641713 199.278901 
L 374.118025 199.814854 
L 374.594337 200.16469 
L 375.07065 204.265135 
L 375.546962 201.240002 
L 376.023275 202.641906 
L 376.499587 204.603313 
L 376.975899 208.644133 
L 377.452212 207.492836 
L 377.928524 203.216653 
L 378.404837 204.131471 
L 378.881149 204.177563 
L 379.357462 204.368275 
L 379.833774 205.676823 
L 380.786399 207.126098 
L 381.262711 205.868327 
L 381.739024 207.432509 
L 382.215336 210.420235 
L 382.691649 209.4852 
L 383.167961 215.77836 
L 383.644273 236.236402 
L 384.120586 238.701004 
L 384.596898 245.491557 
L 385.073211 243.039784 
L 385.549523 243.149213 
L 386.025835 245.764309 
L 386.502148 242.264415 
L 387.454773 240.434527 
L 387.931085 242.889471 
L 388.88371 244.891286 
L 389.360022 247.905211 
L 389.836335 243.1546 
L 390.312647 243.465318 
L 390.78896 236.694477 
L 391.265272 236.865458 
L 391.741585 241.749832 
L 392.217897 241.476774 
L 392.694209 241.763688 
L 393.170522 240.773209 
L 394.123147 246.809736 
L 394.599459 245.769372 
L 395.075771 248.181026 
L 395.552084 247.897742 
L 396.028396 243.589035 
L 396.504709 243.189701 
L 396.981021 246.243718 
L 397.457334 256.641612 
L 397.933646 257.032468 
L 398.409958 235.495881 
L 398.886271 224.715284 
L 399.362583 219.055487 
L 399.838896 224.509076 
L 400.315208 221.343955 
L 400.79152 225.439426 
L 401.267833 225.552747 
L 402.220458 223.243882 
L 402.69677 224.892752 
L 403.173083 221.622112 
L 403.649395 222.915272 
L 404.125707 222.576643 
L 404.60202 224.29849 
L 405.078332 232.835557 
L 405.554645 232.675009 
L 406.030957 228.210818 
L 406.50727 233.704481 
L 406.983582 232.636629 
L 407.459894 232.773158 
L 407.936207 234.621389 
L 408.412519 238.608765 
L 408.888832 237.524408 
L 409.365144 237.022258 
L 409.841456 241.979933 
L 410.317769 243.883013 
L 410.794081 247.183537 
L 411.746706 260.665738 
L 412.223019 258.79811 
L 412.699331 265.253854 
L 413.175643 263.441625 
L 413.651956 262.108752 
L 414.128268 256.328093 
L 414.604581 257.593071 
L 415.080893 252.092038 
L 415.557206 255.627564 
L 416.033518 258.309231 
L 416.50983 260.196878 
L 416.986143 260.23088 
L 417.462455 261.487614 
L 417.938768 257.86612 
L 418.41508 256.045179 
L 419.367705 255.725074 
L 419.844017 258.740864 
L 420.32033 261.006313 
L 420.796642 262.126167 
L 421.749267 261.16195 
L 422.225579 263.83759 
L 422.701892 263.327818 
L 423.178204 267.38381 
L 423.654517 272.770955 
L 424.130829 261.030611 
L 424.607141 262.395243 
L 425.083454 262.100535 
L 425.559766 262.610856 
L 426.036079 256.698498 
L 426.512391 259.576173 
L 426.988704 260.186842 
L 427.941328 261.728734 
L 428.417641 260.785473 
L 428.893953 260.270647 
L 429.370266 258.339485 
L 430.322891 262.565827 
L 430.799203 262.444506 
L 431.275515 266.40608 
L 431.751828 259.774417 
L 432.22814 258.560828 
L 432.704453 258.548639 
L 433.657077 244.666329 
L 434.13339 246.213095 
L 434.609702 249.917963 
L 435.086015 244.613525 
L 435.562327 246.994051 
L 436.03864 244.134899 
L 436.514952 245.026094 
L 436.991264 232.413321 
L 437.467577 232.796258 
L 437.943889 234.331862 
L 438.420202 230.544693 
L 438.896514 230.290609 
L 439.372827 234.655517 
L 439.849139 235.552298 
L 440.325451 233.923933 
L 440.801764 235.123611 
L 441.278076 240.185921 
L 441.754389 239.467815 
L 442.230701 240.899395 
L 442.707013 236.674368 
L 443.183326 230.899304 
L 443.659638 222.618898 
L 444.135951 223.393114 
L 444.612263 219.843758 
L 445.088576 222.767625 
L 445.564888 221.986291 
L 446.517513 223.819494 
L 446.993825 225.896349 
L 447.470138 217.916875 
L 447.94645 215.769549 
L 448.899075 213.272765 
L 449.375387 208.63125 
L 449.8517 213.429745 
L 450.328012 206.941801 
L 450.804325 204.767897 
L 451.280637 206.828444 
L 451.756949 205.02508 
L 452.233262 212.824294 
L 452.709574 211.993822 
L 453.185887 216.501313 
L 453.662199 208.164021 
L 454.138512 217.548533 
L 454.614824 218.008177 
L 455.091136 216.569605 
L 455.567449 216.998778 
L 456.043761 212.176822 
L 456.996386 222.930444 
L 457.472698 232.546949 
L 457.949011 233.211719 
L 458.425323 235.278987 
L 458.901636 236.624943 
L 459.377948 237.30865 
L 459.854261 231.640114 
L 460.330573 233.150978 
L 460.806885 233.751384 
L 461.283198 227.782077 
L 461.75951 226.974219 
L 462.235823 230.896818 
L 462.712135 245.691783 
L 463.188448 249.095528 
L 463.66476 249.352279 
L 464.141072 249.320899 
L 464.617385 303.579618 
L 465.093697 292.639482 
L 465.57001 299.343599 
L 466.046322 295.801892 
L 466.522634 302.773445 
L 466.998947 298.87746 
L 467.475259 298.641116 
L 467.951572 281.061542 
L 468.427884 280.921581 
L 468.904197 281.174584 
L 469.380509 287.721324 
L 469.856821 276.907744 
L 470.333134 271.031207 
L 470.809446 272.022794 
L 471.285759 271.370033 
L 472.714696 286.027713 
L 473.191008 276.658156 
L 473.667321 276.495733 
L 474.619946 269.945885 
L 475.096258 271.057343 
L 475.57257 268.582281 
L 476.048883 269.991924 
L 476.525195 261.123264 
L 477.001508 262.882905 
L 477.47782 259.973426 
L 477.954133 260.564039 
L 478.430445 268.619814 
L 478.906757 268.73809 
L 479.38307 266.67138 
L 479.859382 268.997246 
L 480.335695 269.045402 
L 480.812007 272.74153 
L 481.288319 263.982795 
L 481.764632 264.363254 
L 482.240944 261.383727 
L 482.717257 262.642849 
L 483.193569 268.316007 
L 483.669882 268.34618 
L 484.146194 263.975353 
L 484.622506 258.209001 
L 485.098819 255.973139 
L 485.575131 255.621916 
L 486.527756 251.458098 
L 487.004069 251.246692 
L 487.480381 232.906462 
L 487.956693 235.535486 
L 488.433006 231.730587 
L 488.909318 229.445759 
L 489.385631 231.127189 
L 489.861943 230.846996 
L 490.338255 229.178701 
L 490.814568 224.276345 
L 491.29088 211.678582 
L 491.767193 213.687055 
L 492.243505 218.27718 
L 492.719818 233.729527 
L 493.19613 236.582742 
L 493.672442 232.842999 
L 494.625067 215.697221 
L 495.10138 223.179681 
L 495.577692 222.278954 
L 496.054004 216.85933 
L 496.530317 215.829083 
L 497.006629 215.78364 
L 497.482942 219.585656 
L 497.959254 227.726741 
L 498.435567 225.866564 
L 498.911879 225.37373 
L 499.388191 233.103336 
L 499.864504 230.952532 
L 500.340816 232.278847 
L 501.293441 219.534555 
L 501.769754 221.132936 
L 502.246066 216.311791 
L 502.722378 220.728214 
L 503.198691 207.69771 
L 503.675003 219.459776 
L 504.627628 214.462551 
L 505.10394 216.955388 
L 505.580253 217.174101 
L 506.056565 215.233524 
L 506.532878 215.00036 
L 507.00919 214.553636 
L 507.485503 213.180959 
L 507.961815 223.298065 
L 508.438127 220.363152 
L 508.91444 220.46586 
L 509.390752 222.098603 
L 509.867065 220.919304 
L 510.343377 219.308093 
L 511.296002 221.636347 
L 511.772314 223.921031 
L 512.248627 223.103227 
L 512.724939 223.632981 
L 513.201252 217.265655 
L 513.677564 217.617329 
L 514.153876 223.448828 
L 514.630189 224.349195 
L 515.582814 228.397836 
L 516.059126 226.586075 
L 516.535439 225.713836 
L 517.011751 226.689197 
L 517.488063 225.022452 
L 517.964376 226.958272 
L 518.440688 227.624484 
L 518.917001 226.790769 
L 519.393313 227.871018 
L 519.869625 222.307351 
L 520.345938 224.580503 
L 520.82225 221.332044 
L 521.298563 224.106481 
L 521.774875 224.090985 
L 522.251188 224.80064 
L 522.7275 224.133563 
L 523.203812 224.740349 
L 523.680125 224.747736 
L 524.63275 226.79558 
L 525.109062 226.44196 
L 525.585375 226.300854 
L 526.061687 225.806777 
L 526.537999 226.205066 
L 527.014312 222.318181 
L 527.490624 219.541708 
L 527.966937 218.513804 
L 528.443249 219.328977 
L 528.919561 216.741721 
L 529.395874 212.533829 
L 529.872186 192.501123 
L 530.348499 193.941245 
L 530.824811 190.478956 
L 531.301124 190.280677 
L 531.777436 186.36433 
L 532.253748 178.317232 
L 532.730061 191.343465 
L 533.206373 187.787262 
L 533.682686 188.53373 
L 534.158998 178.549171 
L 534.63531 177.944872 
L 535.111623 181.234756 
L 535.587935 178.419579 
L 536.064248 179.86444 
L 536.54056 176.130409 
L 537.016873 184.757985 
L 537.969497 177.864346 
L 538.44581 178.146035 
L 538.922122 176.359446 
L 539.398435 175.859315 
L 539.874747 169.187344 
L 540.827372 178.341395 
L 541.303684 176.125597 
L 541.779997 181.400512 
L 542.256309 179.752146 
L 542.732622 180.065404 
L 543.208934 178.040408 
L 543.685246 185.57705 
L 544.161559 183.321773 
L 544.637871 186.36561 
L 545.114184 182.322879 
L 545.590496 182.980388 
L 546.066809 179.204499 
L 546.543121 179.770688 
L 547.019433 174.426112 
L 547.495746 184.693243 
L 547.972058 206.257985 
L 548.448371 201.340403 
L 548.924683 207.655294 
L 549.877308 203.965103 
L 550.35362 208.357381 
L 551.306245 204.083649 
L 552.25887 202.6254 
L 552.735182 204.810314 
L 553.211495 198.22168 
L 553.687807 196.079237 
L 554.16412 192.79575 
L 554.640432 193.273916 
L 555.116745 193.355181 
L 555.593057 190.591898 
L 556.069369 193.471691 
L 556.545682 202.254734 
L 557.021994 200.84874 
L 557.498307 206.24157 
L 557.974619 196.75981 
L 558.450931 198.002499 
L 558.927244 196.932196 
L 559.403556 196.479292 
L 559.879869 197.690015 
L 560.356181 195.199304 
L 560.832494 196.30914 
L 561.308806 199.354328 
L 561.785118 200.156546 
L 562.261431 200.64819 
L 563.214056 196.145871 
L 563.690368 199.631944 
L 564.166681 198.440681 
L 564.642993 193.888431 
L 565.119305 191.143384 
L 565.595618 186.864462 
L 566.07193 185.244062 
L 566.548243 182.085535 
L 567.024555 184.474314 
L 567.500867 184.407752 
L 567.97718 183.192866 
L 568.453492 186.389124 
L 568.929805 185.725273 
L 569.406117 183.414102 
L 569.88243 178.641157 
L 570.358742 175.425132 
L 570.835054 158.683247 
L 571.311367 156.05943 
L 571.787679 156.69328 
L 572.263992 153.43619 
L 572.740304 154.854887 
L 573.216617 154.04166 
L 573.692929 143.358888 
L 574.169241 150.424517 
L 574.645554 147.350571 
L 575.121866 145.346026 
L 575.598179 141.019697 
L 576.074491 141.829447 
L 576.550803 145.272834 
L 577.027116 137.895785 
L 577.503428 134.511698 
L 577.979741 107.828481 
L 578.456053 108.086205 
L 578.932366 121.594911 
L 579.408678 109.678802 
L 579.88499 112.395794 
L 580.361303 113.15992 
L 580.837615 105.586808 
L 581.313928 94.977229 
L 581.79024 94.212148 
L 582.266552 98.818887 
L 582.742865 100.895597 
L 583.69549 69.716223 
L 584.171802 66.789851 
L 584.648115 66.548435 
L 585.124427 51.709432 
L 585.600739 51.323468 
L 586.077052 56.346478 
L 586.553364 56.454988 
L 587.029677 42.739317 
L 587.505989 49.664903 
L 587.982302 78.845625 
L 588.458614 79.624652 
L 588.934926 68.387584 
L 589.411239 59.898681 
L 589.887551 33.174688 
L 590.363864 48.35713 
L 590.363864 48.35713 
" clip-path="url(#p4513f299d2)" style="fill: none; stroke: #4c72b0; stroke-width: 1.5; stroke-linecap: round"/>
   </g>
   <g id="patch_3">
    <path d="M 57.7275 350.694687 
L 57.7275 18.054687 
" style="fill: none; stroke: #808080; stroke-width: 1.25; stroke-linejoin: miter; stroke-linecap: square"/>
   </g>
   <g id="patch_4">
    <path d="M 615.7275 350.694687 
L 615.7275 18.054687 
" style="fill: none; stroke: #808080; stroke-width: 1.25; stroke-linejoin: miter; stroke-linecap: square"/>
   </g>
   <g id="patch_5">
    <path d="M 57.7275 350.694687 
L 615.7275 350.694687 
" style="fill: none; stroke: #808080; stroke-width: 1.25; stroke-linejoin: miter; stroke-linecap: square"/>
   </g>
   <g id="patch_6">
    <path d="M 57.7275 18.054687 
L 615.7275 18.054687 
" style="fill: none; stroke: #808080; stroke-width: 1.25; stroke-linejoin: miter; stroke-linecap: square"/>
   </g>
   <g id="matplotlib.axis_1">
    <g id="xtick_1">
     <g id="line2d_2">
      <path d="M 83.091136 350.694687 
L 83.091136 18.054687 
" clip-path="url(#p4513f299d2)" style="fill: none; stroke: #ffffff; stroke-width: 0.5; stroke-linecap: round"/>
     </g>
     <g id="text_1">
      <!-- 2018-01 -->
      <g style="fill: #262626" transform="translate(70.616281 394.72006) rotate(-45) scale(0.11 -0.11)">
       <defs>
        <path id="HelveticaNeue-32" d="M 282 2931 
L 826 2931 
Q 819 3136 867 3337 
Q 915 3539 1024 3699 
Q 1133 3859 1302 3958 
Q 1472 4058 1709 4058 
Q 1888 4058 2048 4000 
Q 2208 3942 2326 3833 
Q 2445 3725 2515 3574 
Q 2586 3424 2586 3238 
Q 2586 3002 2512 2822 
Q 2438 2643 2294 2489 
Q 2150 2336 1932 2185 
Q 1715 2035 1427 1856 
Q 1190 1715 972 1555 
Q 755 1395 582 1184 
Q 410 973 298 688 
Q 186 403 154 0 
L 3117 0 
L 3117 480 
L 787 480 
Q 826 691 950 854 
Q 1075 1018 1251 1158 
Q 1427 1299 1638 1424 
Q 1850 1549 2061 1677 
Q 2272 1811 2470 1958 
Q 2669 2106 2822 2288 
Q 2976 2470 3069 2700 
Q 3162 2931 3162 3232 
Q 3162 3552 3050 3795 
Q 2938 4038 2746 4201 
Q 2554 4365 2294 4451 
Q 2035 4538 1741 4538 
Q 1382 4538 1100 4416 
Q 819 4294 630 4080 
Q 442 3866 352 3571 
Q 262 3277 282 2931 
z
" transform="scale(0.015625)"/>
        <path id="HelveticaNeue-30" d="M 845 2234 
Q 845 2400 848 2601 
Q 851 2803 880 3004 
Q 909 3206 963 3398 
Q 1018 3590 1123 3734 
Q 1229 3878 1389 3968 
Q 1549 4058 1779 4058 
Q 2010 4058 2170 3968 
Q 2330 3878 2435 3734 
Q 2541 3590 2595 3398 
Q 2650 3206 2678 3004 
Q 2707 2803 2710 2601 
Q 2714 2400 2714 2234 
Q 2714 1978 2698 1661 
Q 2682 1344 2595 1065 
Q 2509 787 2317 595 
Q 2125 403 1779 403 
Q 1434 403 1242 595 
Q 1050 787 963 1065 
Q 877 1344 861 1661 
Q 845 1978 845 2234 
z
M 269 2227 
Q 269 1978 281 1709 
Q 294 1440 345 1184 
Q 397 928 493 701 
Q 589 474 755 301 
Q 922 128 1174 29 
Q 1427 -70 1779 -70 
Q 2138 -70 2387 29 
Q 2637 128 2803 301 
Q 2970 474 3066 701 
Q 3162 928 3213 1184 
Q 3264 1440 3277 1709 
Q 3290 1978 3290 2227 
Q 3290 2477 3277 2745 
Q 3264 3014 3213 3270 
Q 3162 3526 3066 3756 
Q 2970 3987 2803 4160 
Q 2637 4333 2384 4435 
Q 2131 4538 1779 4538 
Q 1427 4538 1174 4435 
Q 922 4333 755 4160 
Q 589 3987 493 3756 
Q 397 3526 345 3270 
Q 294 3014 281 2745 
Q 269 2477 269 2227 
z
" transform="scale(0.015625)"/>
        <path id="HelveticaNeue-31" d="M 2278 0 
L 2278 4538 
L 1862 4538 
Q 1818 4282 1696 4115 
Q 1574 3949 1398 3853 
Q 1222 3757 1004 3721 
Q 787 3686 557 3686 
L 557 3251 
L 1734 3251 
L 1734 0 
L 2278 0 
z
" transform="scale(0.015625)"/>
        <path id="HelveticaNeue-38" d="M 992 3360 
Q 992 3533 1056 3661 
Q 1120 3789 1225 3878 
Q 1331 3968 1478 4013 
Q 1626 4058 1786 4058 
Q 2118 4058 2332 3882 
Q 2547 3706 2547 3360 
Q 2547 3014 2336 2822 
Q 2125 2630 1798 2630 
Q 1632 2630 1485 2675 
Q 1338 2720 1229 2809 
Q 1120 2899 1056 3036 
Q 992 3174 992 3360 
z
M 416 3379 
Q 416 3072 589 2813 
Q 762 2554 1050 2438 
Q 666 2304 461 2006 
Q 256 1709 256 1306 
Q 256 960 374 701 
Q 493 442 701 269 
Q 909 96 1190 13 
Q 1472 -70 1798 -70 
Q 2112 -70 2387 19 
Q 2662 109 2864 285 
Q 3066 461 3184 717 
Q 3302 973 3302 1306 
Q 3302 1728 3104 2019 
Q 2906 2310 2496 2438 
Q 2784 2566 2953 2819 
Q 3123 3072 3123 3379 
Q 3123 3597 3046 3805 
Q 2970 4013 2806 4176 
Q 2643 4339 2380 4438 
Q 2118 4538 1747 4538 
Q 1485 4538 1245 4461 
Q 1005 4384 819 4237 
Q 634 4090 525 3875 
Q 416 3661 416 3379 
z
M 832 1280 
Q 832 1478 905 1638 
Q 979 1798 1110 1913 
Q 1242 2029 1418 2089 
Q 1594 2150 1792 2150 
Q 1984 2150 2153 2083 
Q 2323 2016 2451 1901 
Q 2579 1786 2652 1629 
Q 2726 1472 2726 1286 
Q 2726 1094 2659 934 
Q 2592 774 2467 656 
Q 2342 538 2172 470 
Q 2003 403 1798 403 
Q 1376 403 1104 636 
Q 832 870 832 1280 
z
" transform="scale(0.015625)"/>
        <path id="HelveticaNeue-2d" d="M 320 2035 
L 320 1523 
L 2170 1523 
L 2170 2035 
L 320 2035 
z
" transform="scale(0.015625)"/>
       </defs>
       <use xlink:href="#HelveticaNeue-32"/>
       <use xlink:href="#HelveticaNeue-30" x="55.599991"/>
       <use xlink:href="#HelveticaNeue-31" x="111.199982"/>
       <use xlink:href="#HelveticaNeue-38" x="166.799973"/>
       <use xlink:href="#HelveticaNeue-2d" x="222.399963"/>
       <use xlink:href="#HelveticaNeue-30" x="261.299957"/>
       <use xlink:href="#HelveticaNeue-31" x="316.899948"/>
      </g>
     </g>
    </g>
    <g id="xtick_2">
     <g id="line2d_3">
      <path d="M 140.248627 350.694687 
L 140.248627 18.054687 
" clip-path="url(#p4513f299d2)" style="fill: none; stroke: #ffffff; stroke-width: 0.5; stroke-linecap: round"/>
     </g>
     <g id="text_2">
      <!-- 2018-05 -->
      <g style="fill: #262626" transform="translate(127.773772 394.72006) rotate(-45) scale(0.11 -0.11)">
       <defs>
        <path id="HelveticaNeue-35" d="M 3008 3981 
L 3008 4461 
L 768 4461 
L 346 2106 
L 813 2080 
Q 973 2272 1181 2390 
Q 1389 2509 1658 2509 
Q 1888 2509 2077 2432 
Q 2266 2355 2400 2217 
Q 2534 2080 2608 1891 
Q 2682 1702 2682 1478 
Q 2682 1210 2605 1008 
Q 2528 806 2397 672 
Q 2266 538 2090 470 
Q 1914 403 1722 403 
Q 1517 403 1347 464 
Q 1178 525 1053 637 
Q 928 749 854 899 
Q 781 1050 768 1222 
L 224 1222 
Q 230 915 345 672 
Q 461 429 659 265 
Q 858 102 1117 16 
Q 1376 -70 1670 -70 
Q 2067 -70 2364 54 
Q 2662 179 2860 390 
Q 3059 602 3158 874 
Q 3258 1146 3258 1434 
Q 3258 1824 3142 2115 
Q 3027 2406 2828 2601 
Q 2630 2797 2361 2893 
Q 2093 2989 1792 2989 
Q 1562 2989 1328 2909 
Q 1094 2829 947 2662 
L 934 2675 
L 1178 3981 
L 3008 3981 
z
" transform="scale(0.015625)"/>
       </defs>
       <use xlink:href="#HelveticaNeue-32"/>
       <use xlink:href="#HelveticaNeue-30" x="55.599991"/>
       <use xlink:href="#HelveticaNeue-31" x="111.199982"/>
       <use xlink:href="#HelveticaNeue-38" x="166.799973"/>
       <use xlink:href="#HelveticaNeue-2d" x="222.399963"/>
       <use xlink:href="#HelveticaNeue-30" x="261.299957"/>
       <use xlink:href="#HelveticaNeue-35" x="316.899948"/>
      </g>
     </g>
    </g>
    <g id="xtick_3">
     <g id="line2d_4">
      <path d="M 198.835054 350.694687 
L 198.835054 18.054687 
" clip-path="url(#p4513f299d2)" style="fill: none; stroke: #ffffff; stroke-width: 0.5; stroke-linecap: round"/>
     </g>
     <g id="text_3">
      <!-- 2018-09 -->
      <g style="fill: #262626" transform="translate(186.360199 394.72006) rotate(-45) scale(0.11 -0.11)">
       <defs>
        <path id="HelveticaNeue-39" d="M 858 1094 
L 314 1094 
Q 365 506 742 218 
Q 1120 -70 1690 -70 
Q 2515 -70 2889 560 
Q 3264 1190 3264 2368 
Q 3264 3014 3139 3433 
Q 3014 3853 2803 4096 
Q 2592 4339 2310 4438 
Q 2029 4538 1709 4538 
Q 1382 4538 1107 4429 
Q 832 4320 633 4125 
Q 435 3930 326 3658 
Q 218 3386 218 3059 
Q 218 2726 310 2444 
Q 403 2163 585 1964 
Q 768 1766 1037 1654 
Q 1306 1542 1651 1542 
Q 1984 1542 2265 1712 
Q 2547 1882 2701 2170 
L 2714 2157 
Q 2688 1267 2438 835 
Q 2189 403 1690 403 
Q 1363 403 1126 582 
Q 890 762 858 1094 
z
M 2618 3021 
Q 2618 2822 2554 2640 
Q 2490 2458 2368 2320 
Q 2246 2182 2073 2102 
Q 1901 2022 1690 2022 
Q 1491 2022 1328 2102 
Q 1165 2182 1046 2316 
Q 928 2451 861 2624 
Q 794 2797 794 2982 
Q 794 3194 842 3386 
Q 890 3578 995 3728 
Q 1101 3878 1270 3968 
Q 1440 4058 1683 4058 
Q 1914 4058 2086 3974 
Q 2259 3891 2377 3747 
Q 2496 3603 2557 3417 
Q 2618 3232 2618 3021 
z
" transform="scale(0.015625)"/>
       </defs>
       <use xlink:href="#HelveticaNeue-32"/>
       <use xlink:href="#HelveticaNeue-30" x="55.599991"/>
       <use xlink:href="#HelveticaNeue-31" x="111.199982"/>
       <use xlink:href="#HelveticaNeue-38" x="166.799973"/>
       <use xlink:href="#HelveticaNeue-2d" x="222.399963"/>
       <use xlink:href="#HelveticaNeue-30" x="261.299957"/>
       <use xlink:href="#HelveticaNeue-39" x="316.899948"/>
      </g>
     </g>
    </g>
    <g id="xtick_4">
     <g id="line2d_5">
      <path d="M 256.94517 350.694687 
L 256.94517 18.054687 
" clip-path="url(#p4513f299d2)" style="fill: none; stroke: #ffffff; stroke-width: 0.5; stroke-linecap: round"/>
     </g>
     <g id="text_4">
      <!-- 2019-01 -->
      <g style="fill: #262626" transform="translate(244.470314 394.72006) rotate(-45) scale(0.11 -0.11)">
       <use xlink:href="#HelveticaNeue-32"/>
       <use xlink:href="#HelveticaNeue-30" x="55.599991"/>
       <use xlink:href="#HelveticaNeue-31" x="111.199982"/>
       <use xlink:href="#HelveticaNeue-39" x="166.799973"/>
       <use xlink:href="#HelveticaNeue-2d" x="222.399963"/>
       <use xlink:href="#HelveticaNeue-30" x="261.299957"/>
       <use xlink:href="#HelveticaNeue-31" x="316.899948"/>
      </g>
     </g>
    </g>
    <g id="xtick_5">
     <g id="line2d_6">
      <path d="M 314.10266 350.694687 
L 314.10266 18.054687 
" clip-path="url(#p4513f299d2)" style="fill: none; stroke: #ffffff; stroke-width: 0.5; stroke-linecap: round"/>
     </g>
     <g id="text_5">
      <!-- 2019-05 -->
      <g style="fill: #262626" transform="translate(301.627805 394.72006) rotate(-45) scale(0.11 -0.11)">
       <use xlink:href="#HelveticaNeue-32"/>
       <use xlink:href="#HelveticaNeue-30" x="55.599991"/>
       <use xlink:href="#HelveticaNeue-31" x="111.199982"/>
       <use xlink:href="#HelveticaNeue-39" x="166.799973"/>
       <use xlink:href="#HelveticaNeue-2d" x="222.399963"/>
       <use xlink:href="#HelveticaNeue-30" x="261.299957"/>
       <use xlink:href="#HelveticaNeue-35" x="316.899948"/>
      </g>
     </g>
    </g>
    <g id="xtick_6">
     <g id="line2d_7">
      <path d="M 372.689088 350.694687 
L 372.689088 18.054687 
" clip-path="url(#p4513f299d2)" style="fill: none; stroke: #ffffff; stroke-width: 0.5; stroke-linecap: round"/>
     </g>
     <g id="text_6">
      <!-- 2019-09 -->
      <g style="fill: #262626" transform="translate(360.214233 394.72006) rotate(-45) scale(0.11 -0.11)">
       <use xlink:href="#HelveticaNeue-32"/>
       <use xlink:href="#HelveticaNeue-30" x="55.599991"/>
       <use xlink:href="#HelveticaNeue-31" x="111.199982"/>
       <use xlink:href="#HelveticaNeue-39" x="166.799973"/>
       <use xlink:href="#HelveticaNeue-2d" x="222.399963"/>
       <use xlink:href="#HelveticaNeue-30" x="261.299957"/>
       <use xlink:href="#HelveticaNeue-39" x="316.899948"/>
      </g>
     </g>
    </g>
    <g id="xtick_7">
     <g id="line2d_8">
      <path d="M 430.799203 350.694687 
L 430.799203 18.054687 
" clip-path="url(#p4513f299d2)" style="fill: none; stroke: #ffffff; stroke-width: 0.5; stroke-linecap: round"/>
     </g>
     <g id="text_7">
      <!-- 2020-01 -->
      <g style="fill: #262626" transform="translate(418.324348 394.72006) rotate(-45) scale(0.11 -0.11)">
       <use xlink:href="#HelveticaNeue-32"/>
       <use xlink:href="#HelveticaNeue-30" x="55.599991"/>
       <use xlink:href="#HelveticaNeue-32" x="111.199982"/>
       <use xlink:href="#HelveticaNeue-30" x="166.799973"/>
       <use xlink:href="#HelveticaNeue-2d" x="222.399963"/>
       <use xlink:href="#HelveticaNeue-30" x="261.299957"/>
       <use xlink:href="#HelveticaNeue-31" x="316.899948"/>
      </g>
     </g>
    </g>
    <g id="xtick_8">
     <g id="line2d_9">
      <path d="M 488.433006 350.694687 
L 488.433006 18.054687 
" clip-path="url(#p4513f299d2)" style="fill: none; stroke: #ffffff; stroke-width: 0.5; stroke-linecap: round"/>
     </g>
     <g id="text_8">
      <!-- 2020-05 -->
      <g style="fill: #262626" transform="translate(475.958151 394.72006) rotate(-45) scale(0.11 -0.11)">
       <use xlink:href="#HelveticaNeue-32"/>
       <use xlink:href="#HelveticaNeue-30" x="55.599991"/>
       <use xlink:href="#HelveticaNeue-32" x="111.199982"/>
       <use xlink:href="#HelveticaNeue-30" x="166.799973"/>
       <use xlink:href="#HelveticaNeue-2d" x="222.399963"/>
       <use xlink:href="#HelveticaNeue-30" x="261.299957"/>
       <use xlink:href="#HelveticaNeue-35" x="316.899948"/>
      </g>
     </g>
    </g>
    <g id="xtick_9">
     <g id="line2d_10">
      <path d="M 547.019433 350.694687 
L 547.019433 18.054687 
" clip-path="url(#p4513f299d2)" style="fill: none; stroke: #ffffff; stroke-width: 0.5; stroke-linecap: round"/>
     </g>
     <g id="text_9">
      <!-- 2020-09 -->
      <g style="fill: #262626" transform="translate(534.544578 394.72006) rotate(-45) scale(0.11 -0.11)">
       <use xlink:href="#HelveticaNeue-32"/>
       <use xlink:href="#HelveticaNeue-30" x="55.599991"/>
       <use xlink:href="#HelveticaNeue-32" x="111.199982"/>
       <use xlink:href="#HelveticaNeue-30" x="166.799973"/>
       <use xlink:href="#HelveticaNeue-2d" x="222.399963"/>
       <use xlink:href="#HelveticaNeue-30" x="261.299957"/>
       <use xlink:href="#HelveticaNeue-39" x="316.899948"/>
      </g>
     </g>
    </g>
    <g id="xtick_10">
     <g id="line2d_11">
      <path d="M 605.129549 350.694687 
L 605.129549 18.054687 
" clip-path="url(#p4513f299d2)" style="fill: none; stroke: #ffffff; stroke-width: 0.5; stroke-linecap: round"/>
     </g>
     <g id="text_10">
      <!-- 2021-01 -->
      <g style="fill: #262626" transform="translate(592.654693 394.72006) rotate(-45) scale(0.11 -0.11)">
       <use xlink:href="#HelveticaNeue-32"/>
       <use xlink:href="#HelveticaNeue-30" x="55.599991"/>
       <use xlink:href="#HelveticaNeue-32" x="111.199982"/>
       <use xlink:href="#HelveticaNeue-31" x="166.799973"/>
       <use xlink:href="#HelveticaNeue-2d" x="222.399963"/>
       <use xlink:href="#HelveticaNeue-30" x="261.299957"/>
       <use xlink:href="#HelveticaNeue-31" x="316.899948"/>
      </g>
     </g>
    </g>
    <g id="text_11">
     <!-- Date -->
     <g style="fill: #262626" transform="translate(319.9825 412.677603) scale(0.16 -0.16)">
      <defs>
       <path id="HelveticaNeue-44" d="M 1107 512 
L 1107 4058 
L 2131 4058 
Q 2554 4058 2842 3939 
Q 3130 3821 3312 3593 
Q 3494 3366 3574 3043 
Q 3654 2720 3654 2310 
Q 3654 1888 3568 1590 
Q 3482 1293 3347 1094 
Q 3213 896 3043 781 
Q 2874 666 2701 605 
Q 2528 544 2374 528 
Q 2221 512 2118 512 
L 1107 512 
z
M 499 4570 
L 499 0 
L 2067 0 
Q 2637 0 3053 160 
Q 3469 320 3737 624 
Q 4006 928 4134 1373 
Q 4262 1818 4262 2394 
Q 4262 3494 3692 4032 
Q 3123 4570 2067 4570 
L 499 4570 
z
" transform="scale(0.015625)"/>
       <path id="HelveticaNeue-61" d="M 3341 13 
Q 3200 -70 2950 -70 
Q 2739 -70 2614 48 
Q 2490 166 2490 435 
Q 2266 166 1968 48 
Q 1670 -70 1325 -70 
Q 1101 -70 899 -19 
Q 698 32 550 141 
Q 403 250 316 426 
Q 230 602 230 851 
Q 230 1133 326 1312 
Q 422 1491 579 1603 
Q 736 1715 937 1772 
Q 1139 1830 1350 1869 
Q 1574 1914 1776 1936 
Q 1978 1958 2131 2000 
Q 2285 2042 2374 2122 
Q 2464 2202 2464 2355 
Q 2464 2534 2397 2643 
Q 2330 2752 2224 2809 
Q 2118 2867 1987 2886 
Q 1856 2906 1728 2906 
Q 1382 2906 1152 2774 
Q 922 2643 902 2278 
L 358 2278 
Q 371 2586 486 2797 
Q 602 3008 794 3139 
Q 986 3270 1232 3328 
Q 1478 3386 1760 3386 
Q 1984 3386 2205 3354 
Q 2426 3322 2605 3222 
Q 2784 3123 2893 2944 
Q 3002 2765 3002 2477 
L 3002 774 
Q 3002 582 3024 492 
Q 3046 403 3174 403 
Q 3245 403 3341 435 
L 3341 13 
z
M 2458 1709 
Q 2355 1632 2188 1597 
Q 2022 1562 1840 1539 
Q 1658 1517 1472 1488 
Q 1286 1459 1139 1395 
Q 992 1331 899 1212 
Q 806 1094 806 890 
Q 806 755 860 662 
Q 915 570 1001 512 
Q 1088 454 1203 428 
Q 1318 403 1446 403 
Q 1715 403 1907 476 
Q 2099 550 2220 662 
Q 2342 774 2400 905 
Q 2458 1037 2458 1152 
L 2458 1709 
z
" transform="scale(0.015625)"/>
       <path id="HelveticaNeue-74" d="M 1165 3309 
L 1165 4301 
L 621 4301 
L 621 3309 
L 58 3309 
L 58 2829 
L 621 2829 
L 621 723 
Q 621 493 665 352 
Q 710 211 803 134 
Q 896 58 1046 29 
Q 1197 0 1408 0 
L 1824 0 
L 1824 480 
L 1574 480 
Q 1446 480 1366 489 
Q 1286 499 1241 531 
Q 1197 563 1181 620 
Q 1165 678 1165 774 
L 1165 2829 
L 1824 2829 
L 1824 3309 
L 1165 3309 
z
" transform="scale(0.015625)"/>
       <path id="HelveticaNeue-65" d="M 2707 1971 
L 806 1971 
Q 819 2163 889 2332 
Q 960 2502 1081 2630 
Q 1203 2758 1372 2832 
Q 1542 2906 1754 2906 
Q 1958 2906 2128 2832 
Q 2298 2758 2422 2633 
Q 2547 2509 2620 2336 
Q 2694 2163 2707 1971 
z
M 3232 1050 
L 2694 1050 
Q 2624 723 2403 563 
Q 2182 403 1837 403 
Q 1568 403 1369 492 
Q 1171 582 1043 732 
Q 915 883 857 1078 
Q 800 1274 806 1491 
L 3283 1491 
Q 3296 1792 3229 2125 
Q 3162 2458 2986 2739 
Q 2810 3021 2518 3203 
Q 2227 3386 1786 3386 
Q 1446 3386 1161 3258 
Q 877 3130 669 2899 
Q 461 2669 345 2355 
Q 230 2042 230 1664 
Q 243 1286 342 966 
Q 442 646 640 416 
Q 838 186 1129 58 
Q 1421 -70 1818 -70 
Q 2381 -70 2752 211 
Q 3123 493 3232 1050 
z
" transform="scale(0.015625)"/>
      </defs>
      <use xlink:href="#HelveticaNeue-44"/>
      <use xlink:href="#HelveticaNeue-61" x="70.399994"/>
      <use xlink:href="#HelveticaNeue-74" x="124.099991"/>
      <use xlink:href="#HelveticaNeue-65" x="155.599976"/>
     </g>
    </g>
   </g>
   <g id="matplotlib.axis_2">
    <g id="ytick_1">
     <g id="line2d_12">
      <path d="M 57.7275 349.168911 
L 615.7275 349.168911 
" clip-path="url(#p4513f299d2)" style="fill: none; stroke: #ffffff; stroke-width: 0.5; stroke-linecap: round"/>
     </g>
     <g id="text_12">
      <!-- $\mathdefault{0.25}$ -->
      <g style="fill: #262626" transform="translate(26.7775 353.096255) scale(0.11 -0.11)">
       <defs>
        <path id="HelveticaNeue-2e" d="M 531 710 
L 531 0 
L 1242 0 
L 1242 710 
L 531 710 
z
" transform="scale(0.015625)"/>
       </defs>
       <use xlink:href="#HelveticaNeue-30" transform="translate(0 0.09375)"/>
       <use xlink:href="#HelveticaNeue-2e" transform="translate(55.599991 0.09375)"/>
       <use xlink:href="#HelveticaNeue-32" transform="translate(83.399979 0.09375)"/>
       <use xlink:href="#HelveticaNeue-35" transform="translate(138.999969 0.09375)"/>
      </g>
     </g>
    </g>
    <g id="ytick_2">
     <g id="line2d_13">
      <path d="M 57.7275 303.040619 
L 615.7275 303.040619 
" clip-path="url(#p4513f299d2)" style="fill: none; stroke: #ffffff; stroke-width: 0.5; stroke-linecap: round"/>
     </g>
     <g id="text_13">
      <!-- $\mathdefault{0.50}$ -->
      <g style="fill: #262626" transform="translate(26.7775 306.967963) scale(0.11 -0.11)">
       <use xlink:href="#HelveticaNeue-30" transform="translate(0 0.09375)"/>
       <use xlink:href="#HelveticaNeue-2e" transform="translate(55.599991 0.09375)"/>
       <use xlink:href="#HelveticaNeue-35" transform="translate(83.399979 0.09375)"/>
       <use xlink:href="#HelveticaNeue-30" transform="translate(138.999969 0.09375)"/>
      </g>
     </g>
    </g>
    <g id="ytick_3">
     <g id="line2d_14">
      <path d="M 57.7275 256.912328 
L 615.7275 256.912328 
" clip-path="url(#p4513f299d2)" style="fill: none; stroke: #ffffff; stroke-width: 0.5; stroke-linecap: round"/>
     </g>
     <g id="text_14">
      <!-- $\mathdefault{0.75}$ -->
      <g style="fill: #262626" transform="translate(26.7775 260.839671) scale(0.11 -0.11)">
       <defs>
        <path id="HelveticaNeue-37" d="M 3258 3994 
L 3258 4461 
L 320 4461 
L 320 3949 
L 2701 3949 
Q 2342 3571 2032 3123 
Q 1722 2675 1485 2172 
Q 1248 1670 1097 1123 
Q 947 576 909 0 
L 1517 0 
Q 1549 531 1696 1094 
Q 1843 1658 2076 2189 
Q 2310 2720 2611 3187 
Q 2912 3654 3258 3994 
z
" transform="scale(0.015625)"/>
       </defs>
       <use xlink:href="#HelveticaNeue-30" transform="translate(0 0.09375)"/>
       <use xlink:href="#HelveticaNeue-2e" transform="translate(55.599991 0.09375)"/>
       <use xlink:href="#HelveticaNeue-37" transform="translate(83.399979 0.09375)"/>
       <use xlink:href="#HelveticaNeue-35" transform="translate(138.999969 0.09375)"/>
      </g>
     </g>
    </g>
    <g id="ytick_4">
     <g id="line2d_15">
      <path d="M 57.7275 210.784036 
L 615.7275 210.784036 
" clip-path="url(#p4513f299d2)" style="fill: none; stroke: #ffffff; stroke-width: 0.5; stroke-linecap: round"/>
     </g>
     <g id="text_15">
      <!-- $\mathdefault{1.00}$ -->
      <g style="fill: #262626" transform="translate(26.7775 214.711379) scale(0.11 -0.11)">
       <use xlink:href="#HelveticaNeue-31" transform="translate(0 0.09375)"/>
       <use xlink:href="#HelveticaNeue-2e" transform="translate(55.599991 0.09375)"/>
       <use xlink:href="#HelveticaNeue-30" transform="translate(83.399979 0.09375)"/>
       <use xlink:href="#HelveticaNeue-30" transform="translate(138.999969 0.09375)"/>
      </g>
     </g>
    </g>
    <g id="ytick_5">
     <g id="line2d_16">
      <path d="M 57.7275 164.655744 
L 615.7275 164.655744 
" clip-path="url(#p4513f299d2)" style="fill: none; stroke: #ffffff; stroke-width: 0.5; stroke-linecap: round"/>
     </g>
     <g id="text_16">
      <!-- $\mathdefault{1.25}$ -->
      <g style="fill: #262626" transform="translate(26.7775 168.583087) scale(0.11 -0.11)">
       <use xlink:href="#HelveticaNeue-31" transform="translate(0 0.09375)"/>
       <use xlink:href="#HelveticaNeue-2e" transform="translate(55.599991 0.09375)"/>
       <use xlink:href="#HelveticaNeue-32" transform="translate(83.399979 0.09375)"/>
       <use xlink:href="#HelveticaNeue-35" transform="translate(138.999969 0.09375)"/>
      </g>
     </g>
    </g>
    <g id="ytick_6">
     <g id="line2d_17">
      <path d="M 57.7275 118.527452 
L 615.7275 118.527452 
" clip-path="url(#p4513f299d2)" style="fill: none; stroke: #ffffff; stroke-width: 0.5; stroke-linecap: round"/>
     </g>
     <g id="text_17">
      <!-- $\mathdefault{1.50}$ -->
      <g style="fill: #262626" transform="translate(26.7775 122.454795) scale(0.11 -0.11)">
       <use xlink:href="#HelveticaNeue-31" transform="translate(0 0.09375)"/>
       <use xlink:href="#HelveticaNeue-2e" transform="translate(55.599991 0.09375)"/>
       <use xlink:href="#HelveticaNeue-35" transform="translate(83.399979 0.09375)"/>
       <use xlink:href="#HelveticaNeue-30" transform="translate(138.999969 0.09375)"/>
      </g>
     </g>
    </g>
    <g id="ytick_7">
     <g id="line2d_18">
      <path d="M 57.7275 72.39916 
L 615.7275 72.39916 
" clip-path="url(#p4513f299d2)" style="fill: none; stroke: #ffffff; stroke-width: 0.5; stroke-linecap: round"/>
     </g>
     <g id="text_18">
      <!-- $\mathdefault{1.75}$ -->
      <g style="fill: #262626" transform="translate(26.7775 76.326504) scale(0.11 -0.11)">
       <use xlink:href="#HelveticaNeue-31" transform="translate(0 0.09375)"/>
       <use xlink:href="#HelveticaNeue-2e" transform="translate(55.599991 0.09375)"/>
       <use xlink:href="#HelveticaNeue-37" transform="translate(83.399979 0.09375)"/>
       <use xlink:href="#HelveticaNeue-35" transform="translate(138.999969 0.09375)"/>
      </g>
     </g>
    </g>
    <g id="ytick_8">
     <g id="line2d_19">
      <path d="M 57.7275 26.270868 
L 615.7275 26.270868 
" clip-path="url(#p4513f299d2)" style="fill: none; stroke: #ffffff; stroke-width: 0.5; stroke-linecap: round"/>
     </g>
     <g id="text_19">
      <!-- $\mathdefault{2.00}$ -->
      <g style="fill: #262626" transform="translate(26.7775 30.198212) scale(0.11 -0.11)">
       <use xlink:href="#HelveticaNeue-32" transform="translate(0 0.09375)"/>
       <use xlink:href="#HelveticaNeue-2e" transform="translate(55.599991 0.09375)"/>
       <use xlink:href="#HelveticaNeue-30" transform="translate(83.399979 0.09375)"/>
       <use xlink:href="#HelveticaNeue-30" transform="translate(138.999969 0.09375)"/>
      </g>
     </g>
    </g>
    <g id="text_20">
     <!-- BTC Price -->
     <g style="fill: #262626" transform="translate(18.625 220.663437) rotate(-90) scale(0.16 -0.16)">
      <defs>
       <path id="HelveticaNeue-42" d="M 1107 2605 
L 1107 4058 
L 2323 4058 
Q 2522 4058 2698 4035 
Q 2874 4013 3008 3936 
Q 3142 3859 3219 3718 
Q 3296 3578 3296 3334 
Q 3296 2970 3069 2787 
Q 2842 2605 2323 2605 
L 1107 2605 
z
M 499 4570 
L 499 0 
L 2707 0 
Q 3046 0 3305 112 
Q 3565 224 3741 406 
Q 3917 589 4006 825 
Q 4096 1062 4096 1312 
Q 4096 1734 3872 2028 
Q 3648 2323 3226 2413 
L 3226 2426 
Q 3552 2554 3728 2819 
Q 3904 3085 3904 3450 
Q 3904 3795 3747 4032 
Q 3590 4269 3366 4403 
Q 3264 4467 3120 4499 
Q 2976 4531 2809 4547 
Q 2643 4563 2473 4566 
Q 2304 4570 2157 4570 
L 499 4570 
z
M 1107 512 
L 1107 2093 
L 2496 2093 
Q 2688 2093 2867 2057 
Q 3046 2022 3184 1936 
Q 3322 1850 3405 1702 
Q 3488 1555 3488 1331 
Q 3488 947 3261 729 
Q 3034 512 2630 512 
L 1107 512 
z
" transform="scale(0.015625)"/>
       <path id="HelveticaNeue-54" d="M 1536 4058 
L 1536 0 
L 2144 0 
L 2144 4058 
L 3667 4058 
L 3667 4570 
L 13 4570 
L 13 4058 
L 1536 4058 
z
" transform="scale(0.015625)"/>
       <path id="HelveticaNeue-43" d="M 3712 3194 
L 4320 3194 
Q 4269 3558 4102 3836 
Q 3936 4115 3686 4300 
Q 3437 4486 3117 4582 
Q 2797 4678 2438 4678 
Q 1914 4678 1507 4489 
Q 1101 4301 829 3974 
Q 557 3648 416 3209 
Q 275 2771 275 2272 
Q 275 1773 406 1337 
Q 538 902 800 582 
Q 1062 262 1459 80 
Q 1856 -102 2387 -102 
Q 3264 -102 3769 378 
Q 4275 858 4365 1722 
L 3757 1722 
Q 3738 1440 3642 1197 
Q 3546 954 3376 778 
Q 3206 602 2972 502 
Q 2739 403 2438 403 
Q 2029 403 1734 556 
Q 1440 710 1251 969 
Q 1062 1229 972 1577 
Q 883 1926 883 2317 
Q 883 2675 972 3008 
Q 1062 3341 1251 3600 
Q 1440 3859 1731 4012 
Q 2022 4166 2432 4166 
Q 2912 4166 3261 3923 
Q 3610 3680 3712 3194 
z
" transform="scale(0.015625)"/>
       <path id="HelveticaNeue-20" transform="scale(0.015625)"/>
       <path id="HelveticaNeue-50" d="M 1107 2381 
L 1107 4058 
L 2298 4058 
Q 2816 4058 3056 3843 
Q 3296 3629 3296 3219 
Q 3296 2810 3056 2592 
Q 2816 2374 2298 2381 
L 1107 2381 
z
M 499 4570 
L 499 0 
L 1107 0 
L 1107 1869 
L 2502 1869 
Q 3194 1862 3549 2220 
Q 3904 2579 3904 3219 
Q 3904 3859 3549 4214 
Q 3194 4570 2502 4570 
L 499 4570 
z
" transform="scale(0.015625)"/>
       <path id="HelveticaNeue-72" d="M 390 3309 
L 390 0 
L 934 0 
L 934 1472 
Q 934 1792 998 2038 
Q 1062 2285 1203 2457 
Q 1344 2630 1574 2720 
Q 1805 2810 2131 2810 
L 2131 3386 
Q 1690 3398 1402 3206 
Q 1114 3014 915 2611 
L 902 2611 
L 902 3309 
L 390 3309 
z
" transform="scale(0.015625)"/>
       <path id="HelveticaNeue-69" d="M 986 3904 
L 986 4570 
L 442 4570 
L 442 3904 
L 986 3904 
z
M 442 3309 
L 442 0 
L 986 0 
L 986 3309 
L 442 3309 
z
" transform="scale(0.015625)"/>
       <path id="HelveticaNeue-63" d="M 2656 2246 
L 3219 2246 
Q 3187 2541 3065 2755 
Q 2944 2970 2755 3110 
Q 2566 3251 2320 3318 
Q 2074 3386 1792 3386 
Q 1402 3386 1107 3248 
Q 813 3110 617 2870 
Q 422 2630 326 2307 
Q 230 1984 230 1613 
Q 230 1242 329 931 
Q 429 621 624 397 
Q 819 173 1110 51 
Q 1402 -70 1779 -70 
Q 2413 -70 2781 262 
Q 3149 595 3238 1210 
L 2682 1210 
Q 2630 826 2403 614 
Q 2176 403 1773 403 
Q 1517 403 1331 505 
Q 1146 608 1030 777 
Q 915 947 860 1164 
Q 806 1382 806 1613 
Q 806 1862 857 2096 
Q 909 2330 1027 2509 
Q 1146 2688 1344 2797 
Q 1542 2906 1837 2906 
Q 2182 2906 2387 2733 
Q 2592 2560 2656 2246 
z
" transform="scale(0.015625)"/>
      </defs>
      <use xlink:href="#HelveticaNeue-42"/>
      <use xlink:href="#HelveticaNeue-54" x="68.499985"/>
      <use xlink:href="#HelveticaNeue-43" x="125.899979"/>
      <use xlink:href="#HelveticaNeue-20" x="198.09996"/>
      <use xlink:href="#HelveticaNeue-50" x="225.899948"/>
      <use xlink:href="#HelveticaNeue-72" x="290.699936"/>
      <use xlink:href="#HelveticaNeue-69" x="323.999924"/>
      <use xlink:href="#HelveticaNeue-63" x="346.199921"/>
      <use xlink:href="#HelveticaNeue-65" x="399.899918"/>
     </g>
    </g>
    <g id="text_21">
     <!-- $\times\mathdefault{10^{4}}\mathdefault{}$ -->
     <g style="fill: #262626" transform="translate(57.7275 15.054687) scale(0.11 -0.11)">
      <defs>
       <path id="DejaVuSans-d7" d="M 4488 3438 
L 3059 2003 
L 4488 575 
L 4116 197 
L 2681 1631 
L 1247 197 
L 878 575 
L 2303 2003 
L 878 3438 
L 1247 3816 
L 2681 2381 
L 4116 3816 
L 4488 3438 
z
" transform="scale(0.015625)"/>
       <path id="HelveticaNeue-34" d="M 2170 1542 
L 646 1542 
L 2157 3763 
L 2170 3763 
L 2170 1542 
z
M 2682 1542 
L 2682 4538 
L 2246 4538 
L 179 1587 
L 179 1062 
L 2170 1062 
L 2170 0 
L 2682 0 
L 2682 1062 
L 3296 1062 
L 3296 1542 
L 2682 1542 
z
" transform="scale(0.015625)"/>
      </defs>
      <use xlink:href="#DejaVuSans-d7" transform="translate(0 0.173438)"/>
      <use xlink:href="#HelveticaNeue-31" transform="translate(83.789062 0.173438)"/>
      <use xlink:href="#HelveticaNeue-30" transform="translate(139.389053 0.173438)"/>
      <use xlink:href="#HelveticaNeue-34" transform="translate(195.893849 36.365625) scale(0.7)"/>
     </g>
    </g>
   </g>
  </g>
 </g>
 <defs>
  <clipPath id="p4513f299d2">
   <rect x="57.7275" y="18.054687" width="558" height="332.64"/>
  </clipPath>
 </defs>
</svg>