<?xml version="1.0" encoding="utf-8" standalone="no"?>
<!DOCTYPE svg PUBLIC "-//W3C//DTD SVG 1.1//EN"
  "http://www.w3.org/Graphics/SVG/1.1/DTD/svg11.dtd">
<svg xmlns:xlink="http://www.w3.org/1999/xlink" width="607.6375pt" height="411.35555pt" viewBox="0 0 607.6375 411.35555" xmlns="http://www.w3.org/2000/svg" version="1.1">
 <metadata>
  <rdf:RDF xmlns:dc="http://purl.org/dc/elements/1.1/" xmlns:cc="http://creativecommons.org/ns#" xmlns:rdf="http://www.w3.org/1999/02/22-rdf-syntax-ns#">
   <cc:Work>
    <dc:type rdf:resource="http://purl.org/dc/dcmitype/StillImage"/>
    <dc:date>2023-11-09T19:20:30.488574</dc:date>
    <dc:format>image/svg+xml</dc:format>
    <dc:creator>
     <cc:Agent>
      <dc:title>Matplotlib v3.7.0, https://matplotlib.org/</dc:title>
     </cc:Agent>
    </dc:creator>
   </cc:Work>
  </rdf:RDF>
 </metadata>
 <defs>
  <style type="text/css">*{stroke-linejoin: round; stroke-linecap: butt}</style>
 </defs>
 <g id="figure_1">
  <g id="patch_1">
   <path d="M 0 411.35555 
L 607.6375 411.35555 
L 607.6375 0 
L 0 0 
z
" style="fill: #ffffff"/>
  </g>
  <g id="axes_1">
   <g id="patch_2">
    <path d="M 42.4375 350.694687 
L 600.4375 350.694687 
L 600.4375 18.054687 
L 42.4375 18.054687 
z
" style="fill: #eaeaf2"/>
   </g>
   <g id="line2d_1">
    <path d="M 67.801136 286.59074 
L 68.038624 280.36271 
L 68.276111 279.333713 
L 68.513598 277.46187 
L 68.751085 268.858076 
L 68.988573 268.399752 
L 69.701034 282.180489 
L 69.938521 280.404076 
L 70.176009 287.772512 
L 70.650983 283.286108 
L 70.88847 286.051094 
L 71.125958 285.826399 
L 71.363445 296.775871 
L 71.600932 298.195031 
L 71.838419 296.849201 
L 72.075907 296.22635 
L 72.313394 290.153914 
L 72.550881 296.26067 
L 72.788368 299.404062 
L 73.025855 299.70021 
L 73.263343 297.392138 
L 73.738317 298.27588 
L 74.213292 295.385388 
L 74.450779 297.688286 
L 74.688266 303.282659 
L 74.925753 302.743013 
L 75.163241 307.681438 
L 75.400728 309.278709 
L 75.638215 307.660896 
L 75.875702 311.881707 
L 76.113189 318.094884 
L 76.350677 314.340249 
L 76.588164 314.96404 
L 77.063138 309.719497 
L 77.300626 310.26046 
L 77.538113 312.572904 
L 77.7756 308.828281 
L 78.013087 310.371355 
L 78.488062 303.000141 
L 78.725549 302.68284 
L 78.963036 298.551816 
L 79.200523 301.188472 
L 79.438011 298.022512 
L 79.675498 297.183896 
L 80.150472 303.758845 
L 80.38796 302.366953 
L 80.625447 304.66106 
L 80.862934 305.358369 
L 81.100421 302.05858 
L 81.337909 300.371482 
L 81.575396 301.911916 
L 81.812883 299.311929 
L 82.05037 298.675445 
L 82.287858 296.77963 
L 82.525345 296.671986 
L 82.762832 296.386649 
L 83.475294 306.626261 
L 83.712781 306.896366 
L 83.950268 309.113007 
L 84.187755 305.763107 
L 84.425243 307.518886 
L 84.66273 307.567165 
L 84.900217 311.915553 
L 85.375192 311.593363 
L 85.612679 313.57459 
L 86.32514 308.889863 
L 86.562628 308.815542 
L 86.800115 309.759503 
L 87.037602 309.048982 
L 87.750064 312.199522 
L 87.987551 313.968701 
L 88.225038 313.397841 
L 88.462526 317.105703 
L 88.700013 318.399258 
L 88.9375 318.009049 
L 89.174987 318.616856 
L 89.412474 317.490697 
L 89.649962 315.740558 
L 89.887449 318.571683 
L 90.124936 318.770852 
L 90.362423 319.594191 
L 90.599911 318.302564 
L 90.837398 317.774057 
L 91.074885 318.962362 
L 91.312372 318.661374 
L 91.54986 318.03354 
L 91.787347 313.704471 
L 92.024834 313.672929 
L 92.262321 313.248544 
L 92.499808 311.636795 
L 92.974783 313.644114 
L 93.21227 312.415665 
L 93.449757 311.800385 
L 93.687245 309.207821 
L 93.924732 308.973958 
L 94.162219 309.411693 
L 94.399706 308.808023 
L 94.637194 305.204328 
L 94.874681 309.208243 
L 95.112168 307.159797 
L 95.349655 308.543981 
L 95.587142 306.844984 
L 95.82463 306.513112 
L 96.299604 307.92367 
L 96.537091 307.374104 
L 96.774579 304.986399 
L 97.012066 305.189004 
L 97.249553 304.449149 
L 97.962015 307.379273 
L 98.199502 306.954515 
L 98.436989 308.276552 
L 98.674477 311.108524 
L 98.911964 310.810499 
L 99.149451 309.780795 
L 99.386938 309.814407 
L 100.0994 312.740488 
L 100.336887 312.004115 
L 100.574374 312.021931 
L 100.811862 310.771199 
L 101.049349 311.214291 
L 101.524323 315.262444 
L 101.761811 315.123678 
L 102.236785 316.211715 
L 102.474272 316.153706 
L 102.711759 317.245362 
L 102.949247 315.663089 
L 103.186734 315.973668 
L 104.136683 314.498899 
L 104.37417 315.46622 
L 104.611657 314.905469 
L 105.086632 314.696377 
L 105.324119 314.947023 
L 105.561606 315.383911 
L 105.799093 318.890487 
L 106.036581 318.322166 
L 106.511555 320.940582 
L 106.749042 319.41072 
L 106.98653 320.439104 
L 107.224017 319.999207 
L 107.461504 320.238429 
L 107.698991 319.131167 
L 108.173966 318.935004 
L 108.411453 319.155045 
L 108.64894 322.19197 
L 108.886427 321.821597 
L 109.123915 321.771064 
L 109.361402 321.414041 
L 109.598889 322.145057 
L 109.836376 321.846747 
L 110.073864 323.039282 
L 110.548838 320.68627 
L 110.786325 320.771731 
L 111.023813 319.698265 
L 111.2613 320.095903 
L 111.736274 319.580934 
L 111.973761 319.419416 
L 112.211249 318.557156 
L 112.448736 318.947555 
L 112.686223 319.09859 
L 112.92371 321.034361 
L 113.161198 320.729941 
L 113.398685 321.509796 
L 113.636172 321.466362 
L 113.873659 321.287403 
L 114.111147 320.894795 
L 114.348634 319.09859 
L 114.586121 316.375488 
L 114.823608 316.141674 
L 115.061096 315.690025 
L 115.298583 316.219941 
L 115.53607 315.913639 
L 115.773557 315.917399 
L 116.011044 314.541865 
L 116.248532 311.189475 
L 116.723506 313.411473 
L 116.960993 312.408192 
L 117.435968 312.156935 
L 117.673455 312.33547 
L 117.910942 314.215961 
L 118.14843 314.947069 
L 118.385917 315.218586 
L 118.623404 315.842657 
L 118.860891 317.730199 
L 119.098378 317.562712 
L 119.335866 318.111197 
L 119.573353 319.045142 
L 119.81084 321.147886 
L 120.048327 319.914265 
L 120.285815 321.7171 
L 120.523302 321.195222 
L 120.760789 321.068489 
L 120.998276 321.186573 
L 121.235764 321.646588 
L 121.473251 321.135099 
L 121.710738 321.011892 
L 121.948225 319.855976 
L 122.185712 320.593385 
L 122.4232 320.206465 
L 122.660687 321.135053 
L 122.898174 320.287835 
L 123.135661 320.814554 
L 123.610636 319.20102 
L 123.848123 318.997806 
L 124.08561 319.26072 
L 124.560585 317.432032 
L 125.035559 317.986955 
L 125.273046 317.707965 
L 125.748021 316.602628 
L 125.985508 316.66214 
L 126.222995 316.184543 
L 126.460483 318.858475 
L 126.69797 320.097877 
L 126.935457 320.389795 
L 127.172944 321.523099 
L 127.410432 321.171107 
L 127.647919 321.035536 
L 127.885406 321.075492 
L 128.122893 320.931651 
L 128.36038 320.153627 
L 128.597868 320.175251 
L 128.835355 320.031924 
L 129.072842 320.154238 
L 129.310329 321.263522 
L 129.547817 320.839986 
L 129.785304 320.711936 
L 130.022791 320.142534 
L 130.260278 319.130554 
L 130.735253 319.244878 
L 131.210227 320.486628 
L 131.447715 320.258502 
L 131.685202 319.404139 
L 132.160176 319.755709 
L 132.397663 319.644771 
L 133.110125 320.222824 
L 133.5851 319.659249 
L 133.822587 319.819874 
L 134.060074 319.751054 
L 134.297561 319.519402 
L 134.535049 319.564481 
L 134.772536 319.832943 
L 135.010023 321.380853 
L 135.722485 321.217784 
L 135.959972 319.781187 
L 136.197459 319.783209 
L 136.909921 320.397596 
L 137.147408 320.285813 
L 137.85987 320.349037 
L 138.097357 320.254554 
L 138.572331 320.353692 
L 139.047306 320.298974 
L 139.284793 321.021764 
L 139.759768 321.092369 
L 139.997255 320.809525 
L 140.234742 320.759415 
L 140.472229 320.887182 
L 140.709717 320.817281 
L 141.422178 320.093316 
L 141.897153 320.77267 
L 142.372127 320.652096 
L 142.847102 320.8955 
L 143.084589 323.815329 
L 143.559563 324.580613 
L 143.797051 324.680362 
L 144.034538 324.355023 
L 144.509512 329.862758 
L 144.746999 329.156236 
L 144.984487 330.266695 
L 145.221974 330.355211 
L 145.459461 332.547408 
L 145.696948 331.940024 
L 145.934436 333.025147 
L 146.171923 332.829642 
L 146.40941 330.776821 
L 146.646897 330.676099 
L 146.884385 331.905715 
L 147.121872 330.97777 
L 147.359359 331.329358 
L 147.596846 332.484555 
L 147.834334 332.189522 
L 148.546795 334.713624 
L 148.784282 334.449547 
L 149.02177 333.80028 
L 149.496744 334.691761 
L 149.734231 334.398612 
L 149.971719 335.213126 
L 150.209206 335.547784 
L 150.68418 335.499112 
L 150.921668 334.121669 
L 151.159155 333.415642 
L 151.396642 333.181114 
L 151.634129 331.354914 
L 151.871616 332.473213 
L 152.109104 331.920221 
L 152.346591 331.991684 
L 152.584078 331.617415 
L 152.821565 332.854223 
L 153.059053 332.657699 
L 153.29654 333.609434 
L 153.534027 332.34453 
L 153.771514 332.831105 
L 154.009002 332.617014 
L 154.246489 333.196393 
L 154.721463 332.252908 
L 154.95895 332.75433 
L 155.196438 332.655725 
L 155.433925 332.714593 
L 155.671412 331.626659 
L 155.908899 331.868204 
L 156.383874 331.82097 
L 156.621361 333.496187 
L 156.858848 333.456509 
L 157.096336 333.579031 
L 157.333823 334.088349 
L 157.57131 333.368667 
L 157.808797 333.722996 
L 158.283772 333.497883 
L 158.521259 333.595304 
L 158.758746 333.262824 
L 158.996233 333.862428 
L 159.233721 333.979858 
L 159.471208 333.845677 
L 159.708695 333.937126 
L 160.18367 333.868293 
L 160.658644 333.942565 
L 160.896131 334.476174 
L 161.133618 334.581158 
L 161.371106 334.402225 
L 161.608593 334.535674 
L 162.083567 334.238267 
L 162.321055 334.506432 
L 162.796029 334.495414 
L 163.033516 334.742625 
L 163.271004 334.809828 
L 163.508491 333.553275 
L 163.983465 333.44324 
L 164.220953 333.639532 
L 164.45844 333.615568 
L 164.933414 333.78784 
L 165.408389 333.727168 
L 165.645876 333.520107 
L 165.883363 332.383096 
L 166.358338 331.987733 
L 166.595825 332.202569 
L 166.833312 331.960911 
L 167.070799 331.316906 
L 167.308287 332.878024 
L 167.545774 332.538306 
L 168.020748 332.68708 
L 168.970697 332.705279 
L 169.208184 333.107752 
L 169.445672 332.474006 
L 170.158133 332.451646 
L 170.395621 332.159343 
L 170.633108 332.214407 
L 170.870595 332.432393 
L 171.583057 332.342412 
L 171.820544 332.170637 
L 172.058031 331.757842 
L 172.295518 331.868295 
L 172.533006 331.834081 
L 173.00798 331.575685 
L 173.245467 331.849031 
L 173.957929 331.882683 
L 174.195416 332.160486 
L 174.432903 332.057021 
L 174.670391 331.577613 
L 174.907878 331.662034 
L 175.382852 331.485506 
L 175.62034 331.49141 
L 175.857827 331.24331 
L 176.095314 327.850798 
L 176.332801 327.41295 
L 176.570289 327.649037 
L 176.807776 327.113704 
L 177.045263 327.004946 
L 177.520237 325.92399 
L 177.757725 326.322673 
L 177.995212 325.760494 
L 178.232699 326.982992 
L 178.707674 326.832104 
L 178.945161 326.497712 
L 179.182648 326.970673 
L 179.420135 326.178825 
L 179.657623 326.101834 
L 179.89511 325.883494 
L 180.132597 325.857984 
L 180.370084 325.697812 
L 180.607572 325.807598 
L 180.845059 325.408814 
L 181.082546 324.595597 
L 181.320033 325.100908 
L 181.55752 326.29655 
L 181.795008 325.972985 
L 182.032495 326.024962 
L 182.269982 325.945763 
L 182.507469 326.123389 
L 183.219931 324.910917 
L 183.457418 323.674591 
L 183.694906 323.379017 
L 184.16988 323.775574 
L 184.407367 323.386848 
L 184.882342 321.764959 
L 185.119829 320.804499 
L 185.357316 316.922038 
L 185.594803 318.014494 
L 185.832291 314.053902 
L 186.307265 312.219418 
L 186.544752 313.724877 
L 186.78224 316.26805 
L 187.019727 316.609736 
L 187.257214 312.254572 
L 187.494701 313.285826 
L 187.732188 313.35625 
L 187.969676 314.687793 
L 188.44465 313.243226 
L 188.682137 312.936866 
L 188.919625 310.019239 
L 189.157112 309.396095 
L 189.632086 310.083773 
L 189.869574 311.682099 
L 190.107061 310.483269 
L 190.344548 310.532558 
L 190.582035 309.691398 
L 191.05701 314.55756 
L 191.294497 314.010108 
L 191.531984 314.020487 
L 191.769471 312.977259 
L 192.006959 313.399496 
L 192.244446 314.650136 
L 192.481933 313.182313 
L 192.71942 313.52366 
L 192.956908 312.498222 
L 193.194395 312.098346 
L 193.431882 309.922322 
L 193.906856 308.509015 
L 194.144344 306.977206 
L 194.381831 308.098759 
L 194.856805 306.005054 
L 195.33178 300.483868 
L 195.806754 299.029402 
L 196.044242 295.363684 
L 196.281729 289.603778 
L 196.519216 298.222262 
L 196.756703 292.466066 
L 196.994191 294.571822 
L 197.231678 299.941101 
L 197.469165 301.041174 
L 197.706652 300.013857 
L 197.944139 294.562898 
L 198.181627 298.068873 
L 198.419114 299.182846 
L 198.894088 296.962271 
L 199.131576 293.036616 
L 199.369063 291.683482 
L 199.60655 293.645107 
L 199.844037 297.395609 
L 200.081525 295.245839 
L 200.319012 297.237114 
L 200.556499 302.57868 
L 200.793986 299.574749 
L 201.031473 306.237829 
L 201.268961 305.221708 
L 201.506448 300.649377 
L 201.743935 301.287505 
L 201.981422 300.176212 
L 202.21891 300.9661 
L 202.456397 302.169489 
L 202.693884 304.248816 
L 202.931371 304.66644 
L 203.168859 304.196759 
L 203.406346 304.39202 
L 203.643833 306.237659 
L 203.88132 305.884244 
L 204.118807 306.042729 
L 204.356295 305.627754 
L 204.831269 301.903602 
L 205.068756 301.346535 
L 205.306244 299.919612 
L 205.543731 299.221747 
L 205.781218 295.294412 
L 206.018705 296.833836 
L 206.256193 294.653626 
L 206.49368 294.538747 
L 206.731167 295.025137 
L 206.968654 297.417409 
L 207.206141 296.620374 
L 207.443629 297.283006 
L 207.681116 299.571269 
L 207.918603 303.5393 
L 208.15609 302.317847 
L 208.393578 302.022673 
L 208.631065 302.692976 
L 208.868552 302.156778 
L 209.106039 299.476203 
L 209.343527 300.194579 
L 209.581014 303.13341 
L 209.818501 303.166288 
L 210.055988 301.864605 
L 210.293475 303.030411 
L 210.530963 303.131211 
L 210.76845 302.039213 
L 211.005937 302.910358 
L 211.480912 306.084779 
L 211.718399 305.671236 
L 211.955886 305.518507 
L 212.193373 304.92007 
L 212.430861 302.152311 
L 212.668348 300.851239 
L 213.143322 301.076907 
L 213.380809 302.121559 
L 213.618297 301.350859 
L 214.093271 302.207715 
L 214.330758 303.237176 
L 214.568246 302.943865 
L 214.805733 301.854442 
L 215.04322 302.087506 
L 215.518195 302.147835 
L 215.993169 302.648186 
L 216.230656 302.850433 
L 216.468144 302.529997 
L 216.705631 302.928496 
L 216.943118 303.689665 
L 217.180605 303.45145 
L 217.418092 305.05473 
L 217.65558 310.266731 
L 217.893067 310.894626 
L 218.130554 312.624624 
L 218.368041 311.999997 
L 218.605529 312.027876 
L 218.843016 312.694112 
L 219.080503 311.80246 
L 219.555478 311.336268 
L 219.792965 311.961702 
L 220.267939 312.471696 
L 220.505426 313.239539 
L 220.742914 312.029248 
L 220.980401 312.108408 
L 221.217888 310.383433 
L 221.455375 310.426993 
L 221.692863 311.671362 
L 221.93035 311.601796 
L 222.167837 311.674892 
L 222.405324 311.422552 
L 222.880299 312.96045 
L 223.117786 312.695402 
L 223.355273 313.309807 
L 223.59276 313.237637 
L 223.830248 312.139927 
L 224.067735 312.038191 
L 224.305222 312.816249 
L 224.542709 315.465272 
L 224.780197 315.564849 
L 225.017684 310.078072 
L 225.255171 307.331549 
L 225.492658 305.889628 
L 225.730146 307.279014 
L 225.967633 306.472651 
L 226.20512 307.516035 
L 226.442607 307.544905 
L 226.917582 306.956686 
L 227.155069 307.376761 
L 227.392556 306.543516 
L 227.630043 306.872968 
L 227.867531 306.786697 
L 228.105018 307.225364 
L 228.342505 309.400313 
L 228.579992 309.359411 
L 228.81748 308.22209 
L 229.054967 309.621685 
L 229.292454 309.349633 
L 229.529941 309.384416 
L 229.767428 309.855281 
L 230.004916 310.871127 
L 230.47989 310.46694 
L 230.717377 311.729984 
L 230.954865 312.214823 
L 231.192352 313.055682 
L 231.667326 316.49048 
L 231.904814 316.014673 
L 232.142301 317.659373 
L 232.617275 316.85811 
L 232.854763 315.385398 
L 233.09225 315.707671 
L 233.329737 314.306198 
L 233.804711 315.890124 
L 234.042199 316.371031 
L 234.279686 316.379693 
L 234.517173 316.699866 
L 234.75466 315.777234 
L 234.992148 315.313321 
L 235.467122 315.23177 
L 235.942097 316.577247 
L 236.179584 316.862547 
L 236.654558 316.616898 
L 236.892045 317.298558 
L 237.129533 317.168686 
L 237.604507 319.57447 
L 237.841994 316.583437 
L 238.079482 316.931098 
L 238.316969 316.856017 
L 238.554456 316.986029 
L 238.791943 315.479765 
L 239.029431 316.212897 
L 239.741892 316.761295 
L 240.454354 315.897831 
L 240.929328 316.974557 
L 241.166816 316.943649 
L 241.404303 317.95292 
L 241.64179 316.263402 
L 241.879277 315.954222 
L 242.116765 315.951116 
L 242.591739 312.414384 
L 242.829226 312.808447 
L 243.066713 313.752319 
L 243.304201 312.400932 
L 243.541688 313.007407 
L 243.779175 312.278994 
L 244.016662 312.50604 
L 244.25415 309.292742 
L 244.491637 309.390301 
L 244.729124 309.78152 
L 244.966611 308.81668 
L 245.204099 308.751949 
L 245.441586 309.863976 
L 245.679073 310.092445 
L 245.91656 309.677594 
L 246.154047 309.98323 
L 246.391535 311.272931 
L 246.629022 311.089983 
L 246.866509 311.4547 
L 247.341484 308.907023 
L 247.578971 306.797462 
L 247.816458 306.994706 
L 248.053945 306.090453 
L 248.291433 306.835353 
L 248.52892 306.636296 
L 249.003894 307.103333 
L 249.241382 307.632443 
L 249.478869 305.599549 
L 249.953843 304.74157 
L 250.19133 304.416391 
L 250.428818 303.233894 
L 250.666305 304.456384 
L 250.903792 302.803481 
L 251.141279 302.249645 
L 251.378767 302.774601 
L 251.616254 302.315166 
L 251.853741 304.302136 
L 252.091228 304.090561 
L 252.328716 305.238913 
L 252.566203 303.11486 
L 252.80369 305.505709 
L 253.041177 305.62281 
L 253.278664 305.256312 
L 253.516152 305.36565 
L 253.753639 304.137183 
L 254.228613 306.876833 
L 254.466101 309.326786 
L 254.703588 309.496146 
L 255.178562 310.365718 
L 255.41605 310.539903 
L 255.653537 309.095756 
L 255.891024 309.480671 
L 256.128511 309.633634 
L 256.365998 308.112861 
L 256.603486 307.907047 
L 256.840973 308.90639 
L 257.07846 312.675635 
L 257.315947 313.542791 
L 257.790922 313.600208 
L 258.028409 327.423451 
L 258.265896 324.636283 
L 258.503384 326.34426 
L 258.740871 325.441956 
L 258.978358 327.218066 
L 259.215845 326.225504 
L 259.453332 326.165292 
L 259.69082 321.686625 
L 260.165794 321.715424 
L 260.403281 323.383307 
L 260.878256 319.131243 
L 261.115743 319.383865 
L 261.35323 319.217564 
L 262.065692 322.951833 
L 262.303179 320.564794 
L 262.540666 320.523415 
L 263.015641 318.85474 
L 263.253128 319.137901 
L 263.490615 318.507341 
L 263.728103 318.866469 
L 263.96559 316.607042 
L 264.203077 317.055337 
L 264.440564 316.314103 
L 264.678052 316.464571 
L 264.915539 318.516903 
L 265.153026 318.547036 
L 265.390513 318.02051 
L 265.628001 318.61306 
L 265.865488 318.625328 
L 266.102975 319.566974 
L 266.340462 317.335551 
L 266.577949 317.432479 
L 266.815437 316.673399 
L 267.052924 316.994179 
L 267.290411 318.439504 
L 267.527898 318.447191 
L 268.24036 315.294968 
L 268.477847 315.205489 
L 268.952822 314.144692 
L 269.190309 314.090833 
L 269.427796 309.418377 
L 269.665283 310.088162 
L 270.140258 308.53671 
L 270.377745 308.96508 
L 270.615232 308.893697 
L 270.85272 308.468673 
L 271.090207 307.219722 
L 271.327694 304.010248 
L 271.565181 304.521938 
L 271.802669 305.691343 
L 272.040156 309.628066 
L 272.277643 310.354966 
L 272.51513 309.402209 
L 272.990105 305.034058 
L 273.227592 306.94033 
L 273.465079 306.710856 
L 273.702566 305.330124 
L 273.940054 305.067652 
L 274.177541 305.056075 
L 274.415028 306.024697 
L 274.652515 308.098764 
L 274.890003 307.624855 
L 275.12749 307.499298 
L 275.364977 309.468534 
L 275.602464 308.920584 
L 275.839951 309.258483 
L 276.314926 306.011678 
L 276.552413 306.41889 
L 276.7899 305.19063 
L 277.027388 306.315781 
L 277.264875 302.99606 
L 277.502362 305.992627 
L 277.977337 304.719507 
L 278.214824 305.354596 
L 278.452311 305.410316 
L 278.689798 304.915924 
L 279.164773 304.742713 
L 279.40226 304.393002 
L 279.639747 306.97049 
L 279.877234 306.222776 
L 280.114722 306.248942 
L 280.352209 306.664909 
L 280.827183 305.953984 
L 281.302158 306.547142 
L 281.539645 307.129201 
L 281.777132 306.920852 
L 282.01462 307.055815 
L 282.252107 305.433641 
L 282.489594 305.523236 
L 282.727081 307.0089 
L 282.964568 307.238282 
L 283.439543 308.269735 
L 283.914517 307.585945 
L 284.152005 307.834433 
L 284.389492 307.409804 
L 284.626979 307.902985 
L 284.864466 308.072712 
L 285.101954 307.860311 
L 285.339441 308.135521 
L 285.576928 306.718091 
L 285.814415 307.297211 
L 286.051902 306.469616 
L 286.28939 307.176447 
L 286.526877 307.172499 
L 286.764364 307.353294 
L 287.001851 307.183346 
L 287.239339 307.337934 
L 287.476826 307.339816 
L 287.9518 307.861536 
L 288.664262 307.609623 
L 288.901749 307.711094 
L 289.376724 306.013501 
L 289.614211 305.751626 
L 289.851698 305.959304 
L 290.089185 305.300161 
L 290.326673 304.228136 
L 290.56416 299.124496 
L 290.801647 299.491389 
L 291.039134 298.609317 
L 291.276622 298.558803 
L 291.514109 297.561053 
L 291.751596 295.510931 
L 291.989083 298.829564 
L 292.22657 297.923567 
L 292.464058 298.113741 
L 292.701545 295.570021 
L 292.939032 295.416067 
L 293.176519 296.254215 
L 293.414007 295.537006 
L 293.651494 295.905106 
L 293.888981 294.953804 
L 294.126468 297.151812 
L 294.601443 295.395551 
L 294.83893 295.467316 
L 295.076417 295.012155 
L 295.313904 294.884739 
L 295.551392 293.184952 
L 296.026366 295.517087 
L 296.263853 294.952578 
L 296.501341 296.296444 
L 296.738828 295.876498 
L 296.976315 295.956305 
L 297.213802 295.440406 
L 297.45129 297.360482 
L 297.688777 296.785915 
L 297.926264 297.561379 
L 298.163751 296.531431 
L 298.401239 296.698942 
L 298.638726 295.736976 
L 298.876213 295.881221 
L 299.1137 294.519608 
L 299.351187 297.135318 
L 299.588675 302.629268 
L 299.826162 301.376438 
L 300.063649 302.985254 
L 300.538624 302.045121 
L 300.776111 303.164121 
L 301.251085 302.075322 
L 301.72606 301.703811 
L 301.963547 302.260451 
L 302.201034 300.581895 
L 302.438521 300.036075 
L 302.676009 299.199556 
L 303.150983 299.34208 
L 303.38847 298.638091 
L 303.625958 299.371763 
L 303.863445 301.609378 
L 304.100932 301.25118 
L 304.338419 302.625086 
L 304.575907 300.209461 
L 304.813394 300.526056 
L 305.288368 300.137995 
L 305.525855 300.446446 
L 305.763343 299.811899 
L 306.00083 300.094646 
L 306.238317 300.870455 
L 306.713292 301.200086 
L 307.188266 300.053051 
L 307.425753 300.941182 
L 307.663241 300.637689 
L 308.375702 297.688469 
L 308.613189 297.275648 
L 308.850677 296.470964 
L 309.088164 297.079542 
L 309.325651 297.062585 
L 309.563138 296.753074 
L 309.800626 297.56737 
L 310.038113 297.398244 
L 310.2756 296.809437 
L 310.750575 294.774124 
L 310.988062 290.508871 
L 311.225549 289.840414 
L 311.463036 290.001897 
L 311.700523 289.172103 
L 311.938011 289.533538 
L 312.175498 289.326356 
L 312.412985 286.604755 
L 312.650472 288.404833 
L 313.362934 286.00881 
L 313.600421 286.215106 
L 313.837909 287.092362 
L 314.075396 285.212945 
L 314.312883 284.350797 
L 314.55037 277.552837 
L 314.787858 277.618496 
L 315.025345 281.060047 
L 315.262832 278.024235 
L 315.500319 278.716431 
L 315.737806 278.911103 
L 316.212781 274.278783 
L 316.450268 274.083867 
L 316.687755 275.257504 
L 316.925243 275.786578 
L 317.400217 267.843153 
L 317.637704 267.097615 
L 317.875192 267.03611 
L 318.112679 263.255646 
L 318.350166 263.157316 
L 318.587653 264.437005 
L 318.82514 264.464649 
L 319.062628 260.970371 
L 319.300115 262.734771 
L 319.537602 270.169009 
L 319.775089 270.367478 
L 320.250064 265.341983 
L 320.487551 258.533635 
L 320.725038 262.401596 
L 321.200013 259.381827 
L 321.4375 262.886866 
L 321.674987 260.750537 
L 321.912474 259.853207 
L 322.149962 260.574727 
L 322.387449 264.666672 
L 322.624936 263.57247 
L 323.099911 265.899399 
L 323.337398 262.398501 
L 323.574885 260.80623 
L 323.812372 260.316121 
L 324.04986 259.514964 
L 324.524834 243.588395 
L 324.762321 242.023989 
L 324.999808 238.583641 
L 325.237296 240.428862 
L 325.474783 243.598173 
L 325.71227 238.99168 
L 325.949757 241.538002 
L 326.187245 239.212992 
L 326.424732 234.846732 
L 326.662219 226.515834 
L 326.899706 227.290247 
L 327.137194 223.470818 
L 327.374681 222.165752 
L 327.612168 215.215609 
L 327.849655 214.45988 
L 328.087142 212.70917 
L 328.32463 199.767444 
L 328.562117 196.689596 
L 328.799604 200.497723 
L 329.274579 177.68754 
L 329.749553 159.010276 
L 329.98704 161.563081 
L 330.224528 170.485613 
L 330.699502 191.326326 
L 331.174477 166.579816 
L 331.411964 177.68282 
L 331.886938 182.543825 
L 332.124425 178.600845 
L 332.5994 183.688588 
L 332.836887 205.885801 
L 333.074374 195.637857 
L 333.311862 200.047727 
L 333.549349 199.005398 
L 333.786836 198.643376 
L 334.024323 197.686974 
L 334.261811 207.733914 
L 334.499298 193.47393 
L 334.736785 189.476928 
L 334.974272 189.69722 
L 335.211759 195.127366 
L 335.449247 193.139809 
L 335.924221 174.642734 
L 336.161708 177.209458 
L 336.636683 166.209944 
L 336.87417 167.914299 
L 337.111657 133.631569 
L 337.349145 132.293543 
L 337.586632 139.640458 
L 337.824119 125.579797 
L 338.299093 129.358342 
L 338.536581 121.781787 
L 338.774068 125.411855 
L 339.011555 119.513286 
L 339.249042 105.650112 
L 339.48653 107.855758 
L 339.724017 88.073394 
L 339.961504 87.079717 
L 340.198991 80.308626 
L 340.436479 95.974485 
L 340.673966 121.278164 
L 340.911453 117.137238 
L 341.14894 129.413172 
L 341.386427 132.957965 
L 341.623915 133.66923 
L 341.861402 138.608238 
L 342.098889 117.485516 
L 342.336376 123.372057 
L 342.573864 113.221929 
L 342.811351 122.515675 
L 343.048838 120.794555 
L 343.286325 120.864699 
L 343.523813 110.079712 
L 343.7613 105.191715 
L 343.998787 93.075073 
L 344.236274 87.507339 
L 344.473761 79.062099 
L 344.711249 81.285704 
L 344.948736 62.901062 
L 345.186223 72.024148 
L 345.42371 87.983768 
L 345.661198 83.763884 
L 345.898685 74.052157 
L 346.136172 78.809194 
L 346.373659 76.516492 
L 346.611147 76.671654 
L 346.848634 80.386298 
L 347.086121 94.461668 
L 347.323608 93.475445 
L 347.798583 107.741233 
L 348.03607 91.602818 
L 348.273557 87.672049 
L 348.511044 87.779065 
L 348.986019 73.832176 
L 349.223506 73.826814 
L 349.460993 72.994891 
L 349.698481 71.638704 
L 349.935968 80.008034 
L 350.173455 74.580239 
L 350.410942 73.173189 
L 350.64843 77.241786 
L 350.885917 87.317491 
L 351.123404 76.623195 
L 351.360891 76.994317 
L 351.598378 69.716462 
L 351.835866 67.781017 
L 352.073353 69.245358 
L 352.31084 52.275607 
L 352.548327 54.126585 
L 352.785815 53.166143 
L 353.023302 61.351208 
L 353.260789 65.530034 
L 353.498276 86.531307 
L 353.735764 88.843694 
L 353.973251 85.323929 
L 354.448225 107.468056 
L 354.685712 110.611081 
L 355.160687 120.432835 
L 355.398174 96.846788 
L 355.635661 92.092615 
L 355.873149 93.072319 
L 356.110636 99.04037 
L 356.348123 79.320383 
L 356.58561 78.954312 
L 356.823098 84.580989 
L 357.060585 81.905249 
L 357.298072 100.081918 
L 357.535559 80.85362 
L 357.773046 85.68361 
L 358.010534 81.171416 
L 358.248021 74.367658 
L 358.485508 77.053957 
L 358.722995 88.206595 
L 358.960483 84.235502 
L 359.19797 119.745203 
L 359.435457 117.08619 
L 359.672944 116.31365 
L 359.910432 130.981646 
L 360.147919 132.411282 
L 360.385406 146.130661 
L 360.622893 149.083251 
L 360.86038 176.850438 
L 361.097868 159.080181 
L 361.335355 175.429634 
L 361.572842 174.339334 
L 361.810329 187.341866 
L 362.047817 168.842515 
L 362.285304 170.270406 
L 362.522791 166.077441 
L 362.760278 170.107073 
L 362.997766 182.984154 
L 363.235253 188.068206 
L 363.47274 183.075709 
L 363.710227 175.297241 
L 363.947715 178.343001 
L 364.185202 174.158134 
L 364.422689 166.479044 
L 364.897663 183.668812 
L 365.135151 182.209594 
L 365.372638 193.029194 
L 365.610125 193.443209 
L 365.847612 175.239584 
L 366.0851 178.25993 
L 366.322587 175.289988 
L 366.560074 183.666186 
L 366.797561 167.000387 
L 367.035049 161.732638 
L 367.272536 160.849869 
L 367.510023 170.529701 
L 367.74751 171.909648 
L 367.984997 182.562775 
L 368.222485 183.368367 
L 368.459972 182.980904 
L 368.697459 201.885484 
L 369.172434 192.266166 
L 369.409921 187.850227 
L 369.647408 202.06841 
L 369.884895 199.490054 
L 370.122383 187.910364 
L 370.35987 188.922477 
L 370.597357 182.184217 
L 370.834844 186.071468 
L 371.072331 192.975558 
L 371.309819 191.448142 
L 371.784793 184.910638 
L 372.02228 192.158158 
L 372.259768 189.858589 
L 372.497255 191.644252 
L 372.734742 196.24139 
L 372.972229 191.913682 
L 373.209717 193.218106 
L 373.447204 189.835122 
L 373.684691 194.932339 
L 373.922178 197.065648 
L 374.159665 196.500042 
L 374.397153 201.396431 
L 374.63464 203.084902 
L 374.872127 202.56063 
L 375.109614 201.320842 
L 375.584589 210.672824 
L 375.822076 199.845356 
L 376.059563 198.893866 
L 376.534538 189.58947 
L 376.772025 184.617281 
L 377.246999 165.547468 
L 377.484487 162.778887 
L 377.721974 162.720054 
L 377.959461 152.250881 
L 378.196948 155.115295 
L 378.434436 162.877658 
L 378.90941 171.442033 
L 379.859359 141.343932 
L 380.096846 144.905618 
L 380.334334 132.837435 
L 380.571821 136.50577 
L 380.809308 136.465317 
L 381.046795 141.943333 
L 381.284282 126.12514 
L 381.52177 129.398629 
L 381.759257 129.633392 
L 382.234231 140.687901 
L 382.471719 140.190428 
L 382.946693 118.858449 
L 383.18418 120.89709 
L 383.659155 117.885521 
L 383.896642 126.53506 
L 384.134129 120.637153 
L 384.371616 130.125961 
L 384.609104 120.177048 
L 384.846591 120.911615 
L 385.084078 121.25275 
L 385.321565 129.595877 
L 385.559053 129.070788 
L 385.79654 121.171919 
L 386.271514 115.632793 
L 386.509002 116.012379 
L 386.746489 107.50972 
L 386.983976 103.372467 
L 387.221463 130.742183 
L 387.45895 134.125497 
L 387.696438 132.715123 
L 387.933925 139.801569 
L 388.171412 138.308859 
L 388.408899 134.257688 
L 388.646387 139.429438 
L 388.883874 129.419562 
L 389.121361 124.324621 
L 389.596336 128.596801 
L 389.833823 123.845071 
L 390.07131 128.631121 
L 390.308797 149.391628 
L 390.546284 159.498842 
L 390.783772 145.956751 
L 391.021259 139.74898 
L 391.258746 149.410669 
L 391.496233 149.989597 
L 391.733721 147.677082 
L 392.208695 157.896509 
L 392.446182 155.405952 
L 392.68367 144.93957 
L 392.921157 124.603876 
L 393.158644 126.509812 
L 393.396131 124.213658 
L 393.633618 119.922105 
L 393.871106 108.63131 
L 394.108593 90.549206 
L 394.34608 97.861068 
L 394.583567 97.100188 
L 394.821055 92.397668 
L 395.058542 93.322047 
L 395.296029 80.567902 
L 395.533516 87.354528 
L 395.771004 80.961315 
L 396.008491 81.335374 
L 396.245978 61.251739 
L 396.483465 64.550587 
L 396.95844 59.220406 
L 397.433414 40.573642 
L 397.670901 58.355026 
L 397.908389 65.490334 
L 398.145876 62.193451 
L 398.383363 64.368873 
L 398.62085 54.455032 
L 399.095825 75.878438 
L 399.570799 58.271386 
L 399.808287 59.865567 
L 400.283261 64.023037 
L 400.520748 53.577974 
L 400.758235 54.783038 
L 400.995723 61.917924 
L 401.23321 63.452978 
L 401.470697 61.564192 
L 401.708184 53.105144 
L 401.945672 33.174688 
L 402.183159 35.971638 
L 402.420646 45.263143 
L 402.658133 45.475944 
L 402.895621 49.208437 
L 403.133108 47.734345 
L 403.370595 43.046222 
L 403.608082 52.01982 
L 403.845569 67.986528 
L 404.083057 67.014573 
L 404.320544 83.118778 
L 404.795518 70.167918 
L 405.033006 74.712228 
L 405.270493 86.187656 
L 405.50798 80.171698 
L 405.745467 86.229321 
L 405.982955 81.555575 
L 406.220442 98.971475 
L 406.457929 93.117564 
L 406.695416 81.678841 
L 406.932903 79.055305 
L 407.170391 82.821272 
L 407.407878 81.766411 
L 407.645365 85.301435 
L 407.882852 98.837595 
L 408.12034 119.509375 
L 408.357827 118.718969 
L 408.595314 113.013297 
L 408.832801 112.461141 
L 409.070289 113.379148 
L 409.307776 126.694868 
L 409.545263 128.710629 
L 409.78275 118.748771 
L 410.020237 115.289822 
L 410.257725 131.088386 
L 410.495212 131.675265 
L 410.732699 120.938314 
L 411.207674 133.60487 
L 411.445161 130.565207 
L 411.682648 131.231594 
L 411.920135 130.417133 
L 412.157623 120.750797 
L 412.39511 122.199108 
L 412.632597 112.064148 
L 412.870084 111.887135 
L 413.107572 113.731411 
L 413.345059 111.946739 
L 413.582546 112.741626 
L 413.820033 127.086279 
L 414.05752 132.464624 
L 414.295008 129.017023 
L 414.532495 133.114578 
L 414.769982 126.625807 
L 415.007469 128.231556 
L 415.482444 135.036581 
L 415.719931 145.982624 
L 415.957418 147.900882 
L 416.194906 155.436323 
L 416.66988 153.773669 
L 416.907367 154.198335 
L 417.382342 144.195877 
L 417.619829 150.577302 
L 417.857316 148.188711 
L 418.094803 147.823466 
L 418.332291 148.122056 
L 418.569778 152.180352 
L 418.807265 151.592371 
L 419.044752 154.559981 
L 419.28224 159.561164 
L 419.519727 179.412938 
L 419.757214 186.12123 
L 419.994701 180.261479 
L 420.469676 177.07813 
L 420.707163 177.557057 
L 420.94465 176.212108 
L 421.419625 171.511608 
L 421.657112 172.548492 
L 421.894599 169.890104 
L 422.132086 168.667209 
L 422.369574 177.082923 
L 422.607061 176.13517 
L 422.844548 155.704395 
L 423.082035 155.985082 
L 423.319522 151.41938 
L 423.55701 144.707397 
L 424.031984 142.364014 
L 424.269471 146.000913 
L 424.506959 151.440515 
L 424.744446 152.208942 
L 424.981933 152.429657 
L 425.21942 150.599171 
L 425.456908 141.252726 
L 425.694395 144.135906 
L 425.931882 160.230581 
L 426.169369 162.61403 
L 426.406856 162.185417 
L 426.881831 176.508035 
L 427.119318 170.816612 
L 427.356805 175.467809 
L 427.83178 166.45341 
L 428.069267 166.966123 
L 428.306754 173.525387 
L 428.544242 147.749025 
L 428.781729 142.289555 
L 429.019216 144.313323 
L 429.256703 151.234379 
L 429.494191 166.813551 
L 429.731678 165.577343 
L 429.969165 170.186913 
L 430.206652 171.869527 
L 430.444139 168.695432 
L 430.681627 153.438392 
L 430.919114 165.404003 
L 431.156601 168.424184 
L 431.394088 167.911618 
L 431.631576 172.86785 
L 431.869063 164.326152 
L 432.10655 165.867854 
L 432.344037 157.382308 
L 432.581525 158.287443 
L 432.819012 154.292846 
L 433.056499 152.46192 
L 433.293986 156.893925 
L 433.531473 157.692246 
L 433.768961 151.671458 
L 434.006448 149.160556 
L 434.243935 144.140258 
L 434.481422 142.317319 
L 434.71891 141.602345 
L 434.956397 130.698168 
L 435.431371 127.66506 
L 435.668859 129.559777 
L 435.906346 136.723675 
L 436.143833 133.23116 
L 436.38132 135.17114 
L 436.618807 132.422997 
L 436.856295 131.628055 
L 437.093782 136.642275 
L 437.331269 147.685547 
L 437.568756 146.288908 
L 437.806244 152.005891 
L 438.043731 149.681495 
L 438.281218 152.381915 
L 438.518705 165.007064 
L 438.756193 162.161784 
L 438.99368 157.275127 
L 439.231167 163.062769 
L 439.468654 160.15794 
L 439.706141 160.764246 
L 439.943629 164.090178 
L 440.418603 155.695581 
L 440.65609 156.299022 
L 441.131065 163.980335 
L 441.368552 165.172399 
L 441.606039 165.254368 
L 441.843527 160.605246 
L 442.081014 171.609002 
L 442.318501 166.326949 
L 442.555988 163.822822 
L 443.030963 173.50146 
L 443.26845 169.956062 
L 443.505937 169.672914 
L 443.743424 173.334216 
L 443.980912 164.177528 
L 444.218399 178.859075 
L 444.693373 183.903868 
L 444.930861 190.685591 
L 445.168348 208.371308 
L 445.405835 204.958778 
L 445.643322 214.767146 
L 445.880809 214.243498 
L 446.118297 213.137168 
L 446.355784 209.291187 
L 446.593271 203.632192 
L 446.830758 210.411601 
L 447.068246 207.76536 
L 447.305733 215.782905 
L 447.54322 208.289604 
L 447.780707 213.524338 
L 448.018195 212.436177 
L 448.255682 208.24547 
L 448.493169 214.003016 
L 448.730656 211.386219 
L 448.968144 211.824445 
L 449.205631 213.211811 
L 449.443118 216.218652 
L 449.680605 215.338077 
L 449.918092 212.371633 
L 450.15558 201.651869 
L 450.393067 201.341996 
L 450.630554 210.711688 
L 450.868041 207.569663 
L 451.105529 211.1568 
L 451.580503 210.205971 
L 451.81799 203.324017 
L 452.055478 204.335588 
L 452.292965 208.759579 
L 452.530452 209.240736 
L 453.242914 224.985214 
L 453.480401 245.082171 
L 453.717888 246.401183 
L 453.955375 244.680486 
L 454.192863 254.980735 
L 454.43035 254.558456 
L 454.667837 261.392604 
L 454.905324 254.173986 
L 455.142812 253.956502 
L 455.380299 253.434434 
L 455.617786 256.835753 
L 455.855273 251.670337 
L 456.09276 250.985064 
L 456.330248 249.712655 
L 457.042709 255.455585 
L 457.280197 256.285792 
L 457.517684 257.786728 
L 457.755171 260.209308 
L 457.992658 260.336751 
L 458.230146 260.079054 
L 458.467633 255.687675 
L 458.70512 255.881095 
L 458.942607 254.197609 
L 459.180094 249.076878 
L 459.417582 248.637219 
L 459.655069 249.290202 
L 460.367531 259.952896 
L 460.605018 255.777871 
L 461.31748 251.179392 
L 461.554967 253.111275 
L 461.792454 245.090159 
L 462.029941 240.841877 
L 462.267428 241.583192 
L 462.504916 241.898629 
L 462.97989 245.185165 
L 463.217377 244.509735 
L 463.454865 250.373754 
L 463.692352 250.946999 
L 464.167326 238.705604 
L 464.404814 238.890127 
L 464.642301 239.58784 
L 464.879788 241.088841 
L 465.117275 241.195536 
L 465.354763 242.775376 
L 465.59225 243.394039 
L 465.829737 244.407291 
L 466.067224 241.312513 
L 466.304711 242.854526 
L 466.542199 241.845691 
L 466.779686 238.867311 
L 467.017173 241.900089 
L 467.25466 238.217873 
L 467.492148 238.171397 
L 467.729635 236.078202 
L 467.967122 235.978311 
L 468.204609 236.470642 
L 468.679584 238.520374 
L 468.917071 241.093065 
L 469.154558 241.672479 
L 469.392045 252.649618 
L 469.86702 249.56325 
L 470.104507 250.198853 
L 470.341994 249.591611 
L 470.579482 250.217133 
L 470.816969 249.249319 
L 471.054456 255.552492 
L 471.291943 256.578579 
L 471.529431 258.576042 
L 471.766918 255.373982 
L 472.004405 257.729934 
L 472.241892 256.540853 
L 472.479379 256.177123 
L 472.954354 257.564094 
L 473.191841 256.83724 
L 473.429328 257.656778 
L 473.666816 262.238621 
L 473.904303 260.110794 
L 474.14179 259.925068 
L 474.379277 250.282319 
L 474.616765 248.874975 
L 474.854252 248.457939 
L 475.091739 245.631875 
L 475.329226 255.380033 
L 475.566713 255.641476 
L 475.804201 258.179315 
L 476.041688 257.843808 
L 476.279175 256.175076 
L 476.516662 259.503542 
L 476.75415 258.91772 
L 476.991637 261.988911 
L 477.229124 263.603098 
L 477.466611 259.531536 
L 477.704099 260.07641 
L 477.941586 261.77163 
L 478.179073 262.405828 
L 478.41656 260.428811 
L 478.654047 260.955883 
L 478.891535 259.469627 
L 479.129022 258.781765 
L 479.603996 260.008451 
L 479.841484 261.268199 
L 480.316458 255.19136 
L 480.791433 256.98423 
L 481.02892 258.90493 
L 481.266407 259.517351 
L 481.503894 259.376998 
L 481.741382 260.810454 
L 481.978869 261.233834 
L 482.216356 260.735425 
L 482.453843 259.675597 
L 482.928818 261.157603 
L 483.403792 258.886559 
L 483.878767 260.819616 
L 484.116254 261.222917 
L 484.353741 260.664804 
L 484.591228 260.496889 
L 484.828716 258.810171 
L 485.066203 259.851086 
L 485.541177 253.153123 
L 485.778664 255.431135 
L 486.253639 252.927321 
L 486.728613 254.44427 
L 486.966101 254.493628 
L 487.203588 256.024991 
L 487.441075 255.787677 
L 487.678562 251.381929 
L 487.91605 250.74516 
L 488.391024 253.941087 
L 488.865998 276.138231 
L 489.103486 268.118781 
L 489.340973 270.715848 
L 489.57846 271.821031 
L 489.815947 273.916724 
L 490.290922 271.419456 
L 490.528409 272.430936 
L 491.240871 272.232999 
L 491.715845 276.577733 
L 492.19082 272.707023 
L 492.428307 272.736366 
L 492.903281 273.395335 
L 493.140769 273.487725 
L 493.378256 274.556229 
L 493.615743 273.486054 
L 493.85323 270.084661 
L 494.090718 271.031552 
L 494.328205 270.460281 
L 494.565692 271.30841 
L 494.803179 270.263666 
L 495.040666 270.995387 
L 495.278154 270.456315 
L 495.515641 271.590969 
L 495.753128 269.779544 
L 495.990615 270.251134 
L 496.46559 270.387263 
L 496.703077 269.906638 
L 496.940564 267.204263 
L 497.178052 267.042877 
L 497.415539 269.161908 
L 497.653026 272.534141 
L 497.890513 271.840275 
L 498.128001 272.014744 
L 498.365488 273.51098 
L 498.602975 271.31749 
L 498.840462 271.734774 
L 499.077949 271.674573 
L 499.315437 271.831525 
L 499.552924 271.592714 
L 499.790411 271.619835 
L 500.027898 271.25403 
L 500.502873 272.9803 
L 500.74036 272.558315 
L 501.215335 273.004162 
L 501.690309 272.341474 
L 501.927796 272.381963 
L 502.165283 271.519935 
L 502.402771 271.644514 
L 502.640258 271.102834 
L 502.877745 271.088218 
L 503.35272 269.953095 
L 503.590207 268.779136 
L 503.827694 266.48233 
L 504.540156 252.185437 
L 504.777643 252.634359 
L 505.01513 251.276621 
L 505.252617 251.31476 
L 505.490105 253.536987 
L 505.727592 251.666031 
L 505.965079 244.192957 
L 506.202566 243.717841 
L 506.440054 243.986766 
L 506.677541 242.980731 
L 506.915028 244.381382 
L 507.152515 242.118482 
L 507.390003 242.518432 
L 507.62749 242.302426 
L 507.864977 242.526364 
L 508.102464 239.031462 
L 508.339951 243.423979 
L 508.577439 242.017773 
L 508.814926 239.270245 
L 509.052413 240.454359 
L 509.2899 240.560355 
L 509.527388 241.112575 
L 509.764875 242.880913 
L 510.002362 243.800177 
L 510.239849 241.430142 
L 510.477337 242.957383 
L 510.714824 248.22392 
L 510.952311 249.012968 
L 511.189798 247.980252 
L 511.427285 248.368872 
L 511.664773 248.275335 
L 511.90226 246.335318 
L 512.139747 236.524664 
L 512.377234 239.741707 
L 512.614722 235.312998 
L 512.852209 234.957264 
L 513.089696 236.431585 
L 513.327183 234.074128 
L 513.802158 237.084044 
L 514.039645 238.218579 
L 514.277132 241.741163 
L 514.51462 241.848115 
L 514.752107 240.034385 
L 514.989594 240.21462 
L 515.227081 241.979837 
L 515.464568 239.633232 
L 515.702056 240.437456 
L 515.939543 245.668398 
L 516.17703 245.712256 
L 516.414517 245.326023 
L 516.652005 245.35308 
L 516.889492 246.340184 
L 517.126979 248.698504 
L 517.364466 255.068305 
L 517.601954 255.894591 
L 517.839441 253.801974 
L 518.551902 234.46464 
L 518.78939 236.204452 
L 519.026877 233.022848 
L 519.264364 221.876692 
L 519.501851 224.029877 
L 519.739339 218.98692 
L 519.976826 220.262891 
L 520.214313 218.342255 
L 520.4518 222.424294 
L 520.689288 217.598801 
L 520.926775 221.550669 
L 521.164262 221.543985 
L 521.401749 219.195379 
L 521.639236 223.2119 
L 521.876724 222.609065 
L 522.114211 217.530787 
L 522.351698 219.010956 
L 522.589185 216.919487 
L 522.826673 217.236549 
L 523.06416 218.231824 
L 523.301647 220.154847 
L 523.539134 218.378576 
L 523.776622 218.332064 
L 524.251596 219.517243 
L 524.489083 219.414129 
L 524.72657 217.603135 
L 524.964058 211.398466 
L 525.201545 208.662259 
L 525.439032 209.113559 
L 525.676519 207.891298 
L 525.914007 207.484058 
L 526.151494 208.270039 
L 526.388981 208.284803 
L 526.626468 212.375921 
L 526.863956 207.898413 
L 527.101443 215.301508 
L 527.33893 218.012395 
L 527.576417 222.567795 
L 527.813904 220.026614 
L 528.051392 221.089527 
L 528.288879 221.399988 
L 528.526366 217.722784 
L 528.763853 217.18171 
L 529.001341 212.240811 
L 529.476315 213.299886 
L 529.713802 213.204374 
L 529.95129 218.738285 
L 530.426264 214.438314 
L 530.663751 215.183843 
L 530.901239 211.955956 
L 531.6137 220.605872 
L 532.088675 220.946759 
L 532.326162 223.865773 
L 532.563649 224.786176 
L 532.801136 224.884479 
L 533.038624 224.195533 
L 533.276111 222.963678 
L 533.513598 223.697198 
L 533.751085 221.994808 
L 533.988573 224.658227 
L 534.22606 224.38596 
L 534.463547 223.260331 
L 534.701034 225.026686 
L 534.938521 224.568592 
L 535.176009 222.808397 
L 535.413496 226.99634 
L 535.650983 226.331706 
L 536.125958 224.488321 
L 536.363445 218.766122 
L 536.600932 220.36326 
L 536.838419 220.567908 
L 537.313394 224.715747 
L 537.550881 222.696221 
L 537.788368 223.51632 
L 538.025855 223.30978 
L 538.263343 229.697962 
L 538.50083 222.747021 
L 538.738317 226.943787 
L 538.975804 226.181236 
L 539.213292 226.312113 
L 539.450779 229.269523 
L 539.688266 228.851495 
L 539.925753 229.028563 
L 540.163241 228.952277 
L 540.400728 232.684926 
L 540.638215 230.561506 
L 540.875702 227.030916 
L 541.113189 226.169677 
L 541.350677 226.989784 
L 541.588164 224.569758 
L 542.063138 209.638896 
L 542.300626 210.179556 
L 542.538113 206.497982 
L 542.7756 207.187929 
L 543.013087 207.509618 
L 543.250575 208.492692 
L 543.488062 206.53232 
L 543.725549 209.36179 
L 543.963036 207.673723 
L 544.200523 207.523767 
L 544.438011 206.993398 
L 544.675498 206.849125 
L 544.912985 204.331071 
L 545.625447 210.193392 
L 545.862934 208.158304 
L 546.100421 208.392048 
L 546.337909 208.962281 
L 546.812883 206.848271 
L 547.05037 207.926177 
L 547.287858 202.828665 
L 547.525345 208.196838 
L 548.000319 208.596099 
L 548.237806 209.081425 
L 548.475294 210.441477 
L 548.712781 210.171835 
L 548.950268 210.744896 
L 549.187755 210.196184 
L 549.425243 210.839912 
L 549.66273 209.369814 
L 549.900217 213.63633 
L 550.137704 213.399061 
L 550.375192 212.799329 
L 550.612679 213.477569 
L 550.850166 212.967271 
L 551.087653 212.790184 
L 551.562628 213.386271 
L 551.800115 211.291515 
L 552.037602 213.753647 
L 552.275089 213.628039 
L 552.512577 214.119681 
L 552.750064 214.26994 
L 552.987551 214.271216 
L 553.225038 213.619115 
L 553.462526 210.869576 
L 553.9375 212.448562 
L 554.174987 212.598408 
L 554.412474 212.512619 
L 554.649962 213.138059 
L 554.887449 212.547976 
L 555.124936 213.667206 
L 555.362423 215.869832 
L 555.599911 225.446348 
L 555.837398 228.337286 
L 556.074885 228.118003 
L 556.312372 227.679051 
L 556.787347 228.421431 
L 557.024834 226.541202 
L 557.262321 227.806963 
L 557.499808 228.346164 
L 557.737296 228.530457 
L 557.974783 228.148613 
L 558.21227 228.071252 
L 558.449757 220.450187 
L 558.687245 222.472109 
L 558.924732 228.89237 
L 559.162219 229.506984 
L 559.637194 228.7133 
L 559.874681 229.452026 
L 560.349655 229.730215 
L 560.587142 227.44114 
L 560.82463 229.013736 
L 561.062117 229.060633 
L 561.299604 229.358901 
L 561.537091 232.506398 
L 562.012066 227.496943 
L 562.249553 226.033364 
L 562.48704 225.70892 
L 562.962015 226.059154 
L 563.199502 225.024547 
L 563.436989 222.877072 
L 563.674477 223.248946 
L 563.911964 225.901936 
L 564.386938 225.846665 
L 564.624425 227.362962 
L 564.861913 227.167155 
L 565.0994 227.549 
L 565.336887 226.912203 
L 565.574374 223.768196 
L 565.811862 224.284462 
L 566.049349 224.020301 
L 566.286836 219.245113 
L 566.524323 221.374391 
L 566.761811 221.848258 
L 566.999298 220.111723 
L 567.236785 221.914381 
L 567.474272 219.419757 
L 567.711759 219.315202 
L 567.949247 219.473853 
L 568.661708 224.464973 
L 568.899196 225.012712 
L 569.136683 224.516424 
L 569.37417 224.519564 
L 569.611657 223.118996 
L 569.849145 216.726839 
L 570.324119 217.625271 
L 570.561606 215.78509 
L 570.799093 211.257591 
L 571.036581 210.150737 
L 571.274068 209.795903 
L 571.511555 195.259575 
L 571.98653 188.600549 
L 572.461504 191.388189 
L 572.698991 190.543118 
L 572.936479 188.432919 
L 573.173966 188.602697 
L 573.411453 187.825107 
L 573.64894 184.208003 
L 573.886427 186.553736 
L 574.123915 187.521706 
L 574.361402 185.877048 
L 574.836376 186.087755 
L 575.073864 184.178348 
L 575.073864 184.178348 
" clip-path="url(#p19ebc5cebe)" style="fill: none; stroke: #000000; stroke-width: 1.5; stroke-linecap: round"/>
   </g>
   <g id="line2d_2">
    <path d="M 313.837909 285.174429 
L 314.075396 284.486189 
L 314.312883 283.708136 
L 314.55037 283.001111 
L 314.787858 281.589837 
L 315.025345 280.582102 
L 315.262832 279.493689 
L 315.500319 278.415238 
L 315.737806 277.230253 
L 315.975294 275.919245 
L 316.212781 274.618252 
L 316.450268 273.300505 
L 316.687755 272.035419 
L 316.925243 270.663388 
L 317.16273 269.271322 
L 317.400217 267.865078 
L 317.637704 266.466099 
L 317.875192 265.07802 
L 318.112679 263.670636 
L 318.350166 262.25915 
L 318.587653 260.847235 
L 318.82514 259.461895 
L 319.062628 258.091981 
L 319.300115 256.738005 
L 319.537602 255.402876 
L 319.775089 254.093253 
L 320.012577 252.820118 
L 320.250064 251.584013 
L 320.487551 250.387687 
L 320.725038 249.232715 
" clip-path="url(#p19ebc5cebe)" style="fill: none; stroke: #ee82ee; stroke-width: 3; stroke-linecap: round"/>
   </g>
   <g id="patch_3">
    <path d="M 42.4375 350.694687 
L 42.4375 18.054688 
" style="fill: none; stroke: #808080; stroke-width: 1.25; stroke-linejoin: miter; stroke-linecap: square"/>
   </g>
   <g id="patch_4">
    <path d="M 600.4375 350.694687 
L 600.4375 18.054688 
" style="fill: none; stroke: #808080; stroke-width: 1.25; stroke-linejoin: miter; stroke-linecap: square"/>
   </g>
   <g id="patch_5">
    <path d="M 42.4375 350.694687 
L 600.4375 350.694687 
" style="fill: none; stroke: #808080; stroke-width: 1.25; stroke-linejoin: miter; stroke-linecap: square"/>
   </g>
   <g id="patch_6">
    <path d="M 42.4375 18.054687 
L 600.4375 18.054687 
" style="fill: none; stroke: #808080; stroke-width: 1.25; stroke-linejoin: miter; stroke-linecap: square"/>
   </g>
   <g id="matplotlib.axis_1">
    <g id="xtick_1">
     <g id="line2d_3">
      <path d="M 67.801136 350.694687 
L 67.801136 18.054687 
" clip-path="url(#p19ebc5cebe)" style="fill: none; stroke: #ffffff; stroke-width: 0.5; stroke-linecap: round"/>
     </g>
     <g id="text_1">
      <!-- 2018 -->
      <g style="fill: #262626" transform="translate(61.163558 383.045506) rotate(-45) scale(0.11 -0.11)">
       <defs>
        <path id="HelveticaNeue-32" d="M 282 2931 
L 826 2931 
Q 819 3136 867 3337 
Q 915 3539 1024 3699 
Q 1133 3859 1302 3958 
Q 1472 4058 1709 4058 
Q 1888 4058 2048 4000 
Q 2208 3942 2326 3833 
Q 2445 3725 2515 3574 
Q 2586 3424 2586 3238 
Q 2586 3002 2512 2822 
Q 2438 2643 2294 2489 
Q 2150 2336 1932 2185 
Q 1715 2035 1427 1856 
Q 1190 1715 972 1555 
Q 755 1395 582 1184 
Q 410 973 298 688 
Q 186 403 154 0 
L 3117 0 
L 3117 480 
L 787 480 
Q 826 691 950 854 
Q 1075 1018 1251 1158 
Q 1427 1299 1638 1424 
Q 1850 1549 2061 1677 
Q 2272 1811 2470 1958 
Q 2669 2106 2822 2288 
Q 2976 2470 3069 2700 
Q 3162 2931 3162 3232 
Q 3162 3552 3050 3795 
Q 2938 4038 2746 4201 
Q 2554 4365 2294 4451 
Q 2035 4538 1741 4538 
Q 1382 4538 1100 4416 
Q 819 4294 630 4080 
Q 442 3866 352 3571 
Q 262 3277 282 2931 
z
" transform="scale(0.015625)"/>
        <path id="HelveticaNeue-30" d="M 845 2234 
Q 845 2400 848 2601 
Q 851 2803 880 3004 
Q 909 3206 963 3398 
Q 1018 3590 1123 3734 
Q 1229 3878 1389 3968 
Q 1549 4058 1779 4058 
Q 2010 4058 2170 3968 
Q 2330 3878 2435 3734 
Q 2541 3590 2595 3398 
Q 2650 3206 2678 3004 
Q 2707 2803 2710 2601 
Q 2714 2400 2714 2234 
Q 2714 1978 2698 1661 
Q 2682 1344 2595 1065 
Q 2509 787 2317 595 
Q 2125 403 1779 403 
Q 1434 403 1242 595 
Q 1050 787 963 1065 
Q 877 1344 861 1661 
Q 845 1978 845 2234 
z
M 269 2227 
Q 269 1978 281 1709 
Q 294 1440 345 1184 
Q 397 928 493 701 
Q 589 474 755 301 
Q 922 128 1174 29 
Q 1427 -70 1779 -70 
Q 2138 -70 2387 29 
Q 2637 128 2803 301 
Q 2970 474 3066 701 
Q 3162 928 3213 1184 
Q 3264 1440 3277 1709 
Q 3290 1978 3290 2227 
Q 3290 2477 3277 2745 
Q 3264 3014 3213 3270 
Q 3162 3526 3066 3756 
Q 2970 3987 2803 4160 
Q 2637 4333 2384 4435 
Q 2131 4538 1779 4538 
Q 1427 4538 1174 4435 
Q 922 4333 755 4160 
Q 589 3987 493 3756 
Q 397 3526 345 3270 
Q 294 3014 281 2745 
Q 269 2477 269 2227 
z
" transform="scale(0.015625)"/>
        <path id="HelveticaNeue-31" d="M 2278 0 
L 2278 4538 
L 1862 4538 
Q 1818 4282 1696 4115 
Q 1574 3949 1398 3853 
Q 1222 3757 1004 3721 
Q 787 3686 557 3686 
L 557 3251 
L 1734 3251 
L 1734 0 
L 2278 0 
z
" transform="scale(0.015625)"/>
        <path id="HelveticaNeue-38" d="M 992 3360 
Q 992 3533 1056 3661 
Q 1120 3789 1225 3878 
Q 1331 3968 1478 4013 
Q 1626 4058 1786 4058 
Q 2118 4058 2332 3882 
Q 2547 3706 2547 3360 
Q 2547 3014 2336 2822 
Q 2125 2630 1798 2630 
Q 1632 2630 1485 2675 
Q 1338 2720 1229 2809 
Q 1120 2899 1056 3036 
Q 992 3174 992 3360 
z
M 416 3379 
Q 416 3072 589 2813 
Q 762 2554 1050 2438 
Q 666 2304 461 2006 
Q 256 1709 256 1306 
Q 256 960 374 701 
Q 493 442 701 269 
Q 909 96 1190 13 
Q 1472 -70 1798 -70 
Q 2112 -70 2387 19 
Q 2662 109 2864 285 
Q 3066 461 3184 717 
Q 3302 973 3302 1306 
Q 3302 1728 3104 2019 
Q 2906 2310 2496 2438 
Q 2784 2566 2953 2819 
Q 3123 3072 3123 3379 
Q 3123 3597 3046 3805 
Q 2970 4013 2806 4176 
Q 2643 4339 2380 4438 
Q 2118 4538 1747 4538 
Q 1485 4538 1245 4461 
Q 1005 4384 819 4237 
Q 634 4090 525 3875 
Q 416 3661 416 3379 
z
M 832 1280 
Q 832 1478 905 1638 
Q 979 1798 1110 1913 
Q 1242 2029 1418 2089 
Q 1594 2150 1792 2150 
Q 1984 2150 2153 2083 
Q 2323 2016 2451 1901 
Q 2579 1786 2652 1629 
Q 2726 1472 2726 1286 
Q 2726 1094 2659 934 
Q 2592 774 2467 656 
Q 2342 538 2172 470 
Q 2003 403 1798 403 
Q 1376 403 1104 636 
Q 832 870 832 1280 
z
" transform="scale(0.015625)"/>
       </defs>
       <use xlink:href="#HelveticaNeue-32"/>
       <use xlink:href="#HelveticaNeue-30" x="55.599991"/>
       <use xlink:href="#HelveticaNeue-31" x="111.199982"/>
       <use xlink:href="#HelveticaNeue-38" x="166.799973"/>
      </g>
     </g>
    </g>
    <g id="xtick_2">
     <g id="line2d_4">
      <path d="M 154.483976 350.694687 
L 154.483976 18.054687 
" clip-path="url(#p19ebc5cebe)" style="fill: none; stroke: #ffffff; stroke-width: 0.5; stroke-linecap: round"/>
     </g>
     <g id="text_2">
      <!-- 2019 -->
      <g style="fill: #262626" transform="translate(147.846398 383.045506) rotate(-45) scale(0.11 -0.11)">
       <defs>
        <path id="HelveticaNeue-39" d="M 858 1094 
L 314 1094 
Q 365 506 742 218 
Q 1120 -70 1690 -70 
Q 2515 -70 2889 560 
Q 3264 1190 3264 2368 
Q 3264 3014 3139 3433 
Q 3014 3853 2803 4096 
Q 2592 4339 2310 4438 
Q 2029 4538 1709 4538 
Q 1382 4538 1107 4429 
Q 832 4320 633 4125 
Q 435 3930 326 3658 
Q 218 3386 218 3059 
Q 218 2726 310 2444 
Q 403 2163 585 1964 
Q 768 1766 1037 1654 
Q 1306 1542 1651 1542 
Q 1984 1542 2265 1712 
Q 2547 1882 2701 2170 
L 2714 2157 
Q 2688 1267 2438 835 
Q 2189 403 1690 403 
Q 1363 403 1126 582 
Q 890 762 858 1094 
z
M 2618 3021 
Q 2618 2822 2554 2640 
Q 2490 2458 2368 2320 
Q 2246 2182 2073 2102 
Q 1901 2022 1690 2022 
Q 1491 2022 1328 2102 
Q 1165 2182 1046 2316 
Q 928 2451 861 2624 
Q 794 2797 794 2982 
Q 794 3194 842 3386 
Q 890 3578 995 3728 
Q 1101 3878 1270 3968 
Q 1440 4058 1683 4058 
Q 1914 4058 2086 3974 
Q 2259 3891 2377 3747 
Q 2496 3603 2557 3417 
Q 2618 3232 2618 3021 
z
" transform="scale(0.015625)"/>
       </defs>
       <use xlink:href="#HelveticaNeue-32"/>
       <use xlink:href="#HelveticaNeue-30" x="55.599991"/>
       <use xlink:href="#HelveticaNeue-31" x="111.199982"/>
       <use xlink:href="#HelveticaNeue-39" x="166.799973"/>
      </g>
     </g>
    </g>
    <g id="xtick_3">
     <g id="line2d_5">
      <path d="M 241.166816 350.694687 
L 241.166816 18.054687 
" clip-path="url(#p19ebc5cebe)" style="fill: none; stroke: #ffffff; stroke-width: 0.5; stroke-linecap: round"/>
     </g>
     <g id="text_3">
      <!-- 2020 -->
      <g style="fill: #262626" transform="translate(234.529237 383.045506) rotate(-45) scale(0.11 -0.11)">
       <use xlink:href="#HelveticaNeue-32"/>
       <use xlink:href="#HelveticaNeue-30" x="55.599991"/>
       <use xlink:href="#HelveticaNeue-32" x="111.199982"/>
       <use xlink:href="#HelveticaNeue-30" x="166.799973"/>
      </g>
     </g>
    </g>
    <g id="xtick_4">
     <g id="line2d_6">
      <path d="M 328.087142 350.694687 
L 328.087142 18.054687 
" clip-path="url(#p19ebc5cebe)" style="fill: none; stroke: #ffffff; stroke-width: 0.5; stroke-linecap: round"/>
     </g>
     <g id="text_4">
      <!-- 2021 -->
      <g style="fill: #262626" transform="translate(321.449564 383.045506) rotate(-45) scale(0.11 -0.11)">
       <use xlink:href="#HelveticaNeue-32"/>
       <use xlink:href="#HelveticaNeue-30" x="55.599991"/>
       <use xlink:href="#HelveticaNeue-32" x="111.199982"/>
       <use xlink:href="#HelveticaNeue-31" x="166.799973"/>
      </g>
     </g>
    </g>
    <g id="xtick_5">
     <g id="line2d_7">
      <path d="M 414.769982 350.694687 
L 414.769982 18.054687 
" clip-path="url(#p19ebc5cebe)" style="fill: none; stroke: #ffffff; stroke-width: 0.5; stroke-linecap: round"/>
     </g>
     <g id="text_5">
      <!-- 2022 -->
      <g style="fill: #262626" transform="translate(408.132404 383.045506) rotate(-45) scale(0.11 -0.11)">
       <use xlink:href="#HelveticaNeue-32"/>
       <use xlink:href="#HelveticaNeue-30" x="55.599991"/>
       <use xlink:href="#HelveticaNeue-32" x="111.199982"/>
       <use xlink:href="#HelveticaNeue-32" x="166.799973"/>
      </g>
     </g>
    </g>
    <g id="xtick_6">
     <g id="line2d_8">
      <path d="M 501.452822 350.694687 
L 501.452822 18.054687 
" clip-path="url(#p19ebc5cebe)" style="fill: none; stroke: #ffffff; stroke-width: 0.5; stroke-linecap: round"/>
     </g>
     <g id="text_6">
      <!-- 2023 -->
      <g style="fill: #262626" transform="translate(494.815244 383.045506) rotate(-45) scale(0.11 -0.11)">
       <defs>
        <path id="HelveticaNeue-33" d="M 1395 2592 
L 1395 2131 
Q 1549 2150 1722 2150 
Q 1926 2150 2102 2096 
Q 2278 2042 2406 1930 
Q 2534 1818 2611 1654 
Q 2688 1491 2688 1280 
Q 2688 1075 2608 912 
Q 2528 749 2393 637 
Q 2259 525 2080 464 
Q 1901 403 1702 403 
Q 1235 403 992 681 
Q 749 960 736 1402 
L 192 1402 
Q 186 1050 291 774 
Q 397 499 595 310 
Q 794 122 1075 26 
Q 1357 -70 1702 -70 
Q 2022 -70 2307 16 
Q 2592 102 2803 275 
Q 3014 448 3139 707 
Q 3264 966 3264 1306 
Q 3264 1715 3062 2016 
Q 2861 2317 2445 2406 
L 2445 2419 
Q 2714 2541 2893 2777 
Q 3072 3014 3072 3322 
Q 3072 3635 2966 3865 
Q 2861 4096 2675 4243 
Q 2490 4390 2237 4464 
Q 1984 4538 1690 4538 
Q 1350 4538 1091 4429 
Q 832 4320 659 4128 
Q 486 3936 393 3667 
Q 301 3398 288 3072 
L 832 3072 
Q 832 3270 883 3449 
Q 934 3629 1040 3763 
Q 1146 3898 1309 3978 
Q 1472 4058 1690 4058 
Q 2035 4058 2265 3875 
Q 2496 3693 2496 3328 
Q 2496 3149 2425 3008 
Q 2355 2867 2236 2774 
Q 2118 2682 1961 2634 
Q 1805 2586 1632 2586 
L 1517 2586 
Q 1485 2586 1453 2586 
Q 1427 2586 1395 2592 
z
" transform="scale(0.015625)"/>
       </defs>
       <use xlink:href="#HelveticaNeue-32"/>
       <use xlink:href="#HelveticaNeue-30" x="55.599991"/>
       <use xlink:href="#HelveticaNeue-32" x="111.199982"/>
       <use xlink:href="#HelveticaNeue-33" x="166.799973"/>
      </g>
     </g>
    </g>
    <g id="xtick_7">
     <g id="line2d_9">
      <path d="M 588.135661 350.694687 
L 588.135661 18.054687 
" clip-path="url(#p19ebc5cebe)" style="fill: none; stroke: #ffffff; stroke-width: 0.5; stroke-linecap: round"/>
     </g>
     <g id="text_7">
      <!-- 2024 -->
      <g style="fill: #262626" transform="translate(581.498083 383.045506) rotate(-45) scale(0.11 -0.11)">
       <defs>
        <path id="HelveticaNeue-34" d="M 2170 1542 
L 646 1542 
L 2157 3763 
L 2170 3763 
L 2170 1542 
z
M 2682 1542 
L 2682 4538 
L 2246 4538 
L 179 1587 
L 179 1062 
L 2170 1062 
L 2170 0 
L 2682 0 
L 2682 1062 
L 3296 1062 
L 3296 1542 
L 2682 1542 
z
" transform="scale(0.015625)"/>
       </defs>
       <use xlink:href="#HelveticaNeue-32"/>
       <use xlink:href="#HelveticaNeue-30" x="55.599991"/>
       <use xlink:href="#HelveticaNeue-32" x="111.199982"/>
       <use xlink:href="#HelveticaNeue-34" x="166.799973"/>
      </g>
     </g>
    </g>
    <g id="text_8">
     <!-- Date -->
     <g style="fill: #262626" transform="translate(304.6925 401.00305) scale(0.16 -0.16)">
      <defs>
       <path id="HelveticaNeue-44" d="M 1107 512 
L 1107 4058 
L 2131 4058 
Q 2554 4058 2842 3939 
Q 3130 3821 3312 3593 
Q 3494 3366 3574 3043 
Q 3654 2720 3654 2310 
Q 3654 1888 3568 1590 
Q 3482 1293 3347 1094 
Q 3213 896 3043 781 
Q 2874 666 2701 605 
Q 2528 544 2374 528 
Q 2221 512 2118 512 
L 1107 512 
z
M 499 4570 
L 499 0 
L 2067 0 
Q 2637 0 3053 160 
Q 3469 320 3737 624 
Q 4006 928 4134 1373 
Q 4262 1818 4262 2394 
Q 4262 3494 3692 4032 
Q 3123 4570 2067 4570 
L 499 4570 
z
" transform="scale(0.015625)"/>
       <path id="HelveticaNeue-61" d="M 3341 13 
Q 3200 -70 2950 -70 
Q 2739 -70 2614 48 
Q 2490 166 2490 435 
Q 2266 166 1968 48 
Q 1670 -70 1325 -70 
Q 1101 -70 899 -19 
Q 698 32 550 141 
Q 403 250 316 426 
Q 230 602 230 851 
Q 230 1133 326 1312 
Q 422 1491 579 1603 
Q 736 1715 937 1772 
Q 1139 1830 1350 1869 
Q 1574 1914 1776 1936 
Q 1978 1958 2131 2000 
Q 2285 2042 2374 2122 
Q 2464 2202 2464 2355 
Q 2464 2534 2397 2643 
Q 2330 2752 2224 2809 
Q 2118 2867 1987 2886 
Q 1856 2906 1728 2906 
Q 1382 2906 1152 2774 
Q 922 2643 902 2278 
L 358 2278 
Q 371 2586 486 2797 
Q 602 3008 794 3139 
Q 986 3270 1232 3328 
Q 1478 3386 1760 3386 
Q 1984 3386 2205 3354 
Q 2426 3322 2605 3222 
Q 2784 3123 2893 2944 
Q 3002 2765 3002 2477 
L 3002 774 
Q 3002 582 3024 492 
Q 3046 403 3174 403 
Q 3245 403 3341 435 
L 3341 13 
z
M 2458 1709 
Q 2355 1632 2188 1597 
Q 2022 1562 1840 1539 
Q 1658 1517 1472 1488 
Q 1286 1459 1139 1395 
Q 992 1331 899 1212 
Q 806 1094 806 890 
Q 806 755 860 662 
Q 915 570 1001 512 
Q 1088 454 1203 428 
Q 1318 403 1446 403 
Q 1715 403 1907 476 
Q 2099 550 2220 662 
Q 2342 774 2400 905 
Q 2458 1037 2458 1152 
L 2458 1709 
z
" transform="scale(0.015625)"/>
       <path id="HelveticaNeue-74" d="M 1165 3309 
L 1165 4301 
L 621 4301 
L 621 3309 
L 58 3309 
L 58 2829 
L 621 2829 
L 621 723 
Q 621 493 665 352 
Q 710 211 803 134 
Q 896 58 1046 29 
Q 1197 0 1408 0 
L 1824 0 
L 1824 480 
L 1574 480 
Q 1446 480 1366 489 
Q 1286 499 1241 531 
Q 1197 563 1181 620 
Q 1165 678 1165 774 
L 1165 2829 
L 1824 2829 
L 1824 3309 
L 1165 3309 
z
" transform="scale(0.015625)"/>
       <path id="HelveticaNeue-65" d="M 2707 1971 
L 806 1971 
Q 819 2163 889 2332 
Q 960 2502 1081 2630 
Q 1203 2758 1372 2832 
Q 1542 2906 1754 2906 
Q 1958 2906 2128 2832 
Q 2298 2758 2422 2633 
Q 2547 2509 2620 2336 
Q 2694 2163 2707 1971 
z
M 3232 1050 
L 2694 1050 
Q 2624 723 2403 563 
Q 2182 403 1837 403 
Q 1568 403 1369 492 
Q 1171 582 1043 732 
Q 915 883 857 1078 
Q 800 1274 806 1491 
L 3283 1491 
Q 3296 1792 3229 2125 
Q 3162 2458 2986 2739 
Q 2810 3021 2518 3203 
Q 2227 3386 1786 3386 
Q 1446 3386 1161 3258 
Q 877 3130 669 2899 
Q 461 2669 345 2355 
Q 230 2042 230 1664 
Q 243 1286 342 966 
Q 442 646 640 416 
Q 838 186 1129 58 
Q 1421 -70 1818 -70 
Q 2381 -70 2752 211 
Q 3123 493 3232 1050 
z
" transform="scale(0.015625)"/>
      </defs>
      <use xlink:href="#HelveticaNeue-44"/>
      <use xlink:href="#HelveticaNeue-61" x="70.399994"/>
      <use xlink:href="#HelveticaNeue-74" x="124.099991"/>
      <use xlink:href="#HelveticaNeue-65" x="155.599976"/>
     </g>
    </g>
   </g>
   <g id="matplotlib.axis_2">
    <g id="ytick_1">
     <g id="line2d_10">
      <path d="M 42.4375 303.782349 
L 600.4375 303.782349 
" clip-path="url(#p19ebc5cebe)" style="fill: none; stroke: #ffffff; stroke-width: 0.5; stroke-linecap: round"/>
     </g>
     <g id="text_9">
      <!-- $\mathdefault{1}$ -->
      <g style="fill: #262626" transform="translate(26.7775 307.709693) scale(0.11 -0.11)">
       <use xlink:href="#HelveticaNeue-31" transform="translate(0 0.09375)"/>
      </g>
     </g>
    </g>
    <g id="ytick_2">
     <g id="line2d_11">
      <path d="M 42.4375 256.77478 
L 600.4375 256.77478 
" clip-path="url(#p19ebc5cebe)" style="fill: none; stroke: #ffffff; stroke-width: 0.5; stroke-linecap: round"/>
     </g>
     <g id="text_10">
      <!-- $\mathdefault{2}$ -->
      <g style="fill: #262626" transform="translate(26.7775 260.702124) scale(0.11 -0.11)">
       <use xlink:href="#HelveticaNeue-32" transform="translate(0 0.09375)"/>
      </g>
     </g>
    </g>
    <g id="ytick_3">
     <g id="line2d_12">
      <path d="M 42.4375 209.767212 
L 600.4375 209.767212 
" clip-path="url(#p19ebc5cebe)" style="fill: none; stroke: #ffffff; stroke-width: 0.5; stroke-linecap: round"/>
     </g>
     <g id="text_11">
      <!-- $\mathdefault{3}$ -->
      <g style="fill: #262626" transform="translate(26.7775 213.694556) scale(0.11 -0.11)">
       <use xlink:href="#HelveticaNeue-33" transform="translate(0 0.09375)"/>
      </g>
     </g>
    </g>
    <g id="ytick_4">
     <g id="line2d_13">
      <path d="M 42.4375 162.759644 
L 600.4375 162.759644 
" clip-path="url(#p19ebc5cebe)" style="fill: none; stroke: #ffffff; stroke-width: 0.5; stroke-linecap: round"/>
     </g>
     <g id="text_12">
      <!-- $\mathdefault{4}$ -->
      <g style="fill: #262626" transform="translate(26.7775 166.686987) scale(0.11 -0.11)">
       <use xlink:href="#HelveticaNeue-34" transform="translate(0 0.09375)"/>
      </g>
     </g>
    </g>
    <g id="ytick_5">
     <g id="line2d_14">
      <path d="M 42.4375 115.752075 
L 600.4375 115.752075 
" clip-path="url(#p19ebc5cebe)" style="fill: none; stroke: #ffffff; stroke-width: 0.5; stroke-linecap: round"/>
     </g>
     <g id="text_13">
      <!-- $\mathdefault{5}$ -->
      <g style="fill: #262626" transform="translate(26.7775 119.679419) scale(0.11 -0.11)">
       <defs>
        <path id="HelveticaNeue-35" d="M 3008 3981 
L 3008 4461 
L 768 4461 
L 346 2106 
L 813 2080 
Q 973 2272 1181 2390 
Q 1389 2509 1658 2509 
Q 1888 2509 2077 2432 
Q 2266 2355 2400 2217 
Q 2534 2080 2608 1891 
Q 2682 1702 2682 1478 
Q 2682 1210 2605 1008 
Q 2528 806 2397 672 
Q 2266 538 2090 470 
Q 1914 403 1722 403 
Q 1517 403 1347 464 
Q 1178 525 1053 637 
Q 928 749 854 899 
Q 781 1050 768 1222 
L 224 1222 
Q 230 915 345 672 
Q 461 429 659 265 
Q 858 102 1117 16 
Q 1376 -70 1670 -70 
Q 2067 -70 2364 54 
Q 2662 179 2860 390 
Q 3059 602 3158 874 
Q 3258 1146 3258 1434 
Q 3258 1824 3142 2115 
Q 3027 2406 2828 2601 
Q 2630 2797 2361 2893 
Q 2093 2989 1792 2989 
Q 1562 2989 1328 2909 
Q 1094 2829 947 2662 
L 934 2675 
L 1178 3981 
L 3008 3981 
z
" transform="scale(0.015625)"/>
       </defs>
       <use xlink:href="#HelveticaNeue-35" transform="translate(0 0.296875)"/>
      </g>
     </g>
    </g>
    <g id="ytick_6">
     <g id="line2d_15">
      <path d="M 42.4375 68.744507 
L 600.4375 68.744507 
" clip-path="url(#p19ebc5cebe)" style="fill: none; stroke: #ffffff; stroke-width: 0.5; stroke-linecap: round"/>
     </g>
     <g id="text_14">
      <!-- $\mathdefault{6}$ -->
      <g style="fill: #262626" transform="translate(26.7775 72.67185) scale(0.11 -0.11)">
       <defs>
        <path id="HelveticaNeue-36" d="M 2650 3379 
L 3194 3379 
Q 3142 3942 2809 4240 
Q 2477 4538 1914 4538 
Q 1427 4538 1107 4333 
Q 787 4128 595 3789 
Q 403 3450 323 3011 
Q 243 2573 243 2106 
Q 243 1747 297 1363 
Q 352 979 518 659 
Q 685 339 992 134 
Q 1299 -70 1805 -70 
Q 2234 -70 2525 74 
Q 2816 218 2992 438 
Q 3168 659 3245 928 
Q 3322 1197 3322 1446 
Q 3322 1760 3226 2029 
Q 3130 2298 2954 2496 
Q 2778 2694 2518 2806 
Q 2259 2918 1933 2918 
Q 1562 2918 1277 2777 
Q 992 2637 800 2323 
L 787 2336 
Q 794 2598 838 2899 
Q 883 3200 1001 3459 
Q 1120 3718 1331 3888 
Q 1542 4058 1888 4058 
Q 2214 4058 2412 3872 
Q 2611 3686 2650 3379 
z
M 1830 2438 
Q 2061 2438 2233 2355 
Q 2406 2272 2521 2134 
Q 2637 1997 2691 1808 
Q 2746 1619 2746 1408 
Q 2746 1210 2685 1027 
Q 2624 845 2509 704 
Q 2394 563 2224 483 
Q 2054 403 1830 403 
Q 1606 403 1430 483 
Q 1254 563 1136 697 
Q 1018 832 954 1017 
Q 890 1203 890 1414 
Q 890 1626 950 1814 
Q 1011 2003 1132 2140 
Q 1254 2278 1427 2358 
Q 1600 2438 1830 2438 
z
" transform="scale(0.015625)"/>
       </defs>
       <use xlink:href="#HelveticaNeue-36" transform="translate(0 0.09375)"/>
      </g>
     </g>
    </g>
    <g id="ytick_7">
     <g id="line2d_16">
      <path d="M 42.4375 21.736938 
L 600.4375 21.736938 
" clip-path="url(#p19ebc5cebe)" style="fill: none; stroke: #ffffff; stroke-width: 0.5; stroke-linecap: round"/>
     </g>
     <g id="text_15">
      <!-- $\mathdefault{7}$ -->
      <g style="fill: #262626" transform="translate(26.7775 25.664282) scale(0.11 -0.11)">
       <defs>
        <path id="HelveticaNeue-37" d="M 3258 3994 
L 3258 4461 
L 320 4461 
L 320 3949 
L 2701 3949 
Q 2342 3571 2032 3123 
Q 1722 2675 1485 2172 
Q 1248 1670 1097 1123 
Q 947 576 909 0 
L 1517 0 
Q 1549 531 1696 1094 
Q 1843 1658 2076 2189 
Q 2310 2720 2611 3187 
Q 2912 3654 3258 3994 
z
" transform="scale(0.015625)"/>
       </defs>
       <use xlink:href="#HelveticaNeue-37" transform="translate(0 0.296875)"/>
      </g>
     </g>
    </g>
    <g id="text_16">
     <!-- BTC Price -->
     <g style="fill: #262626" transform="translate(18.625 220.663437) rotate(-90) scale(0.16 -0.16)">
      <defs>
       <path id="HelveticaNeue-42" d="M 1107 2605 
L 1107 4058 
L 2323 4058 
Q 2522 4058 2698 4035 
Q 2874 4013 3008 3936 
Q 3142 3859 3219 3718 
Q 3296 3578 3296 3334 
Q 3296 2970 3069 2787 
Q 2842 2605 2323 2605 
L 1107 2605 
z
M 499 4570 
L 499 0 
L 2707 0 
Q 3046 0 3305 112 
Q 3565 224 3741 406 
Q 3917 589 4006 825 
Q 4096 1062 4096 1312 
Q 4096 1734 3872 2028 
Q 3648 2323 3226 2413 
L 3226 2426 
Q 3552 2554 3728 2819 
Q 3904 3085 3904 3450 
Q 3904 3795 3747 4032 
Q 3590 4269 3366 4403 
Q 3264 4467 3120 4499 
Q 2976 4531 2809 4547 
Q 2643 4563 2473 4566 
Q 2304 4570 2157 4570 
L 499 4570 
z
M 1107 512 
L 1107 2093 
L 2496 2093 
Q 2688 2093 2867 2057 
Q 3046 2022 3184 1936 
Q 3322 1850 3405 1702 
Q 3488 1555 3488 1331 
Q 3488 947 3261 729 
Q 3034 512 2630 512 
L 1107 512 
z
" transform="scale(0.015625)"/>
       <path id="HelveticaNeue-54" d="M 1536 4058 
L 1536 0 
L 2144 0 
L 2144 4058 
L 3667 4058 
L 3667 4570 
L 13 4570 
L 13 4058 
L 1536 4058 
z
" transform="scale(0.015625)"/>
       <path id="HelveticaNeue-43" d="M 3712 3194 
L 4320 3194 
Q 4269 3558 4102 3836 
Q 3936 4115 3686 4300 
Q 3437 4486 3117 4582 
Q 2797 4678 2438 4678 
Q 1914 4678 1507 4489 
Q 1101 4301 829 3974 
Q 557 3648 416 3209 
Q 275 2771 275 2272 
Q 275 1773 406 1337 
Q 538 902 800 582 
Q 1062 262 1459 80 
Q 1856 -102 2387 -102 
Q 3264 -102 3769 378 
Q 4275 858 4365 1722 
L 3757 1722 
Q 3738 1440 3642 1197 
Q 3546 954 3376 778 
Q 3206 602 2972 502 
Q 2739 403 2438 403 
Q 2029 403 1734 556 
Q 1440 710 1251 969 
Q 1062 1229 972 1577 
Q 883 1926 883 2317 
Q 883 2675 972 3008 
Q 1062 3341 1251 3600 
Q 1440 3859 1731 4012 
Q 2022 4166 2432 4166 
Q 2912 4166 3261 3923 
Q 3610 3680 3712 3194 
z
" transform="scale(0.015625)"/>
       <path id="HelveticaNeue-20" transform="scale(0.015625)"/>
       <path id="HelveticaNeue-50" d="M 1107 2381 
L 1107 4058 
L 2298 4058 
Q 2816 4058 3056 3843 
Q 3296 3629 3296 3219 
Q 3296 2810 3056 2592 
Q 2816 2374 2298 2381 
L 1107 2381 
z
M 499 4570 
L 499 0 
L 1107 0 
L 1107 1869 
L 2502 1869 
Q 3194 1862 3549 2220 
Q 3904 2579 3904 3219 
Q 3904 3859 3549 4214 
Q 3194 4570 2502 4570 
L 499 4570 
z
" transform="scale(0.015625)"/>
       <path id="HelveticaNeue-72" d="M 390 3309 
L 390 0 
L 934 0 
L 934 1472 
Q 934 1792 998 2038 
Q 1062 2285 1203 2457 
Q 1344 2630 1574 2720 
Q 1805 2810 2131 2810 
L 2131 3386 
Q 1690 3398 1402 3206 
Q 1114 3014 915 2611 
L 902 2611 
L 902 3309 
L 390 3309 
z
" transform="scale(0.015625)"/>
       <path id="HelveticaNeue-69" d="M 986 3904 
L 986 4570 
L 442 4570 
L 442 3904 
L 986 3904 
z
M 442 3309 
L 442 0 
L 986 0 
L 986 3309 
L 442 3309 
z
" transform="scale(0.015625)"/>
       <path id="HelveticaNeue-63" d="M 2656 2246 
L 3219 2246 
Q 3187 2541 3065 2755 
Q 2944 2970 2755 3110 
Q 2566 3251 2320 3318 
Q 2074 3386 1792 3386 
Q 1402 3386 1107 3248 
Q 813 3110 617 2870 
Q 422 2630 326 2307 
Q 230 1984 230 1613 
Q 230 1242 329 931 
Q 429 621 624 397 
Q 819 173 1110 51 
Q 1402 -70 1779 -70 
Q 2413 -70 2781 262 
Q 3149 595 3238 1210 
L 2682 1210 
Q 2630 826 2403 614 
Q 2176 403 1773 403 
Q 1517 403 1331 505 
Q 1146 608 1030 777 
Q 915 947 860 1164 
Q 806 1382 806 1613 
Q 806 1862 857 2096 
Q 909 2330 1027 2509 
Q 1146 2688 1344 2797 
Q 1542 2906 1837 2906 
Q 2182 2906 2387 2733 
Q 2592 2560 2656 2246 
z
" transform="scale(0.015625)"/>
      </defs>
      <use xlink:href="#HelveticaNeue-42"/>
      <use xlink:href="#HelveticaNeue-54" x="68.499985"/>
      <use xlink:href="#HelveticaNeue-43" x="125.899979"/>
      <use xlink:href="#HelveticaNeue-20" x="198.09996"/>
      <use xlink:href="#HelveticaNeue-50" x="225.899948"/>
      <use xlink:href="#HelveticaNeue-72" x="290.699936"/>
      <use xlink:href="#HelveticaNeue-69" x="323.999924"/>
      <use xlink:href="#HelveticaNeue-63" x="346.199921"/>
      <use xlink:href="#HelveticaNeue-65" x="399.899918"/>
     </g>
    </g>
    <g id="text_17">
     <!-- $\times\mathdefault{10^{4}}\mathdefault{}$ -->
     <g style="fill: #262626" transform="translate(42.4375 15.054687) scale(0.11 -0.11)">
      <defs>
       <path id="DejaVuSans-d7" d="M 4488 3438 
L 3059 2003 
L 4488 575 
L 4116 197 
L 2681 1631 
L 1247 197 
L 878 575 
L 2303 2003 
L 878 3438 
L 1247 3816 
L 2681 2381 
L 4116 3816 
L 4488 3438 
z
" transform="scale(0.015625)"/>
      </defs>
      <use xlink:href="#DejaVuSans-d7" transform="translate(0 0.173438)"/>
      <use xlink:href="#HelveticaNeue-31" transform="translate(83.789062 0.173438)"/>
      <use xlink:href="#HelveticaNeue-30" transform="translate(139.389053 0.173438)"/>
      <use xlink:href="#HelveticaNeue-34" transform="translate(195.893849 36.365625) scale(0.7)"/>
     </g>
    </g>
   </g>
   <g id="legend_1">
    <g id="patch_7">
     <path d="M 473.844687 57.89875 
L 594.9375 57.89875 
L 594.9375 23.554687 
L 473.844687 23.554687 
z
" style="fill: #eaeaf2; opacity: 0.8; stroke: #808080; stroke-linejoin: miter"/>
    </g>
    <g id="line2d_17">
     <path d="M 481.544687 31.959375 
L 485.944687 31.959375 
" style="fill: none; stroke: #000000; stroke-width: 6; stroke-linecap: round"/>
    </g>
    <g id="text_18">
     <!-- BTC-USD -->
     <g style="fill: #262626" transform="translate(498.044687 35.809375) scale(0.11 -0.11)">
      <defs>
       <path id="HelveticaNeue-2d" d="M 320 2035 
L 320 1523 
L 2170 1523 
L 2170 2035 
L 320 2035 
z
" transform="scale(0.015625)"/>
       <path id="HelveticaNeue-55" d="M 4147 1651 
L 4147 4570 
L 3539 4570 
L 3539 1651 
Q 3539 1037 3235 720 
Q 2931 403 2349 403 
Q 1734 403 1408 720 
Q 1082 1037 1082 1651 
L 1082 4570 
L 474 4570 
L 474 1651 
Q 474 736 970 317 
Q 1466 -102 2349 -102 
Q 3213 -102 3680 336 
Q 4147 774 4147 1651 
z
" transform="scale(0.015625)"/>
       <path id="HelveticaNeue-53" d="M 3142 3232 
L 3718 3232 
Q 3706 3610 3574 3882 
Q 3443 4154 3216 4333 
Q 2989 4512 2688 4595 
Q 2387 4678 2035 4678 
Q 1722 4678 1424 4598 
Q 1126 4518 892 4355 
Q 659 4192 518 3939 
Q 378 3686 378 3341 
Q 378 3027 502 2819 
Q 627 2611 835 2480 
Q 1043 2349 1305 2269 
Q 1568 2189 1840 2128 
Q 2112 2067 2374 2009 
Q 2637 1952 2845 1859 
Q 3053 1766 3177 1619 
Q 3302 1472 3302 1235 
Q 3302 986 3200 826 
Q 3098 666 2931 573 
Q 2765 480 2557 441 
Q 2349 403 2144 403 
Q 1888 403 1645 467 
Q 1402 531 1219 665 
Q 1037 800 925 1008 
Q 813 1216 813 1504 
L 237 1504 
Q 237 1088 387 784 
Q 538 480 797 285 
Q 1056 90 1398 -6 
Q 1741 -102 2125 -102 
Q 2438 -102 2755 -28 
Q 3072 45 3328 208 
Q 3584 371 3747 630 
Q 3910 890 3910 1254 
Q 3910 1594 3785 1818 
Q 3661 2042 3453 2189 
Q 3245 2336 2982 2422 
Q 2720 2509 2448 2573 
Q 2176 2637 1913 2691 
Q 1651 2746 1443 2829 
Q 1235 2912 1110 3043 
Q 986 3174 986 3386 
Q 986 3610 1072 3760 
Q 1158 3910 1302 4000 
Q 1446 4090 1632 4128 
Q 1818 4166 2010 4166 
Q 2483 4166 2787 3945 
Q 3091 3725 3142 3232 
z
" transform="scale(0.015625)"/>
      </defs>
      <use xlink:href="#HelveticaNeue-42"/>
      <use xlink:href="#HelveticaNeue-54" x="68.499985"/>
      <use xlink:href="#HelveticaNeue-43" x="125.899979"/>
      <use xlink:href="#HelveticaNeue-2d" x="198.09996"/>
      <use xlink:href="#HelveticaNeue-55" x="236.999954"/>
      <use xlink:href="#HelveticaNeue-53" x="309.199936"/>
      <use xlink:href="#HelveticaNeue-44" x="373.999924"/>
     </g>
    </g>
    <g id="line2d_18">
     <path d="M 481.544687 47.481406 
L 485.944687 47.481406 
" style="fill: none; stroke: #ee82ee; stroke-width: 6; stroke-linecap: round"/>
    </g>
    <g id="text_19">
     <!-- ARIMA Predictions -->
     <g style="fill: #262626" transform="translate(498.044687 51.331406) scale(0.11 -0.11)">
      <defs>
       <path id="HelveticaNeue-41" d="M 1286 1888 
L 2061 4019 
L 2074 4019 
L 2835 1888 
L 1286 1888 
z
M 1741 4570 
L -38 0 
L 582 0 
L 1094 1376 
L 3027 1376 
L 3526 0 
L 4198 0 
L 2413 4570 
L 1741 4570 
z
" transform="scale(0.015625)"/>
       <path id="HelveticaNeue-52" d="M 499 4570 
L 499 0 
L 1107 0 
L 1107 1952 
L 2592 1952 
Q 2816 1952 2950 1885 
Q 3085 1818 3168 1706 
Q 3251 1594 3289 1443 
Q 3328 1293 3354 1126 
Q 3386 960 3392 787 
Q 3398 614 3404 464 
Q 3411 314 3433 192 
Q 3456 70 3520 0 
L 4198 0 
Q 4102 115 4054 265 
Q 4006 416 3980 582 
Q 3955 749 3948 921 
Q 3942 1094 3930 1261 
Q 3910 1427 3875 1580 
Q 3840 1734 3766 1859 
Q 3693 1984 3568 2073 
Q 3443 2163 3245 2202 
L 3245 2214 
Q 3661 2330 3849 2643 
Q 4038 2957 4038 3373 
Q 4038 3930 3670 4250 
Q 3302 4570 2650 4570 
L 499 4570 
z
M 2374 2464 
L 1107 2464 
L 1107 4058 
L 2618 4058 
Q 3046 4058 3238 3840 
Q 3430 3622 3430 3277 
Q 3430 3027 3344 2870 
Q 3258 2714 3114 2621 
Q 2970 2528 2778 2496 
Q 2586 2464 2374 2464 
z
" transform="scale(0.015625)"/>
       <path id="HelveticaNeue-49" d="M 525 4570 
L 525 0 
L 1133 0 
L 1133 4570 
L 525 4570 
z
" transform="scale(0.015625)"/>
       <path id="HelveticaNeue-4d" d="M 512 4570 
L 512 0 
L 1088 0 
L 1088 3802 
L 1101 3802 
L 2528 0 
L 3046 0 
L 4474 3802 
L 4486 3802 
L 4486 0 
L 5062 0 
L 5062 4570 
L 4230 4570 
L 2784 730 
L 1344 4570 
L 512 4570 
z
" transform="scale(0.015625)"/>
       <path id="HelveticaNeue-64" d="M 806 1626 
Q 806 1869 857 2099 
Q 909 2330 1024 2509 
Q 1139 2688 1331 2797 
Q 1523 2906 1798 2906 
Q 2080 2906 2278 2800 
Q 2477 2694 2601 2521 
Q 2726 2349 2784 2121 
Q 2842 1894 2842 1651 
Q 2842 1421 2787 1197 
Q 2733 973 2611 797 
Q 2490 621 2298 512 
Q 2106 403 1830 403 
Q 1568 403 1373 505 
Q 1178 608 1053 781 
Q 928 954 867 1174 
Q 806 1395 806 1626 
z
M 3366 0 
L 3366 4570 
L 2822 4570 
L 2822 2867 
L 2810 2867 
Q 2720 3014 2589 3113 
Q 2458 3213 2310 3273 
Q 2163 3334 2016 3360 
Q 1869 3386 1741 3386 
Q 1363 3386 1078 3248 
Q 794 3110 605 2876 
Q 416 2643 323 2329 
Q 230 2016 230 1664 
Q 230 1312 326 998 
Q 422 685 611 448 
Q 800 211 1085 70 
Q 1370 -70 1754 -70 
Q 2099 -70 2387 51 
Q 2675 173 2810 448 
L 2822 448 
L 2822 0 
L 3366 0 
z
" transform="scale(0.015625)"/>
       <path id="HelveticaNeue-6f" d="M 806 1651 
Q 806 1952 886 2185 
Q 966 2419 1107 2579 
Q 1248 2739 1437 2822 
Q 1626 2906 1837 2906 
Q 2048 2906 2237 2822 
Q 2426 2739 2566 2579 
Q 2707 2419 2787 2185 
Q 2867 1952 2867 1651 
Q 2867 1350 2787 1116 
Q 2707 883 2566 726 
Q 2426 570 2237 486 
Q 2048 403 1837 403 
Q 1626 403 1437 486 
Q 1248 570 1107 726 
Q 966 883 886 1116 
Q 806 1350 806 1651 
z
M 230 1651 
Q 230 1286 332 972 
Q 435 659 640 425 
Q 845 192 1145 61 
Q 1446 -70 1837 -70 
Q 2234 -70 2531 61 
Q 2829 192 3033 425 
Q 3238 659 3340 972 
Q 3443 1286 3443 1651 
Q 3443 2016 3340 2333 
Q 3238 2650 3033 2883 
Q 2829 3117 2531 3251 
Q 2234 3386 1837 3386 
Q 1446 3386 1145 3251 
Q 845 3117 640 2883 
Q 435 2650 332 2333 
Q 230 2016 230 1651 
z
" transform="scale(0.015625)"/>
       <path id="HelveticaNeue-6e" d="M 410 3309 
L 410 0 
L 954 0 
L 954 1869 
Q 954 2093 1014 2281 
Q 1075 2470 1196 2611 
Q 1318 2752 1500 2829 
Q 1683 2906 1933 2906 
Q 2246 2906 2425 2726 
Q 2605 2547 2605 2240 
L 2605 0 
L 3149 0 
L 3149 2176 
Q 3149 2445 3094 2665 
Q 3040 2886 2905 3046 
Q 2771 3206 2553 3296 
Q 2336 3386 2010 3386 
Q 1274 3386 934 2784 
L 922 2784 
L 922 3309 
L 410 3309 
z
" transform="scale(0.015625)"/>
       <path id="HelveticaNeue-73" d="M 742 1043 
L 198 1043 
Q 211 736 326 521 
Q 442 307 634 176 
Q 826 45 1075 -12 
Q 1325 -70 1600 -70 
Q 1850 -70 2102 -22 
Q 2355 26 2556 147 
Q 2758 269 2883 467 
Q 3008 666 3008 966 
Q 3008 1203 2915 1363 
Q 2822 1523 2672 1628 
Q 2522 1734 2326 1798 
Q 2131 1862 1926 1907 
Q 1734 1952 1542 1993 
Q 1350 2035 1196 2096 
Q 1043 2157 944 2249 
Q 845 2342 845 2483 
Q 845 2611 909 2691 
Q 973 2771 1075 2819 
Q 1178 2867 1302 2886 
Q 1427 2906 1549 2906 
Q 1683 2906 1814 2877 
Q 1946 2848 2054 2784 
Q 2163 2720 2233 2614 
Q 2304 2509 2317 2349 
L 2861 2349 
Q 2842 2650 2733 2851 
Q 2624 3053 2441 3171 
Q 2259 3290 2022 3338 
Q 1786 3386 1504 3386 
Q 1286 3386 1065 3331 
Q 845 3277 669 3165 
Q 493 3053 381 2873 
Q 269 2694 269 2445 
Q 269 2125 429 1945 
Q 589 1766 829 1667 
Q 1069 1568 1350 1513 
Q 1632 1459 1872 1392 
Q 2112 1325 2272 1216 
Q 2432 1107 2432 896 
Q 2432 742 2355 643 
Q 2278 544 2160 493 
Q 2042 442 1901 422 
Q 1760 403 1632 403 
Q 1466 403 1309 435 
Q 1152 467 1027 540 
Q 902 614 825 739 
Q 749 864 742 1043 
z
" transform="scale(0.015625)"/>
      </defs>
      <use xlink:href="#HelveticaNeue-41"/>
      <use xlink:href="#HelveticaNeue-52" x="64.799988"/>
      <use xlink:href="#HelveticaNeue-49" x="133.299973"/>
      <use xlink:href="#HelveticaNeue-4d" x="159.199966"/>
      <use xlink:href="#HelveticaNeue-41" x="246.299957"/>
      <use xlink:href="#HelveticaNeue-20" x="311.099945"/>
      <use xlink:href="#HelveticaNeue-50" x="338.899933"/>
      <use xlink:href="#HelveticaNeue-72" x="403.699921"/>
      <use xlink:href="#HelveticaNeue-65" x="435.249908"/>
      <use xlink:href="#HelveticaNeue-64" x="488.949905"/>
      <use xlink:href="#HelveticaNeue-69" x="548.249893"/>
      <use xlink:href="#HelveticaNeue-63" x="570.44989"/>
      <use xlink:href="#HelveticaNeue-74" x="624.149887"/>
      <use xlink:href="#HelveticaNeue-69" x="655.649872"/>
      <use xlink:href="#HelveticaNeue-6f" x="677.849869"/>
      <use xlink:href="#HelveticaNeue-6e" x="735.249863"/>
      <use xlink:href="#HelveticaNeue-73" x="790.849854"/>
     </g>
    </g>
   </g>
  </g>
 </g>
 <defs>
  <clipPath id="p19ebc5cebe">
   <rect x="42.4375" y="18.054687" width="558" height="332.64"/>
  </clipPath>
 </defs>
</svg>