<?xml version="1.0" encoding="utf-8" standalone="no"?>
<!DOCTYPE svg PUBLIC "-//W3C//DTD SVG 1.1//EN"
  "http://www.w3.org/Graphics/SVG/1.1/DTD/svg11.dtd">
<svg xmlns:xlink="http://www.w3.org/1999/xlink" width="629.5275pt" height="390.259375pt" viewBox="0 0 629.5275 390.259375" xmlns="http://www.w3.org/2000/svg" version="1.1">
 <metadata>
  <rdf:RDF xmlns:dc="http://purl.org/dc/elements/1.1/" xmlns:cc="http://creativecommons.org/ns#" xmlns:rdf="http://www.w3.org/1999/02/22-rdf-syntax-ns#">
   <cc:Work>
    <dc:type rdf:resource="http://purl.org/dc/dcmitype/StillImage"/>
    <dc:date>2023-11-09T19:18:27.996274</dc:date>
    <dc:format>image/svg+xml</dc:format>
    <dc:creator>
     <cc:Agent>
      <dc:title>Matplotlib v3.7.0, https://matplotlib.org/</dc:title>
     </cc:Agent>
    </dc:creator>
   </cc:Work>
  </rdf:RDF>
 </metadata>
 <defs>
  <style type="text/css">*{stroke-linejoin: round; stroke-linecap: butt}</style>
 </defs>
 <g id="figure_1">
  <g id="patch_1">
   <path d="M 0 390.259375 
L 629.5275 390.259375 
L 629.5275 0 
L 0 0 
z
" style="fill: #ffffff"/>
  </g>
  <g id="axes_1">
   <g id="patch_2">
    <path d="M 64.3275 343.767344 
L 622.3275 343.767344 
L 622.3275 11.127344 
L 64.3275 11.127344 
z
" style="fill: #eaeaf2"/>
   </g>
   <g id="line2d_1">
    <path d="M 64.3275 141.74635 
L 622.3275 141.74635 
" clip-path="url(#p816152b4f9)" style="fill: none; stroke-dasharray: 5.55,2.4; stroke-dashoffset: 0; stroke: #808080; stroke-width: 1.5"/>
   </g>
   <g id="line2d_2">
    <path d="M 64.3275 150.282243 
L 622.3275 150.282243 
" clip-path="url(#p816152b4f9)" style="fill: none; stroke: #808080; stroke-width: 1.5; stroke-linecap: round"/>
   </g>
   <g id="line2d_3">
    <path d="M 64.3275 177.447344 
L 622.3275 177.447344 
" clip-path="url(#p816152b4f9)" style="fill: none; stroke: #000000; stroke-width: 1.5; stroke-linecap: round"/>
   </g>
   <g id="line2d_4">
    <path d="M 64.3275 204.612445 
L 622.3275 204.612445 
" clip-path="url(#p816152b4f9)" style="fill: none; stroke: #808080; stroke-width: 1.5; stroke-linecap: round"/>
   </g>
   <g id="line2d_5">
    <path d="M 64.3275 213.148338 
L 622.3275 213.148338 
" clip-path="url(#p816152b4f9)" style="fill: none; stroke-dasharray: 5.55,2.4; stroke-dashoffset: 0; stroke: #808080; stroke-width: 1.5"/>
   </g>
   <g id="line2d_6">
    <path d="M 64.3275 19.76811 
L 68.229598 31.821737 
L 72.131696 43.280134 
L 76.033794 52.270684 
L 79.935892 58.733122 
L 83.83799 64.061411 
L 87.740087 67.193086 
L 91.642185 68.406208 
L 95.544283 65.855218 
L 99.446381 60.570967 
L 103.348479 53.831636 
L 107.250577 50.97844 
L 111.152675 58.917588 
L 115.054773 69.947696 
L 118.956871 79.99656 
L 122.858969 87.974636 
L 126.761066 94.329335 
L 130.663164 99.487503 
L 134.565262 102.624855 
L 138.46736 103.995642 
L 142.369458 101.401888 
L 146.271556 97.200933 
L 150.173654 91.438783 
L 154.075752 88.933531 
L 157.97785 95.289306 
L 161.879948 104.645531 
L 165.782045 112.981229 
L 169.684143 119.56382 
L 173.586241 125.059225 
L 177.488339 129.464553 
L 181.390437 132.407577 
L 185.292535 133.490613 
L 189.194633 131.410078 
L 193.096731 127.797249 
L 196.998829 123.295695 
L 200.900927 121.393579 
L 204.803024 126.99669 
L 208.705122 135.205876 
L 212.60722 142.411148 
L 216.509318 148.811876 
L 220.411416 154.428588 
L 224.313514 158.918757 
L 228.215612 162.314797 
L 232.11771 163.780535 
L 236.019808 162.682748 
L 239.921906 160.171756 
L 243.824003 156.835169 
L 247.726101 155.387563 
L 251.628199 160.192104 
L 255.530297 167.119197 
L 259.432395 172.656246 
L 263.334493 177.582148 
L 267.236591 182.097986 
L 271.138689 186.226757 
L 275.040787 189.226983 
L 278.942885 190.69693 
L 282.844983 189.893316 
L 286.74708 188.046431 
L 290.649178 185.993809 
L 294.551276 185.253344 
L 298.453374 189.791761 
L 302.355472 195.845695 
L 306.25757 200.503389 
L 310.159668 204.856334 
L 314.061766 208.751421 
L 317.963864 212.401314 
L 321.865962 214.561575 
L 325.768059 215.591087 
L 329.670157 214.771033 
L 333.572255 213.132129 
L 337.474353 211.310659 
L 341.376451 210.566087 
L 345.278549 213.732375 
L 349.180647 218.085059 
L 353.082745 221.247754 
L 360.886941 226.847546 
L 364.789038 229.24629 
L 368.691136 230.127232 
L 372.593234 230.246985 
L 376.495332 228.856518 
L 380.39743 227.184894 
L 384.299528 225.344455 
L 388.201626 224.265126 
L 392.103724 226.236718 
L 396.005822 229.103118 
L 399.90792 230.971685 
L 403.810017 232.609237 
L 407.712115 234.512997 
L 411.614213 235.837774 
L 415.516311 236.279379 
L 419.418409 236.026671 
L 423.320507 235.061998 
L 431.124703 232.547478 
L 435.026801 231.741951 
L 438.928899 233.18282 
L 442.830997 235.416622 
L 446.733094 236.470361 
L 450.635192 237.117119 
L 454.53729 238.030246 
L 458.439388 238.127355 
L 462.341486 237.548832 
L 466.243584 236.09257 
L 474.04778 232.735264 
L 477.949878 231.585635 
L 481.851976 230.603893 
L 485.754073 231.121285 
L 489.656171 232.368558 
L 497.460367 232.852984 
L 501.362465 233.215154 
L 505.264563 232.855286 
L 509.166661 231.325913 
L 513.068759 229.231534 
L 516.970857 227.484485 
L 520.872955 226.126958 
L 528.67715 224.27827 
L 532.579248 224.066132 
L 536.481346 224.227449 
L 548.18764 221.500795 
L 552.089738 219.986378 
L 555.991836 217.162085 
L 559.893934 213.579902 
L 563.796031 210.98452 
L 567.698129 209.067976 
L 571.600227 207.719066 
L 575.502325 205.788166 
L 579.404423 204.188486 
L 583.306521 202.962326 
L 587.208619 201.390617 
L 595.012815 197.317255 
L 598.914913 194.498714 
L 606.719108 186.084014 
L 610.621206 183.162009 
L 614.523304 180.929121 
L 618.425402 179.510632 
L 622.3275 177.447344 
L 622.3275 177.447344 
" clip-path="url(#p816152b4f9)" style="fill: none; stroke: #4c72b0; stroke-width: 1.5; stroke-linecap: round"/>
   </g>
   <g id="patch_3">
    <path d="M 64.3275 343.767344 
L 64.3275 11.127344 
" style="fill: none; stroke: #808080; stroke-width: 1.25; stroke-linejoin: miter; stroke-linecap: square"/>
   </g>
   <g id="patch_4">
    <path d="M 622.3275 343.767344 
L 622.3275 11.127344 
" style="fill: none; stroke: #808080; stroke-width: 1.25; stroke-linejoin: miter; stroke-linecap: square"/>
   </g>
   <g id="patch_5">
    <path d="M 64.3275 343.767344 
L 622.3275 343.767344 
" style="fill: none; stroke: #808080; stroke-width: 1.25; stroke-linejoin: miter; stroke-linecap: square"/>
   </g>
   <g id="patch_6">
    <path d="M 64.3275 11.127344 
L 622.3275 11.127344 
" style="fill: none; stroke: #808080; stroke-width: 1.25; stroke-linejoin: miter; stroke-linecap: square"/>
   </g>
   <g id="matplotlib.axis_1">
    <g id="xtick_1">
     <g id="text_1">
      <!-- $\mathdefault{20}$ -->
      <g style="fill: #262626" transform="translate(132.30736 361.122031) scale(0.11 -0.11)">
       <defs>
        <path id="HelveticaNeue-32" d="M 282 2931 
L 826 2931 
Q 819 3136 867 3337 
Q 915 3539 1024 3699 
Q 1133 3859 1302 3958 
Q 1472 4058 1709 4058 
Q 1888 4058 2048 4000 
Q 2208 3942 2326 3833 
Q 2445 3725 2515 3574 
Q 2586 3424 2586 3238 
Q 2586 3002 2512 2822 
Q 2438 2643 2294 2489 
Q 2150 2336 1932 2185 
Q 1715 2035 1427 1856 
Q 1190 1715 972 1555 
Q 755 1395 582 1184 
Q 410 973 298 688 
Q 186 403 154 0 
L 3117 0 
L 3117 480 
L 787 480 
Q 826 691 950 854 
Q 1075 1018 1251 1158 
Q 1427 1299 1638 1424 
Q 1850 1549 2061 1677 
Q 2272 1811 2470 1958 
Q 2669 2106 2822 2288 
Q 2976 2470 3069 2700 
Q 3162 2931 3162 3232 
Q 3162 3552 3050 3795 
Q 2938 4038 2746 4201 
Q 2554 4365 2294 4451 
Q 2035 4538 1741 4538 
Q 1382 4538 1100 4416 
Q 819 4294 630 4080 
Q 442 3866 352 3571 
Q 262 3277 282 2931 
z
" transform="scale(0.015625)"/>
        <path id="HelveticaNeue-30" d="M 845 2234 
Q 845 2400 848 2601 
Q 851 2803 880 3004 
Q 909 3206 963 3398 
Q 1018 3590 1123 3734 
Q 1229 3878 1389 3968 
Q 1549 4058 1779 4058 
Q 2010 4058 2170 3968 
Q 2330 3878 2435 3734 
Q 2541 3590 2595 3398 
Q 2650 3206 2678 3004 
Q 2707 2803 2710 2601 
Q 2714 2400 2714 2234 
Q 2714 1978 2698 1661 
Q 2682 1344 2595 1065 
Q 2509 787 2317 595 
Q 2125 403 1779 403 
Q 1434 403 1242 595 
Q 1050 787 963 1065 
Q 877 1344 861 1661 
Q 845 1978 845 2234 
z
M 269 2227 
Q 269 1978 281 1709 
Q 294 1440 345 1184 
Q 397 928 493 701 
Q 589 474 755 301 
Q 922 128 1174 29 
Q 1427 -70 1779 -70 
Q 2138 -70 2387 29 
Q 2637 128 2803 301 
Q 2970 474 3066 701 
Q 3162 928 3213 1184 
Q 3264 1440 3277 1709 
Q 3290 1978 3290 2227 
Q 3290 2477 3277 2745 
Q 3264 3014 3213 3270 
Q 3162 3526 3066 3756 
Q 2970 3987 2803 4160 
Q 2637 4333 2384 4435 
Q 2131 4538 1779 4538 
Q 1427 4538 1174 4435 
Q 922 4333 755 4160 
Q 589 3987 493 3756 
Q 397 3526 345 3270 
Q 294 3014 281 2745 
Q 269 2477 269 2227 
z
" transform="scale(0.015625)"/>
       </defs>
       <use xlink:href="#HelveticaNeue-32" transform="translate(0 0.09375)"/>
       <use xlink:href="#HelveticaNeue-30" transform="translate(55.599991 0.09375)"/>
      </g>
     </g>
    </g>
    <g id="xtick_2">
     <g id="text_2">
      <!-- $\mathdefault{40}$ -->
      <g style="fill: #262626" transform="translate(210.349318 361.122031) scale(0.11 -0.11)">
       <defs>
        <path id="HelveticaNeue-34" d="M 2170 1542 
L 646 1542 
L 2157 3763 
L 2170 3763 
L 2170 1542 
z
M 2682 1542 
L 2682 4538 
L 2246 4538 
L 179 1587 
L 179 1062 
L 2170 1062 
L 2170 0 
L 2682 0 
L 2682 1062 
L 3296 1062 
L 3296 1542 
L 2682 1542 
z
" transform="scale(0.015625)"/>
       </defs>
       <use xlink:href="#HelveticaNeue-34" transform="translate(0 0.09375)"/>
       <use xlink:href="#HelveticaNeue-30" transform="translate(55.599991 0.09375)"/>
      </g>
     </g>
    </g>
    <g id="xtick_3">
     <g id="text_3">
      <!-- $\mathdefault{60}$ -->
      <g style="fill: #262626" transform="translate(288.391276 361.122031) scale(0.11 -0.11)">
       <defs>
        <path id="HelveticaNeue-36" d="M 2650 3379 
L 3194 3379 
Q 3142 3942 2809 4240 
Q 2477 4538 1914 4538 
Q 1427 4538 1107 4333 
Q 787 4128 595 3789 
Q 403 3450 323 3011 
Q 243 2573 243 2106 
Q 243 1747 297 1363 
Q 352 979 518 659 
Q 685 339 992 134 
Q 1299 -70 1805 -70 
Q 2234 -70 2525 74 
Q 2816 218 2992 438 
Q 3168 659 3245 928 
Q 3322 1197 3322 1446 
Q 3322 1760 3226 2029 
Q 3130 2298 2954 2496 
Q 2778 2694 2518 2806 
Q 2259 2918 1933 2918 
Q 1562 2918 1277 2777 
Q 992 2637 800 2323 
L 787 2336 
Q 794 2598 838 2899 
Q 883 3200 1001 3459 
Q 1120 3718 1331 3888 
Q 1542 4058 1888 4058 
Q 2214 4058 2412 3872 
Q 2611 3686 2650 3379 
z
M 1830 2438 
Q 2061 2438 2233 2355 
Q 2406 2272 2521 2134 
Q 2637 1997 2691 1808 
Q 2746 1619 2746 1408 
Q 2746 1210 2685 1027 
Q 2624 845 2509 704 
Q 2394 563 2224 483 
Q 2054 403 1830 403 
Q 1606 403 1430 483 
Q 1254 563 1136 697 
Q 1018 832 954 1017 
Q 890 1203 890 1414 
Q 890 1626 950 1814 
Q 1011 2003 1132 2140 
Q 1254 2278 1427 2358 
Q 1600 2438 1830 2438 
z
" transform="scale(0.015625)"/>
       </defs>
       <use xlink:href="#HelveticaNeue-36" transform="translate(0 0.09375)"/>
       <use xlink:href="#HelveticaNeue-30" transform="translate(55.599991 0.09375)"/>
      </g>
     </g>
    </g>
    <g id="xtick_4">
     <g id="text_4">
      <!-- $\mathdefault{80}$ -->
      <g style="fill: #262626" transform="translate(366.433234 361.122031) scale(0.11 -0.11)">
       <defs>
        <path id="HelveticaNeue-38" d="M 992 3360 
Q 992 3533 1056 3661 
Q 1120 3789 1225 3878 
Q 1331 3968 1478 4013 
Q 1626 4058 1786 4058 
Q 2118 4058 2332 3882 
Q 2547 3706 2547 3360 
Q 2547 3014 2336 2822 
Q 2125 2630 1798 2630 
Q 1632 2630 1485 2675 
Q 1338 2720 1229 2809 
Q 1120 2899 1056 3036 
Q 992 3174 992 3360 
z
M 416 3379 
Q 416 3072 589 2813 
Q 762 2554 1050 2438 
Q 666 2304 461 2006 
Q 256 1709 256 1306 
Q 256 960 374 701 
Q 493 442 701 269 
Q 909 96 1190 13 
Q 1472 -70 1798 -70 
Q 2112 -70 2387 19 
Q 2662 109 2864 285 
Q 3066 461 3184 717 
Q 3302 973 3302 1306 
Q 3302 1728 3104 2019 
Q 2906 2310 2496 2438 
Q 2784 2566 2953 2819 
Q 3123 3072 3123 3379 
Q 3123 3597 3046 3805 
Q 2970 4013 2806 4176 
Q 2643 4339 2380 4438 
Q 2118 4538 1747 4538 
Q 1485 4538 1245 4461 
Q 1005 4384 819 4237 
Q 634 4090 525 3875 
Q 416 3661 416 3379 
z
M 832 1280 
Q 832 1478 905 1638 
Q 979 1798 1110 1913 
Q 1242 2029 1418 2089 
Q 1594 2150 1792 2150 
Q 1984 2150 2153 2083 
Q 2323 2016 2451 1901 
Q 2579 1786 2652 1629 
Q 2726 1472 2726 1286 
Q 2726 1094 2659 934 
Q 2592 774 2467 656 
Q 2342 538 2172 470 
Q 2003 403 1798 403 
Q 1376 403 1104 636 
Q 832 870 832 1280 
z
" transform="scale(0.015625)"/>
       </defs>
       <use xlink:href="#HelveticaNeue-38" transform="translate(0 0.09375)"/>
       <use xlink:href="#HelveticaNeue-30" transform="translate(55.599991 0.09375)"/>
      </g>
     </g>
    </g>
    <g id="xtick_5">
     <g id="text_5">
      <!-- $\mathdefault{100}$ -->
      <g style="fill: #262626" transform="translate(441.450192 361.122031) scale(0.11 -0.11)">
       <defs>
        <path id="HelveticaNeue-31" d="M 2278 0 
L 2278 4538 
L 1862 4538 
Q 1818 4282 1696 4115 
Q 1574 3949 1398 3853 
Q 1222 3757 1004 3721 
Q 787 3686 557 3686 
L 557 3251 
L 1734 3251 
L 1734 0 
L 2278 0 
z
" transform="scale(0.015625)"/>
       </defs>
       <use xlink:href="#HelveticaNeue-31" transform="translate(0 0.09375)"/>
       <use xlink:href="#HelveticaNeue-30" transform="translate(55.599991 0.09375)"/>
       <use xlink:href="#HelveticaNeue-30" transform="translate(111.199982 0.09375)"/>
      </g>
     </g>
    </g>
    <g id="xtick_6">
     <g id="text_6">
      <!-- $\mathdefault{120}$ -->
      <g style="fill: #262626" transform="translate(519.49215 361.122031) scale(0.11 -0.11)">
       <use xlink:href="#HelveticaNeue-31" transform="translate(0 0.09375)"/>
       <use xlink:href="#HelveticaNeue-32" transform="translate(55.599991 0.09375)"/>
       <use xlink:href="#HelveticaNeue-30" transform="translate(111.199982 0.09375)"/>
      </g>
     </g>
    </g>
    <g id="xtick_7">
     <g id="text_7">
      <!-- $\mathdefault{140}$ -->
      <g style="fill: #262626" transform="translate(597.534108 361.122031) scale(0.11 -0.11)">
       <use xlink:href="#HelveticaNeue-31" transform="translate(0 0.09375)"/>
       <use xlink:href="#HelveticaNeue-34" transform="translate(55.599991 0.09375)"/>
       <use xlink:href="#HelveticaNeue-30" transform="translate(111.199982 0.09375)"/>
      </g>
     </g>
    </g>
    <g id="text_8">
     <!-- Lag -->
     <g style="fill: #262626" transform="translate(329.99125 379.714375) scale(0.16 -0.16)">
      <defs>
       <path id="HelveticaNeue-4c" d="M 499 4570 
L 499 0 
L 3526 0 
L 3526 512 
L 1107 512 
L 1107 4570 
L 499 4570 
z
" transform="scale(0.015625)"/>
       <path id="HelveticaNeue-61" d="M 3341 13 
Q 3200 -70 2950 -70 
Q 2739 -70 2614 48 
Q 2490 166 2490 435 
Q 2266 166 1968 48 
Q 1670 -70 1325 -70 
Q 1101 -70 899 -19 
Q 698 32 550 141 
Q 403 250 316 426 
Q 230 602 230 851 
Q 230 1133 326 1312 
Q 422 1491 579 1603 
Q 736 1715 937 1772 
Q 1139 1830 1350 1869 
Q 1574 1914 1776 1936 
Q 1978 1958 2131 2000 
Q 2285 2042 2374 2122 
Q 2464 2202 2464 2355 
Q 2464 2534 2397 2643 
Q 2330 2752 2224 2809 
Q 2118 2867 1987 2886 
Q 1856 2906 1728 2906 
Q 1382 2906 1152 2774 
Q 922 2643 902 2278 
L 358 2278 
Q 371 2586 486 2797 
Q 602 3008 794 3139 
Q 986 3270 1232 3328 
Q 1478 3386 1760 3386 
Q 1984 3386 2205 3354 
Q 2426 3322 2605 3222 
Q 2784 3123 2893 2944 
Q 3002 2765 3002 2477 
L 3002 774 
Q 3002 582 3024 492 
Q 3046 403 3174 403 
Q 3245 403 3341 435 
L 3341 13 
z
M 2458 1709 
Q 2355 1632 2188 1597 
Q 2022 1562 1840 1539 
Q 1658 1517 1472 1488 
Q 1286 1459 1139 1395 
Q 992 1331 899 1212 
Q 806 1094 806 890 
Q 806 755 860 662 
Q 915 570 1001 512 
Q 1088 454 1203 428 
Q 1318 403 1446 403 
Q 1715 403 1907 476 
Q 2099 550 2220 662 
Q 2342 774 2400 905 
Q 2458 1037 2458 1152 
L 2458 1709 
z
" transform="scale(0.015625)"/>
       <path id="HelveticaNeue-67" d="M 3264 282 
L 3264 3309 
L 2752 3309 
L 2752 2835 
L 2746 2835 
Q 2598 3110 2336 3248 
Q 2074 3386 1760 3386 
Q 1331 3386 1036 3222 
Q 742 3059 563 2806 
Q 384 2554 307 2243 
Q 230 1933 230 1638 
Q 230 1299 323 995 
Q 416 691 601 464 
Q 787 237 1062 102 
Q 1338 -32 1709 -32 
Q 2029 -32 2313 112 
Q 2598 256 2739 563 
L 2752 563 
L 2752 346 
Q 2752 70 2697 -160 
Q 2643 -390 2521 -553 
Q 2400 -717 2214 -809 
Q 2029 -902 1760 -902 
Q 1626 -902 1478 -873 
Q 1331 -845 1206 -781 
Q 1082 -717 995 -614 
Q 909 -512 902 -365 
L 358 -365 
Q 371 -634 499 -819 
Q 627 -1005 822 -1120 
Q 1018 -1235 1258 -1286 
Q 1498 -1338 1728 -1338 
Q 2522 -1338 2893 -934 
Q 3264 -531 3264 282 
z
M 1741 442 
Q 1472 442 1293 554 
Q 1114 666 1005 848 
Q 896 1030 851 1254 
Q 806 1478 806 1702 
Q 806 1939 860 2156 
Q 915 2374 1033 2540 
Q 1152 2707 1337 2806 
Q 1523 2906 1786 2906 
Q 2042 2906 2221 2803 
Q 2400 2701 2512 2531 
Q 2624 2362 2675 2150 
Q 2726 1939 2726 1722 
Q 2726 1491 2672 1260 
Q 2618 1030 2502 848 
Q 2387 666 2198 554 
Q 2010 442 1741 442 
z
" transform="scale(0.015625)"/>
      </defs>
      <use xlink:href="#HelveticaNeue-4c"/>
      <use xlink:href="#HelveticaNeue-61" x="55.599991"/>
      <use xlink:href="#HelveticaNeue-67" x="109.299988"/>
     </g>
    </g>
   </g>
   <g id="matplotlib.axis_2">
    <g id="ytick_1">
     <g id="text_9">
      <!-- $\mathdefault{−1.00}$ -->
      <g style="fill: #262626" transform="translate(26.7775 347.694688) scale(0.11 -0.11)">
       <defs>
        <path id="HelveticaNeue-2212" d="M 307 1837 
L 307 1402 
L 3533 1402 
L 3533 1837 
L 307 1837 
z
" transform="scale(0.015625)"/>
        <path id="HelveticaNeue-2e" d="M 531 710 
L 531 0 
L 1242 0 
L 1242 710 
L 531 710 
z
" transform="scale(0.015625)"/>
       </defs>
       <use xlink:href="#HelveticaNeue-2212" transform="translate(0 0.09375)"/>
       <use xlink:href="#HelveticaNeue-31" transform="translate(59.999985 0.09375)"/>
       <use xlink:href="#HelveticaNeue-2e" transform="translate(115.599976 0.09375)"/>
       <use xlink:href="#HelveticaNeue-30" transform="translate(143.399963 0.09375)"/>
       <use xlink:href="#HelveticaNeue-30" transform="translate(198.999954 0.09375)"/>
      </g>
     </g>
    </g>
    <g id="ytick_2">
     <g id="text_10">
      <!-- $\mathdefault{−0.75}$ -->
      <g style="fill: #262626" transform="translate(26.7775 306.114688) scale(0.11 -0.11)">
       <defs>
        <path id="HelveticaNeue-37" d="M 3258 3994 
L 3258 4461 
L 320 4461 
L 320 3949 
L 2701 3949 
Q 2342 3571 2032 3123 
Q 1722 2675 1485 2172 
Q 1248 1670 1097 1123 
Q 947 576 909 0 
L 1517 0 
Q 1549 531 1696 1094 
Q 1843 1658 2076 2189 
Q 2310 2720 2611 3187 
Q 2912 3654 3258 3994 
z
" transform="scale(0.015625)"/>
        <path id="HelveticaNeue-35" d="M 3008 3981 
L 3008 4461 
L 768 4461 
L 346 2106 
L 813 2080 
Q 973 2272 1181 2390 
Q 1389 2509 1658 2509 
Q 1888 2509 2077 2432 
Q 2266 2355 2400 2217 
Q 2534 2080 2608 1891 
Q 2682 1702 2682 1478 
Q 2682 1210 2605 1008 
Q 2528 806 2397 672 
Q 2266 538 2090 470 
Q 1914 403 1722 403 
Q 1517 403 1347 464 
Q 1178 525 1053 637 
Q 928 749 854 899 
Q 781 1050 768 1222 
L 224 1222 
Q 230 915 345 672 
Q 461 429 659 265 
Q 858 102 1117 16 
Q 1376 -70 1670 -70 
Q 2067 -70 2364 54 
Q 2662 179 2860 390 
Q 3059 602 3158 874 
Q 3258 1146 3258 1434 
Q 3258 1824 3142 2115 
Q 3027 2406 2828 2601 
Q 2630 2797 2361 2893 
Q 2093 2989 1792 2989 
Q 1562 2989 1328 2909 
Q 1094 2829 947 2662 
L 934 2675 
L 1178 3981 
L 3008 3981 
z
" transform="scale(0.015625)"/>
       </defs>
       <use xlink:href="#HelveticaNeue-2212" transform="translate(0 0.09375)"/>
       <use xlink:href="#HelveticaNeue-30" transform="translate(59.999985 0.09375)"/>
       <use xlink:href="#HelveticaNeue-2e" transform="translate(115.599976 0.09375)"/>
       <use xlink:href="#HelveticaNeue-37" transform="translate(143.399963 0.09375)"/>
       <use xlink:href="#HelveticaNeue-35" transform="translate(198.999954 0.09375)"/>
      </g>
     </g>
    </g>
    <g id="ytick_3">
     <g id="text_11">
      <!-- $\mathdefault{−0.50}$ -->
      <g style="fill: #262626" transform="translate(26.7775 264.534688) scale(0.11 -0.11)">
       <use xlink:href="#HelveticaNeue-2212" transform="translate(0 0.09375)"/>
       <use xlink:href="#HelveticaNeue-30" transform="translate(59.999985 0.09375)"/>
       <use xlink:href="#HelveticaNeue-2e" transform="translate(115.599976 0.09375)"/>
       <use xlink:href="#HelveticaNeue-35" transform="translate(143.399963 0.09375)"/>
       <use xlink:href="#HelveticaNeue-30" transform="translate(198.999954 0.09375)"/>
      </g>
     </g>
    </g>
    <g id="ytick_4">
     <g id="text_12">
      <!-- $\mathdefault{−0.25}$ -->
      <g style="fill: #262626" transform="translate(26.7775 222.954688) scale(0.11 -0.11)">
       <use xlink:href="#HelveticaNeue-2212" transform="translate(0 0.09375)"/>
       <use xlink:href="#HelveticaNeue-30" transform="translate(59.999985 0.09375)"/>
       <use xlink:href="#HelveticaNeue-2e" transform="translate(115.599976 0.09375)"/>
       <use xlink:href="#HelveticaNeue-32" transform="translate(143.399963 0.09375)"/>
       <use xlink:href="#HelveticaNeue-35" transform="translate(198.999954 0.09375)"/>
      </g>
     </g>
    </g>
    <g id="ytick_5">
     <g id="text_13">
      <!-- $\mathdefault{0.00}$ -->
      <g style="fill: #262626" transform="translate(33.3775 181.374688) scale(0.11 -0.11)">
       <use xlink:href="#HelveticaNeue-30" transform="translate(0 0.09375)"/>
       <use xlink:href="#HelveticaNeue-2e" transform="translate(55.599991 0.09375)"/>
       <use xlink:href="#HelveticaNeue-30" transform="translate(83.399979 0.09375)"/>
       <use xlink:href="#HelveticaNeue-30" transform="translate(138.999969 0.09375)"/>
      </g>
     </g>
    </g>
    <g id="ytick_6">
     <g id="text_14">
      <!-- $\mathdefault{0.25}$ -->
      <g style="fill: #262626" transform="translate(33.3775 139.794688) scale(0.11 -0.11)">
       <use xlink:href="#HelveticaNeue-30" transform="translate(0 0.09375)"/>
       <use xlink:href="#HelveticaNeue-2e" transform="translate(55.599991 0.09375)"/>
       <use xlink:href="#HelveticaNeue-32" transform="translate(83.399979 0.09375)"/>
       <use xlink:href="#HelveticaNeue-35" transform="translate(138.999969 0.09375)"/>
      </g>
     </g>
    </g>
    <g id="ytick_7">
     <g id="text_15">
      <!-- $\mathdefault{0.50}$ -->
      <g style="fill: #262626" transform="translate(33.3775 98.214688) scale(0.11 -0.11)">
       <use xlink:href="#HelveticaNeue-30" transform="translate(0 0.09375)"/>
       <use xlink:href="#HelveticaNeue-2e" transform="translate(55.599991 0.09375)"/>
       <use xlink:href="#HelveticaNeue-35" transform="translate(83.399979 0.09375)"/>
       <use xlink:href="#HelveticaNeue-30" transform="translate(138.999969 0.09375)"/>
      </g>
     </g>
    </g>
    <g id="ytick_8">
     <g id="text_16">
      <!-- $\mathdefault{0.75}$ -->
      <g style="fill: #262626" transform="translate(33.3775 56.634688) scale(0.11 -0.11)">
       <use xlink:href="#HelveticaNeue-30" transform="translate(0 0.09375)"/>
       <use xlink:href="#HelveticaNeue-2e" transform="translate(55.599991 0.09375)"/>
       <use xlink:href="#HelveticaNeue-37" transform="translate(83.399979 0.09375)"/>
       <use xlink:href="#HelveticaNeue-35" transform="translate(138.999969 0.09375)"/>
      </g>
     </g>
    </g>
    <g id="ytick_9">
     <g id="text_17">
      <!-- $\mathdefault{1.00}$ -->
      <g style="fill: #262626" transform="translate(33.3775 15.054688) scale(0.11 -0.11)">
       <use xlink:href="#HelveticaNeue-31" transform="translate(0 0.09375)"/>
       <use xlink:href="#HelveticaNeue-2e" transform="translate(55.599991 0.09375)"/>
       <use xlink:href="#HelveticaNeue-30" transform="translate(83.399979 0.09375)"/>
       <use xlink:href="#HelveticaNeue-30" transform="translate(138.999969 0.09375)"/>
      </g>
     </g>
    </g>
    <g id="text_18">
     <!-- Autocorrelation -->
     <g style="fill: #262626" transform="translate(18.625 231.972344) rotate(-90) scale(0.16 -0.16)">
      <defs>
       <path id="HelveticaNeue-41" d="M 1286 1888 
L 2061 4019 
L 2074 4019 
L 2835 1888 
L 1286 1888 
z
M 1741 4570 
L -38 0 
L 582 0 
L 1094 1376 
L 3027 1376 
L 3526 0 
L 4198 0 
L 2413 4570 
L 1741 4570 
z
" transform="scale(0.015625)"/>
       <path id="HelveticaNeue-75" d="M 3149 0 
L 3149 3309 
L 2605 3309 
L 2605 1440 
Q 2605 1216 2544 1027 
Q 2483 838 2361 697 
Q 2240 557 2057 480 
Q 1875 403 1626 403 
Q 1312 403 1133 582 
Q 954 762 954 1069 
L 954 3309 
L 410 3309 
L 410 1133 
Q 410 864 464 643 
Q 518 422 652 262 
Q 787 102 1004 16 
Q 1222 -70 1549 -70 
Q 1914 -70 2182 74 
Q 2451 218 2624 525 
L 2637 525 
L 2637 0 
L 3149 0 
z
" transform="scale(0.015625)"/>
       <path id="HelveticaNeue-74" d="M 1165 3309 
L 1165 4301 
L 621 4301 
L 621 3309 
L 58 3309 
L 58 2829 
L 621 2829 
L 621 723 
Q 621 493 665 352 
Q 710 211 803 134 
Q 896 58 1046 29 
Q 1197 0 1408 0 
L 1824 0 
L 1824 480 
L 1574 480 
Q 1446 480 1366 489 
Q 1286 499 1241 531 
Q 1197 563 1181 620 
Q 1165 678 1165 774 
L 1165 2829 
L 1824 2829 
L 1824 3309 
L 1165 3309 
z
" transform="scale(0.015625)"/>
       <path id="HelveticaNeue-6f" d="M 806 1651 
Q 806 1952 886 2185 
Q 966 2419 1107 2579 
Q 1248 2739 1437 2822 
Q 1626 2906 1837 2906 
Q 2048 2906 2237 2822 
Q 2426 2739 2566 2579 
Q 2707 2419 2787 2185 
Q 2867 1952 2867 1651 
Q 2867 1350 2787 1116 
Q 2707 883 2566 726 
Q 2426 570 2237 486 
Q 2048 403 1837 403 
Q 1626 403 1437 486 
Q 1248 570 1107 726 
Q 966 883 886 1116 
Q 806 1350 806 1651 
z
M 230 1651 
Q 230 1286 332 972 
Q 435 659 640 425 
Q 845 192 1145 61 
Q 1446 -70 1837 -70 
Q 2234 -70 2531 61 
Q 2829 192 3033 425 
Q 3238 659 3340 972 
Q 3443 1286 3443 1651 
Q 3443 2016 3340 2333 
Q 3238 2650 3033 2883 
Q 2829 3117 2531 3251 
Q 2234 3386 1837 3386 
Q 1446 3386 1145 3251 
Q 845 3117 640 2883 
Q 435 2650 332 2333 
Q 230 2016 230 1651 
z
" transform="scale(0.015625)"/>
       <path id="HelveticaNeue-63" d="M 2656 2246 
L 3219 2246 
Q 3187 2541 3065 2755 
Q 2944 2970 2755 3110 
Q 2566 3251 2320 3318 
Q 2074 3386 1792 3386 
Q 1402 3386 1107 3248 
Q 813 3110 617 2870 
Q 422 2630 326 2307 
Q 230 1984 230 1613 
Q 230 1242 329 931 
Q 429 621 624 397 
Q 819 173 1110 51 
Q 1402 -70 1779 -70 
Q 2413 -70 2781 262 
Q 3149 595 3238 1210 
L 2682 1210 
Q 2630 826 2403 614 
Q 2176 403 1773 403 
Q 1517 403 1331 505 
Q 1146 608 1030 777 
Q 915 947 860 1164 
Q 806 1382 806 1613 
Q 806 1862 857 2096 
Q 909 2330 1027 2509 
Q 1146 2688 1344 2797 
Q 1542 2906 1837 2906 
Q 2182 2906 2387 2733 
Q 2592 2560 2656 2246 
z
" transform="scale(0.015625)"/>
       <path id="HelveticaNeue-72" d="M 390 3309 
L 390 0 
L 934 0 
L 934 1472 
Q 934 1792 998 2038 
Q 1062 2285 1203 2457 
Q 1344 2630 1574 2720 
Q 1805 2810 2131 2810 
L 2131 3386 
Q 1690 3398 1402 3206 
Q 1114 3014 915 2611 
L 902 2611 
L 902 3309 
L 390 3309 
z
" transform="scale(0.015625)"/>
       <path id="HelveticaNeue-65" d="M 2707 1971 
L 806 1971 
Q 819 2163 889 2332 
Q 960 2502 1081 2630 
Q 1203 2758 1372 2832 
Q 1542 2906 1754 2906 
Q 1958 2906 2128 2832 
Q 2298 2758 2422 2633 
Q 2547 2509 2620 2336 
Q 2694 2163 2707 1971 
z
M 3232 1050 
L 2694 1050 
Q 2624 723 2403 563 
Q 2182 403 1837 403 
Q 1568 403 1369 492 
Q 1171 582 1043 732 
Q 915 883 857 1078 
Q 800 1274 806 1491 
L 3283 1491 
Q 3296 1792 3229 2125 
Q 3162 2458 2986 2739 
Q 2810 3021 2518 3203 
Q 2227 3386 1786 3386 
Q 1446 3386 1161 3258 
Q 877 3130 669 2899 
Q 461 2669 345 2355 
Q 230 2042 230 1664 
Q 243 1286 342 966 
Q 442 646 640 416 
Q 838 186 1129 58 
Q 1421 -70 1818 -70 
Q 2381 -70 2752 211 
Q 3123 493 3232 1050 
z
" transform="scale(0.015625)"/>
       <path id="HelveticaNeue-6c" d="M 442 4570 
L 442 0 
L 986 0 
L 986 4570 
L 442 4570 
z
" transform="scale(0.015625)"/>
       <path id="HelveticaNeue-69" d="M 986 3904 
L 986 4570 
L 442 4570 
L 442 3904 
L 986 3904 
z
M 442 3309 
L 442 0 
L 986 0 
L 986 3309 
L 442 3309 
z
" transform="scale(0.015625)"/>
       <path id="HelveticaNeue-6e" d="M 410 3309 
L 410 0 
L 954 0 
L 954 1869 
Q 954 2093 1014 2281 
Q 1075 2470 1196 2611 
Q 1318 2752 1500 2829 
Q 1683 2906 1933 2906 
Q 2246 2906 2425 2726 
Q 2605 2547 2605 2240 
L 2605 0 
L 3149 0 
L 3149 2176 
Q 3149 2445 3094 2665 
Q 3040 2886 2905 3046 
Q 2771 3206 2553 3296 
Q 2336 3386 2010 3386 
Q 1274 3386 934 2784 
L 922 2784 
L 922 3309 
L 410 3309 
z
" transform="scale(0.015625)"/>
      </defs>
      <use xlink:href="#HelveticaNeue-41"/>
      <use xlink:href="#HelveticaNeue-75" x="64.799988"/>
      <use xlink:href="#HelveticaNeue-74" x="120.399979"/>
      <use xlink:href="#HelveticaNeue-6f" x="151.899963"/>
      <use xlink:href="#HelveticaNeue-63" x="209.299957"/>
      <use xlink:href="#HelveticaNeue-6f" x="262.999954"/>
      <use xlink:href="#HelveticaNeue-72" x="320.399948"/>
      <use xlink:href="#HelveticaNeue-72" x="353.699936"/>
      <use xlink:href="#HelveticaNeue-65" x="385.249924"/>
      <use xlink:href="#HelveticaNeue-6c" x="438.949921"/>
      <use xlink:href="#HelveticaNeue-61" x="461.149918"/>
      <use xlink:href="#HelveticaNeue-74" x="514.849915"/>
      <use xlink:href="#HelveticaNeue-69" x="546.349899"/>
      <use xlink:href="#HelveticaNeue-6f" x="568.549896"/>
      <use xlink:href="#HelveticaNeue-6e" x="625.94989"/>
     </g>
    </g>
   </g>
  </g>
 </g>
 <defs>
  <clipPath id="p816152b4f9">
   <rect x="64.3275" y="11.127344" width="558" height="332.64"/>
  </clipPath>
 </defs>
</svg>