<?xml version="1.0" encoding="utf-8" standalone="no"?>
<!DOCTYPE svg PUBLIC "-//W3C//DTD SVG 1.1//EN"
  "http://www.w3.org/Graphics/SVG/1.1/DTD/svg11.dtd">
<svg xmlns:xlink="http://www.w3.org/1999/xlink" width="655.465pt" height="255.89pt" viewBox="0 0 655.465 255.89" xmlns="http://www.w3.org/2000/svg" version="1.1">
 <metadata>
  <rdf:RDF xmlns:dc="http://purl.org/dc/elements/1.1/" xmlns:cc="http://creativecommons.org/ns#" xmlns:rdf="http://www.w3.org/1999/02/22-rdf-syntax-ns#">
   <cc:Work>
    <dc:type rdf:resource="http://purl.org/dc/dcmitype/StillImage"/>
    <dc:date>2023-11-09T19:18:25.809685</dc:date>
    <dc:format>image/svg+xml</dc:format>
    <dc:creator>
     <cc:Agent>
      <dc:title>Matplotlib v3.7.0, https://matplotlib.org/</dc:title>
     </cc:Agent>
    </dc:creator>
   </cc:Work>
  </rdf:RDF>
 </metadata>
 <defs>
  <style type="text/css">*{stroke-linejoin: round; stroke-linecap: butt}</style>
 </defs>
 <g id="figure_1">
  <g id="patch_1">
   <path d="M 0 255.89 
L 655.465 255.89 
L 655.465 0 
L 0 0 
z
" style="fill: #ffffff"/>
  </g>
  <g id="axes_1">
   <g id="patch_2">
    <path d="M 23.74 228.96 
L 637.54 228.96 
L 637.54 7.2 
L 23.74 7.2 
z
" style="fill: #eaeaf2"/>
   </g>
   <g id="line2d_1">
    <path d="M 23.74 173.52 
L 637.54 173.52 
" clip-path="url(#p75a32e670d)" style="fill: none; stroke: #808080; stroke-linecap: round"/>
   </g>
   <g id="line2d_2">
    <path d="M -1 67.32416 
L 2.748642 66.02172 
L 7.091682 64.774448 
L 11.434721 63.809156 
L 15.777761 63.130412 
L 20.1208 62.741432 
L 24.46384 62.644058 
L 28.80688 62.838754 
L 33.149919 63.324595 
L 37.492959 64.09928 
L 41.835998 65.159139 
L 46.179038 66.499157 
L 50.522077 68.113003 
L 54.865117 69.993062 
L 59.208157 72.130482 
L 63.551196 74.515219 
L 67.894236 77.1361 
L 72.237275 79.980878 
L 76.580315 83.036307 
L 82.371034 87.413269 
L 88.161754 92.103517 
L 93.952473 97.068821 
L 101.190872 103.600878 
L 109.876952 111.808279 
L 121.45839 123.137299 
L 141.725908 143.043799 
L 150.411988 151.236986 
L 157.650387 157.76896 
L 164.888786 163.958557 
L 170.679506 168.621739 
L 176.470225 172.997472 
L 182.260944 177.060585 
L 188.051664 180.789357 
L 192.394703 183.355492 
L 196.737743 185.717027 
L 201.080783 187.868888 
L 205.423822 189.807216 
L 209.766862 191.529361 
L 214.109901 193.033888 
L 218.452941 194.320563 
L 222.79598 195.390339 
L 227.13902 196.245327 
L 231.48206 196.888775 
L 235.825099 197.325019 
L 240.168139 197.559453 
L 244.511178 197.59847 
L 248.854218 197.449414 
L 253.197257 197.120519 
L 258.987977 196.418013 
L 264.778696 195.435529 
L 270.569416 194.1987 
L 276.360135 192.734928 
L 283.598534 190.630122 
L 290.836934 188.274495 
L 299.523013 185.201515 
L 312.552132 180.306618 
L 329.92429 173.779174 
L 338.610369 170.725714 
L 347.296448 167.921966 
L 354.534848 165.826286 
L 361.773247 163.985398 
L 367.563966 162.714515 
L 373.354686 161.634912 
L 379.145405 160.75462 
L 384.936125 160.078889 
L 390.726844 159.610199 
L 396.517563 159.34831 
L 402.308283 159.29034 
L 408.099002 159.430871 
L 413.889722 159.762086 
L 421.128121 160.428736 
L 428.36652 161.353371 
L 435.60492 162.507521 
L 444.290999 164.14998 
L 452.977078 166.01552 
L 464.558517 168.737085 
L 496.407474 176.378948 
L 506.541233 178.496492 
L 515.227312 180.078409 
L 522.465711 181.200879 
L 529.70411 182.12527 
L 536.94251 182.837612 
L 544.180909 183.32873 
L 551.419308 183.594309 
L 558.657708 183.634852 
L 565.896107 183.455547 
L 573.134506 183.066042 
L 580.372905 182.480131 
L 589.058985 181.54274 
L 597.745064 180.384507 
L 607.878823 178.810514 
L 620.907941 176.548849 
L 654.204578 170.645723 
L 656.465 170.286379 
L 656.465 170.286379 
" clip-path="url(#p75a32e670d)" style="fill: none; stroke-dasharray: 5.55,2.4; stroke-dashoffset: 0; stroke: #4c72b0; stroke-width: 1.5"/>
   </g>
   <g id="line2d_3">
    <defs>
     <path id="m15e7d05003" d="M 0 3 
C 0.795609 3 1.55874 2.683901 2.12132 2.12132 
C 2.683901 1.55874 3 0.795609 3 0 
C 3 -0.795609 2.683901 -1.55874 2.12132 -2.12132 
C 1.55874 -2.683901 0.795609 -3 0 -3 
C -0.795609 -3 -1.55874 -2.683901 -2.12132 -2.12132 
C -2.683901 -1.55874 -3 -0.795609 -3 0 
C -3 0.795609 -2.683901 1.55874 -2.12132 2.12132 
C -1.55874 2.683901 -0.795609 3 0 3 
z
" style="stroke: #4c72b0"/>
    </defs>
    <g clip-path="url(#p75a32e670d)">
     <use xlink:href="#m15e7d05003" x="23.74" y="62.64" style="fill: #4c72b0; stroke: #4c72b0"/>
    </g>
   </g>
   <g id="line2d_4">
    <g clip-path="url(#p75a32e670d)">
     <use xlink:href="#m15e7d05003" x="100.465" y="102.9316" style="fill: #4c72b0; stroke: #4c72b0"/>
     <use xlink:href="#m15e7d05003" x="177.19" y="173.52" style="fill: #4c72b0; stroke: #4c72b0"/>
     <use xlink:href="#m15e7d05003" x="253.915" y="197.049467" style="fill: #4c72b0; stroke: #4c72b0"/>
     <use xlink:href="#m15e7d05003" x="330.64" y="173.52" style="fill: #4c72b0; stroke: #4c72b0"/>
     <use xlink:href="#m15e7d05003" x="407.365" y="159.40232" style="fill: #4c72b0; stroke: #4c72b0"/>
     <use xlink:href="#m15e7d05003" x="484.09" y="173.52" style="fill: #4c72b0; stroke: #4c72b0"/>
     <use xlink:href="#m15e7d05003" x="560.815" y="183.604057" style="fill: #4c72b0; stroke: #4c72b0"/>
     <use xlink:href="#m15e7d05003" x="637.54" y="173.52" style="fill: #4c72b0; stroke: #4c72b0"/>
     <use xlink:href="#m15e7d05003" x="714.265" y="165.676844" style="fill: #4c72b0; stroke: #4c72b0"/>
    </g>
   </g>
   <g id="patch_3">
    <path d="M 23.74 228.96 
L 23.74 7.2 
" style="fill: none; stroke: #808080; stroke-width: 1.25; stroke-linejoin: miter; stroke-linecap: square"/>
   </g>
   <g id="patch_4">
    <path d="M 637.54 228.96 
L 637.54 7.2 
" style="fill: none; stroke: #808080; stroke-width: 1.25; stroke-linejoin: miter; stroke-linecap: square"/>
   </g>
   <g id="patch_5">
    <path d="M 23.74 228.96 
L 637.54 228.96 
" style="fill: none; stroke: #808080; stroke-width: 1.25; stroke-linejoin: miter; stroke-linecap: square"/>
   </g>
   <g id="patch_6">
    <path d="M 23.74 7.2 
L 637.54 7.2 
" style="fill: none; stroke: #808080; stroke-width: 1.25; stroke-linejoin: miter; stroke-linecap: square"/>
   </g>
   <g id="matplotlib.axis_1">
    <g id="xtick_1">
     <g id="line2d_5">
      <path d="M 23.74 228.96 
L 23.74 7.2 
" clip-path="url(#p75a32e670d)" style="fill: none; stroke: #ffffff; stroke-width: 0.5; stroke-linecap: round"/>
     </g>
     <g id="text_1">
      <!-- $0$ -->
      <g style="fill: #262626" transform="translate(20.22 246.314687) scale(0.11 -0.11)">
       <defs>
        <path id="DejaVuSans-30" d="M 2034 4250 
Q 1547 4250 1301 3770 
Q 1056 3291 1056 2328 
Q 1056 1369 1301 889 
Q 1547 409 2034 409 
Q 2525 409 2770 889 
Q 3016 1369 3016 2328 
Q 3016 3291 2770 3770 
Q 2525 4250 2034 4250 
z
M 2034 4750 
Q 2819 4750 3233 4129 
Q 3647 3509 3647 2328 
Q 3647 1150 3233 529 
Q 2819 -91 2034 -91 
Q 1250 -91 836 529 
Q 422 1150 422 2328 
Q 422 3509 836 4129 
Q 1250 4750 2034 4750 
z
" transform="scale(0.015625)"/>
       </defs>
       <use xlink:href="#DejaVuSans-30" transform="translate(0 0.78125)"/>
      </g>
     </g>
    </g>
    <g id="xtick_2">
     <g id="line2d_6">
      <path d="M 100.465 228.96 
L 100.465 7.2 
" clip-path="url(#p75a32e670d)" style="fill: none; stroke: #ffffff; stroke-width: 0.5; stroke-linecap: round"/>
     </g>
     <g id="text_2">
      <!-- $\omega_0$ -->
      <g style="fill: #262626" transform="translate(93.205 246.314687) scale(0.11 -0.11)">
       <defs>
        <path id="DejaVuSans-Oblique-3c9" d="M 1369 -91 
Q 72 -91 434 1766 
Q 575 2500 1256 3500 
L 1875 3500 
Q 1231 2500 1088 1750 
Q 819 397 1519 397 
Q 2166 397 2478 2078 
L 3009 2078 
Q 2669 388 3316 397 
Q 4013 403 4275 1750 
Q 4419 2500 4169 3500 
L 4788 3500 
Q 5075 2500 4934 1766 
Q 4578 -94 3278 -91 
Q 2428 -88 2503 844 
Q 2194 -91 1369 -91 
z
" transform="scale(0.015625)"/>
       </defs>
       <use xlink:href="#DejaVuSans-Oblique-3c9" transform="translate(0 0.3125)"/>
       <use xlink:href="#DejaVuSans-30" transform="translate(83.740234 -16.09375) scale(0.7)"/>
      </g>
     </g>
    </g>
    <g id="xtick_3">
     <g id="line2d_7">
      <path d="M 177.19 228.96 
L 177.19 7.2 
" clip-path="url(#p75a32e670d)" style="fill: none; stroke: #ffffff; stroke-width: 0.5; stroke-linecap: round"/>
     </g>
     <g id="text_3">
      <!-- $2\omega_0$ -->
      <g style="fill: #262626" transform="translate(166.465 246.522656) scale(0.11 -0.11)">
       <defs>
        <path id="DejaVuSans-32" d="M 1228 531 
L 3431 531 
L 3431 0 
L 469 0 
L 469 531 
Q 828 903 1448 1529 
Q 2069 2156 2228 2338 
Q 2531 2678 2651 2914 
Q 2772 3150 2772 3378 
Q 2772 3750 2511 3984 
Q 2250 4219 1831 4219 
Q 1534 4219 1204 4116 
Q 875 4013 500 3803 
L 500 4441 
Q 881 4594 1212 4672 
Q 1544 4750 1819 4750 
Q 2544 4750 2975 4387 
Q 3406 4025 3406 3419 
Q 3406 3131 3298 2873 
Q 3191 2616 2906 2266 
Q 2828 2175 2409 1742 
Q 1991 1309 1228 531 
z
" transform="scale(0.015625)"/>
       </defs>
       <use xlink:href="#DejaVuSans-32" transform="translate(0 0.78125)"/>
       <use xlink:href="#DejaVuSans-Oblique-3c9" transform="translate(63.623047 0.78125)"/>
       <use xlink:href="#DejaVuSans-30" transform="translate(147.363281 -15.625) scale(0.7)"/>
      </g>
     </g>
    </g>
    <g id="xtick_4">
     <g id="line2d_8">
      <path d="M 253.915 228.96 
L 253.915 7.2 
" clip-path="url(#p75a32e670d)" style="fill: none; stroke: #ffffff; stroke-width: 0.5; stroke-linecap: round"/>
     </g>
     <g id="text_4">
      <!-- $3\omega_0$ -->
      <g style="fill: #262626" transform="translate(243.19 246.522656) scale(0.11 -0.11)">
       <defs>
        <path id="DejaVuSans-33" d="M 2597 2516 
Q 3050 2419 3304 2112 
Q 3559 1806 3559 1356 
Q 3559 666 3084 287 
Q 2609 -91 1734 -91 
Q 1441 -91 1130 -33 
Q 819 25 488 141 
L 488 750 
Q 750 597 1062 519 
Q 1375 441 1716 441 
Q 2309 441 2620 675 
Q 2931 909 2931 1356 
Q 2931 1769 2642 2001 
Q 2353 2234 1838 2234 
L 1294 2234 
L 1294 2753 
L 1863 2753 
Q 2328 2753 2575 2939 
Q 2822 3125 2822 3475 
Q 2822 3834 2567 4026 
Q 2313 4219 1838 4219 
Q 1578 4219 1281 4162 
Q 984 4106 628 3988 
L 628 4550 
Q 988 4650 1302 4700 
Q 1616 4750 1894 4750 
Q 2613 4750 3031 4423 
Q 3450 4097 3450 3541 
Q 3450 3153 3228 2886 
Q 3006 2619 2597 2516 
z
" transform="scale(0.015625)"/>
       </defs>
       <use xlink:href="#DejaVuSans-33" transform="translate(0 0.78125)"/>
       <use xlink:href="#DejaVuSans-Oblique-3c9" transform="translate(63.623047 0.78125)"/>
       <use xlink:href="#DejaVuSans-30" transform="translate(147.363281 -15.625) scale(0.7)"/>
      </g>
     </g>
    </g>
    <g id="xtick_5">
     <g id="line2d_9">
      <path d="M 330.64 228.96 
L 330.64 7.2 
" clip-path="url(#p75a32e670d)" style="fill: none; stroke: #ffffff; stroke-width: 0.5; stroke-linecap: round"/>
     </g>
     <g id="text_5">
      <!-- $4\omega_0$ -->
      <g style="fill: #262626" transform="translate(319.915 246.314687) scale(0.11 -0.11)">
       <defs>
        <path id="DejaVuSans-34" d="M 2419 4116 
L 825 1625 
L 2419 1625 
L 2419 4116 
z
M 2253 4666 
L 3047 4666 
L 3047 1625 
L 3713 1625 
L 3713 1100 
L 3047 1100 
L 3047 0 
L 2419 0 
L 2419 1100 
L 313 1100 
L 313 1709 
L 2253 4666 
z
" transform="scale(0.015625)"/>
       </defs>
       <use xlink:href="#DejaVuSans-34" transform="translate(0 0.09375)"/>
       <use xlink:href="#DejaVuSans-Oblique-3c9" transform="translate(63.623047 0.09375)"/>
       <use xlink:href="#DejaVuSans-30" transform="translate(147.363281 -16.3125) scale(0.7)"/>
      </g>
     </g>
    </g>
    <g id="xtick_6">
     <g id="line2d_10">
      <path d="M 407.365 228.96 
L 407.365 7.2 
" clip-path="url(#p75a32e670d)" style="fill: none; stroke: #ffffff; stroke-width: 0.5; stroke-linecap: round"/>
     </g>
     <g id="text_6">
      <!-- $5\omega_0$ -->
      <g style="fill: #262626" transform="translate(396.64 246.314687) scale(0.11 -0.11)">
       <defs>
        <path id="DejaVuSans-35" d="M 691 4666 
L 3169 4666 
L 3169 4134 
L 1269 4134 
L 1269 2991 
Q 1406 3038 1543 3061 
Q 1681 3084 1819 3084 
Q 2600 3084 3056 2656 
Q 3513 2228 3513 1497 
Q 3513 744 3044 326 
Q 2575 -91 1722 -91 
Q 1428 -91 1123 -41 
Q 819 9 494 109 
L 494 744 
Q 775 591 1075 516 
Q 1375 441 1709 441 
Q 2250 441 2565 725 
Q 2881 1009 2881 1497 
Q 2881 1984 2565 2268 
Q 2250 2553 1709 2553 
Q 1456 2553 1204 2497 
Q 953 2441 691 2322 
L 691 4666 
z
" transform="scale(0.015625)"/>
       </defs>
       <use xlink:href="#DejaVuSans-35" transform="translate(0 0.09375)"/>
       <use xlink:href="#DejaVuSans-Oblique-3c9" transform="translate(63.623047 0.09375)"/>
       <use xlink:href="#DejaVuSans-30" transform="translate(147.363281 -16.3125) scale(0.7)"/>
      </g>
     </g>
    </g>
    <g id="xtick_7">
     <g id="line2d_11">
      <path d="M 484.09 228.96 
L 484.09 7.2 
" clip-path="url(#p75a32e670d)" style="fill: none; stroke: #ffffff; stroke-width: 0.5; stroke-linecap: round"/>
     </g>
     <g id="text_7">
      <!-- $6\omega_0$ -->
      <g style="fill: #262626" transform="translate(473.365 246.522656) scale(0.11 -0.11)">
       <defs>
        <path id="DejaVuSans-36" d="M 2113 2584 
Q 1688 2584 1439 2293 
Q 1191 2003 1191 1497 
Q 1191 994 1439 701 
Q 1688 409 2113 409 
Q 2538 409 2786 701 
Q 3034 994 3034 1497 
Q 3034 2003 2786 2293 
Q 2538 2584 2113 2584 
z
M 3366 4563 
L 3366 3988 
Q 3128 4100 2886 4159 
Q 2644 4219 2406 4219 
Q 1781 4219 1451 3797 
Q 1122 3375 1075 2522 
Q 1259 2794 1537 2939 
Q 1816 3084 2150 3084 
Q 2853 3084 3261 2657 
Q 3669 2231 3669 1497 
Q 3669 778 3244 343 
Q 2819 -91 2113 -91 
Q 1303 -91 875 529 
Q 447 1150 447 2328 
Q 447 3434 972 4092 
Q 1497 4750 2381 4750 
Q 2619 4750 2861 4703 
Q 3103 4656 3366 4563 
z
" transform="scale(0.015625)"/>
       </defs>
       <use xlink:href="#DejaVuSans-36" transform="translate(0 0.78125)"/>
       <use xlink:href="#DejaVuSans-Oblique-3c9" transform="translate(63.623047 0.78125)"/>
       <use xlink:href="#DejaVuSans-30" transform="translate(147.363281 -15.625) scale(0.7)"/>
      </g>
     </g>
    </g>
    <g id="xtick_8">
     <g id="line2d_12">
      <path d="M 560.815 228.96 
L 560.815 7.2 
" clip-path="url(#p75a32e670d)" style="fill: none; stroke: #ffffff; stroke-width: 0.5; stroke-linecap: round"/>
     </g>
     <g id="text_8">
      <!-- $7\omega_0$ -->
      <g style="fill: #262626" transform="translate(550.09 246.314687) scale(0.11 -0.11)">
       <defs>
        <path id="DejaVuSans-37" d="M 525 4666 
L 3525 4666 
L 3525 4397 
L 1831 0 
L 1172 0 
L 2766 4134 
L 525 4134 
L 525 4666 
z
" transform="scale(0.015625)"/>
       </defs>
       <use xlink:href="#DejaVuSans-37" transform="translate(0 0.09375)"/>
       <use xlink:href="#DejaVuSans-Oblique-3c9" transform="translate(63.623047 0.09375)"/>
       <use xlink:href="#DejaVuSans-30" transform="translate(147.363281 -16.3125) scale(0.7)"/>
      </g>
     </g>
    </g>
    <g id="xtick_9">
     <g id="line2d_13">
      <path d="M 637.54 228.96 
L 637.54 7.2 
" clip-path="url(#p75a32e670d)" style="fill: none; stroke: #ffffff; stroke-width: 0.5; stroke-linecap: round"/>
     </g>
     <g id="text_9">
      <!-- $8\omega_0$ -->
      <g style="fill: #262626" transform="translate(626.815 246.522656) scale(0.11 -0.11)">
       <defs>
        <path id="DejaVuSans-38" d="M 2034 2216 
Q 1584 2216 1326 1975 
Q 1069 1734 1069 1313 
Q 1069 891 1326 650 
Q 1584 409 2034 409 
Q 2484 409 2743 651 
Q 3003 894 3003 1313 
Q 3003 1734 2745 1975 
Q 2488 2216 2034 2216 
z
M 1403 2484 
Q 997 2584 770 2862 
Q 544 3141 544 3541 
Q 544 4100 942 4425 
Q 1341 4750 2034 4750 
Q 2731 4750 3128 4425 
Q 3525 4100 3525 3541 
Q 3525 3141 3298 2862 
Q 3072 2584 2669 2484 
Q 3125 2378 3379 2068 
Q 3634 1759 3634 1313 
Q 3634 634 3220 271 
Q 2806 -91 2034 -91 
Q 1263 -91 848 271 
Q 434 634 434 1313 
Q 434 1759 690 2068 
Q 947 2378 1403 2484 
z
M 1172 3481 
Q 1172 3119 1398 2916 
Q 1625 2713 2034 2713 
Q 2441 2713 2670 2916 
Q 2900 3119 2900 3481 
Q 2900 3844 2670 4047 
Q 2441 4250 2034 4250 
Q 1625 4250 1398 4047 
Q 1172 3844 1172 3481 
z
" transform="scale(0.015625)"/>
       </defs>
       <use xlink:href="#DejaVuSans-38" transform="translate(0 0.78125)"/>
       <use xlink:href="#DejaVuSans-Oblique-3c9" transform="translate(63.623047 0.78125)"/>
       <use xlink:href="#DejaVuSans-30" transform="translate(147.363281 -15.625) scale(0.7)"/>
      </g>
     </g>
    </g>
   </g>
   <g id="matplotlib.axis_2">
    <g id="ytick_1">
     <g id="line2d_14">
      <path d="M 23.74 173.52 
L 637.54 173.52 
" clip-path="url(#p75a32e670d)" style="fill: none; stroke: #ffffff; stroke-width: 0.5; stroke-linecap: round"/>
     </g>
     <g id="text_10">
      <!-- $0$ -->
      <g style="fill: #262626" transform="translate(7.2 177.447344) scale(0.11 -0.11)">
       <use xlink:href="#DejaVuSans-30" transform="translate(0 0.78125)"/>
      </g>
     </g>
    </g>
    <g id="ytick_2">
     <g id="line2d_15">
      <path d="M 23.74 62.64 
L 637.54 62.64 
" clip-path="url(#p75a32e670d)" style="fill: none; stroke: #ffffff; stroke-width: 0.5; stroke-linecap: round"/>
     </g>
     <g id="text_11">
      <!-- $1$ -->
      <g style="fill: #262626" transform="translate(7.2 66.567344) scale(0.11 -0.11)">
       <defs>
        <path id="DejaVuSans-31" d="M 794 531 
L 1825 531 
L 1825 4091 
L 703 3866 
L 703 4441 
L 1819 4666 
L 2450 4666 
L 2450 531 
L 3481 531 
L 3481 0 
L 794 0 
L 794 531 
z
" transform="scale(0.015625)"/>
       </defs>
       <use xlink:href="#DejaVuSans-31" transform="translate(0 0.09375)"/>
      </g>
     </g>
    </g>
   </g>
   <g id="legend_1">
    <g id="patch_7">
     <path d="M 494.5 49.76 
L 626.34 49.76 
Q 629.54 49.76 629.54 46.56 
L 629.54 18.4 
Q 629.54 15.2 626.34 15.2 
L 494.5 15.2 
Q 491.3 15.2 491.3 18.4 
L 491.3 46.56 
Q 491.3 49.76 494.5 49.76 
z
" style="fill: #eaeaf2; opacity: 0.3; stroke: #808080; stroke-linejoin: miter"/>
    </g>
    <g id="line2d_16">
     <path d="M 502.5 31.36 
L 508.9 31.36 
" style="fill: none; stroke-dasharray: 22.2,9.6; stroke-dashoffset: 0; stroke: #4c72b0; stroke-width: 6"/>
    </g>
    <g id="text_12">
     <!-- $\frac{2}{n\pi}\sin \left( n\omega_0 \frac{\pi}{2} \right)$ -->
     <g style="fill: #262626" transform="translate(526.5 36.96) scale(0.16 -0.16)">
      <defs>
       <path id="DejaVuSans-Oblique-6e" d="M 3566 2113 
L 3156 0 
L 2578 0 
L 2988 2091 
Q 3016 2238 3031 2350 
Q 3047 2463 3047 2528 
Q 3047 2791 2881 2937 
Q 2716 3084 2419 3084 
Q 1956 3084 1622 2776 
Q 1288 2469 1184 1941 
L 800 0 
L 225 0 
L 903 3500 
L 1478 3500 
L 1363 2950 
Q 1603 3253 1940 3418 
Q 2278 3584 2650 3584 
Q 3113 3584 3367 3334 
Q 3622 3084 3622 2631 
Q 3622 2519 3608 2391 
Q 3594 2263 3566 2113 
z
" transform="scale(0.015625)"/>
       <path id="DejaVuSans-Oblique-3c0" d="M 584 3500 
L 3938 3500 
L 3825 2925 
L 3384 2925 
L 2966 775 
Q 2922 550 2981 450 
Q 3038 353 3209 353 
Q 3256 353 3325 363 
Q 3397 369 3419 372 
L 3338 -44 
Q 3222 -84 3103 -103 
Q 2981 -122 2866 -122 
Q 2491 -122 2388 81 
Q 2284 288 2391 838 
L 2797 2925 
L 1506 2925 
L 938 0 
L 350 0 
L 919 2925 
L 472 2925 
L 584 3500 
z
" transform="scale(0.015625)"/>
       <path id="DejaVuSans-73" d="M 2834 3397 
L 2834 2853 
Q 2591 2978 2328 3040 
Q 2066 3103 1784 3103 
Q 1356 3103 1142 2972 
Q 928 2841 928 2578 
Q 928 2378 1081 2264 
Q 1234 2150 1697 2047 
L 1894 2003 
Q 2506 1872 2764 1633 
Q 3022 1394 3022 966 
Q 3022 478 2636 193 
Q 2250 -91 1575 -91 
Q 1294 -91 989 -36 
Q 684 19 347 128 
L 347 722 
Q 666 556 975 473 
Q 1284 391 1588 391 
Q 1994 391 2212 530 
Q 2431 669 2431 922 
Q 2431 1156 2273 1281 
Q 2116 1406 1581 1522 
L 1381 1569 
Q 847 1681 609 1914 
Q 372 2147 372 2553 
Q 372 3047 722 3315 
Q 1072 3584 1716 3584 
Q 2034 3584 2315 3537 
Q 2597 3491 2834 3397 
z
" transform="scale(0.015625)"/>
       <path id="DejaVuSans-69" d="M 603 3500 
L 1178 3500 
L 1178 0 
L 603 0 
L 603 3500 
z
M 603 4863 
L 1178 4863 
L 1178 4134 
L 603 4134 
L 603 4863 
z
" transform="scale(0.015625)"/>
       <path id="DejaVuSans-6e" d="M 3513 2113 
L 3513 0 
L 2938 0 
L 2938 2094 
Q 2938 2591 2744 2837 
Q 2550 3084 2163 3084 
Q 1697 3084 1428 2787 
Q 1159 2491 1159 1978 
L 1159 0 
L 581 0 
L 581 3500 
L 1159 3500 
L 1159 2956 
Q 1366 3272 1645 3428 
Q 1925 3584 2291 3584 
Q 2894 3584 3203 3211 
Q 3513 2838 3513 2113 
z
" transform="scale(0.015625)"/>
       <path id="STIXSizeOneSym-Regular-28" d="M 2445 -858 
L 2445 -1050 
Q 1728 -371 1309 630 
Q 890 1632 890 2886 
Q 890 4122 1309 5136 
Q 1728 6150 2445 6822 
L 2445 6630 
Q 1408 5363 1408 2886 
Q 1408 410 2445 -858 
z
" transform="scale(0.015625)"/>
       <path id="STIXSizeOneSym-Regular-29" d="M 550 6630 
L 550 6822 
Q 1267 6144 1686 5142 
Q 2106 4141 2106 2886 
Q 2106 1651 1686 636 
Q 1267 -378 550 -1050 
L 550 -858 
Q 1587 410 1587 2886 
Q 1587 5363 550 6630 
z
" transform="scale(0.015625)"/>
      </defs>
      <use xlink:href="#DejaVuSans-32" transform="translate(21 44.046875) scale(0.7)"/>
      <use xlink:href="#DejaVuSans-Oblique-6e" transform="translate(0 -26.403125) scale(0.7)"/>
      <use xlink:href="#DejaVuSans-Oblique-3c0" transform="translate(44.365234 -26.403125) scale(0.7)"/>
      <use xlink:href="#DejaVuSans-73" transform="translate(99.008789 0.25)"/>
      <use xlink:href="#DejaVuSans-69" transform="translate(151.108398 0.25)"/>
      <use xlink:href="#DejaVuSans-6e" transform="translate(178.891602 0.25)"/>
      <use xlink:href="#STIXSizeOneSym-Regular-28" transform="translate(258.506184 -22.75) scale(0.998526)"/>
      <use xlink:href="#DejaVuSans-Oblique-6e" transform="translate(305.247685 0.25)"/>
      <use xlink:href="#DejaVuSans-Oblique-3c9" transform="translate(368.626591 0.25)"/>
      <use xlink:href="#DejaVuSans-30" transform="translate(452.366826 -16.15625) scale(0.7)"/>
      <use xlink:href="#DejaVuSans-Oblique-3c0" transform="translate(500.637333 45.38125) scale(0.7)"/>
      <use xlink:href="#DejaVuSans-32" transform="translate(499.637333 -39.15625) scale(0.7)"/>
      <use xlink:href="#STIXSizeOneSym-Regular-29" transform="translate(556.673466 -22.75) scale(0.998526)"/>
      <path d="M 0 19.046875 
L 0 25.296875 
L 86.508789 25.296875 
L 86.508789 19.046875 
L 0 19.046875 
z
"/>
      <path d="M 499.637333 19.046875 
L 499.637333 25.296875 
L 544.173466 25.296875 
L 544.173466 19.046875 
L 499.637333 19.046875 
z
"/>
     </g>
    </g>
   </g>
  </g>
 </g>
 <defs>
  <clipPath id="p75a32e670d">
   <rect x="23.74" y="7.2" width="613.8" height="221.76"/>
  </clipPath>
 </defs>
</svg>