<?xml version="1.0" encoding="utf-8" standalone="no"?>
<!DOCTYPE svg PUBLIC "-//W3C//DTD SVG 1.1//EN"
  "http://www.w3.org/Graphics/SVG/1.1/DTD/svg11.dtd">
<svg xmlns:xlink="http://www.w3.org/1999/xlink" width="938.59pt" height="219.952031pt" viewBox="0 0 938.59 219.952031" xmlns="http://www.w3.org/2000/svg" version="1.1">
 <metadata>
  <rdf:RDF xmlns:dc="http://purl.org/dc/elements/1.1/" xmlns:cc="http://creativecommons.org/ns#" xmlns:rdf="http://www.w3.org/1999/02/22-rdf-syntax-ns#">
   <cc:Work>
    <dc:type rdf:resource="http://purl.org/dc/dcmitype/StillImage"/>
    <dc:date>2023-11-09T00:45:04.434947</dc:date>
    <dc:format>image/svg+xml</dc:format>
    <dc:creator>
     <cc:Agent>
      <dc:title>Matplotlib v3.7.0, https://matplotlib.org/</dc:title>
     </cc:Agent>
    </dc:creator>
   </cc:Work>
  </rdf:RDF>
 </metadata>
 <defs>
  <style type="text/css">*{stroke-linejoin: round; stroke-linecap: butt}</style>
 </defs>
 <g id="figure_1">
  <g id="patch_1">
   <path d="M 0 219.952031 
L 938.59 219.952031 
L 938.59 0 
L 0 0 
z
" style="fill: #ffffff"/>
  </g>
  <g id="axes_1">
   <g id="patch_2">
    <path d="M 38.59 193.23 
L 444.408182 193.23 
L 444.408182 26.91 
L 38.59 26.91 
z
" style="fill: #eaeaf2"/>
   </g>
   <g id="PolyCollection_1">
    <defs>
     <path id="m936e2ced82" d="M 60.68901 -123.464582 
L 60.68901 -96.299481 
L 71.647197 -87.163871 
L 78.952654 -81.6158 
L 86.258112 -77.647233 
L 93.56357 -74.553796 
L 100.869028 -71.986608 
L 108.174486 -69.787811 
L 115.479944 -67.81437 
L 122.785401 -65.969832 
L 130.090859 -64.117616 
L 137.396317 -62.168455 
L 144.701775 -60.078343 
L 152.007233 -57.980713 
L 159.31269 -56.205761 
L 166.618148 -54.78863 
L 173.923606 -53.650785 
L 181.229064 -52.709207 
L 188.534522 -51.908921 
L 195.83998 -51.213907 
L 203.145437 -50.580914 
L 210.450895 -49.97723 
L 217.756353 -49.336841 
L 225.061811 -48.631623 
L 232.367269 -47.831383 
L 239.672726 -46.994948 
L 246.978184 -46.283143 
L 254.283642 -45.729763 
L 261.5891 -45.299167 
L 268.894558 -44.954097 
L 276.200016 -44.672798 
L 283.505473 -44.437752 
L 290.810931 -44.231352 
L 298.116389 -44.03536 
L 305.421847 -43.821045 
L 312.727305 -43.572644 
L 320.032762 -43.278365 
L 327.33822 -42.964485 
L 334.643678 -42.711296 
L 341.949136 -42.534366 
L 349.254594 -42.412917 
L 356.560052 -42.331911 
L 363.865509 -42.279618 
L 371.170967 -42.245758 
L 378.476425 -42.223182 
L 385.781883 -42.204774 
L 393.087341 -42.183295 
L 400.392798 -42.153901 
L 407.698256 -42.112077 
L 415.003714 -42.064205 
L 425.961901 -42.034931 
L 425.961901 -177.729131 
L 425.961901 -177.729131 
L 415.003714 -177.699858 
L 407.698256 -177.651985 
L 400.392798 -177.610162 
L 393.087341 -177.580767 
L 385.781883 -177.559289 
L 378.476425 -177.54088 
L 371.170967 -177.518304 
L 363.865509 -177.484444 
L 356.560052 -177.432151 
L 349.254594 -177.351145 
L 341.949136 -177.229696 
L 334.643678 -177.052767 
L 327.33822 -176.799577 
L 320.032762 -176.485697 
L 312.727305 -176.191418 
L 305.421847 -175.943018 
L 298.116389 -175.728702 
L 290.810931 -175.532711 
L 283.505473 -175.326311 
L 276.200016 -175.091264 
L 268.894558 -174.809965 
L 261.5891 -174.464895 
L 254.283642 -174.0343 
L 246.978184 -173.48092 
L 239.672726 -172.769114 
L 232.367269 -171.932679 
L 225.061811 -171.132439 
L 217.756353 -170.427221 
L 210.450895 -169.786833 
L 203.145437 -169.183149 
L 195.83998 -168.550156 
L 188.534522 -167.855142 
L 181.229064 -167.054855 
L 173.923606 -166.113278 
L 166.618148 -164.975433 
L 159.31269 -163.558302 
L 152.007233 -161.783349 
L 144.701775 -159.685719 
L 137.396317 -157.595608 
L 130.090859 -155.646446 
L 122.785401 -153.79423 
L 115.479944 -151.949692 
L 108.174486 -149.976252 
L 100.869028 -147.777455 
L 93.56357 -145.210266 
L 86.258112 -142.116829 
L 78.952654 -138.148262 
L 71.647197 -132.600192 
L 60.68901 -123.464582 
z
" style="stroke: #ffffff; stroke-opacity: 0.25"/>
    </defs>
    <g clip-path="url(#pcd7cfb4a6a)">
     <use xlink:href="#m936e2ced82" x="0" y="219.952031" style="fill: #4c72b0; fill-opacity: 0.25; stroke: #ffffff; stroke-opacity: 0.25"/>
    </g>
   </g>
   <g id="LineCollection_1">
    <path d="M 57.036281 110.07 
L 57.036281 26.91 
" clip-path="url(#pcd7cfb4a6a)" style="fill: none; stroke: #4c72b0; stroke-width: 1.5"/>
    <path d="M 64.341739 110.07 
L 64.341739 31.230383 
" clip-path="url(#pcd7cfb4a6a)" style="fill: none; stroke: #4c72b0; stroke-width: 1.5"/>
    <path d="M 71.647197 110.07 
L 71.647197 37.257197 
" clip-path="url(#pcd7cfb4a6a)" style="fill: none; stroke: #4c72b0; stroke-width: 1.5"/>
    <path d="M 78.952654 110.07 
L 78.952654 42.986395 
" clip-path="url(#pcd7cfb4a6a)" style="fill: none; stroke: #4c72b0; stroke-width: 1.5"/>
    <path d="M 86.258112 110.07 
L 86.258112 47.48167 
" clip-path="url(#pcd7cfb4a6a)" style="fill: none; stroke: #4c72b0; stroke-width: 1.5"/>
    <path d="M 93.56357 110.07 
L 93.56357 50.712889 
" clip-path="url(#pcd7cfb4a6a)" style="fill: none; stroke: #4c72b0; stroke-width: 1.5"/>
    <path d="M 100.869028 110.07 
L 100.869028 53.377034 
" clip-path="url(#pcd7cfb4a6a)" style="fill: none; stroke: #4c72b0; stroke-width: 1.5"/>
    <path d="M 108.174486 110.07 
L 108.174486 54.942871 
" clip-path="url(#pcd7cfb4a6a)" style="fill: none; stroke: #4c72b0; stroke-width: 1.5"/>
    <path d="M 115.479944 110.07 
L 115.479944 55.549432 
" clip-path="url(#pcd7cfb4a6a)" style="fill: none; stroke: #4c72b0; stroke-width: 1.5"/>
    <path d="M 122.785401 110.07 
L 122.785401 54.273937 
" clip-path="url(#pcd7cfb4a6a)" style="fill: none; stroke: #4c72b0; stroke-width: 1.5"/>
    <path d="M 130.090859 110.07 
L 130.090859 51.631811 
" clip-path="url(#pcd7cfb4a6a)" style="fill: none; stroke: #4c72b0; stroke-width: 1.5"/>
    <path d="M 137.396317 110.07 
L 137.396317 48.262146 
" clip-path="url(#pcd7cfb4a6a)" style="fill: none; stroke: #4c72b0; stroke-width: 1.5"/>
    <path d="M 144.701775 110.07 
L 144.701775 46.835548 
" clip-path="url(#pcd7cfb4a6a)" style="fill: none; stroke: #4c72b0; stroke-width: 1.5"/>
    <path d="M 152.007233 110.07 
L 152.007233 50.805122 
" clip-path="url(#pcd7cfb4a6a)" style="fill: none; stroke: #4c72b0; stroke-width: 1.5"/>
    <path d="M 159.31269 110.07 
L 159.31269 56.320176 
" clip-path="url(#pcd7cfb4a6a)" style="fill: none; stroke: #4c72b0; stroke-width: 1.5"/>
    <path d="M 166.618148 110.07 
L 166.618148 61.344608 
" clip-path="url(#pcd7cfb4a6a)" style="fill: none; stroke: #4c72b0; stroke-width: 1.5"/>
    <path d="M 173.923606 110.07 
L 173.923606 65.333646 
" clip-path="url(#pcd7cfb4a6a)" style="fill: none; stroke: #4c72b0; stroke-width: 1.5"/>
    <path d="M 181.229064 110.07 
L 181.229064 68.510996 
" clip-path="url(#pcd7cfb4a6a)" style="fill: none; stroke: #4c72b0; stroke-width: 1.5"/>
    <path d="M 188.534522 110.07 
L 188.534522 71.090079 
" clip-path="url(#pcd7cfb4a6a)" style="fill: none; stroke: #4c72b0; stroke-width: 1.5"/>
    <path d="M 195.83998 110.07 
L 195.83998 72.658756 
" clip-path="url(#pcd7cfb4a6a)" style="fill: none; stroke: #4c72b0; stroke-width: 1.5"/>
    <path d="M 203.145437 110.07 
L 203.145437 73.344149 
" clip-path="url(#pcd7cfb4a6a)" style="fill: none; stroke: #4c72b0; stroke-width: 1.5"/>
    <path d="M 210.450895 110.07 
L 210.450895 72.047272 
" clip-path="url(#pcd7cfb4a6a)" style="fill: none; stroke: #4c72b0; stroke-width: 1.5"/>
    <path d="M 217.756353 110.07 
L 217.756353 69.946794 
" clip-path="url(#pcd7cfb4a6a)" style="fill: none; stroke: #4c72b0; stroke-width: 1.5"/>
    <path d="M 225.061811 110.07 
L 225.061811 67.06572 
" clip-path="url(#pcd7cfb4a6a)" style="fill: none; stroke: #4c72b0; stroke-width: 1.5"/>
    <path d="M 232.367269 110.07 
L 232.367269 65.813094 
" clip-path="url(#pcd7cfb4a6a)" style="fill: none; stroke: #4c72b0; stroke-width: 1.5"/>
    <path d="M 239.672726 110.07 
L 239.672726 68.990981 
" clip-path="url(#pcd7cfb4a6a)" style="fill: none; stroke: #4c72b0; stroke-width: 1.5"/>
    <path d="M 246.978184 110.07 
L 246.978184 73.669094 
" clip-path="url(#pcd7cfb4a6a)" style="fill: none; stroke: #4c72b0; stroke-width: 1.5"/>
    <path d="M 254.283642 110.07 
L 254.283642 77.836943 
" clip-path="url(#pcd7cfb4a6a)" style="fill: none; stroke: #4c72b0; stroke-width: 1.5"/>
    <path d="M 261.5891 110.07 
L 261.5891 81.128238 
" clip-path="url(#pcd7cfb4a6a)" style="fill: none; stroke: #4c72b0; stroke-width: 1.5"/>
    <path d="M 268.894558 110.07 
L 268.894558 83.875941 
" clip-path="url(#pcd7cfb4a6a)" style="fill: none; stroke: #4c72b0; stroke-width: 1.5"/>
    <path d="M 276.200016 110.07 
L 276.200016 86.078605 
" clip-path="url(#pcd7cfb4a6a)" style="fill: none; stroke: #4c72b0; stroke-width: 1.5"/>
    <path d="M 283.505473 110.07 
L 283.505473 87.550117 
" clip-path="url(#pcd7cfb4a6a)" style="fill: none; stroke: #4c72b0; stroke-width: 1.5"/>
    <path d="M 290.810931 110.07 
L 290.810931 88.091635 
" clip-path="url(#pcd7cfb4a6a)" style="fill: none; stroke: #4c72b0; stroke-width: 1.5"/>
    <path d="M 298.116389 110.07 
L 298.116389 87.051367 
" clip-path="url(#pcd7cfb4a6a)" style="fill: none; stroke: #4c72b0; stroke-width: 1.5"/>
    <path d="M 305.421847 110.07 
L 305.421847 85.244952 
" clip-path="url(#pcd7cfb4a6a)" style="fill: none; stroke: #4c72b0; stroke-width: 1.5"/>
    <path d="M 312.727305 110.07 
L 312.727305 82.994175 
" clip-path="url(#pcd7cfb4a6a)" style="fill: none; stroke: #4c72b0; stroke-width: 1.5"/>
    <path d="M 320.032762 110.07 
L 320.032762 82.043118 
" clip-path="url(#pcd7cfb4a6a)" style="fill: none; stroke: #4c72b0; stroke-width: 1.5"/>
    <path d="M 327.33822 110.07 
L 327.33822 84.844673 
" clip-path="url(#pcd7cfb4a6a)" style="fill: none; stroke: #4c72b0; stroke-width: 1.5"/>
    <path d="M 334.643678 110.07 
L 334.643678 88.949266 
" clip-path="url(#pcd7cfb4a6a)" style="fill: none; stroke: #4c72b0; stroke-width: 1.5"/>
    <path d="M 341.949136 110.07 
L 341.949136 92.551902 
" clip-path="url(#pcd7cfb4a6a)" style="fill: none; stroke: #4c72b0; stroke-width: 1.5"/>
    <path d="M 349.254594 110.07 
L 349.254594 95.752266 
" clip-path="url(#pcd7cfb4a6a)" style="fill: none; stroke: #4c72b0; stroke-width: 1.5"/>
    <path d="M 356.560052 110.07 
L 356.560052 98.560622 
" clip-path="url(#pcd7cfb4a6a)" style="fill: none; stroke: #4c72b0; stroke-width: 1.5"/>
    <path d="M 363.865509 110.07 
L 363.865509 100.805706 
" clip-path="url(#pcd7cfb4a6a)" style="fill: none; stroke: #4c72b0; stroke-width: 1.5"/>
    <path d="M 371.170967 110.07 
L 371.170967 102.503727 
" clip-path="url(#pcd7cfb4a6a)" style="fill: none; stroke: #4c72b0; stroke-width: 1.5"/>
    <path d="M 378.476425 110.07 
L 378.476425 103.236596 
" clip-path="url(#pcd7cfb4a6a)" style="fill: none; stroke: #4c72b0; stroke-width: 1.5"/>
    <path d="M 385.781883 110.07 
L 385.781883 102.687702 
" clip-path="url(#pcd7cfb4a6a)" style="fill: none; stroke: #4c72b0; stroke-width: 1.5"/>
    <path d="M 393.087341 110.07 
L 393.087341 101.432206 
" clip-path="url(#pcd7cfb4a6a)" style="fill: none; stroke: #4c72b0; stroke-width: 1.5"/>
    <path d="M 400.392798 110.07 
L 400.392798 99.763913 
" clip-path="url(#pcd7cfb4a6a)" style="fill: none; stroke: #4c72b0; stroke-width: 1.5"/>
    <path d="M 407.698256 110.07 
L 407.698256 99.04011 
" clip-path="url(#pcd7cfb4a6a)" style="fill: none; stroke: #4c72b0; stroke-width: 1.5"/>
    <path d="M 415.003714 110.07 
L 415.003714 101.44238 
" clip-path="url(#pcd7cfb4a6a)" style="fill: none; stroke: #4c72b0; stroke-width: 1.5"/>
    <path d="M 422.309172 110.07 
L 422.309172 104.905927 
" clip-path="url(#pcd7cfb4a6a)" style="fill: none; stroke: #4c72b0; stroke-width: 1.5"/>
   </g>
   <g id="line2d_1">
    <path d="M 38.59 110.07 
L 444.408182 110.07 
" clip-path="url(#pcd7cfb4a6a)" style="fill: none; stroke: #4c72b0; stroke-width: 1.5; stroke-linecap: round"/>
   </g>
   <g id="line2d_2">
    <defs>
     <path id="me1f0602024" d="M 0 2.5 
C 0.663008 2.5 1.29895 2.236584 1.767767 1.767767 
C 2.236584 1.29895 2.5 0.663008 2.5 0 
C 2.5 -0.663008 2.236584 -1.29895 1.767767 -1.767767 
C 1.29895 -2.236584 0.663008 -2.5 0 -2.5 
C -0.663008 -2.5 -1.29895 -2.236584 -1.767767 -1.767767 
C -2.236584 -1.29895 -2.5 -0.663008 -2.5 0 
C -2.5 0.663008 -2.236584 1.29895 -1.767767 1.767767 
C -1.29895 2.236584 -0.663008 2.5 0 2.5 
z
" style="stroke: #4c72b0"/>
    </defs>
    <g clip-path="url(#pcd7cfb4a6a)">
     <use xlink:href="#me1f0602024" x="57.036281" y="26.91" style="fill: #4c72b0; stroke: #4c72b0"/>
     <use xlink:href="#me1f0602024" x="64.341739" y="31.230383" style="fill: #4c72b0; stroke: #4c72b0"/>
     <use xlink:href="#me1f0602024" x="71.647197" y="37.257197" style="fill: #4c72b0; stroke: #4c72b0"/>
     <use xlink:href="#me1f0602024" x="78.952654" y="42.986395" style="fill: #4c72b0; stroke: #4c72b0"/>
     <use xlink:href="#me1f0602024" x="86.258112" y="47.48167" style="fill: #4c72b0; stroke: #4c72b0"/>
     <use xlink:href="#me1f0602024" x="93.56357" y="50.712889" style="fill: #4c72b0; stroke: #4c72b0"/>
     <use xlink:href="#me1f0602024" x="100.869028" y="53.377034" style="fill: #4c72b0; stroke: #4c72b0"/>
     <use xlink:href="#me1f0602024" x="108.174486" y="54.942871" style="fill: #4c72b0; stroke: #4c72b0"/>
     <use xlink:href="#me1f0602024" x="115.479944" y="55.549432" style="fill: #4c72b0; stroke: #4c72b0"/>
     <use xlink:href="#me1f0602024" x="122.785401" y="54.273937" style="fill: #4c72b0; stroke: #4c72b0"/>
     <use xlink:href="#me1f0602024" x="130.090859" y="51.631811" style="fill: #4c72b0; stroke: #4c72b0"/>
     <use xlink:href="#me1f0602024" x="137.396317" y="48.262146" style="fill: #4c72b0; stroke: #4c72b0"/>
     <use xlink:href="#me1f0602024" x="144.701775" y="46.835548" style="fill: #4c72b0; stroke: #4c72b0"/>
     <use xlink:href="#me1f0602024" x="152.007233" y="50.805122" style="fill: #4c72b0; stroke: #4c72b0"/>
     <use xlink:href="#me1f0602024" x="159.31269" y="56.320176" style="fill: #4c72b0; stroke: #4c72b0"/>
     <use xlink:href="#me1f0602024" x="166.618148" y="61.344608" style="fill: #4c72b0; stroke: #4c72b0"/>
     <use xlink:href="#me1f0602024" x="173.923606" y="65.333646" style="fill: #4c72b0; stroke: #4c72b0"/>
     <use xlink:href="#me1f0602024" x="181.229064" y="68.510996" style="fill: #4c72b0; stroke: #4c72b0"/>
     <use xlink:href="#me1f0602024" x="188.534522" y="71.090079" style="fill: #4c72b0; stroke: #4c72b0"/>
     <use xlink:href="#me1f0602024" x="195.83998" y="72.658756" style="fill: #4c72b0; stroke: #4c72b0"/>
     <use xlink:href="#me1f0602024" x="203.145437" y="73.344149" style="fill: #4c72b0; stroke: #4c72b0"/>
     <use xlink:href="#me1f0602024" x="210.450895" y="72.047272" style="fill: #4c72b0; stroke: #4c72b0"/>
     <use xlink:href="#me1f0602024" x="217.756353" y="69.946794" style="fill: #4c72b0; stroke: #4c72b0"/>
     <use xlink:href="#me1f0602024" x="225.061811" y="67.06572" style="fill: #4c72b0; stroke: #4c72b0"/>
     <use xlink:href="#me1f0602024" x="232.367269" y="65.813094" style="fill: #4c72b0; stroke: #4c72b0"/>
     <use xlink:href="#me1f0602024" x="239.672726" y="68.990981" style="fill: #4c72b0; stroke: #4c72b0"/>
     <use xlink:href="#me1f0602024" x="246.978184" y="73.669094" style="fill: #4c72b0; stroke: #4c72b0"/>
     <use xlink:href="#me1f0602024" x="254.283642" y="77.836943" style="fill: #4c72b0; stroke: #4c72b0"/>
     <use xlink:href="#me1f0602024" x="261.5891" y="81.128238" style="fill: #4c72b0; stroke: #4c72b0"/>
     <use xlink:href="#me1f0602024" x="268.894558" y="83.875941" style="fill: #4c72b0; stroke: #4c72b0"/>
     <use xlink:href="#me1f0602024" x="276.200016" y="86.078605" style="fill: #4c72b0; stroke: #4c72b0"/>
     <use xlink:href="#me1f0602024" x="283.505473" y="87.550117" style="fill: #4c72b0; stroke: #4c72b0"/>
     <use xlink:href="#me1f0602024" x="290.810931" y="88.091635" style="fill: #4c72b0; stroke: #4c72b0"/>
     <use xlink:href="#me1f0602024" x="298.116389" y="87.051367" style="fill: #4c72b0; stroke: #4c72b0"/>
     <use xlink:href="#me1f0602024" x="305.421847" y="85.244952" style="fill: #4c72b0; stroke: #4c72b0"/>
     <use xlink:href="#me1f0602024" x="312.727305" y="82.994175" style="fill: #4c72b0; stroke: #4c72b0"/>
     <use xlink:href="#me1f0602024" x="320.032762" y="82.043118" style="fill: #4c72b0; stroke: #4c72b0"/>
     <use xlink:href="#me1f0602024" x="327.33822" y="84.844673" style="fill: #4c72b0; stroke: #4c72b0"/>
     <use xlink:href="#me1f0602024" x="334.643678" y="88.949266" style="fill: #4c72b0; stroke: #4c72b0"/>
     <use xlink:href="#me1f0602024" x="341.949136" y="92.551902" style="fill: #4c72b0; stroke: #4c72b0"/>
     <use xlink:href="#me1f0602024" x="349.254594" y="95.752266" style="fill: #4c72b0; stroke: #4c72b0"/>
     <use xlink:href="#me1f0602024" x="356.560052" y="98.560622" style="fill: #4c72b0; stroke: #4c72b0"/>
     <use xlink:href="#me1f0602024" x="363.865509" y="100.805706" style="fill: #4c72b0; stroke: #4c72b0"/>
     <use xlink:href="#me1f0602024" x="371.170967" y="102.503727" style="fill: #4c72b0; stroke: #4c72b0"/>
     <use xlink:href="#me1f0602024" x="378.476425" y="103.236596" style="fill: #4c72b0; stroke: #4c72b0"/>
     <use xlink:href="#me1f0602024" x="385.781883" y="102.687702" style="fill: #4c72b0; stroke: #4c72b0"/>
     <use xlink:href="#me1f0602024" x="393.087341" y="101.432206" style="fill: #4c72b0; stroke: #4c72b0"/>
     <use xlink:href="#me1f0602024" x="400.392798" y="99.763913" style="fill: #4c72b0; stroke: #4c72b0"/>
     <use xlink:href="#me1f0602024" x="407.698256" y="99.04011" style="fill: #4c72b0; stroke: #4c72b0"/>
     <use xlink:href="#me1f0602024" x="415.003714" y="101.44238" style="fill: #4c72b0; stroke: #4c72b0"/>
     <use xlink:href="#me1f0602024" x="422.309172" y="104.905927" style="fill: #4c72b0; stroke: #4c72b0"/>
    </g>
   </g>
   <g id="patch_3">
    <path d="M 38.59 193.23 
L 38.59 26.91 
" style="fill: none; stroke: #808080; stroke-width: 1.25; stroke-linejoin: miter; stroke-linecap: square"/>
   </g>
   <g id="patch_4">
    <path d="M 444.408182 193.23 
L 444.408182 26.91 
" style="fill: none; stroke: #808080; stroke-width: 1.25; stroke-linejoin: miter; stroke-linecap: square"/>
   </g>
   <g id="patch_5">
    <path d="M 38.59 193.23 
L 444.408182 193.23 
" style="fill: none; stroke: #808080; stroke-width: 1.25; stroke-linejoin: miter; stroke-linecap: square"/>
   </g>
   <g id="patch_6">
    <path d="M 38.59 26.91 
L 444.408182 26.91 
" style="fill: none; stroke: #808080; stroke-width: 1.25; stroke-linejoin: miter; stroke-linecap: square"/>
   </g>
   <g id="matplotlib.axis_1">
    <g id="xtick_1">
     <g id="line2d_3">
      <path d="M 57.036281 193.23 
L 57.036281 26.91 
" clip-path="url(#pcd7cfb4a6a)" style="fill: none; stroke: #ffffff; stroke-width: 0.5; stroke-linecap: round"/>
     </g>
     <g id="text_1">
      <!-- $\mathdefault{0}$ -->
      <g style="fill: #262626" transform="translate(53.956281 210.584688) scale(0.11 -0.11)">
       <defs>
        <path id="HelveticaNeue-30" d="M 845 2234 
Q 845 2400 848 2601 
Q 851 2803 880 3004 
Q 909 3206 963 3398 
Q 1018 3590 1123 3734 
Q 1229 3878 1389 3968 
Q 1549 4058 1779 4058 
Q 2010 4058 2170 3968 
Q 2330 3878 2435 3734 
Q 2541 3590 2595 3398 
Q 2650 3206 2678 3004 
Q 2707 2803 2710 2601 
Q 2714 2400 2714 2234 
Q 2714 1978 2698 1661 
Q 2682 1344 2595 1065 
Q 2509 787 2317 595 
Q 2125 403 1779 403 
Q 1434 403 1242 595 
Q 1050 787 963 1065 
Q 877 1344 861 1661 
Q 845 1978 845 2234 
z
M 269 2227 
Q 269 1978 281 1709 
Q 294 1440 345 1184 
Q 397 928 493 701 
Q 589 474 755 301 
Q 922 128 1174 29 
Q 1427 -70 1779 -70 
Q 2138 -70 2387 29 
Q 2637 128 2803 301 
Q 2970 474 3066 701 
Q 3162 928 3213 1184 
Q 3264 1440 3277 1709 
Q 3290 1978 3290 2227 
Q 3290 2477 3277 2745 
Q 3264 3014 3213 3270 
Q 3162 3526 3066 3756 
Q 2970 3987 2803 4160 
Q 2637 4333 2384 4435 
Q 2131 4538 1779 4538 
Q 1427 4538 1174 4435 
Q 922 4333 755 4160 
Q 589 3987 493 3756 
Q 397 3526 345 3270 
Q 294 3014 281 2745 
Q 269 2477 269 2227 
z
" transform="scale(0.015625)"/>
       </defs>
       <use xlink:href="#HelveticaNeue-30" transform="translate(0 0.09375)"/>
      </g>
     </g>
    </g>
    <g id="xtick_2">
     <g id="line2d_4">
      <path d="M 130.090859 193.23 
L 130.090859 26.91 
" clip-path="url(#pcd7cfb4a6a)" style="fill: none; stroke: #ffffff; stroke-width: 0.5; stroke-linecap: round"/>
     </g>
     <g id="text_2">
      <!-- $\mathdefault{10}$ -->
      <g style="fill: #262626" transform="translate(123.930859 210.584688) scale(0.11 -0.11)">
       <defs>
        <path id="HelveticaNeue-31" d="M 2278 0 
L 2278 4538 
L 1862 4538 
Q 1818 4282 1696 4115 
Q 1574 3949 1398 3853 
Q 1222 3757 1004 3721 
Q 787 3686 557 3686 
L 557 3251 
L 1734 3251 
L 1734 0 
L 2278 0 
z
" transform="scale(0.015625)"/>
       </defs>
       <use xlink:href="#HelveticaNeue-31" transform="translate(0 0.09375)"/>
       <use xlink:href="#HelveticaNeue-30" transform="translate(55.599991 0.09375)"/>
      </g>
     </g>
    </g>
    <g id="xtick_3">
     <g id="line2d_5">
      <path d="M 203.145437 193.23 
L 203.145437 26.91 
" clip-path="url(#pcd7cfb4a6a)" style="fill: none; stroke: #ffffff; stroke-width: 0.5; stroke-linecap: round"/>
     </g>
     <g id="text_3">
      <!-- $\mathdefault{20}$ -->
      <g style="fill: #262626" transform="translate(196.985437 210.584688) scale(0.11 -0.11)">
       <defs>
        <path id="HelveticaNeue-32" d="M 282 2931 
L 826 2931 
Q 819 3136 867 3337 
Q 915 3539 1024 3699 
Q 1133 3859 1302 3958 
Q 1472 4058 1709 4058 
Q 1888 4058 2048 4000 
Q 2208 3942 2326 3833 
Q 2445 3725 2515 3574 
Q 2586 3424 2586 3238 
Q 2586 3002 2512 2822 
Q 2438 2643 2294 2489 
Q 2150 2336 1932 2185 
Q 1715 2035 1427 1856 
Q 1190 1715 972 1555 
Q 755 1395 582 1184 
Q 410 973 298 688 
Q 186 403 154 0 
L 3117 0 
L 3117 480 
L 787 480 
Q 826 691 950 854 
Q 1075 1018 1251 1158 
Q 1427 1299 1638 1424 
Q 1850 1549 2061 1677 
Q 2272 1811 2470 1958 
Q 2669 2106 2822 2288 
Q 2976 2470 3069 2700 
Q 3162 2931 3162 3232 
Q 3162 3552 3050 3795 
Q 2938 4038 2746 4201 
Q 2554 4365 2294 4451 
Q 2035 4538 1741 4538 
Q 1382 4538 1100 4416 
Q 819 4294 630 4080 
Q 442 3866 352 3571 
Q 262 3277 282 2931 
z
" transform="scale(0.015625)"/>
       </defs>
       <use xlink:href="#HelveticaNeue-32" transform="translate(0 0.09375)"/>
       <use xlink:href="#HelveticaNeue-30" transform="translate(55.599991 0.09375)"/>
      </g>
     </g>
    </g>
    <g id="xtick_4">
     <g id="line2d_6">
      <path d="M 276.200016 193.23 
L 276.200016 26.91 
" clip-path="url(#pcd7cfb4a6a)" style="fill: none; stroke: #ffffff; stroke-width: 0.5; stroke-linecap: round"/>
     </g>
     <g id="text_4">
      <!-- $\mathdefault{30}$ -->
      <g style="fill: #262626" transform="translate(270.040016 210.584688) scale(0.11 -0.11)">
       <defs>
        <path id="HelveticaNeue-33" d="M 1395 2592 
L 1395 2131 
Q 1549 2150 1722 2150 
Q 1926 2150 2102 2096 
Q 2278 2042 2406 1930 
Q 2534 1818 2611 1654 
Q 2688 1491 2688 1280 
Q 2688 1075 2608 912 
Q 2528 749 2393 637 
Q 2259 525 2080 464 
Q 1901 403 1702 403 
Q 1235 403 992 681 
Q 749 960 736 1402 
L 192 1402 
Q 186 1050 291 774 
Q 397 499 595 310 
Q 794 122 1075 26 
Q 1357 -70 1702 -70 
Q 2022 -70 2307 16 
Q 2592 102 2803 275 
Q 3014 448 3139 707 
Q 3264 966 3264 1306 
Q 3264 1715 3062 2016 
Q 2861 2317 2445 2406 
L 2445 2419 
Q 2714 2541 2893 2777 
Q 3072 3014 3072 3322 
Q 3072 3635 2966 3865 
Q 2861 4096 2675 4243 
Q 2490 4390 2237 4464 
Q 1984 4538 1690 4538 
Q 1350 4538 1091 4429 
Q 832 4320 659 4128 
Q 486 3936 393 3667 
Q 301 3398 288 3072 
L 832 3072 
Q 832 3270 883 3449 
Q 934 3629 1040 3763 
Q 1146 3898 1309 3978 
Q 1472 4058 1690 4058 
Q 2035 4058 2265 3875 
Q 2496 3693 2496 3328 
Q 2496 3149 2425 3008 
Q 2355 2867 2236 2774 
Q 2118 2682 1961 2634 
Q 1805 2586 1632 2586 
L 1517 2586 
Q 1485 2586 1453 2586 
Q 1427 2586 1395 2592 
z
" transform="scale(0.015625)"/>
       </defs>
       <use xlink:href="#HelveticaNeue-33" transform="translate(0 0.09375)"/>
       <use xlink:href="#HelveticaNeue-30" transform="translate(55.599991 0.09375)"/>
      </g>
     </g>
    </g>
    <g id="xtick_5">
     <g id="line2d_7">
      <path d="M 349.254594 193.23 
L 349.254594 26.91 
" clip-path="url(#pcd7cfb4a6a)" style="fill: none; stroke: #ffffff; stroke-width: 0.5; stroke-linecap: round"/>
     </g>
     <g id="text_5">
      <!-- $\mathdefault{40}$ -->
      <g style="fill: #262626" transform="translate(343.094594 210.584688) scale(0.11 -0.11)">
       <defs>
        <path id="HelveticaNeue-34" d="M 2170 1542 
L 646 1542 
L 2157 3763 
L 2170 3763 
L 2170 1542 
z
M 2682 1542 
L 2682 4538 
L 2246 4538 
L 179 1587 
L 179 1062 
L 2170 1062 
L 2170 0 
L 2682 0 
L 2682 1062 
L 3296 1062 
L 3296 1542 
L 2682 1542 
z
" transform="scale(0.015625)"/>
       </defs>
       <use xlink:href="#HelveticaNeue-34" transform="translate(0 0.09375)"/>
       <use xlink:href="#HelveticaNeue-30" transform="translate(55.599991 0.09375)"/>
      </g>
     </g>
    </g>
    <g id="xtick_6">
     <g id="line2d_8">
      <path d="M 422.309172 193.23 
L 422.309172 26.91 
" clip-path="url(#pcd7cfb4a6a)" style="fill: none; stroke: #ffffff; stroke-width: 0.5; stroke-linecap: round"/>
     </g>
     <g id="text_6">
      <!-- $\mathdefault{50}$ -->
      <g style="fill: #262626" transform="translate(416.149172 210.584688) scale(0.11 -0.11)">
       <defs>
        <path id="HelveticaNeue-35" d="M 3008 3981 
L 3008 4461 
L 768 4461 
L 346 2106 
L 813 2080 
Q 973 2272 1181 2390 
Q 1389 2509 1658 2509 
Q 1888 2509 2077 2432 
Q 2266 2355 2400 2217 
Q 2534 2080 2608 1891 
Q 2682 1702 2682 1478 
Q 2682 1210 2605 1008 
Q 2528 806 2397 672 
Q 2266 538 2090 470 
Q 1914 403 1722 403 
Q 1517 403 1347 464 
Q 1178 525 1053 637 
Q 928 749 854 899 
Q 781 1050 768 1222 
L 224 1222 
Q 230 915 345 672 
Q 461 429 659 265 
Q 858 102 1117 16 
Q 1376 -70 1670 -70 
Q 2067 -70 2364 54 
Q 2662 179 2860 390 
Q 3059 602 3158 874 
Q 3258 1146 3258 1434 
Q 3258 1824 3142 2115 
Q 3027 2406 2828 2601 
Q 2630 2797 2361 2893 
Q 2093 2989 1792 2989 
Q 1562 2989 1328 2909 
Q 1094 2829 947 2662 
L 934 2675 
L 1178 3981 
L 3008 3981 
z
" transform="scale(0.015625)"/>
       </defs>
       <use xlink:href="#HelveticaNeue-35" transform="translate(0 0.09375)"/>
       <use xlink:href="#HelveticaNeue-30" transform="translate(55.599991 0.09375)"/>
      </g>
     </g>
    </g>
   </g>
   <g id="matplotlib.axis_2">
    <g id="ytick_1">
     <g id="line2d_9">
      <path d="M 38.59 193.23 
L 444.408182 193.23 
" clip-path="url(#pcd7cfb4a6a)" style="fill: none; stroke: #ffffff; stroke-width: 0.5; stroke-linecap: round"/>
     </g>
     <g id="text_7">
      <!-- $\mathdefault{−1.0}$ -->
      <g style="fill: #262626" transform="translate(7.2 197.157344) scale(0.11 -0.11)">
       <defs>
        <path id="HelveticaNeue-2212" d="M 307 1837 
L 307 1402 
L 3533 1402 
L 3533 1837 
L 307 1837 
z
" transform="scale(0.015625)"/>
        <path id="HelveticaNeue-2e" d="M 531 710 
L 531 0 
L 1242 0 
L 1242 710 
L 531 710 
z
" transform="scale(0.015625)"/>
       </defs>
       <use xlink:href="#HelveticaNeue-2212" transform="translate(0 0.09375)"/>
       <use xlink:href="#HelveticaNeue-31" transform="translate(59.999985 0.09375)"/>
       <use xlink:href="#HelveticaNeue-2e" transform="translate(115.599976 0.09375)"/>
       <use xlink:href="#HelveticaNeue-30" transform="translate(143.399963 0.09375)"/>
      </g>
     </g>
    </g>
    <g id="ytick_2">
     <g id="line2d_10">
      <path d="M 38.59 151.65 
L 444.408182 151.65 
" clip-path="url(#pcd7cfb4a6a)" style="fill: none; stroke: #ffffff; stroke-width: 0.5; stroke-linecap: round"/>
     </g>
     <g id="text_8">
      <!-- $\mathdefault{−0.5}$ -->
      <g style="fill: #262626" transform="translate(7.2 155.577344) scale(0.11 -0.11)">
       <use xlink:href="#HelveticaNeue-2212" transform="translate(0 0.09375)"/>
       <use xlink:href="#HelveticaNeue-30" transform="translate(59.999985 0.09375)"/>
       <use xlink:href="#HelveticaNeue-2e" transform="translate(115.599976 0.09375)"/>
       <use xlink:href="#HelveticaNeue-35" transform="translate(143.399963 0.09375)"/>
      </g>
     </g>
    </g>
    <g id="ytick_3">
     <g id="line2d_11">
      <path d="M 38.59 110.07 
L 444.408182 110.07 
" clip-path="url(#pcd7cfb4a6a)" style="fill: none; stroke: #ffffff; stroke-width: 0.5; stroke-linecap: round"/>
     </g>
     <g id="text_9">
      <!-- $\mathdefault{0.0}$ -->
      <g style="fill: #262626" transform="translate(13.8 113.997344) scale(0.11 -0.11)">
       <use xlink:href="#HelveticaNeue-30" transform="translate(0 0.09375)"/>
       <use xlink:href="#HelveticaNeue-2e" transform="translate(55.599991 0.09375)"/>
       <use xlink:href="#HelveticaNeue-30" transform="translate(83.399979 0.09375)"/>
      </g>
     </g>
    </g>
    <g id="ytick_4">
     <g id="line2d_12">
      <path d="M 38.59 68.49 
L 444.408182 68.49 
" clip-path="url(#pcd7cfb4a6a)" style="fill: none; stroke: #ffffff; stroke-width: 0.5; stroke-linecap: round"/>
     </g>
     <g id="text_10">
      <!-- $\mathdefault{0.5}$ -->
      <g style="fill: #262626" transform="translate(13.8 72.417344) scale(0.11 -0.11)">
       <use xlink:href="#HelveticaNeue-30" transform="translate(0 0.09375)"/>
       <use xlink:href="#HelveticaNeue-2e" transform="translate(55.599991 0.09375)"/>
       <use xlink:href="#HelveticaNeue-35" transform="translate(83.399979 0.09375)"/>
      </g>
     </g>
    </g>
    <g id="ytick_5">
     <g id="line2d_13">
      <path d="M 38.59 26.91 
L 444.408182 26.91 
" clip-path="url(#pcd7cfb4a6a)" style="fill: none; stroke: #ffffff; stroke-width: 0.5; stroke-linecap: round"/>
     </g>
     <g id="text_11">
      <!-- $\mathdefault{1.0}$ -->
      <g style="fill: #262626" transform="translate(13.8 30.837344) scale(0.11 -0.11)">
       <use xlink:href="#HelveticaNeue-31" transform="translate(0 0.09375)"/>
       <use xlink:href="#HelveticaNeue-2e" transform="translate(55.599991 0.09375)"/>
       <use xlink:href="#HelveticaNeue-30" transform="translate(83.399979 0.09375)"/>
      </g>
     </g>
    </g>
   </g>
   <g id="text_12">
    <!-- Autocorrelation -->
    <g style="fill: #262626" transform="translate(176.069091 20.91) scale(0.192 -0.192)">
     <defs>
      <path id="HelveticaNeue-41" d="M 1286 1888 
L 2061 4019 
L 2074 4019 
L 2835 1888 
L 1286 1888 
z
M 1741 4570 
L -38 0 
L 582 0 
L 1094 1376 
L 3027 1376 
L 3526 0 
L 4198 0 
L 2413 4570 
L 1741 4570 
z
" transform="scale(0.015625)"/>
      <path id="HelveticaNeue-75" d="M 3149 0 
L 3149 3309 
L 2605 3309 
L 2605 1440 
Q 2605 1216 2544 1027 
Q 2483 838 2361 697 
Q 2240 557 2057 480 
Q 1875 403 1626 403 
Q 1312 403 1133 582 
Q 954 762 954 1069 
L 954 3309 
L 410 3309 
L 410 1133 
Q 410 864 464 643 
Q 518 422 652 262 
Q 787 102 1004 16 
Q 1222 -70 1549 -70 
Q 1914 -70 2182 74 
Q 2451 218 2624 525 
L 2637 525 
L 2637 0 
L 3149 0 
z
" transform="scale(0.015625)"/>
      <path id="HelveticaNeue-74" d="M 1165 3309 
L 1165 4301 
L 621 4301 
L 621 3309 
L 58 3309 
L 58 2829 
L 621 2829 
L 621 723 
Q 621 493 665 352 
Q 710 211 803 134 
Q 896 58 1046 29 
Q 1197 0 1408 0 
L 1824 0 
L 1824 480 
L 1574 480 
Q 1446 480 1366 489 
Q 1286 499 1241 531 
Q 1197 563 1181 620 
Q 1165 678 1165 774 
L 1165 2829 
L 1824 2829 
L 1824 3309 
L 1165 3309 
z
" transform="scale(0.015625)"/>
      <path id="HelveticaNeue-6f" d="M 806 1651 
Q 806 1952 886 2185 
Q 966 2419 1107 2579 
Q 1248 2739 1437 2822 
Q 1626 2906 1837 2906 
Q 2048 2906 2237 2822 
Q 2426 2739 2566 2579 
Q 2707 2419 2787 2185 
Q 2867 1952 2867 1651 
Q 2867 1350 2787 1116 
Q 2707 883 2566 726 
Q 2426 570 2237 486 
Q 2048 403 1837 403 
Q 1626 403 1437 486 
Q 1248 570 1107 726 
Q 966 883 886 1116 
Q 806 1350 806 1651 
z
M 230 1651 
Q 230 1286 332 972 
Q 435 659 640 425 
Q 845 192 1145 61 
Q 1446 -70 1837 -70 
Q 2234 -70 2531 61 
Q 2829 192 3033 425 
Q 3238 659 3340 972 
Q 3443 1286 3443 1651 
Q 3443 2016 3340 2333 
Q 3238 2650 3033 2883 
Q 2829 3117 2531 3251 
Q 2234 3386 1837 3386 
Q 1446 3386 1145 3251 
Q 845 3117 640 2883 
Q 435 2650 332 2333 
Q 230 2016 230 1651 
z
" transform="scale(0.015625)"/>
      <path id="HelveticaNeue-63" d="M 2656 2246 
L 3219 2246 
Q 3187 2541 3065 2755 
Q 2944 2970 2755 3110 
Q 2566 3251 2320 3318 
Q 2074 3386 1792 3386 
Q 1402 3386 1107 3248 
Q 813 3110 617 2870 
Q 422 2630 326 2307 
Q 230 1984 230 1613 
Q 230 1242 329 931 
Q 429 621 624 397 
Q 819 173 1110 51 
Q 1402 -70 1779 -70 
Q 2413 -70 2781 262 
Q 3149 595 3238 1210 
L 2682 1210 
Q 2630 826 2403 614 
Q 2176 403 1773 403 
Q 1517 403 1331 505 
Q 1146 608 1030 777 
Q 915 947 860 1164 
Q 806 1382 806 1613 
Q 806 1862 857 2096 
Q 909 2330 1027 2509 
Q 1146 2688 1344 2797 
Q 1542 2906 1837 2906 
Q 2182 2906 2387 2733 
Q 2592 2560 2656 2246 
z
" transform="scale(0.015625)"/>
      <path id="HelveticaNeue-72" d="M 390 3309 
L 390 0 
L 934 0 
L 934 1472 
Q 934 1792 998 2038 
Q 1062 2285 1203 2457 
Q 1344 2630 1574 2720 
Q 1805 2810 2131 2810 
L 2131 3386 
Q 1690 3398 1402 3206 
Q 1114 3014 915 2611 
L 902 2611 
L 902 3309 
L 390 3309 
z
" transform="scale(0.015625)"/>
      <path id="HelveticaNeue-65" d="M 2707 1971 
L 806 1971 
Q 819 2163 889 2332 
Q 960 2502 1081 2630 
Q 1203 2758 1372 2832 
Q 1542 2906 1754 2906 
Q 1958 2906 2128 2832 
Q 2298 2758 2422 2633 
Q 2547 2509 2620 2336 
Q 2694 2163 2707 1971 
z
M 3232 1050 
L 2694 1050 
Q 2624 723 2403 563 
Q 2182 403 1837 403 
Q 1568 403 1369 492 
Q 1171 582 1043 732 
Q 915 883 857 1078 
Q 800 1274 806 1491 
L 3283 1491 
Q 3296 1792 3229 2125 
Q 3162 2458 2986 2739 
Q 2810 3021 2518 3203 
Q 2227 3386 1786 3386 
Q 1446 3386 1161 3258 
Q 877 3130 669 2899 
Q 461 2669 345 2355 
Q 230 2042 230 1664 
Q 243 1286 342 966 
Q 442 646 640 416 
Q 838 186 1129 58 
Q 1421 -70 1818 -70 
Q 2381 -70 2752 211 
Q 3123 493 3232 1050 
z
" transform="scale(0.015625)"/>
      <path id="HelveticaNeue-6c" d="M 442 4570 
L 442 0 
L 986 0 
L 986 4570 
L 442 4570 
z
" transform="scale(0.015625)"/>
      <path id="HelveticaNeue-61" d="M 3341 13 
Q 3200 -70 2950 -70 
Q 2739 -70 2614 48 
Q 2490 166 2490 435 
Q 2266 166 1968 48 
Q 1670 -70 1325 -70 
Q 1101 -70 899 -19 
Q 698 32 550 141 
Q 403 250 316 426 
Q 230 602 230 851 
Q 230 1133 326 1312 
Q 422 1491 579 1603 
Q 736 1715 937 1772 
Q 1139 1830 1350 1869 
Q 1574 1914 1776 1936 
Q 1978 1958 2131 2000 
Q 2285 2042 2374 2122 
Q 2464 2202 2464 2355 
Q 2464 2534 2397 2643 
Q 2330 2752 2224 2809 
Q 2118 2867 1987 2886 
Q 1856 2906 1728 2906 
Q 1382 2906 1152 2774 
Q 922 2643 902 2278 
L 358 2278 
Q 371 2586 486 2797 
Q 602 3008 794 3139 
Q 986 3270 1232 3328 
Q 1478 3386 1760 3386 
Q 1984 3386 2205 3354 
Q 2426 3322 2605 3222 
Q 2784 3123 2893 2944 
Q 3002 2765 3002 2477 
L 3002 774 
Q 3002 582 3024 492 
Q 3046 403 3174 403 
Q 3245 403 3341 435 
L 3341 13 
z
M 2458 1709 
Q 2355 1632 2188 1597 
Q 2022 1562 1840 1539 
Q 1658 1517 1472 1488 
Q 1286 1459 1139 1395 
Q 992 1331 899 1212 
Q 806 1094 806 890 
Q 806 755 860 662 
Q 915 570 1001 512 
Q 1088 454 1203 428 
Q 1318 403 1446 403 
Q 1715 403 1907 476 
Q 2099 550 2220 662 
Q 2342 774 2400 905 
Q 2458 1037 2458 1152 
L 2458 1709 
z
" transform="scale(0.015625)"/>
      <path id="HelveticaNeue-69" d="M 986 3904 
L 986 4570 
L 442 4570 
L 442 3904 
L 986 3904 
z
M 442 3309 
L 442 0 
L 986 0 
L 986 3309 
L 442 3309 
z
" transform="scale(0.015625)"/>
      <path id="HelveticaNeue-6e" d="M 410 3309 
L 410 0 
L 954 0 
L 954 1869 
Q 954 2093 1014 2281 
Q 1075 2470 1196 2611 
Q 1318 2752 1500 2829 
Q 1683 2906 1933 2906 
Q 2246 2906 2425 2726 
Q 2605 2547 2605 2240 
L 2605 0 
L 3149 0 
L 3149 2176 
Q 3149 2445 3094 2665 
Q 3040 2886 2905 3046 
Q 2771 3206 2553 3296 
Q 2336 3386 2010 3386 
Q 1274 3386 934 2784 
L 922 2784 
L 922 3309 
L 410 3309 
z
" transform="scale(0.015625)"/>
     </defs>
     <use xlink:href="#HelveticaNeue-41"/>
     <use xlink:href="#HelveticaNeue-75" x="64.799988"/>
     <use xlink:href="#HelveticaNeue-74" x="120.399979"/>
     <use xlink:href="#HelveticaNeue-6f" x="151.899963"/>
     <use xlink:href="#HelveticaNeue-63" x="209.299957"/>
     <use xlink:href="#HelveticaNeue-6f" x="262.999954"/>
     <use xlink:href="#HelveticaNeue-72" x="320.399948"/>
     <use xlink:href="#HelveticaNeue-72" x="353.699936"/>
     <use xlink:href="#HelveticaNeue-65" x="385.249924"/>
     <use xlink:href="#HelveticaNeue-6c" x="438.949921"/>
     <use xlink:href="#HelveticaNeue-61" x="461.149918"/>
     <use xlink:href="#HelveticaNeue-74" x="514.849915"/>
     <use xlink:href="#HelveticaNeue-69" x="546.349899"/>
     <use xlink:href="#HelveticaNeue-6f" x="568.549896"/>
     <use xlink:href="#HelveticaNeue-6e" x="625.94989"/>
    </g>
   </g>
  </g>
  <g id="axes_2">
   <g id="patch_7">
    <path d="M 525.571818 193.23 
L 931.39 193.23 
L 931.39 26.91 
L 525.571818 26.91 
z
" style="fill: #eaeaf2"/>
   </g>
   <g id="PolyCollection_2">
    <defs>
     <path id="m51107d84e7" d="M 547.670828 -123.464582 
L 547.670828 -96.299481 
L 558.629015 -96.299481 
L 565.934473 -96.299481 
L 573.23993 -96.299481 
L 580.545388 -96.299481 
L 587.850846 -96.299481 
L 595.156304 -96.299481 
L 602.461762 -96.299481 
L 609.76722 -96.299481 
L 617.072677 -96.299481 
L 624.378135 -96.299481 
L 631.683593 -96.299481 
L 638.989051 -96.299481 
L 646.294509 -96.299481 
L 653.599966 -96.299481 
L 660.905424 -96.299481 
L 668.210882 -96.299481 
L 675.51634 -96.299481 
L 682.821798 -96.299481 
L 690.127256 -96.299481 
L 697.432713 -96.299481 
L 704.738171 -96.299481 
L 712.043629 -96.299481 
L 719.349087 -96.299481 
L 726.654545 -96.299481 
L 733.960002 -96.299481 
L 741.26546 -96.299481 
L 748.570918 -96.299481 
L 755.876376 -96.299481 
L 763.181834 -96.299481 
L 770.487292 -96.299481 
L 777.792749 -96.299481 
L 785.098207 -96.299481 
L 792.403665 -96.299481 
L 799.709123 -96.299481 
L 807.014581 -96.299481 
L 814.320038 -96.299481 
L 821.625496 -96.299481 
L 828.930954 -96.299481 
L 836.236412 -96.299481 
L 843.54187 -96.299481 
L 850.847328 -96.299481 
L 858.152785 -96.299481 
L 865.458243 -96.299481 
L 872.763701 -96.299481 
L 880.069159 -96.299481 
L 887.374617 -96.299481 
L 894.680074 -96.299481 
L 901.985532 -96.299481 
L 912.943719 -96.299481 
L 912.943719 -123.464582 
L 912.943719 -123.464582 
L 901.985532 -123.464582 
L 894.680074 -123.464582 
L 887.374617 -123.464582 
L 880.069159 -123.464582 
L 872.763701 -123.464582 
L 865.458243 -123.464582 
L 858.152785 -123.464582 
L 850.847328 -123.464582 
L 843.54187 -123.464582 
L 836.236412 -123.464582 
L 828.930954 -123.464582 
L 821.625496 -123.464582 
L 814.320038 -123.464582 
L 807.014581 -123.464582 
L 799.709123 -123.464582 
L 792.403665 -123.464582 
L 785.098207 -123.464582 
L 777.792749 -123.464582 
L 770.487292 -123.464582 
L 763.181834 -123.464582 
L 755.876376 -123.464582 
L 748.570918 -123.464582 
L 741.26546 -123.464582 
L 733.960002 -123.464582 
L 726.654545 -123.464582 
L 719.349087 -123.464582 
L 712.043629 -123.464582 
L 704.738171 -123.464582 
L 697.432713 -123.464582 
L 690.127256 -123.464582 
L 682.821798 -123.464582 
L 675.51634 -123.464582 
L 668.210882 -123.464582 
L 660.905424 -123.464582 
L 653.599966 -123.464582 
L 646.294509 -123.464582 
L 638.989051 -123.464582 
L 631.683593 -123.464582 
L 624.378135 -123.464582 
L 617.072677 -123.464582 
L 609.76722 -123.464582 
L 602.461762 -123.464582 
L 595.156304 -123.464582 
L 587.850846 -123.464582 
L 580.545388 -123.464582 
L 573.23993 -123.464582 
L 565.934473 -123.464582 
L 558.629015 -123.464582 
L 547.670828 -123.464582 
z
" style="stroke: #ffffff; stroke-opacity: 0.25"/>
    </defs>
    <g clip-path="url(#pdb9ce80d07)">
     <use xlink:href="#m51107d84e7" x="0" y="219.952031" style="fill: #4c72b0; fill-opacity: 0.25; stroke: #ffffff; stroke-opacity: 0.25"/>
    </g>
   </g>
   <g id="LineCollection_2">
    <path d="M 544.018099 110.07 
L 544.018099 26.91 
" clip-path="url(#pdb9ce80d07)" style="fill: none; stroke: #4c72b0; stroke-width: 1.5"/>
    <path d="M 551.323557 110.07 
L 551.323557 31.230383 
" clip-path="url(#pdb9ce80d07)" style="fill: none; stroke: #4c72b0; stroke-width: 1.5"/>
    <path d="M 558.629015 110.07 
L 558.629015 129.148723 
" clip-path="url(#pdb9ce80d07)" style="fill: none; stroke: #4c72b0; stroke-width: 1.5"/>
    <path d="M 565.934473 110.07 
L 565.934473 106.897631 
" clip-path="url(#pdb9ce80d07)" style="fill: none; stroke: #4c72b0; stroke-width: 1.5"/>
    <path d="M 573.23993 110.07 
L 573.23993 102.270803 
" clip-path="url(#pdb9ce80d07)" style="fill: none; stroke: #4c72b0; stroke-width: 1.5"/>
    <path d="M 580.545388 110.07 
L 580.545388 103.948867 
" clip-path="url(#pdb9ce80d07)" style="fill: none; stroke: #4c72b0; stroke-width: 1.5"/>
    <path d="M 587.850846 110.07 
L 587.850846 109.427373 
" clip-path="url(#pdb9ce80d07)" style="fill: none; stroke: #4c72b0; stroke-width: 1.5"/>
    <path d="M 595.156304 110.07 
L 595.156304 99.625343 
" clip-path="url(#pdb9ce80d07)" style="fill: none; stroke: #4c72b0; stroke-width: 1.5"/>
    <path d="M 602.461762 110.07 
L 602.461762 102.589646 
" clip-path="url(#pdb9ce80d07)" style="fill: none; stroke: #4c72b0; stroke-width: 1.5"/>
    <path d="M 609.76722 110.07 
L 609.76722 90.736253 
" clip-path="url(#pdb9ce80d07)" style="fill: none; stroke: #4c72b0; stroke-width: 1.5"/>
    <path d="M 617.072677 110.07 
L 617.072677 96.261177 
" clip-path="url(#pdb9ce80d07)" style="fill: none; stroke: #4c72b0; stroke-width: 1.5"/>
    <path d="M 624.378135 110.07 
L 624.378135 95.826819 
" clip-path="url(#pdb9ce80d07)" style="fill: none; stroke: #4c72b0; stroke-width: 1.5"/>
    <path d="M 631.683593 110.07 
L 631.683593 121.33245 
" clip-path="url(#pdb9ce80d07)" style="fill: none; stroke: #4c72b0; stroke-width: 1.5"/>
    <path d="M 638.989051 110.07 
L 638.989051 154.950724 
" clip-path="url(#pdb9ce80d07)" style="fill: none; stroke: #4c72b0; stroke-width: 1.5"/>
    <path d="M 646.294509 110.07 
L 646.294509 112.282899 
" clip-path="url(#pdb9ce80d07)" style="fill: none; stroke: #4c72b0; stroke-width: 1.5"/>
    <path d="M 653.599966 110.07 
L 653.599966 102.521984 
" clip-path="url(#pdb9ce80d07)" style="fill: none; stroke: #4c72b0; stroke-width: 1.5"/>
    <path d="M 660.905424 110.07 
L 660.905424 107.994696 
" clip-path="url(#pdb9ce80d07)" style="fill: none; stroke: #4c72b0; stroke-width: 1.5"/>
    <path d="M 668.210882 110.07 
L 668.210882 107.366005 
" clip-path="url(#pdb9ce80d07)" style="fill: none; stroke: #4c72b0; stroke-width: 1.5"/>
    <path d="M 675.51634 110.07 
L 675.51634 103.963342 
" clip-path="url(#pdb9ce80d07)" style="fill: none; stroke: #4c72b0; stroke-width: 1.5"/>
    <path d="M 682.821798 110.07 
L 682.821798 106.041554 
" clip-path="url(#pdb9ce80d07)" style="fill: none; stroke: #4c72b0; stroke-width: 1.5"/>
    <path d="M 690.127256 110.07 
L 690.127256 113.857246 
" clip-path="url(#pdb9ce80d07)" style="fill: none; stroke: #4c72b0; stroke-width: 1.5"/>
    <path d="M 697.432713 110.07 
L 697.432713 106.265186 
" clip-path="url(#pdb9ce80d07)" style="fill: none; stroke: #4c72b0; stroke-width: 1.5"/>
    <path d="M 704.738171 110.07 
L 704.738171 118.400876 
" clip-path="url(#pdb9ce80d07)" style="fill: none; stroke: #4c72b0; stroke-width: 1.5"/>
    <path d="M 712.043629 110.07 
L 712.043629 105.70951 
" clip-path="url(#pdb9ce80d07)" style="fill: none; stroke: #4c72b0; stroke-width: 1.5"/>
    <path d="M 719.349087 110.07 
L 719.349087 106.077145 
" clip-path="url(#pdb9ce80d07)" style="fill: none; stroke: #4c72b0; stroke-width: 1.5"/>
    <path d="M 726.654545 110.07 
L 726.654545 123.60397 
" clip-path="url(#pdb9ce80d07)" style="fill: none; stroke: #4c72b0; stroke-width: 1.5"/>
    <path d="M 733.960002 110.07 
L 733.960002 113.074989 
" clip-path="url(#pdb9ce80d07)" style="fill: none; stroke: #4c72b0; stroke-width: 1.5"/>
    <path d="M 741.26546 110.07 
L 741.26546 104.546199 
" clip-path="url(#pdb9ce80d07)" style="fill: none; stroke: #4c72b0; stroke-width: 1.5"/>
    <path d="M 748.570918 110.07 
L 748.570918 109.556394 
" clip-path="url(#pdb9ce80d07)" style="fill: none; stroke: #4c72b0; stroke-width: 1.5"/>
    <path d="M 755.876376 110.07 
L 755.876376 109.443211 
" clip-path="url(#pdb9ce80d07)" style="fill: none; stroke: #4c72b0; stroke-width: 1.5"/>
    <path d="M 763.181834 110.07 
L 763.181834 108.460813 
" clip-path="url(#pdb9ce80d07)" style="fill: none; stroke: #4c72b0; stroke-width: 1.5"/>
    <path d="M 770.487292 110.07 
L 770.487292 110.922511 
" clip-path="url(#pdb9ce80d07)" style="fill: none; stroke: #4c72b0; stroke-width: 1.5"/>
    <path d="M 777.792749 110.07 
L 777.792749 111.592674 
" clip-path="url(#pdb9ce80d07)" style="fill: none; stroke: #4c72b0; stroke-width: 1.5"/>
    <path d="M 785.098207 110.07 
L 785.098207 112.481753 
" clip-path="url(#pdb9ce80d07)" style="fill: none; stroke: #4c72b0; stroke-width: 1.5"/>
    <path d="M 792.403665 110.07 
L 792.403665 111.301181 
" clip-path="url(#pdb9ce80d07)" style="fill: none; stroke: #4c72b0; stroke-width: 1.5"/>
    <path d="M 799.709123 110.07 
L 799.709123 114.038778 
" clip-path="url(#pdb9ce80d07)" style="fill: none; stroke: #4c72b0; stroke-width: 1.5"/>
    <path d="M 807.014581 110.07 
L 807.014581 106.227704 
" clip-path="url(#pdb9ce80d07)" style="fill: none; stroke: #4c72b0; stroke-width: 1.5"/>
    <path d="M 814.320038 110.07 
L 814.320038 115.616573 
" clip-path="url(#pdb9ce80d07)" style="fill: none; stroke: #4c72b0; stroke-width: 1.5"/>
    <path d="M 821.625496 110.07 
L 821.625496 110.260972 
" clip-path="url(#pdb9ce80d07)" style="fill: none; stroke: #4c72b0; stroke-width: 1.5"/>
    <path d="M 828.930954 110.07 
L 828.930954 108.731282 
" clip-path="url(#pdb9ce80d07)" style="fill: none; stroke: #4c72b0; stroke-width: 1.5"/>
    <path d="M 836.236412 110.07 
L 836.236412 117.416328 
" clip-path="url(#pdb9ce80d07)" style="fill: none; stroke: #4c72b0; stroke-width: 1.5"/>
    <path d="M 843.54187 110.07 
L 843.54187 109.889253 
" clip-path="url(#pdb9ce80d07)" style="fill: none; stroke: #4c72b0; stroke-width: 1.5"/>
    <path d="M 850.847328 110.07 
L 850.847328 108.721075 
" clip-path="url(#pdb9ce80d07)" style="fill: none; stroke: #4c72b0; stroke-width: 1.5"/>
    <path d="M 858.152785 110.07 
L 858.152785 113.250509 
" clip-path="url(#pdb9ce80d07)" style="fill: none; stroke: #4c72b0; stroke-width: 1.5"/>
    <path d="M 865.458243 110.07 
L 865.458243 110.373777 
" clip-path="url(#pdb9ce80d07)" style="fill: none; stroke: #4c72b0; stroke-width: 1.5"/>
    <path d="M 872.763701 110.07 
L 872.763701 113.094516 
" clip-path="url(#pdb9ce80d07)" style="fill: none; stroke: #4c72b0; stroke-width: 1.5"/>
    <path d="M 880.069159 110.07 
L 880.069159 110.488554 
" clip-path="url(#pdb9ce80d07)" style="fill: none; stroke: #4c72b0; stroke-width: 1.5"/>
    <path d="M 887.374617 110.07 
L 887.374617 110.882911 
" clip-path="url(#pdb9ce80d07)" style="fill: none; stroke: #4c72b0; stroke-width: 1.5"/>
    <path d="M 894.680074 110.07 
L 894.680074 108.081231 
" clip-path="url(#pdb9ce80d07)" style="fill: none; stroke: #4c72b0; stroke-width: 1.5"/>
    <path d="M 901.985532 110.07 
L 901.985532 114.490635 
" clip-path="url(#pdb9ce80d07)" style="fill: none; stroke: #4c72b0; stroke-width: 1.5"/>
    <path d="M 909.29099 110.07 
L 909.29099 109.258992 
" clip-path="url(#pdb9ce80d07)" style="fill: none; stroke: #4c72b0; stroke-width: 1.5"/>
   </g>
   <g id="line2d_14">
    <path d="M 525.571818 110.07 
L 931.39 110.07 
" clip-path="url(#pdb9ce80d07)" style="fill: none; stroke: #4c72b0; stroke-width: 1.5; stroke-linecap: round"/>
   </g>
   <g id="line2d_15">
    <g clip-path="url(#pdb9ce80d07)">
     <use xlink:href="#me1f0602024" x="544.018099" y="26.91" style="fill: #4c72b0; stroke: #4c72b0"/>
     <use xlink:href="#me1f0602024" x="551.323557" y="31.230383" style="fill: #4c72b0; stroke: #4c72b0"/>
     <use xlink:href="#me1f0602024" x="558.629015" y="129.148723" style="fill: #4c72b0; stroke: #4c72b0"/>
     <use xlink:href="#me1f0602024" x="565.934473" y="106.897631" style="fill: #4c72b0; stroke: #4c72b0"/>
     <use xlink:href="#me1f0602024" x="573.23993" y="102.270803" style="fill: #4c72b0; stroke: #4c72b0"/>
     <use xlink:href="#me1f0602024" x="580.545388" y="103.948867" style="fill: #4c72b0; stroke: #4c72b0"/>
     <use xlink:href="#me1f0602024" x="587.850846" y="109.427373" style="fill: #4c72b0; stroke: #4c72b0"/>
     <use xlink:href="#me1f0602024" x="595.156304" y="99.625343" style="fill: #4c72b0; stroke: #4c72b0"/>
     <use xlink:href="#me1f0602024" x="602.461762" y="102.589646" style="fill: #4c72b0; stroke: #4c72b0"/>
     <use xlink:href="#me1f0602024" x="609.76722" y="90.736253" style="fill: #4c72b0; stroke: #4c72b0"/>
     <use xlink:href="#me1f0602024" x="617.072677" y="96.261177" style="fill: #4c72b0; stroke: #4c72b0"/>
     <use xlink:href="#me1f0602024" x="624.378135" y="95.826819" style="fill: #4c72b0; stroke: #4c72b0"/>
     <use xlink:href="#me1f0602024" x="631.683593" y="121.33245" style="fill: #4c72b0; stroke: #4c72b0"/>
     <use xlink:href="#me1f0602024" x="638.989051" y="154.950724" style="fill: #4c72b0; stroke: #4c72b0"/>
     <use xlink:href="#me1f0602024" x="646.294509" y="112.282899" style="fill: #4c72b0; stroke: #4c72b0"/>
     <use xlink:href="#me1f0602024" x="653.599966" y="102.521984" style="fill: #4c72b0; stroke: #4c72b0"/>
     <use xlink:href="#me1f0602024" x="660.905424" y="107.994696" style="fill: #4c72b0; stroke: #4c72b0"/>
     <use xlink:href="#me1f0602024" x="668.210882" y="107.366005" style="fill: #4c72b0; stroke: #4c72b0"/>
     <use xlink:href="#me1f0602024" x="675.51634" y="103.963342" style="fill: #4c72b0; stroke: #4c72b0"/>
     <use xlink:href="#me1f0602024" x="682.821798" y="106.041554" style="fill: #4c72b0; stroke: #4c72b0"/>
     <use xlink:href="#me1f0602024" x="690.127256" y="113.857246" style="fill: #4c72b0; stroke: #4c72b0"/>
     <use xlink:href="#me1f0602024" x="697.432713" y="106.265186" style="fill: #4c72b0; stroke: #4c72b0"/>
     <use xlink:href="#me1f0602024" x="704.738171" y="118.400876" style="fill: #4c72b0; stroke: #4c72b0"/>
     <use xlink:href="#me1f0602024" x="712.043629" y="105.70951" style="fill: #4c72b0; stroke: #4c72b0"/>
     <use xlink:href="#me1f0602024" x="719.349087" y="106.077145" style="fill: #4c72b0; stroke: #4c72b0"/>
     <use xlink:href="#me1f0602024" x="726.654545" y="123.60397" style="fill: #4c72b0; stroke: #4c72b0"/>
     <use xlink:href="#me1f0602024" x="733.960002" y="113.074989" style="fill: #4c72b0; stroke: #4c72b0"/>
     <use xlink:href="#me1f0602024" x="741.26546" y="104.546199" style="fill: #4c72b0; stroke: #4c72b0"/>
     <use xlink:href="#me1f0602024" x="748.570918" y="109.556394" style="fill: #4c72b0; stroke: #4c72b0"/>
     <use xlink:href="#me1f0602024" x="755.876376" y="109.443211" style="fill: #4c72b0; stroke: #4c72b0"/>
     <use xlink:href="#me1f0602024" x="763.181834" y="108.460813" style="fill: #4c72b0; stroke: #4c72b0"/>
     <use xlink:href="#me1f0602024" x="770.487292" y="110.922511" style="fill: #4c72b0; stroke: #4c72b0"/>
     <use xlink:href="#me1f0602024" x="777.792749" y="111.592674" style="fill: #4c72b0; stroke: #4c72b0"/>
     <use xlink:href="#me1f0602024" x="785.098207" y="112.481753" style="fill: #4c72b0; stroke: #4c72b0"/>
     <use xlink:href="#me1f0602024" x="792.403665" y="111.301181" style="fill: #4c72b0; stroke: #4c72b0"/>
     <use xlink:href="#me1f0602024" x="799.709123" y="114.038778" style="fill: #4c72b0; stroke: #4c72b0"/>
     <use xlink:href="#me1f0602024" x="807.014581" y="106.227704" style="fill: #4c72b0; stroke: #4c72b0"/>
     <use xlink:href="#me1f0602024" x="814.320038" y="115.616573" style="fill: #4c72b0; stroke: #4c72b0"/>
     <use xlink:href="#me1f0602024" x="821.625496" y="110.260972" style="fill: #4c72b0; stroke: #4c72b0"/>
     <use xlink:href="#me1f0602024" x="828.930954" y="108.731282" style="fill: #4c72b0; stroke: #4c72b0"/>
     <use xlink:href="#me1f0602024" x="836.236412" y="117.416328" style="fill: #4c72b0; stroke: #4c72b0"/>
     <use xlink:href="#me1f0602024" x="843.54187" y="109.889253" style="fill: #4c72b0; stroke: #4c72b0"/>
     <use xlink:href="#me1f0602024" x="850.847328" y="108.721075" style="fill: #4c72b0; stroke: #4c72b0"/>
     <use xlink:href="#me1f0602024" x="858.152785" y="113.250509" style="fill: #4c72b0; stroke: #4c72b0"/>
     <use xlink:href="#me1f0602024" x="865.458243" y="110.373777" style="fill: #4c72b0; stroke: #4c72b0"/>
     <use xlink:href="#me1f0602024" x="872.763701" y="113.094516" style="fill: #4c72b0; stroke: #4c72b0"/>
     <use xlink:href="#me1f0602024" x="880.069159" y="110.488554" style="fill: #4c72b0; stroke: #4c72b0"/>
     <use xlink:href="#me1f0602024" x="887.374617" y="110.882911" style="fill: #4c72b0; stroke: #4c72b0"/>
     <use xlink:href="#me1f0602024" x="894.680074" y="108.081231" style="fill: #4c72b0; stroke: #4c72b0"/>
     <use xlink:href="#me1f0602024" x="901.985532" y="114.490635" style="fill: #4c72b0; stroke: #4c72b0"/>
     <use xlink:href="#me1f0602024" x="909.29099" y="109.258992" style="fill: #4c72b0; stroke: #4c72b0"/>
    </g>
   </g>
   <g id="patch_8">
    <path d="M 525.571818 193.23 
L 525.571818 26.91 
" style="fill: none; stroke: #808080; stroke-width: 1.25; stroke-linejoin: miter; stroke-linecap: square"/>
   </g>
   <g id="patch_9">
    <path d="M 931.39 193.23 
L 931.39 26.91 
" style="fill: none; stroke: #808080; stroke-width: 1.25; stroke-linejoin: miter; stroke-linecap: square"/>
   </g>
   <g id="patch_10">
    <path d="M 525.571818 193.23 
L 931.39 193.23 
" style="fill: none; stroke: #808080; stroke-width: 1.25; stroke-linejoin: miter; stroke-linecap: square"/>
   </g>
   <g id="patch_11">
    <path d="M 525.571818 26.91 
L 931.39 26.91 
" style="fill: none; stroke: #808080; stroke-width: 1.25; stroke-linejoin: miter; stroke-linecap: square"/>
   </g>
   <g id="matplotlib.axis_3">
    <g id="xtick_7">
     <g id="line2d_16">
      <path d="M 544.018099 193.23 
L 544.018099 26.91 
" clip-path="url(#pdb9ce80d07)" style="fill: none; stroke: #ffffff; stroke-width: 0.5; stroke-linecap: round"/>
     </g>
     <g id="text_13">
      <!-- $\mathdefault{0}$ -->
      <g style="fill: #262626" transform="translate(540.938099 210.584688) scale(0.11 -0.11)">
       <use xlink:href="#HelveticaNeue-30" transform="translate(0 0.09375)"/>
      </g>
     </g>
    </g>
    <g id="xtick_8">
     <g id="line2d_17">
      <path d="M 617.072677 193.23 
L 617.072677 26.91 
" clip-path="url(#pdb9ce80d07)" style="fill: none; stroke: #ffffff; stroke-width: 0.5; stroke-linecap: round"/>
     </g>
     <g id="text_14">
      <!-- $\mathdefault{10}$ -->
      <g style="fill: #262626" transform="translate(610.912677 210.584688) scale(0.11 -0.11)">
       <use xlink:href="#HelveticaNeue-31" transform="translate(0 0.09375)"/>
       <use xlink:href="#HelveticaNeue-30" transform="translate(55.599991 0.09375)"/>
      </g>
     </g>
    </g>
    <g id="xtick_9">
     <g id="line2d_18">
      <path d="M 690.127256 193.23 
L 690.127256 26.91 
" clip-path="url(#pdb9ce80d07)" style="fill: none; stroke: #ffffff; stroke-width: 0.5; stroke-linecap: round"/>
     </g>
     <g id="text_15">
      <!-- $\mathdefault{20}$ -->
      <g style="fill: #262626" transform="translate(683.967256 210.584688) scale(0.11 -0.11)">
       <use xlink:href="#HelveticaNeue-32" transform="translate(0 0.09375)"/>
       <use xlink:href="#HelveticaNeue-30" transform="translate(55.599991 0.09375)"/>
      </g>
     </g>
    </g>
    <g id="xtick_10">
     <g id="line2d_19">
      <path d="M 763.181834 193.23 
L 763.181834 26.91 
" clip-path="url(#pdb9ce80d07)" style="fill: none; stroke: #ffffff; stroke-width: 0.5; stroke-linecap: round"/>
     </g>
     <g id="text_16">
      <!-- $\mathdefault{30}$ -->
      <g style="fill: #262626" transform="translate(757.021834 210.584688) scale(0.11 -0.11)">
       <use xlink:href="#HelveticaNeue-33" transform="translate(0 0.09375)"/>
       <use xlink:href="#HelveticaNeue-30" transform="translate(55.599991 0.09375)"/>
      </g>
     </g>
    </g>
    <g id="xtick_11">
     <g id="line2d_20">
      <path d="M 836.236412 193.23 
L 836.236412 26.91 
" clip-path="url(#pdb9ce80d07)" style="fill: none; stroke: #ffffff; stroke-width: 0.5; stroke-linecap: round"/>
     </g>
     <g id="text_17">
      <!-- $\mathdefault{40}$ -->
      <g style="fill: #262626" transform="translate(830.076412 210.584688) scale(0.11 -0.11)">
       <use xlink:href="#HelveticaNeue-34" transform="translate(0 0.09375)"/>
       <use xlink:href="#HelveticaNeue-30" transform="translate(55.599991 0.09375)"/>
      </g>
     </g>
    </g>
    <g id="xtick_12">
     <g id="line2d_21">
      <path d="M 909.29099 193.23 
L 909.29099 26.91 
" clip-path="url(#pdb9ce80d07)" style="fill: none; stroke: #ffffff; stroke-width: 0.5; stroke-linecap: round"/>
     </g>
     <g id="text_18">
      <!-- $\mathdefault{50}$ -->
      <g style="fill: #262626" transform="translate(903.13099 210.584688) scale(0.11 -0.11)">
       <use xlink:href="#HelveticaNeue-35" transform="translate(0 0.09375)"/>
       <use xlink:href="#HelveticaNeue-30" transform="translate(55.599991 0.09375)"/>
      </g>
     </g>
    </g>
   </g>
   <g id="matplotlib.axis_4">
    <g id="ytick_6">
     <g id="line2d_22">
      <path d="M 525.571818 193.23 
L 931.39 193.23 
" clip-path="url(#pdb9ce80d07)" style="fill: none; stroke: #ffffff; stroke-width: 0.5; stroke-linecap: round"/>
     </g>
     <g id="text_19">
      <!-- $\mathdefault{−1.0}$ -->
      <g style="fill: #262626" transform="translate(494.181818 197.157344) scale(0.11 -0.11)">
       <use xlink:href="#HelveticaNeue-2212" transform="translate(0 0.09375)"/>
       <use xlink:href="#HelveticaNeue-31" transform="translate(59.999985 0.09375)"/>
       <use xlink:href="#HelveticaNeue-2e" transform="translate(115.599976 0.09375)"/>
       <use xlink:href="#HelveticaNeue-30" transform="translate(143.399963 0.09375)"/>
      </g>
     </g>
    </g>
    <g id="ytick_7">
     <g id="line2d_23">
      <path d="M 525.571818 151.65 
L 931.39 151.65 
" clip-path="url(#pdb9ce80d07)" style="fill: none; stroke: #ffffff; stroke-width: 0.5; stroke-linecap: round"/>
     </g>
     <g id="text_20">
      <!-- $\mathdefault{−0.5}$ -->
      <g style="fill: #262626" transform="translate(494.181818 155.577344) scale(0.11 -0.11)">
       <use xlink:href="#HelveticaNeue-2212" transform="translate(0 0.09375)"/>
       <use xlink:href="#HelveticaNeue-30" transform="translate(59.999985 0.09375)"/>
       <use xlink:href="#HelveticaNeue-2e" transform="translate(115.599976 0.09375)"/>
       <use xlink:href="#HelveticaNeue-35" transform="translate(143.399963 0.09375)"/>
      </g>
     </g>
    </g>
    <g id="ytick_8">
     <g id="line2d_24">
      <path d="M 525.571818 110.07 
L 931.39 110.07 
" clip-path="url(#pdb9ce80d07)" style="fill: none; stroke: #ffffff; stroke-width: 0.5; stroke-linecap: round"/>
     </g>
     <g id="text_21">
      <!-- $\mathdefault{0.0}$ -->
      <g style="fill: #262626" transform="translate(500.781818 113.997344) scale(0.11 -0.11)">
       <use xlink:href="#HelveticaNeue-30" transform="translate(0 0.09375)"/>
       <use xlink:href="#HelveticaNeue-2e" transform="translate(55.599991 0.09375)"/>
       <use xlink:href="#HelveticaNeue-30" transform="translate(83.399979 0.09375)"/>
      </g>
     </g>
    </g>
    <g id="ytick_9">
     <g id="line2d_25">
      <path d="M 525.571818 68.49 
L 931.39 68.49 
" clip-path="url(#pdb9ce80d07)" style="fill: none; stroke: #ffffff; stroke-width: 0.5; stroke-linecap: round"/>
     </g>
     <g id="text_22">
      <!-- $\mathdefault{0.5}$ -->
      <g style="fill: #262626" transform="translate(500.781818 72.417344) scale(0.11 -0.11)">
       <use xlink:href="#HelveticaNeue-30" transform="translate(0 0.09375)"/>
       <use xlink:href="#HelveticaNeue-2e" transform="translate(55.599991 0.09375)"/>
       <use xlink:href="#HelveticaNeue-35" transform="translate(83.399979 0.09375)"/>
      </g>
     </g>
    </g>
    <g id="ytick_10">
     <g id="line2d_26">
      <path d="M 525.571818 26.91 
L 931.39 26.91 
" clip-path="url(#pdb9ce80d07)" style="fill: none; stroke: #ffffff; stroke-width: 0.5; stroke-linecap: round"/>
     </g>
     <g id="text_23">
      <!-- $\mathdefault{1.0}$ -->
      <g style="fill: #262626" transform="translate(500.781818 30.837344) scale(0.11 -0.11)">
       <use xlink:href="#HelveticaNeue-31" transform="translate(0 0.09375)"/>
       <use xlink:href="#HelveticaNeue-2e" transform="translate(55.599991 0.09375)"/>
       <use xlink:href="#HelveticaNeue-30" transform="translate(83.399979 0.09375)"/>
      </g>
     </g>
    </g>
   </g>
   <g id="text_24">
    <!-- Partial Autocorrelation -->
    <g style="fill: #262626" transform="translate(633.367409 20.91) scale(0.192 -0.192)">
     <defs>
      <path id="HelveticaNeue-50" d="M 1107 2381 
L 1107 4058 
L 2298 4058 
Q 2816 4058 3056 3843 
Q 3296 3629 3296 3219 
Q 3296 2810 3056 2592 
Q 2816 2374 2298 2381 
L 1107 2381 
z
M 499 4570 
L 499 0 
L 1107 0 
L 1107 1869 
L 2502 1869 
Q 3194 1862 3549 2220 
Q 3904 2579 3904 3219 
Q 3904 3859 3549 4214 
Q 3194 4570 2502 4570 
L 499 4570 
z
" transform="scale(0.015625)"/>
      <path id="HelveticaNeue-20" transform="scale(0.015625)"/>
     </defs>
     <use xlink:href="#HelveticaNeue-50"/>
     <use xlink:href="#HelveticaNeue-61" x="64.799988"/>
     <use xlink:href="#HelveticaNeue-72" x="118.499985"/>
     <use xlink:href="#HelveticaNeue-74" x="151.799973"/>
     <use xlink:href="#HelveticaNeue-69" x="183.299957"/>
     <use xlink:href="#HelveticaNeue-61" x="205.499954"/>
     <use xlink:href="#HelveticaNeue-6c" x="259.199951"/>
     <use xlink:href="#HelveticaNeue-20" x="281.399948"/>
     <use xlink:href="#HelveticaNeue-41" x="309.199936"/>
     <use xlink:href="#HelveticaNeue-75" x="373.999924"/>
     <use xlink:href="#HelveticaNeue-74" x="429.599915"/>
     <use xlink:href="#HelveticaNeue-6f" x="461.099899"/>
     <use xlink:href="#HelveticaNeue-63" x="518.499893"/>
     <use xlink:href="#HelveticaNeue-6f" x="572.19989"/>
     <use xlink:href="#HelveticaNeue-72" x="629.599884"/>
     <use xlink:href="#HelveticaNeue-72" x="662.899872"/>
     <use xlink:href="#HelveticaNeue-65" x="694.44986"/>
     <use xlink:href="#HelveticaNeue-6c" x="748.149857"/>
     <use xlink:href="#HelveticaNeue-61" x="770.349854"/>
     <use xlink:href="#HelveticaNeue-74" x="824.04985"/>
     <use xlink:href="#HelveticaNeue-69" x="855.549835"/>
     <use xlink:href="#HelveticaNeue-6f" x="877.749832"/>
     <use xlink:href="#HelveticaNeue-6e" x="935.149826"/>
    </g>
   </g>
  </g>
 </g>
 <defs>
  <clipPath id="pcd7cfb4a6a">
   <rect x="38.59" y="26.91" width="405.818182" height="166.32"/>
  </clipPath>
  <clipPath id="pdb9ce80d07">
   <rect x="525.571818" y="26.91" width="405.818182" height="166.32"/>
  </clipPath>
 </defs>
</svg>