<?xml version="1.0" encoding="utf-8" standalone="no"?>
<!DOCTYPE svg PUBLIC "-//W3C//DTD SVG 1.1//EN"
  "http://www.w3.org/Graphics/SVG/1.1/DTD/svg11.dtd">
<svg xmlns:xlink="http://www.w3.org/1999/xlink" width="630.358507pt" height="436.209416pt" viewBox="0 0 630.358507 436.209416" xmlns="http://www.w3.org/2000/svg" version="1.1">
 <metadata>
  <rdf:RDF xmlns:dc="http://purl.org/dc/elements/1.1/" xmlns:cc="http://creativecommons.org/ns#" xmlns:rdf="http://www.w3.org/1999/02/22-rdf-syntax-ns#">
   <cc:Work>
    <dc:type rdf:resource="http://purl.org/dc/dcmitype/StillImage"/>
    <dc:date>2023-11-09T00:45:08.298234</dc:date>
    <dc:format>image/svg+xml</dc:format>
    <dc:creator>
     <cc:Agent>
      <dc:title>Matplotlib v3.7.0, https://matplotlib.org/</dc:title>
     </cc:Agent>
    </dc:creator>
   </cc:Work>
  </rdf:RDF>
 </metadata>
 <defs>
  <style type="text/css">*{stroke-linejoin: round; stroke-linecap: butt}</style>
 </defs>
 <g id="figure_1">
  <g id="patch_1">
   <path d="M 0 436.209416 
L 630.358507 436.209416 
L 630.358507 -0 
L 0 -0 
z
" style="fill: #ffffff"/>
  </g>
  <g id="axes_1">
   <g id="patch_2">
    <path d="M 57.7275 363.874 
L 615.7275 363.874 
L 615.7275 31.234 
L 57.7275 31.234 
z
" style="fill: #eaeaf2"/>
   </g>
   <g id="line2d_1">
    <path d="M 83.091136 156.483189 
L 83.567449 132.03705 
L 84.043761 127.99805 
L 84.520074 120.650732 
L 84.996386 86.87929 
L 85.472698 85.080287 
L 85.949011 104.443106 
L 86.425323 128.568202 
L 86.901636 139.17216 
L 87.377948 132.199418 
L 87.854261 161.121857 
L 88.330573 150.516044 
L 88.806885 143.511913 
L 89.283198 154.364981 
L 89.75951 153.483012 
L 90.235823 196.46166 
L 90.712135 202.03212 
L 91.188448 196.749494 
L 91.66476 194.304694 
L 92.141072 170.469287 
L 92.617385 194.439403 
L 93.093697 206.777784 
L 93.57001 207.940217 
L 94.046322 198.880621 
L 94.998947 202.349468 
L 95.475259 197.380532 
L 95.951572 191.003765 
L 96.427884 200.043054 
L 96.904197 222.001977 
L 97.380509 219.883769 
L 97.856821 239.267977 
L 98.333134 245.53755 
L 98.809446 239.187342 
L 99.285759 255.754787 
L 99.762071 280.142625 
L 100.238383 265.405006 
L 100.714696 267.853499 
L 101.191008 255.965499 
L 101.667321 247.267722 
L 102.143633 249.391101 
L 102.619946 258.46786 
L 103.096258 243.769539 
L 103.57257 249.826382 
L 104.048883 233.288092 
L 104.525195 220.893042 
L 105.001508 219.647578 
L 105.47782 203.432564 
L 105.954133 213.781915 
L 106.430445 201.354953 
L 106.906757 198.063231 
L 107.859382 223.871091 
L 108.335695 218.407664 
L 108.812007 227.412447 
L 109.288319 230.149512 
L 109.764632 217.197247 
L 110.240944 210.57508 
L 110.717257 216.621562 
L 111.193569 206.416146 
L 111.669882 203.91783 
L 112.146194 196.476418 
L 112.622506 196.053894 
L 113.098819 194.933895 
L 114.051444 224.598621 
L 114.527756 235.126215 
L 115.004069 236.186426 
L 115.480381 244.887141 
L 115.956693 231.738182 
L 116.433006 238.629929 
L 116.909318 238.819433 
L 117.385631 255.88764 
L 118.338255 254.622986 
L 118.814568 262.399657 
L 119.29088 256.738797 
L 119.767193 249.229651 
L 120.243505 244.011262 
L 120.719818 243.719537 
L 121.19613 247.424756 
L 121.672442 244.635832 
L 123.10138 257.002269 
L 123.577692 263.946613 
L 124.054004 261.705886 
L 124.530317 276.259912 
L 125.006629 281.337348 
L 125.482942 279.805709 
L 125.959254 282.19146 
L 126.435567 277.771082 
L 126.911879 270.901471 
L 127.388191 282.014146 
L 127.864504 282.795921 
L 128.340816 286.027677 
L 128.817129 280.957808 
L 129.293441 278.883323 
L 129.769754 283.547632 
L 130.246066 282.366198 
L 130.722378 279.901839 
L 131.198691 262.909465 
L 131.675003 262.785657 
L 132.151316 261.119867 
L 132.627628 254.793462 
L 133.10394 259.783444 
L 133.580253 262.672553 
L 134.056565 257.850669 
L 134.532878 255.435583 
L 135.00919 245.259303 
L 135.485503 244.34135 
L 135.961815 246.059539 
L 136.438127 243.690022 
L 136.91444 229.544871 
L 137.390752 245.260961 
L 137.867065 237.220439 
L 138.343377 242.653613 
L 138.81969 235.984741 
L 139.296002 234.682086 
L 139.772314 237.976204 
L 140.248627 240.218778 
L 140.724939 238.061632 
L 141.201252 228.689462 
L 141.677564 229.484724 
L 142.153876 226.58066 
L 142.630189 230.332746 
L 143.106501 235.532143 
L 143.582814 238.081921 
L 144.059126 236.414671 
L 144.535439 241.603906 
L 145.011751 252.719905 
L 145.488063 251.550103 
L 145.964376 247.508327 
L 146.440688 247.640262 
L 146.917001 251.448801 
L 147.393313 254.060581 
L 147.869625 259.125657 
L 148.345938 256.23526 
L 148.82225 256.305191 
L 149.298563 251.395843 
L 149.774875 253.13506 
L 150.251188 260.09509 
L 150.7275 269.024788 
L 151.203812 268.480105 
L 152.156437 272.750846 
L 152.63275 272.523151 
L 153.109062 276.808099 
L 153.585375 270.597393 
L 154.061687 271.816469 
L 154.537999 270.199213 
L 155.014312 269.326829 
L 155.490624 267.444795 
L 155.966937 266.027737 
L 156.443249 269.824645 
L 156.919561 267.623596 
L 157.872186 266.802873 
L 158.348499 267.786703 
L 158.824811 269.501567 
L 159.301124 283.265511 
L 159.777436 281.034748 
L 160.253748 287.023309 
L 160.730061 291.312501 
L 161.206373 285.307517 
L 161.682686 289.344112 
L 162.158998 287.617436 
L 162.63531 288.556426 
L 163.111623 284.210222 
L 163.587935 283.562209 
L 164.064248 283.440249 
L 164.54056 284.303947 
L 165.016873 296.224426 
L 165.493185 294.770646 
L 165.969497 294.572294 
L 166.44581 293.170913 
L 166.922122 296.040282 
L 167.398435 294.869362 
L 167.874747 299.550275 
L 168.35106 293.740696 
L 168.827372 290.314283 
L 169.303684 290.649731 
L 169.779997 286.436182 
L 170.256309 287.996985 
L 170.732622 286.743034 
L 171.685246 285.341653 
L 172.161559 281.957125 
L 172.637871 283.489512 
L 173.114184 284.082351 
L 173.590496 291.6806 
L 174.066809 290.485697 
L 174.543121 293.546768 
L 175.019433 293.376283 
L 175.495746 292.673835 
L 175.972058 291.132781 
L 176.448371 284.082351 
L 176.924683 273.393687 
L 177.400996 272.475923 
L 177.877308 270.703119 
L 178.35362 272.783136 
L 178.829933 271.580845 
L 179.306245 271.595603 
L 179.782558 266.196385 
L 180.25887 253.03765 
L 181.211495 261.759393 
L 181.687807 257.821334 
L 182.640432 256.835108 
L 183.116745 257.535888 
L 183.593057 264.917154 
L 184.069369 267.786883 
L 184.545682 268.852636 
L 185.021994 271.302228 
L 185.498307 278.711171 
L 185.974619 278.053753 
L 186.450931 280.206655 
L 186.927244 283.872557 
L 187.403556 292.126206 
L 187.879869 287.284024 
L 188.356181 294.360473 
L 188.832494 292.312008 
L 189.308806 291.814561 
L 189.785118 292.27806 
L 190.261431 294.083703 
L 190.737743 292.076015 
L 191.214056 291.592406 
L 191.690368 287.055229 
L 192.166681 289.949689 
L 192.642993 288.430961 
L 193.119305 292.075834 
L 193.595618 288.750354 
L 194.07193 290.81782 
L 195.024555 284.484406 
L 195.500867 283.686756 
L 195.97718 284.718741 
L 196.929805 277.54081 
L 197.406117 278.447131 
L 197.88243 279.718984 
L 198.358742 278.623896 
L 198.835054 275.751581 
L 199.311367 274.285251 
L 199.787679 274.518848 
L 200.263992 272.644192 
L 200.740304 283.139856 
L 201.216617 288.004733 
L 201.692929 289.150562 
L 202.169241 293.598987 
L 202.645554 292.217355 
L 203.121866 291.685212 
L 203.598179 291.842049 
L 204.074491 291.277446 
L 204.550803 288.223563 
L 205.027116 288.308441 
L 205.503428 287.745856 
L 205.979741 288.22596 
L 206.456053 292.580101 
L 206.932366 290.917645 
L 207.408678 290.415027 
L 207.88499 288.180021 
L 208.361303 284.207816 
L 209.313928 284.656558 
L 209.79024 286.782514 
L 210.266552 289.530652 
L 210.742865 288.635213 
L 211.219177 285.281687 
L 212.171802 286.661661 
L 212.648115 286.226208 
L 213.600739 287.507836 
L 214.077052 288.495171 
L 214.553364 287.127926 
L 215.029677 286.28304 
L 215.505989 286.91352 
L 215.982302 286.64339 
L 216.458614 285.734113 
L 216.934926 285.911058 
L 217.411239 286.96482 
L 217.887551 293.040645 
L 218.840176 292.491719 
L 219.316488 292.40057 
L 219.792801 286.761666 
L 220.269113 286.769603 
L 220.745426 287.723162 
L 221.221738 288.972689 
L 221.698051 289.181185 
L 222.174363 288.742417 
L 222.650675 288.868621 
L 223.126988 288.779869 
L 223.6033 288.990581 
L 224.079613 288.619717 
L 224.555925 288.980437 
L 225.032238 289.008853 
L 225.984862 288.794077 
L 226.461175 291.631156 
L 226.937487 291.600893 
L 227.4138 291.908295 
L 227.890112 290.798081 
L 228.366424 290.601387 
L 228.842737 291.102897 
L 229.319049 290.828524 
L 230.271674 289.262378 
L 230.747987 287.986832 
L 231.700611 290.653416 
L 232.176924 290.217963 
L 232.653236 290.180142 
L 233.129549 290.918194 
L 233.605861 291.135547 
L 234.082173 302.5964 
L 235.034798 305.60028 
L 235.511111 305.991812 
L 235.987423 304.714797 
L 236.463736 318.591106 
L 236.940048 326.33365 
L 237.41636 323.560421 
L 237.892673 327.919175 
L 238.368985 328.266615 
L 238.845298 336.871384 
L 239.32161 334.48729 
L 239.797923 338.746593 
L 240.274235 337.979201 
L 240.750547 329.921512 
L 241.22686 329.52616 
L 241.703172 334.352621 
L 242.179485 330.71027 
L 242.655797 332.090317 
L 243.132109 336.624674 
L 243.608422 335.466615 
L 244.561047 343.507551 
L 245.037359 345.37417 
L 245.513672 344.337621 
L 245.989984 341.789132 
L 246.466296 343.8479 
L 246.942609 345.288355 
L 247.418921 344.137693 
L 247.895234 347.334807 
L 248.371546 348.6484 
L 248.847859 348.754 
L 249.324171 348.457351 
L 249.800483 343.050642 
L 250.276796 340.279359 
L 250.753108 339.358793 
L 251.229421 332.190628 
L 251.705733 336.580154 
L 252.182045 334.409561 
L 252.658358 334.690065 
L 253.13467 333.220991 
L 253.610983 338.075688 
L 254.087295 337.304296 
L 254.563608 341.040025 
L 255.03992 336.075049 
L 255.516232 337.984945 
L 255.992545 337.144599 
L 256.468857 339.418764 
L 257.421482 335.715419 
L 257.897794 337.683588 
L 258.374107 337.296548 
L 258.850419 337.527613 
L 259.326732 333.257277 
L 259.803044 334.205384 
L 260.755669 334.019984 
L 261.231981 340.595513 
L 261.708294 340.439767 
L 262.184606 340.920691 
L 262.660919 342.919852 
L 263.137231 340.094972 
L 263.613544 341.485776 
L 264.566168 340.602167 
L 265.042481 340.984563 
L 265.518793 339.67952 
L 265.995106 342.033072 
L 266.471418 342.494008 
L 266.94773 341.967321 
L 267.424043 342.326275 
L 267.900355 342.035806 
L 268.85298 342.006377 
L 269.329293 342.347627 
L 269.805605 344.442135 
L 270.281917 344.854218 
L 270.75823 344.151874 
L 271.234542 344.675687 
L 272.187167 343.508308 
L 272.66348 344.560907 
L 273.139792 344.650569 
L 273.616104 344.517657 
L 274.092417 345.488004 
L 274.568729 345.751787 
L 275.045042 340.819591 
L 275.521354 340.737975 
L 275.997666 340.387684 
L 276.473979 341.158166 
L 276.950291 341.064103 
L 277.902916 341.740301 
L 278.855541 341.502155 
L 279.331853 340.689401 
L 279.808166 336.22643 
L 280.284478 335.647425 
L 280.760791 334.67456 
L 281.237103 335.517829 
L 281.713415 334.569275 
L 282.189728 332.041441 
L 282.66604 338.169111 
L 283.142353 336.835657 
L 283.618665 337.358537 
L 284.094978 337.419621 
L 285.523915 337.17297 
L 286.000227 337.491057 
L 286.47654 339.070834 
L 286.952852 336.583266 
L 287.905477 336.304479 
L 288.381789 336.495501 
L 288.858102 335.348159 
L 289.334414 335.564295 
L 289.810727 336.41993 
L 290.287039 336.347436 
L 290.763351 336.392438 
L 291.239664 336.066738 
L 291.715976 335.39249 
L 292.192289 333.772193 
L 292.668601 334.20574 
L 293.144914 334.071446 
L 293.621226 333.357696 
L 294.097538 333.057195 
L 294.573851 334.130129 
L 295.050163 334.229003 
L 295.526476 334.010204 
L 296.002788 334.262216 
L 296.479101 335.352646 
L 296.955413 334.946527 
L 297.431725 333.064763 
L 297.908038 333.39613 
L 298.38435 332.856109 
L 298.860663 332.703228 
L 299.336975 332.726401 
L 299.813287 331.752562 
L 300.2896 318.436342 
L 300.765912 316.717712 
L 301.242225 317.644395 
L 301.718537 315.543116 
L 302.19485 315.116222 
L 302.671162 312.550021 
L 303.147474 310.873275 
L 303.623787 312.438178 
L 304.100099 310.231525 
L 304.576412 315.030047 
L 305.052724 314.567818 
L 305.529036 314.437785 
L 306.005349 313.125237 
L 306.481661 314.981694 
L 306.957974 311.873548 
L 307.434286 311.571344 
L 307.910599 310.714322 
L 308.386911 310.614191 
L 308.863223 309.985486 
L 309.339536 310.416416 
L 309.815848 308.851117 
L 310.292161 305.659094 
L 310.768473 307.642529 
L 311.244786 312.335641 
L 311.721098 311.065591 
L 312.19741 311.269609 
L 312.673723 310.958739 
L 313.150035 311.655952 
L 313.626348 309.748565 
L 314.10266 308.789637 
L 314.578972 306.896782 
L 315.055285 302.043978 
L 315.531597 300.883797 
L 316.00791 301.538062 
L 316.484222 302.440357 
L 316.960535 300.914538 
L 317.436847 298.092297 
L 318.389472 290.77835 
L 318.865784 275.538995 
L 319.342097 279.827079 
L 319.818409 264.281043 
L 320.771034 257.080362 
L 321.247346 262.989559 
L 321.723659 272.971973 
L 322.199971 274.313154 
L 322.676284 257.218351 
L 323.152596 261.266208 
L 323.628908 261.542635 
L 324.105221 266.769178 
L 324.581533 263.046066 
L 325.057846 261.098993 
L 325.534158 259.896477 
L 326.010471 248.444263 
L 326.486783 245.998311 
L 326.963095 247.581736 
L 327.439408 248.697572 
L 327.91572 254.97129 
L 328.392033 250.265664 
L 328.868345 250.459133 
L 329.344657 247.157428 
L 330.297282 266.257992 
L 330.773595 264.109143 
L 331.249907 264.149884 
L 331.72622 260.055025 
L 332.202532 261.712382 
L 332.678844 266.621369 
L 333.155157 260.8599 
L 333.631469 262.199747 
L 334.107782 258.17472 
L 334.584094 256.605133 
L 335.060407 248.063849 
L 336.013031 242.516363 
L 336.489344 236.503739 
L 336.965656 240.906035 
L 337.441969 237.367833 
L 337.918281 232.687866 
L 338.870906 211.016218 
L 339.823531 205.307175 
L 340.299843 190.918571 
L 340.776156 168.309906 
L 341.252468 202.139008 
L 341.72878 179.544902 
L 342.205093 187.810371 
L 342.681405 208.885757 
L 343.157718 213.203744 
L 343.63403 209.171338 
L 344.110343 187.775343 
L 344.586655 201.536926 
L 345.062967 205.909473 
L 346.015592 197.193316 
L 346.491905 181.784413 
L 346.968217 176.473118 
L 347.444529 184.172849 
L 347.920842 198.894243 
L 348.397154 190.456009 
L 348.873467 198.272124 
L 349.349779 219.23873 
L 349.826092 207.447762 
L 350.302404 233.601548 
L 350.778716 229.613091 
L 351.255029 211.66587 
L 351.731341 214.170636 
L 352.207654 209.808611 
L 352.683966 212.909063 
L 353.160278 217.632582 
L 353.636591 225.794317 
L 354.112903 227.433565 
L 354.589216 225.589983 
L 355.065528 226.356415 
L 355.541841 233.600882 
L 356.018153 232.213663 
L 356.494465 232.835747 
L 356.970778 231.206895 
L 357.44709 222.3834 
L 357.923403 216.58893 
L 358.399715 214.402341 
L 358.876028 208.801411 
L 359.35234 206.062165 
L 359.828652 190.646667 
L 360.304965 196.689185 
L 360.781277 188.131468 
L 361.25759 187.680545 
L 361.733902 189.589716 
L 362.210214 198.979815 
L 362.686527 195.851307 
L 363.162839 198.452258 
L 363.639152 207.434104 
L 364.115464 223.009339 
L 364.591777 218.214916 
L 365.068089 217.056303 
L 365.544401 219.687364 
L 366.020714 217.582688 
L 366.497026 207.060951 
L 366.973339 209.880705 
L 367.449651 221.416147 
L 367.925964 221.545198 
L 368.402276 216.43586 
L 368.878588 221.011858 
L 369.354901 221.407516 
L 369.831213 217.121225 
L 370.307526 220.540629 
L 370.783838 228.49457 
L 371.26015 233.000799 
L 371.736463 231.37757 
L 372.212775 230.778082 
L 372.689088 228.429107 
L 373.1654 217.565156 
L 373.641713 212.458213 
L 374.118025 212.994166 
L 374.594337 213.344003 
L 375.07065 217.444447 
L 375.546962 214.419314 
L 376.023275 215.821218 
L 376.499587 217.782625 
L 376.975899 221.823446 
L 377.452212 220.672148 
L 377.928524 216.395966 
L 378.404837 217.310783 
L 378.881149 217.356876 
L 379.357462 217.547587 
L 379.833774 218.856135 
L 380.786399 220.305411 
L 381.262711 219.04764 
L 381.739024 220.611821 
L 382.215336 223.599547 
L 382.691649 222.664512 
L 383.167961 228.957673 
L 383.644273 249.415714 
L 384.120586 251.880316 
L 384.596898 258.67087 
L 385.073211 256.219097 
L 385.549523 256.328525 
L 386.025835 258.943621 
L 386.502148 255.443727 
L 387.454773 253.613839 
L 387.931085 256.068783 
L 388.88371 258.070598 
L 389.360022 261.084523 
L 389.836335 256.333913 
L 390.312647 256.64463 
L 390.78896 249.87379 
L 391.265272 250.044771 
L 391.741585 254.929144 
L 392.217897 254.656086 
L 392.694209 254.943001 
L 393.170522 253.952522 
L 394.123147 259.989049 
L 394.599459 258.948684 
L 395.075771 261.360338 
L 395.552084 261.077055 
L 396.028396 256.768348 
L 396.504709 256.369014 
L 396.981021 259.423031 
L 397.457334 269.820925 
L 397.933646 270.211781 
L 398.409958 248.675193 
L 398.886271 237.894597 
L 399.362583 232.234799 
L 399.838896 237.688389 
L 400.315208 234.523267 
L 400.79152 238.618739 
L 401.267833 238.73206 
L 402.220458 236.423194 
L 402.69677 238.072065 
L 403.173083 234.801425 
L 403.649395 236.094584 
L 404.125707 235.755956 
L 404.60202 237.477802 
L 405.078332 246.01487 
L 405.554645 245.854322 
L 406.030957 241.39013 
L 406.50727 246.883794 
L 406.983582 245.815942 
L 407.459894 245.952471 
L 407.936207 247.800702 
L 408.412519 251.788078 
L 408.888832 250.703721 
L 409.365144 250.201571 
L 409.841456 255.159245 
L 410.317769 257.062326 
L 410.794081 260.36285 
L 411.746706 273.84505 
L 412.223019 271.977422 
L 412.699331 278.433167 
L 413.175643 276.620938 
L 413.651956 275.288064 
L 414.128268 269.507405 
L 414.604581 270.772384 
L 415.080893 265.271351 
L 415.557206 268.806877 
L 416.033518 271.488543 
L 416.50983 273.376191 
L 416.986143 273.410192 
L 417.462455 274.666927 
L 417.938768 271.045433 
L 418.41508 269.224491 
L 419.367705 268.904386 
L 419.844017 271.920176 
L 420.32033 274.185625 
L 420.796642 275.305479 
L 421.749267 274.341263 
L 422.225579 277.016902 
L 422.701892 276.50713 
L 423.178204 280.563123 
L 423.654517 285.950267 
L 424.130829 274.209923 
L 424.607141 275.574555 
L 425.083454 275.279848 
L 425.559766 275.790169 
L 426.036079 269.87781 
L 426.512391 272.755486 
L 426.988704 273.366154 
L 427.941328 274.908046 
L 428.417641 273.964786 
L 428.893953 273.44996 
L 429.370266 271.518797 
L 430.322891 275.74514 
L 430.799203 275.623819 
L 431.275515 279.585392 
L 431.751828 272.953729 
L 432.22814 271.740141 
L 432.704453 271.727951 
L 433.657077 257.845642 
L 434.13339 259.392408 
L 434.609702 263.097276 
L 435.086015 257.792837 
L 435.562327 260.173364 
L 436.03864 257.314211 
L 436.514952 258.205406 
L 436.991264 245.592634 
L 437.467577 245.975571 
L 437.943889 247.511174 
L 438.420202 243.724006 
L 438.896514 243.469922 
L 439.372827 247.834829 
L 439.849139 248.73161 
L 440.325451 247.103245 
L 440.801764 248.302923 
L 441.278076 253.365233 
L 441.754389 252.647127 
L 442.230701 254.078708 
L 442.707013 249.853681 
L 443.183326 244.078617 
L 443.659638 235.79821 
L 444.135951 236.572427 
L 444.612263 233.023071 
L 445.088576 235.946938 
L 445.564888 235.165604 
L 446.517513 236.998807 
L 446.993825 239.075661 
L 447.470138 231.096187 
L 447.94645 228.948861 
L 448.899075 226.452078 
L 449.375387 221.810562 
L 449.8517 226.609058 
L 450.328012 220.121114 
L 450.804325 217.94721 
L 451.280637 220.007757 
L 451.756949 218.204393 
L 452.233262 226.003606 
L 452.709574 225.173135 
L 453.185887 229.680626 
L 453.662199 221.343333 
L 454.138512 230.727846 
L 454.614824 231.187489 
L 455.091136 229.748917 
L 455.567449 230.17809 
L 456.043761 225.356134 
L 456.996386 236.109756 
L 457.472698 245.726262 
L 457.949011 246.391032 
L 458.425323 248.4583 
L 458.901636 249.804255 
L 459.377948 250.487963 
L 459.854261 244.819426 
L 460.330573 246.33029 
L 460.806885 246.930697 
L 461.283198 240.961389 
L 461.75951 240.153532 
L 462.235823 244.07613 
L 462.712135 258.871095 
L 463.188448 262.274841 
L 463.66476 262.531591 
L 464.141072 262.500211 
L 464.617385 316.75893 
L 465.093697 305.818795 
L 465.57001 312.522912 
L 466.046322 308.981205 
L 466.522634 315.952757 
L 466.998947 312.056772 
L 467.475259 311.820428 
L 467.951572 294.240855 
L 468.427884 294.100893 
L 468.904197 294.353896 
L 469.380509 300.900636 
L 469.856821 290.087056 
L 470.333134 284.210519 
L 470.809446 285.202106 
L 471.285759 284.549346 
L 472.714696 299.207025 
L 473.191008 289.837468 
L 473.667321 289.675046 
L 474.619946 283.125198 
L 475.096258 284.236655 
L 475.57257 281.761593 
L 476.048883 283.171236 
L 476.525195 274.302576 
L 477.001508 276.062218 
L 477.47782 273.152739 
L 477.954133 273.743352 
L 478.430445 281.799127 
L 478.906757 281.917402 
L 479.38307 279.850693 
L 479.859382 282.176559 
L 480.335695 282.224714 
L 480.812007 285.920843 
L 481.288319 277.162107 
L 481.764632 277.542566 
L 482.240944 274.563039 
L 482.717257 275.822161 
L 483.193569 281.49532 
L 483.669882 281.525492 
L 484.146194 277.154665 
L 484.622506 271.388313 
L 485.098819 269.152452 
L 485.575131 268.801228 
L 486.527756 264.637411 
L 487.004069 264.426005 
L 487.480381 246.085774 
L 487.956693 248.714798 
L 488.433006 244.909899 
L 488.909318 242.625071 
L 489.385631 244.306501 
L 489.861943 244.026308 
L 490.338255 242.358014 
L 490.814568 237.455657 
L 491.29088 224.857895 
L 491.767193 226.866367 
L 492.243505 231.456493 
L 492.719818 246.90884 
L 493.19613 249.762055 
L 493.672442 246.022312 
L 494.625067 228.876534 
L 495.10138 236.358993 
L 495.577692 235.458266 
L 496.054004 230.038642 
L 496.530317 229.008396 
L 497.006629 228.962952 
L 497.482942 232.764969 
L 497.959254 240.906053 
L 498.435567 239.045876 
L 498.911879 238.553042 
L 499.388191 246.282648 
L 499.864504 244.131845 
L 500.340816 245.458159 
L 501.293441 232.713867 
L 501.769754 234.312248 
L 502.246066 229.491103 
L 502.722378 233.907527 
L 503.198691 220.877023 
L 503.675003 232.639089 
L 504.627628 227.641863 
L 505.10394 230.134701 
L 505.580253 230.353414 
L 506.056565 228.412836 
L 506.532878 228.179672 
L 507.00919 227.732948 
L 507.485503 226.360271 
L 507.961815 236.477377 
L 508.438127 233.542464 
L 508.91444 233.645172 
L 509.390752 235.277915 
L 509.867065 234.098617 
L 510.343377 232.487406 
L 511.296002 234.815659 
L 511.772314 237.100343 
L 512.248627 236.282539 
L 512.724939 236.812294 
L 513.201252 230.444968 
L 513.677564 230.796642 
L 514.153876 236.628141 
L 514.630189 237.528508 
L 515.582814 241.577148 
L 516.059126 239.765387 
L 516.535439 238.893148 
L 517.011751 239.868509 
L 517.488063 238.201764 
L 517.964376 240.137585 
L 518.440688 240.803796 
L 518.917001 239.970082 
L 519.393313 241.050331 
L 519.869625 235.486664 
L 520.345938 237.759816 
L 520.82225 234.511357 
L 521.298563 237.285793 
L 521.774875 237.270297 
L 522.251188 237.979952 
L 522.7275 237.312876 
L 523.203812 237.919661 
L 523.680125 237.927049 
L 524.63275 239.974893 
L 525.109062 239.621272 
L 525.585375 239.480167 
L 526.061687 238.986089 
L 526.537999 239.384378 
L 527.014312 235.497493 
L 527.490624 232.721021 
L 527.966937 231.693116 
L 528.443249 232.50829 
L 528.919561 229.921033 
L 529.395874 225.713142 
L 529.872186 205.680436 
L 530.348499 207.120557 
L 530.824811 203.658269 
L 531.301124 203.459989 
L 531.777436 199.543643 
L 532.253748 191.496544 
L 532.730061 204.522778 
L 533.206373 200.966575 
L 533.682686 201.713042 
L 534.158998 191.728483 
L 534.63531 191.124185 
L 535.111623 194.414069 
L 535.587935 191.598892 
L 536.064248 193.043752 
L 536.54056 189.309721 
L 537.016873 197.937297 
L 537.969497 191.043658 
L 538.44581 191.325347 
L 538.922122 189.538759 
L 539.398435 189.038627 
L 539.874747 182.366656 
L 540.827372 191.520708 
L 541.303684 189.30491 
L 541.779997 194.579824 
L 542.256309 192.931459 
L 542.732622 193.244717 
L 543.208934 191.219721 
L 543.685246 198.756363 
L 544.161559 196.501086 
L 544.637871 199.544922 
L 545.114184 195.502192 
L 545.590496 196.1597 
L 546.066809 192.383811 
L 546.543121 192.95 
L 547.019433 187.605425 
L 547.495746 197.872555 
L 547.972058 219.437298 
L 548.448371 214.519715 
L 548.924683 220.834607 
L 549.877308 217.144415 
L 550.35362 221.536694 
L 551.306245 217.262961 
L 552.25887 215.804713 
L 552.735182 217.989626 
L 553.211495 211.400992 
L 553.687807 209.25855 
L 554.16412 205.975062 
L 554.640432 206.453229 
L 555.116745 206.534494 
L 555.593057 203.771211 
L 556.069369 206.651004 
L 556.545682 215.434047 
L 557.021994 214.028053 
L 557.498307 219.420883 
L 557.974619 209.939122 
L 558.450931 211.181811 
L 558.927244 210.111509 
L 559.403556 209.658604 
L 559.879869 210.869328 
L 560.356181 208.378616 
L 560.832494 209.488452 
L 561.308806 212.53364 
L 561.785118 213.335858 
L 562.261431 213.827503 
L 563.214056 209.325183 
L 563.690368 212.811257 
L 564.166681 211.619994 
L 564.642993 207.067744 
L 565.119305 204.322696 
L 565.595618 200.043775 
L 566.07193 198.423374 
L 566.548243 195.264847 
L 567.024555 197.653626 
L 567.500867 197.587065 
L 567.97718 196.372179 
L 568.453492 199.568437 
L 568.929805 198.904586 
L 569.406117 196.593414 
L 569.88243 191.82047 
L 570.358742 188.604445 
L 570.835054 171.86256 
L 571.311367 169.238743 
L 571.787679 169.872592 
L 572.263992 166.615502 
L 572.740304 168.0342 
L 573.216617 167.220972 
L 573.692929 156.5382 
L 574.169241 163.603829 
L 574.645554 160.529883 
L 575.121866 158.525339 
L 575.598179 154.199009 
L 575.598179 154.199009 
" clip-path="url(#p13a1bad17e)" style="fill: none; stroke: #000000; stroke-width: 1.5; stroke-linecap: round"/>
   </g>
   <g id="line2d_2">
    <path d="M 576.550803 158.452146 
L 577.027116 151.075097 
L 577.503428 147.69101 
L 577.979741 121.007793 
L 578.456053 121.265517 
L 578.932366 134.774224 
L 579.408678 122.858115 
L 579.88499 125.575107 
L 580.361303 126.339233 
L 580.837615 118.766121 
L 581.313928 108.156541 
L 581.79024 107.39146 
L 582.266552 111.998199 
L 582.742865 114.074909 
L 583.219177 100.04225 
L 583.69549 82.895536 
L 584.171802 79.969164 
L 584.648115 79.727747 
L 585.124427 64.888744 
L 585.600739 64.50278 
L 586.077052 69.525791 
L 586.553364 69.6343 
L 587.029677 55.918629 
L 587.505989 62.844216 
L 587.982302 92.024937 
L 588.458614 92.803965 
L 588.934926 81.566897 
L 589.411239 73.077993 
L 589.887551 46.354 
L 590.363864 61.536443 
" clip-path="url(#p13a1bad17e)" style="fill: none; stroke: #ff0000; stroke-width: 1.5; stroke-linecap: round"/>
   </g>
   <g id="patch_3">
    <path d="M 57.7275 363.874 
L 57.7275 31.234 
" style="fill: none; stroke: #808080; stroke-width: 1.25; stroke-linejoin: miter; stroke-linecap: square"/>
   </g>
   <g id="patch_4">
    <path d="M 615.7275 363.874 
L 615.7275 31.234 
" style="fill: none; stroke: #808080; stroke-width: 1.25; stroke-linejoin: miter; stroke-linecap: square"/>
   </g>
   <g id="patch_5">
    <path d="M 57.7275 363.874 
L 615.7275 363.874 
" style="fill: none; stroke: #808080; stroke-width: 1.25; stroke-linejoin: miter; stroke-linecap: square"/>
   </g>
   <g id="patch_6">
    <path d="M 57.7275 31.234 
L 615.7275 31.234 
" style="fill: none; stroke: #808080; stroke-width: 1.25; stroke-linejoin: miter; stroke-linecap: square"/>
   </g>
   <g id="matplotlib.axis_1">
    <g id="xtick_1">
     <g id="line2d_3">
      <path d="M 83.091136 363.874 
L 83.091136 31.234 
" clip-path="url(#p13a1bad17e)" style="fill: none; stroke: #ffffff; stroke-width: 0.5; stroke-linecap: round"/>
     </g>
     <g id="text_1">
      <!-- 2018-01 -->
      <g style="fill: #262626" transform="translate(70.616281 407.899372) rotate(-45) scale(0.11 -0.11)">
       <defs>
        <path id="HelveticaNeue-32" d="M 282 2931 
L 826 2931 
Q 819 3136 867 3337 
Q 915 3539 1024 3699 
Q 1133 3859 1302 3958 
Q 1472 4058 1709 4058 
Q 1888 4058 2048 4000 
Q 2208 3942 2326 3833 
Q 2445 3725 2515 3574 
Q 2586 3424 2586 3238 
Q 2586 3002 2512 2822 
Q 2438 2643 2294 2489 
Q 2150 2336 1932 2185 
Q 1715 2035 1427 1856 
Q 1190 1715 972 1555 
Q 755 1395 582 1184 
Q 410 973 298 688 
Q 186 403 154 0 
L 3117 0 
L 3117 480 
L 787 480 
Q 826 691 950 854 
Q 1075 1018 1251 1158 
Q 1427 1299 1638 1424 
Q 1850 1549 2061 1677 
Q 2272 1811 2470 1958 
Q 2669 2106 2822 2288 
Q 2976 2470 3069 2700 
Q 3162 2931 3162 3232 
Q 3162 3552 3050 3795 
Q 2938 4038 2746 4201 
Q 2554 4365 2294 4451 
Q 2035 4538 1741 4538 
Q 1382 4538 1100 4416 
Q 819 4294 630 4080 
Q 442 3866 352 3571 
Q 262 3277 282 2931 
z
" transform="scale(0.015625)"/>
        <path id="HelveticaNeue-30" d="M 845 2234 
Q 845 2400 848 2601 
Q 851 2803 880 3004 
Q 909 3206 963 3398 
Q 1018 3590 1123 3734 
Q 1229 3878 1389 3968 
Q 1549 4058 1779 4058 
Q 2010 4058 2170 3968 
Q 2330 3878 2435 3734 
Q 2541 3590 2595 3398 
Q 2650 3206 2678 3004 
Q 2707 2803 2710 2601 
Q 2714 2400 2714 2234 
Q 2714 1978 2698 1661 
Q 2682 1344 2595 1065 
Q 2509 787 2317 595 
Q 2125 403 1779 403 
Q 1434 403 1242 595 
Q 1050 787 963 1065 
Q 877 1344 861 1661 
Q 845 1978 845 2234 
z
M 269 2227 
Q 269 1978 281 1709 
Q 294 1440 345 1184 
Q 397 928 493 701 
Q 589 474 755 301 
Q 922 128 1174 29 
Q 1427 -70 1779 -70 
Q 2138 -70 2387 29 
Q 2637 128 2803 301 
Q 2970 474 3066 701 
Q 3162 928 3213 1184 
Q 3264 1440 3277 1709 
Q 3290 1978 3290 2227 
Q 3290 2477 3277 2745 
Q 3264 3014 3213 3270 
Q 3162 3526 3066 3756 
Q 2970 3987 2803 4160 
Q 2637 4333 2384 4435 
Q 2131 4538 1779 4538 
Q 1427 4538 1174 4435 
Q 922 4333 755 4160 
Q 589 3987 493 3756 
Q 397 3526 345 3270 
Q 294 3014 281 2745 
Q 269 2477 269 2227 
z
" transform="scale(0.015625)"/>
        <path id="HelveticaNeue-31" d="M 2278 0 
L 2278 4538 
L 1862 4538 
Q 1818 4282 1696 4115 
Q 1574 3949 1398 3853 
Q 1222 3757 1004 3721 
Q 787 3686 557 3686 
L 557 3251 
L 1734 3251 
L 1734 0 
L 2278 0 
z
" transform="scale(0.015625)"/>
        <path id="HelveticaNeue-38" d="M 992 3360 
Q 992 3533 1056 3661 
Q 1120 3789 1225 3878 
Q 1331 3968 1478 4013 
Q 1626 4058 1786 4058 
Q 2118 4058 2332 3882 
Q 2547 3706 2547 3360 
Q 2547 3014 2336 2822 
Q 2125 2630 1798 2630 
Q 1632 2630 1485 2675 
Q 1338 2720 1229 2809 
Q 1120 2899 1056 3036 
Q 992 3174 992 3360 
z
M 416 3379 
Q 416 3072 589 2813 
Q 762 2554 1050 2438 
Q 666 2304 461 2006 
Q 256 1709 256 1306 
Q 256 960 374 701 
Q 493 442 701 269 
Q 909 96 1190 13 
Q 1472 -70 1798 -70 
Q 2112 -70 2387 19 
Q 2662 109 2864 285 
Q 3066 461 3184 717 
Q 3302 973 3302 1306 
Q 3302 1728 3104 2019 
Q 2906 2310 2496 2438 
Q 2784 2566 2953 2819 
Q 3123 3072 3123 3379 
Q 3123 3597 3046 3805 
Q 2970 4013 2806 4176 
Q 2643 4339 2380 4438 
Q 2118 4538 1747 4538 
Q 1485 4538 1245 4461 
Q 1005 4384 819 4237 
Q 634 4090 525 3875 
Q 416 3661 416 3379 
z
M 832 1280 
Q 832 1478 905 1638 
Q 979 1798 1110 1913 
Q 1242 2029 1418 2089 
Q 1594 2150 1792 2150 
Q 1984 2150 2153 2083 
Q 2323 2016 2451 1901 
Q 2579 1786 2652 1629 
Q 2726 1472 2726 1286 
Q 2726 1094 2659 934 
Q 2592 774 2467 656 
Q 2342 538 2172 470 
Q 2003 403 1798 403 
Q 1376 403 1104 636 
Q 832 870 832 1280 
z
" transform="scale(0.015625)"/>
        <path id="HelveticaNeue-2d" d="M 320 2035 
L 320 1523 
L 2170 1523 
L 2170 2035 
L 320 2035 
z
" transform="scale(0.015625)"/>
       </defs>
       <use xlink:href="#HelveticaNeue-32"/>
       <use xlink:href="#HelveticaNeue-30" x="55.599991"/>
       <use xlink:href="#HelveticaNeue-31" x="111.199982"/>
       <use xlink:href="#HelveticaNeue-38" x="166.799973"/>
       <use xlink:href="#HelveticaNeue-2d" x="222.399963"/>
       <use xlink:href="#HelveticaNeue-30" x="261.299957"/>
       <use xlink:href="#HelveticaNeue-31" x="316.899948"/>
      </g>
     </g>
    </g>
    <g id="xtick_2">
     <g id="line2d_4">
      <path d="M 140.248627 363.874 
L 140.248627 31.234 
" clip-path="url(#p13a1bad17e)" style="fill: none; stroke: #ffffff; stroke-width: 0.5; stroke-linecap: round"/>
     </g>
     <g id="text_2">
      <!-- 2018-05 -->
      <g style="fill: #262626" transform="translate(127.773772 407.899372) rotate(-45) scale(0.11 -0.11)">
       <defs>
        <path id="HelveticaNeue-35" d="M 3008 3981 
L 3008 4461 
L 768 4461 
L 346 2106 
L 813 2080 
Q 973 2272 1181 2390 
Q 1389 2509 1658 2509 
Q 1888 2509 2077 2432 
Q 2266 2355 2400 2217 
Q 2534 2080 2608 1891 
Q 2682 1702 2682 1478 
Q 2682 1210 2605 1008 
Q 2528 806 2397 672 
Q 2266 538 2090 470 
Q 1914 403 1722 403 
Q 1517 403 1347 464 
Q 1178 525 1053 637 
Q 928 749 854 899 
Q 781 1050 768 1222 
L 224 1222 
Q 230 915 345 672 
Q 461 429 659 265 
Q 858 102 1117 16 
Q 1376 -70 1670 -70 
Q 2067 -70 2364 54 
Q 2662 179 2860 390 
Q 3059 602 3158 874 
Q 3258 1146 3258 1434 
Q 3258 1824 3142 2115 
Q 3027 2406 2828 2601 
Q 2630 2797 2361 2893 
Q 2093 2989 1792 2989 
Q 1562 2989 1328 2909 
Q 1094 2829 947 2662 
L 934 2675 
L 1178 3981 
L 3008 3981 
z
" transform="scale(0.015625)"/>
       </defs>
       <use xlink:href="#HelveticaNeue-32"/>
       <use xlink:href="#HelveticaNeue-30" x="55.599991"/>
       <use xlink:href="#HelveticaNeue-31" x="111.199982"/>
       <use xlink:href="#HelveticaNeue-38" x="166.799973"/>
       <use xlink:href="#HelveticaNeue-2d" x="222.399963"/>
       <use xlink:href="#HelveticaNeue-30" x="261.299957"/>
       <use xlink:href="#HelveticaNeue-35" x="316.899948"/>
      </g>
     </g>
    </g>
    <g id="xtick_3">
     <g id="line2d_5">
      <path d="M 198.835054 363.874 
L 198.835054 31.234 
" clip-path="url(#p13a1bad17e)" style="fill: none; stroke: #ffffff; stroke-width: 0.5; stroke-linecap: round"/>
     </g>
     <g id="text_3">
      <!-- 2018-09 -->
      <g style="fill: #262626" transform="translate(186.360199 407.899372) rotate(-45) scale(0.11 -0.11)">
       <defs>
        <path id="HelveticaNeue-39" d="M 858 1094 
L 314 1094 
Q 365 506 742 218 
Q 1120 -70 1690 -70 
Q 2515 -70 2889 560 
Q 3264 1190 3264 2368 
Q 3264 3014 3139 3433 
Q 3014 3853 2803 4096 
Q 2592 4339 2310 4438 
Q 2029 4538 1709 4538 
Q 1382 4538 1107 4429 
Q 832 4320 633 4125 
Q 435 3930 326 3658 
Q 218 3386 218 3059 
Q 218 2726 310 2444 
Q 403 2163 585 1964 
Q 768 1766 1037 1654 
Q 1306 1542 1651 1542 
Q 1984 1542 2265 1712 
Q 2547 1882 2701 2170 
L 2714 2157 
Q 2688 1267 2438 835 
Q 2189 403 1690 403 
Q 1363 403 1126 582 
Q 890 762 858 1094 
z
M 2618 3021 
Q 2618 2822 2554 2640 
Q 2490 2458 2368 2320 
Q 2246 2182 2073 2102 
Q 1901 2022 1690 2022 
Q 1491 2022 1328 2102 
Q 1165 2182 1046 2316 
Q 928 2451 861 2624 
Q 794 2797 794 2982 
Q 794 3194 842 3386 
Q 890 3578 995 3728 
Q 1101 3878 1270 3968 
Q 1440 4058 1683 4058 
Q 1914 4058 2086 3974 
Q 2259 3891 2377 3747 
Q 2496 3603 2557 3417 
Q 2618 3232 2618 3021 
z
" transform="scale(0.015625)"/>
       </defs>
       <use xlink:href="#HelveticaNeue-32"/>
       <use xlink:href="#HelveticaNeue-30" x="55.599991"/>
       <use xlink:href="#HelveticaNeue-31" x="111.199982"/>
       <use xlink:href="#HelveticaNeue-38" x="166.799973"/>
       <use xlink:href="#HelveticaNeue-2d" x="222.399963"/>
       <use xlink:href="#HelveticaNeue-30" x="261.299957"/>
       <use xlink:href="#HelveticaNeue-39" x="316.899948"/>
      </g>
     </g>
    </g>
    <g id="xtick_4">
     <g id="line2d_6">
      <path d="M 256.94517 363.874 
L 256.94517 31.234 
" clip-path="url(#p13a1bad17e)" style="fill: none; stroke: #ffffff; stroke-width: 0.5; stroke-linecap: round"/>
     </g>
     <g id="text_4">
      <!-- 2019-01 -->
      <g style="fill: #262626" transform="translate(244.470314 407.899372) rotate(-45) scale(0.11 -0.11)">
       <use xlink:href="#HelveticaNeue-32"/>
       <use xlink:href="#HelveticaNeue-30" x="55.599991"/>
       <use xlink:href="#HelveticaNeue-31" x="111.199982"/>
       <use xlink:href="#HelveticaNeue-39" x="166.799973"/>
       <use xlink:href="#HelveticaNeue-2d" x="222.399963"/>
       <use xlink:href="#HelveticaNeue-30" x="261.299957"/>
       <use xlink:href="#HelveticaNeue-31" x="316.899948"/>
      </g>
     </g>
    </g>
    <g id="xtick_5">
     <g id="line2d_7">
      <path d="M 314.10266 363.874 
L 314.10266 31.234 
" clip-path="url(#p13a1bad17e)" style="fill: none; stroke: #ffffff; stroke-width: 0.5; stroke-linecap: round"/>
     </g>
     <g id="text_5">
      <!-- 2019-05 -->
      <g style="fill: #262626" transform="translate(301.627805 407.899372) rotate(-45) scale(0.11 -0.11)">
       <use xlink:href="#HelveticaNeue-32"/>
       <use xlink:href="#HelveticaNeue-30" x="55.599991"/>
       <use xlink:href="#HelveticaNeue-31" x="111.199982"/>
       <use xlink:href="#HelveticaNeue-39" x="166.799973"/>
       <use xlink:href="#HelveticaNeue-2d" x="222.399963"/>
       <use xlink:href="#HelveticaNeue-30" x="261.299957"/>
       <use xlink:href="#HelveticaNeue-35" x="316.899948"/>
      </g>
     </g>
    </g>
    <g id="xtick_6">
     <g id="line2d_8">
      <path d="M 372.689088 363.874 
L 372.689088 31.234 
" clip-path="url(#p13a1bad17e)" style="fill: none; stroke: #ffffff; stroke-width: 0.5; stroke-linecap: round"/>
     </g>
     <g id="text_6">
      <!-- 2019-09 -->
      <g style="fill: #262626" transform="translate(360.214233 407.899372) rotate(-45) scale(0.11 -0.11)">
       <use xlink:href="#HelveticaNeue-32"/>
       <use xlink:href="#HelveticaNeue-30" x="55.599991"/>
       <use xlink:href="#HelveticaNeue-31" x="111.199982"/>
       <use xlink:href="#HelveticaNeue-39" x="166.799973"/>
       <use xlink:href="#HelveticaNeue-2d" x="222.399963"/>
       <use xlink:href="#HelveticaNeue-30" x="261.299957"/>
       <use xlink:href="#HelveticaNeue-39" x="316.899948"/>
      </g>
     </g>
    </g>
    <g id="xtick_7">
     <g id="line2d_9">
      <path d="M 430.799203 363.874 
L 430.799203 31.234 
" clip-path="url(#p13a1bad17e)" style="fill: none; stroke: #ffffff; stroke-width: 0.5; stroke-linecap: round"/>
     </g>
     <g id="text_7">
      <!-- 2020-01 -->
      <g style="fill: #262626" transform="translate(418.324348 407.899372) rotate(-45) scale(0.11 -0.11)">
       <use xlink:href="#HelveticaNeue-32"/>
       <use xlink:href="#HelveticaNeue-30" x="55.599991"/>
       <use xlink:href="#HelveticaNeue-32" x="111.199982"/>
       <use xlink:href="#HelveticaNeue-30" x="166.799973"/>
       <use xlink:href="#HelveticaNeue-2d" x="222.399963"/>
       <use xlink:href="#HelveticaNeue-30" x="261.299957"/>
       <use xlink:href="#HelveticaNeue-31" x="316.899948"/>
      </g>
     </g>
    </g>
    <g id="xtick_8">
     <g id="line2d_10">
      <path d="M 488.433006 363.874 
L 488.433006 31.234 
" clip-path="url(#p13a1bad17e)" style="fill: none; stroke: #ffffff; stroke-width: 0.5; stroke-linecap: round"/>
     </g>
     <g id="text_8">
      <!-- 2020-05 -->
      <g style="fill: #262626" transform="translate(475.958151 407.899372) rotate(-45) scale(0.11 -0.11)">
       <use xlink:href="#HelveticaNeue-32"/>
       <use xlink:href="#HelveticaNeue-30" x="55.599991"/>
       <use xlink:href="#HelveticaNeue-32" x="111.199982"/>
       <use xlink:href="#HelveticaNeue-30" x="166.799973"/>
       <use xlink:href="#HelveticaNeue-2d" x="222.399963"/>
       <use xlink:href="#HelveticaNeue-30" x="261.299957"/>
       <use xlink:href="#HelveticaNeue-35" x="316.899948"/>
      </g>
     </g>
    </g>
    <g id="xtick_9">
     <g id="line2d_11">
      <path d="M 547.019433 363.874 
L 547.019433 31.234 
" clip-path="url(#p13a1bad17e)" style="fill: none; stroke: #ffffff; stroke-width: 0.5; stroke-linecap: round"/>
     </g>
     <g id="text_9">
      <!-- 2020-09 -->
      <g style="fill: #262626" transform="translate(534.544578 407.899372) rotate(-45) scale(0.11 -0.11)">
       <use xlink:href="#HelveticaNeue-32"/>
       <use xlink:href="#HelveticaNeue-30" x="55.599991"/>
       <use xlink:href="#HelveticaNeue-32" x="111.199982"/>
       <use xlink:href="#HelveticaNeue-30" x="166.799973"/>
       <use xlink:href="#HelveticaNeue-2d" x="222.399963"/>
       <use xlink:href="#HelveticaNeue-30" x="261.299957"/>
       <use xlink:href="#HelveticaNeue-39" x="316.899948"/>
      </g>
     </g>
    </g>
    <g id="xtick_10">
     <g id="line2d_12">
      <path d="M 605.129549 363.874 
L 605.129549 31.234 
" clip-path="url(#p13a1bad17e)" style="fill: none; stroke: #ffffff; stroke-width: 0.5; stroke-linecap: round"/>
     </g>
     <g id="text_10">
      <!-- 2021-01 -->
      <g style="fill: #262626" transform="translate(592.654693 407.899372) rotate(-45) scale(0.11 -0.11)">
       <use xlink:href="#HelveticaNeue-32"/>
       <use xlink:href="#HelveticaNeue-30" x="55.599991"/>
       <use xlink:href="#HelveticaNeue-32" x="111.199982"/>
       <use xlink:href="#HelveticaNeue-31" x="166.799973"/>
       <use xlink:href="#HelveticaNeue-2d" x="222.399963"/>
       <use xlink:href="#HelveticaNeue-30" x="261.299957"/>
       <use xlink:href="#HelveticaNeue-31" x="316.899948"/>
      </g>
     </g>
    </g>
    <g id="text_11">
     <!-- Date -->
     <g style="fill: #262626" transform="translate(319.9825 425.856916) scale(0.16 -0.16)">
      <defs>
       <path id="HelveticaNeue-44" d="M 1107 512 
L 1107 4058 
L 2131 4058 
Q 2554 4058 2842 3939 
Q 3130 3821 3312 3593 
Q 3494 3366 3574 3043 
Q 3654 2720 3654 2310 
Q 3654 1888 3568 1590 
Q 3482 1293 3347 1094 
Q 3213 896 3043 781 
Q 2874 666 2701 605 
Q 2528 544 2374 528 
Q 2221 512 2118 512 
L 1107 512 
z
M 499 4570 
L 499 0 
L 2067 0 
Q 2637 0 3053 160 
Q 3469 320 3737 624 
Q 4006 928 4134 1373 
Q 4262 1818 4262 2394 
Q 4262 3494 3692 4032 
Q 3123 4570 2067 4570 
L 499 4570 
z
" transform="scale(0.015625)"/>
       <path id="HelveticaNeue-61" d="M 3341 13 
Q 3200 -70 2950 -70 
Q 2739 -70 2614 48 
Q 2490 166 2490 435 
Q 2266 166 1968 48 
Q 1670 -70 1325 -70 
Q 1101 -70 899 -19 
Q 698 32 550 141 
Q 403 250 316 426 
Q 230 602 230 851 
Q 230 1133 326 1312 
Q 422 1491 579 1603 
Q 736 1715 937 1772 
Q 1139 1830 1350 1869 
Q 1574 1914 1776 1936 
Q 1978 1958 2131 2000 
Q 2285 2042 2374 2122 
Q 2464 2202 2464 2355 
Q 2464 2534 2397 2643 
Q 2330 2752 2224 2809 
Q 2118 2867 1987 2886 
Q 1856 2906 1728 2906 
Q 1382 2906 1152 2774 
Q 922 2643 902 2278 
L 358 2278 
Q 371 2586 486 2797 
Q 602 3008 794 3139 
Q 986 3270 1232 3328 
Q 1478 3386 1760 3386 
Q 1984 3386 2205 3354 
Q 2426 3322 2605 3222 
Q 2784 3123 2893 2944 
Q 3002 2765 3002 2477 
L 3002 774 
Q 3002 582 3024 492 
Q 3046 403 3174 403 
Q 3245 403 3341 435 
L 3341 13 
z
M 2458 1709 
Q 2355 1632 2188 1597 
Q 2022 1562 1840 1539 
Q 1658 1517 1472 1488 
Q 1286 1459 1139 1395 
Q 992 1331 899 1212 
Q 806 1094 806 890 
Q 806 755 860 662 
Q 915 570 1001 512 
Q 1088 454 1203 428 
Q 1318 403 1446 403 
Q 1715 403 1907 476 
Q 2099 550 2220 662 
Q 2342 774 2400 905 
Q 2458 1037 2458 1152 
L 2458 1709 
z
" transform="scale(0.015625)"/>
       <path id="HelveticaNeue-74" d="M 1165 3309 
L 1165 4301 
L 621 4301 
L 621 3309 
L 58 3309 
L 58 2829 
L 621 2829 
L 621 723 
Q 621 493 665 352 
Q 710 211 803 134 
Q 896 58 1046 29 
Q 1197 0 1408 0 
L 1824 0 
L 1824 480 
L 1574 480 
Q 1446 480 1366 489 
Q 1286 499 1241 531 
Q 1197 563 1181 620 
Q 1165 678 1165 774 
L 1165 2829 
L 1824 2829 
L 1824 3309 
L 1165 3309 
z
" transform="scale(0.015625)"/>
       <path id="HelveticaNeue-65" d="M 2707 1971 
L 806 1971 
Q 819 2163 889 2332 
Q 960 2502 1081 2630 
Q 1203 2758 1372 2832 
Q 1542 2906 1754 2906 
Q 1958 2906 2128 2832 
Q 2298 2758 2422 2633 
Q 2547 2509 2620 2336 
Q 2694 2163 2707 1971 
z
M 3232 1050 
L 2694 1050 
Q 2624 723 2403 563 
Q 2182 403 1837 403 
Q 1568 403 1369 492 
Q 1171 582 1043 732 
Q 915 883 857 1078 
Q 800 1274 806 1491 
L 3283 1491 
Q 3296 1792 3229 2125 
Q 3162 2458 2986 2739 
Q 2810 3021 2518 3203 
Q 2227 3386 1786 3386 
Q 1446 3386 1161 3258 
Q 877 3130 669 2899 
Q 461 2669 345 2355 
Q 230 2042 230 1664 
Q 243 1286 342 966 
Q 442 646 640 416 
Q 838 186 1129 58 
Q 1421 -70 1818 -70 
Q 2381 -70 2752 211 
Q 3123 493 3232 1050 
z
" transform="scale(0.015625)"/>
      </defs>
      <use xlink:href="#HelveticaNeue-44"/>
      <use xlink:href="#HelveticaNeue-61" x="70.399994"/>
      <use xlink:href="#HelveticaNeue-74" x="124.099991"/>
      <use xlink:href="#HelveticaNeue-65" x="155.599976"/>
     </g>
    </g>
   </g>
   <g id="matplotlib.axis_2">
    <g id="ytick_1">
     <g id="line2d_13">
      <path d="M 57.7275 362.348224 
L 615.7275 362.348224 
" clip-path="url(#p13a1bad17e)" style="fill: none; stroke: #ffffff; stroke-width: 0.5; stroke-linecap: round"/>
     </g>
     <g id="text_12">
      <!-- $\mathdefault{0.25}$ -->
      <g style="fill: #262626" transform="translate(26.7775 366.275568) scale(0.11 -0.11)">
       <defs>
        <path id="HelveticaNeue-2e" d="M 531 710 
L 531 0 
L 1242 0 
L 1242 710 
L 531 710 
z
" transform="scale(0.015625)"/>
       </defs>
       <use xlink:href="#HelveticaNeue-30" transform="translate(0 0.09375)"/>
       <use xlink:href="#HelveticaNeue-2e" transform="translate(55.599991 0.09375)"/>
       <use xlink:href="#HelveticaNeue-32" transform="translate(83.399979 0.09375)"/>
       <use xlink:href="#HelveticaNeue-35" transform="translate(138.999969 0.09375)"/>
      </g>
     </g>
    </g>
    <g id="ytick_2">
     <g id="line2d_14">
      <path d="M 57.7275 316.219932 
L 615.7275 316.219932 
" clip-path="url(#p13a1bad17e)" style="fill: none; stroke: #ffffff; stroke-width: 0.5; stroke-linecap: round"/>
     </g>
     <g id="text_13">
      <!-- $\mathdefault{0.50}$ -->
      <g style="fill: #262626" transform="translate(26.7775 320.147276) scale(0.11 -0.11)">
       <use xlink:href="#HelveticaNeue-30" transform="translate(0 0.09375)"/>
       <use xlink:href="#HelveticaNeue-2e" transform="translate(55.599991 0.09375)"/>
       <use xlink:href="#HelveticaNeue-35" transform="translate(83.399979 0.09375)"/>
       <use xlink:href="#HelveticaNeue-30" transform="translate(138.999969 0.09375)"/>
      </g>
     </g>
    </g>
    <g id="ytick_3">
     <g id="line2d_15">
      <path d="M 57.7275 270.09164 
L 615.7275 270.09164 
" clip-path="url(#p13a1bad17e)" style="fill: none; stroke: #ffffff; stroke-width: 0.5; stroke-linecap: round"/>
     </g>
     <g id="text_14">
      <!-- $\mathdefault{0.75}$ -->
      <g style="fill: #262626" transform="translate(26.7775 274.018984) scale(0.11 -0.11)">
       <defs>
        <path id="HelveticaNeue-37" d="M 3258 3994 
L 3258 4461 
L 320 4461 
L 320 3949 
L 2701 3949 
Q 2342 3571 2032 3123 
Q 1722 2675 1485 2172 
Q 1248 1670 1097 1123 
Q 947 576 909 0 
L 1517 0 
Q 1549 531 1696 1094 
Q 1843 1658 2076 2189 
Q 2310 2720 2611 3187 
Q 2912 3654 3258 3994 
z
" transform="scale(0.015625)"/>
       </defs>
       <use xlink:href="#HelveticaNeue-30" transform="translate(0 0.09375)"/>
       <use xlink:href="#HelveticaNeue-2e" transform="translate(55.599991 0.09375)"/>
       <use xlink:href="#HelveticaNeue-37" transform="translate(83.399979 0.09375)"/>
       <use xlink:href="#HelveticaNeue-35" transform="translate(138.999969 0.09375)"/>
      </g>
     </g>
    </g>
    <g id="ytick_4">
     <g id="line2d_16">
      <path d="M 57.7275 223.963348 
L 615.7275 223.963348 
" clip-path="url(#p13a1bad17e)" style="fill: none; stroke: #ffffff; stroke-width: 0.5; stroke-linecap: round"/>
     </g>
     <g id="text_15">
      <!-- $\mathdefault{1.00}$ -->
      <g style="fill: #262626" transform="translate(26.7775 227.890692) scale(0.11 -0.11)">
       <use xlink:href="#HelveticaNeue-31" transform="translate(0 0.09375)"/>
       <use xlink:href="#HelveticaNeue-2e" transform="translate(55.599991 0.09375)"/>
       <use xlink:href="#HelveticaNeue-30" transform="translate(83.399979 0.09375)"/>
       <use xlink:href="#HelveticaNeue-30" transform="translate(138.999969 0.09375)"/>
      </g>
     </g>
    </g>
    <g id="ytick_5">
     <g id="line2d_17">
      <path d="M 57.7275 177.835056 
L 615.7275 177.835056 
" clip-path="url(#p13a1bad17e)" style="fill: none; stroke: #ffffff; stroke-width: 0.5; stroke-linecap: round"/>
     </g>
     <g id="text_16">
      <!-- $\mathdefault{1.25}$ -->
      <g style="fill: #262626" transform="translate(26.7775 181.7624) scale(0.11 -0.11)">
       <use xlink:href="#HelveticaNeue-31" transform="translate(0 0.09375)"/>
       <use xlink:href="#HelveticaNeue-2e" transform="translate(55.599991 0.09375)"/>
       <use xlink:href="#HelveticaNeue-32" transform="translate(83.399979 0.09375)"/>
       <use xlink:href="#HelveticaNeue-35" transform="translate(138.999969 0.09375)"/>
      </g>
     </g>
    </g>
    <g id="ytick_6">
     <g id="line2d_18">
      <path d="M 57.7275 131.706764 
L 615.7275 131.706764 
" clip-path="url(#p13a1bad17e)" style="fill: none; stroke: #ffffff; stroke-width: 0.5; stroke-linecap: round"/>
     </g>
     <g id="text_17">
      <!-- $\mathdefault{1.50}$ -->
      <g style="fill: #262626" transform="translate(26.7775 135.634108) scale(0.11 -0.11)">
       <use xlink:href="#HelveticaNeue-31" transform="translate(0 0.09375)"/>
       <use xlink:href="#HelveticaNeue-2e" transform="translate(55.599991 0.09375)"/>
       <use xlink:href="#HelveticaNeue-35" transform="translate(83.399979 0.09375)"/>
       <use xlink:href="#HelveticaNeue-30" transform="translate(138.999969 0.09375)"/>
      </g>
     </g>
    </g>
    <g id="ytick_7">
     <g id="line2d_19">
      <path d="M 57.7275 85.578472 
L 615.7275 85.578472 
" clip-path="url(#p13a1bad17e)" style="fill: none; stroke: #ffffff; stroke-width: 0.5; stroke-linecap: round"/>
     </g>
     <g id="text_18">
      <!-- $\mathdefault{1.75}$ -->
      <g style="fill: #262626" transform="translate(26.7775 89.505816) scale(0.11 -0.11)">
       <use xlink:href="#HelveticaNeue-31" transform="translate(0 0.09375)"/>
       <use xlink:href="#HelveticaNeue-2e" transform="translate(55.599991 0.09375)"/>
       <use xlink:href="#HelveticaNeue-37" transform="translate(83.399979 0.09375)"/>
       <use xlink:href="#HelveticaNeue-35" transform="translate(138.999969 0.09375)"/>
      </g>
     </g>
    </g>
    <g id="ytick_8">
     <g id="line2d_20">
      <path d="M 57.7275 39.45018 
L 615.7275 39.45018 
" clip-path="url(#p13a1bad17e)" style="fill: none; stroke: #ffffff; stroke-width: 0.5; stroke-linecap: round"/>
     </g>
     <g id="text_19">
      <!-- $\mathdefault{2.00}$ -->
      <g style="fill: #262626" transform="translate(26.7775 43.377524) scale(0.11 -0.11)">
       <use xlink:href="#HelveticaNeue-32" transform="translate(0 0.09375)"/>
       <use xlink:href="#HelveticaNeue-2e" transform="translate(55.599991 0.09375)"/>
       <use xlink:href="#HelveticaNeue-30" transform="translate(83.399979 0.09375)"/>
       <use xlink:href="#HelveticaNeue-30" transform="translate(138.999969 0.09375)"/>
      </g>
     </g>
    </g>
    <g id="text_20">
     <!-- BTC Price -->
     <g style="fill: #262626" transform="translate(18.625 233.84275) rotate(-90) scale(0.16 -0.16)">
      <defs>
       <path id="HelveticaNeue-42" d="M 1107 2605 
L 1107 4058 
L 2323 4058 
Q 2522 4058 2698 4035 
Q 2874 4013 3008 3936 
Q 3142 3859 3219 3718 
Q 3296 3578 3296 3334 
Q 3296 2970 3069 2787 
Q 2842 2605 2323 2605 
L 1107 2605 
z
M 499 4570 
L 499 0 
L 2707 0 
Q 3046 0 3305 112 
Q 3565 224 3741 406 
Q 3917 589 4006 825 
Q 4096 1062 4096 1312 
Q 4096 1734 3872 2028 
Q 3648 2323 3226 2413 
L 3226 2426 
Q 3552 2554 3728 2819 
Q 3904 3085 3904 3450 
Q 3904 3795 3747 4032 
Q 3590 4269 3366 4403 
Q 3264 4467 3120 4499 
Q 2976 4531 2809 4547 
Q 2643 4563 2473 4566 
Q 2304 4570 2157 4570 
L 499 4570 
z
M 1107 512 
L 1107 2093 
L 2496 2093 
Q 2688 2093 2867 2057 
Q 3046 2022 3184 1936 
Q 3322 1850 3405 1702 
Q 3488 1555 3488 1331 
Q 3488 947 3261 729 
Q 3034 512 2630 512 
L 1107 512 
z
" transform="scale(0.015625)"/>
       <path id="HelveticaNeue-54" d="M 1536 4058 
L 1536 0 
L 2144 0 
L 2144 4058 
L 3667 4058 
L 3667 4570 
L 13 4570 
L 13 4058 
L 1536 4058 
z
" transform="scale(0.015625)"/>
       <path id="HelveticaNeue-43" d="M 3712 3194 
L 4320 3194 
Q 4269 3558 4102 3836 
Q 3936 4115 3686 4300 
Q 3437 4486 3117 4582 
Q 2797 4678 2438 4678 
Q 1914 4678 1507 4489 
Q 1101 4301 829 3974 
Q 557 3648 416 3209 
Q 275 2771 275 2272 
Q 275 1773 406 1337 
Q 538 902 800 582 
Q 1062 262 1459 80 
Q 1856 -102 2387 -102 
Q 3264 -102 3769 378 
Q 4275 858 4365 1722 
L 3757 1722 
Q 3738 1440 3642 1197 
Q 3546 954 3376 778 
Q 3206 602 2972 502 
Q 2739 403 2438 403 
Q 2029 403 1734 556 
Q 1440 710 1251 969 
Q 1062 1229 972 1577 
Q 883 1926 883 2317 
Q 883 2675 972 3008 
Q 1062 3341 1251 3600 
Q 1440 3859 1731 4012 
Q 2022 4166 2432 4166 
Q 2912 4166 3261 3923 
Q 3610 3680 3712 3194 
z
" transform="scale(0.015625)"/>
       <path id="HelveticaNeue-20" transform="scale(0.015625)"/>
       <path id="HelveticaNeue-50" d="M 1107 2381 
L 1107 4058 
L 2298 4058 
Q 2816 4058 3056 3843 
Q 3296 3629 3296 3219 
Q 3296 2810 3056 2592 
Q 2816 2374 2298 2381 
L 1107 2381 
z
M 499 4570 
L 499 0 
L 1107 0 
L 1107 1869 
L 2502 1869 
Q 3194 1862 3549 2220 
Q 3904 2579 3904 3219 
Q 3904 3859 3549 4214 
Q 3194 4570 2502 4570 
L 499 4570 
z
" transform="scale(0.015625)"/>
       <path id="HelveticaNeue-72" d="M 390 3309 
L 390 0 
L 934 0 
L 934 1472 
Q 934 1792 998 2038 
Q 1062 2285 1203 2457 
Q 1344 2630 1574 2720 
Q 1805 2810 2131 2810 
L 2131 3386 
Q 1690 3398 1402 3206 
Q 1114 3014 915 2611 
L 902 2611 
L 902 3309 
L 390 3309 
z
" transform="scale(0.015625)"/>
       <path id="HelveticaNeue-69" d="M 986 3904 
L 986 4570 
L 442 4570 
L 442 3904 
L 986 3904 
z
M 442 3309 
L 442 0 
L 986 0 
L 986 3309 
L 442 3309 
z
" transform="scale(0.015625)"/>
       <path id="HelveticaNeue-63" d="M 2656 2246 
L 3219 2246 
Q 3187 2541 3065 2755 
Q 2944 2970 2755 3110 
Q 2566 3251 2320 3318 
Q 2074 3386 1792 3386 
Q 1402 3386 1107 3248 
Q 813 3110 617 2870 
Q 422 2630 326 2307 
Q 230 1984 230 1613 
Q 230 1242 329 931 
Q 429 621 624 397 
Q 819 173 1110 51 
Q 1402 -70 1779 -70 
Q 2413 -70 2781 262 
Q 3149 595 3238 1210 
L 2682 1210 
Q 2630 826 2403 614 
Q 2176 403 1773 403 
Q 1517 403 1331 505 
Q 1146 608 1030 777 
Q 915 947 860 1164 
Q 806 1382 806 1613 
Q 806 1862 857 2096 
Q 909 2330 1027 2509 
Q 1146 2688 1344 2797 
Q 1542 2906 1837 2906 
Q 2182 2906 2387 2733 
Q 2592 2560 2656 2246 
z
" transform="scale(0.015625)"/>
      </defs>
      <use xlink:href="#HelveticaNeue-42"/>
      <use xlink:href="#HelveticaNeue-54" x="68.499985"/>
      <use xlink:href="#HelveticaNeue-43" x="125.899979"/>
      <use xlink:href="#HelveticaNeue-20" x="198.09996"/>
      <use xlink:href="#HelveticaNeue-50" x="225.899948"/>
      <use xlink:href="#HelveticaNeue-72" x="290.699936"/>
      <use xlink:href="#HelveticaNeue-69" x="323.999924"/>
      <use xlink:href="#HelveticaNeue-63" x="346.199921"/>
      <use xlink:href="#HelveticaNeue-65" x="399.899918"/>
     </g>
    </g>
    <g id="text_21">
     <!-- $\times\mathdefault{10^{4}}\mathdefault{}$ -->
     <g style="fill: #262626" transform="translate(57.7275 28.234) scale(0.11 -0.11)">
      <defs>
       <path id="DejaVuSans-d7" d="M 4488 3438 
L 3059 2003 
L 4488 575 
L 4116 197 
L 2681 1631 
L 1247 197 
L 878 575 
L 2303 2003 
L 878 3438 
L 1247 3816 
L 2681 2381 
L 4116 3816 
L 4488 3438 
z
" transform="scale(0.015625)"/>
       <path id="HelveticaNeue-34" d="M 2170 1542 
L 646 1542 
L 2157 3763 
L 2170 3763 
L 2170 1542 
z
M 2682 1542 
L 2682 4538 
L 2246 4538 
L 179 1587 
L 179 1062 
L 2170 1062 
L 2170 0 
L 2682 0 
L 2682 1062 
L 3296 1062 
L 3296 1542 
L 2682 1542 
z
" transform="scale(0.015625)"/>
      </defs>
      <use xlink:href="#DejaVuSans-d7" transform="translate(0 0.173438)"/>
      <use xlink:href="#HelveticaNeue-31" transform="translate(83.789062 0.173438)"/>
      <use xlink:href="#HelveticaNeue-30" transform="translate(139.389053 0.173438)"/>
      <use xlink:href="#HelveticaNeue-34" transform="translate(195.893849 36.365625) scale(0.7)"/>
     </g>
    </g>
   </g>
   <g id="text_22">
    <!-- Train/Test split for BTC Data -->
    <g style="fill: #262626" transform="translate(216.5505 21.234) scale(0.192 -0.192)">
     <defs>
      <path id="HelveticaNeue-6e" d="M 410 3309 
L 410 0 
L 954 0 
L 954 1869 
Q 954 2093 1014 2281 
Q 1075 2470 1196 2611 
Q 1318 2752 1500 2829 
Q 1683 2906 1933 2906 
Q 2246 2906 2425 2726 
Q 2605 2547 2605 2240 
L 2605 0 
L 3149 0 
L 3149 2176 
Q 3149 2445 3094 2665 
Q 3040 2886 2905 3046 
Q 2771 3206 2553 3296 
Q 2336 3386 2010 3386 
Q 1274 3386 934 2784 
L 922 2784 
L 922 3309 
L 410 3309 
z
" transform="scale(0.015625)"/>
      <path id="HelveticaNeue-2f" d="M 1779 4678 
L -109 -102 
L 352 -102 
L 2246 4678 
L 1779 4678 
z
" transform="scale(0.015625)"/>
      <path id="HelveticaNeue-73" d="M 742 1043 
L 198 1043 
Q 211 736 326 521 
Q 442 307 634 176 
Q 826 45 1075 -12 
Q 1325 -70 1600 -70 
Q 1850 -70 2102 -22 
Q 2355 26 2556 147 
Q 2758 269 2883 467 
Q 3008 666 3008 966 
Q 3008 1203 2915 1363 
Q 2822 1523 2672 1628 
Q 2522 1734 2326 1798 
Q 2131 1862 1926 1907 
Q 1734 1952 1542 1993 
Q 1350 2035 1196 2096 
Q 1043 2157 944 2249 
Q 845 2342 845 2483 
Q 845 2611 909 2691 
Q 973 2771 1075 2819 
Q 1178 2867 1302 2886 
Q 1427 2906 1549 2906 
Q 1683 2906 1814 2877 
Q 1946 2848 2054 2784 
Q 2163 2720 2233 2614 
Q 2304 2509 2317 2349 
L 2861 2349 
Q 2842 2650 2733 2851 
Q 2624 3053 2441 3171 
Q 2259 3290 2022 3338 
Q 1786 3386 1504 3386 
Q 1286 3386 1065 3331 
Q 845 3277 669 3165 
Q 493 3053 381 2873 
Q 269 2694 269 2445 
Q 269 2125 429 1945 
Q 589 1766 829 1667 
Q 1069 1568 1350 1513 
Q 1632 1459 1872 1392 
Q 2112 1325 2272 1216 
Q 2432 1107 2432 896 
Q 2432 742 2355 643 
Q 2278 544 2160 493 
Q 2042 442 1901 422 
Q 1760 403 1632 403 
Q 1466 403 1309 435 
Q 1152 467 1027 540 
Q 902 614 825 739 
Q 749 864 742 1043 
z
" transform="scale(0.015625)"/>
      <path id="HelveticaNeue-70" d="M 429 3309 
L 429 -1261 
L 973 -1261 
L 973 442 
L 986 442 
Q 1075 294 1206 195 
Q 1338 96 1485 38 
Q 1632 -19 1782 -44 
Q 1933 -70 2054 -70 
Q 2432 -70 2717 64 
Q 3002 198 3190 432 
Q 3379 666 3472 979 
Q 3565 1293 3565 1645 
Q 3565 1997 3469 2310 
Q 3373 2624 3184 2864 
Q 2995 3104 2710 3245 
Q 2426 3386 2042 3386 
Q 1696 3386 1408 3261 
Q 1120 3136 986 2861 
L 973 2861 
L 973 3309 
L 429 3309 
z
M 2989 1683 
Q 2989 1440 2937 1209 
Q 2886 979 2771 800 
Q 2656 621 2467 512 
Q 2278 403 1997 403 
Q 1715 403 1516 508 
Q 1318 614 1193 787 
Q 1069 960 1011 1187 
Q 954 1414 954 1658 
Q 954 1888 1008 2112 
Q 1062 2336 1184 2512 
Q 1306 2688 1498 2797 
Q 1690 2906 1965 2906 
Q 2227 2906 2422 2803 
Q 2618 2701 2742 2528 
Q 2867 2355 2928 2134 
Q 2989 1914 2989 1683 
z
" transform="scale(0.015625)"/>
      <path id="HelveticaNeue-6c" d="M 442 4570 
L 442 0 
L 986 0 
L 986 4570 
L 442 4570 
z
" transform="scale(0.015625)"/>
      <path id="HelveticaNeue-66" d="M 634 2829 
L 634 0 
L 1178 0 
L 1178 2829 
L 1818 2829 
L 1818 3309 
L 1178 3309 
L 1178 3770 
Q 1178 3987 1286 4064 
Q 1395 4141 1594 4141 
Q 1664 4141 1747 4131 
Q 1830 4122 1901 4096 
L 1901 4570 
Q 1824 4595 1725 4608 
Q 1626 4621 1549 4621 
Q 1101 4621 867 4413 
Q 634 4205 634 3802 
L 634 3309 
L 77 3309 
L 77 2829 
L 634 2829 
z
" transform="scale(0.015625)"/>
      <path id="HelveticaNeue-6f" d="M 806 1651 
Q 806 1952 886 2185 
Q 966 2419 1107 2579 
Q 1248 2739 1437 2822 
Q 1626 2906 1837 2906 
Q 2048 2906 2237 2822 
Q 2426 2739 2566 2579 
Q 2707 2419 2787 2185 
Q 2867 1952 2867 1651 
Q 2867 1350 2787 1116 
Q 2707 883 2566 726 
Q 2426 570 2237 486 
Q 2048 403 1837 403 
Q 1626 403 1437 486 
Q 1248 570 1107 726 
Q 966 883 886 1116 
Q 806 1350 806 1651 
z
M 230 1651 
Q 230 1286 332 972 
Q 435 659 640 425 
Q 845 192 1145 61 
Q 1446 -70 1837 -70 
Q 2234 -70 2531 61 
Q 2829 192 3033 425 
Q 3238 659 3340 972 
Q 3443 1286 3443 1651 
Q 3443 2016 3340 2333 
Q 3238 2650 3033 2883 
Q 2829 3117 2531 3251 
Q 2234 3386 1837 3386 
Q 1446 3386 1145 3251 
Q 845 3117 640 2883 
Q 435 2650 332 2333 
Q 230 2016 230 1651 
z
" transform="scale(0.015625)"/>
     </defs>
     <use xlink:href="#HelveticaNeue-54"/>
     <use xlink:href="#HelveticaNeue-72" x="48.149994"/>
     <use xlink:href="#HelveticaNeue-61" x="81.449982"/>
     <use xlink:href="#HelveticaNeue-69" x="135.149979"/>
     <use xlink:href="#HelveticaNeue-6e" x="157.349976"/>
     <use xlink:href="#HelveticaNeue-2f" x="212.949966"/>
     <use xlink:href="#HelveticaNeue-54" x="246.249954"/>
     <use xlink:href="#HelveticaNeue-65" x="292.524948"/>
     <use xlink:href="#HelveticaNeue-73" x="346.224945"/>
     <use xlink:href="#HelveticaNeue-74" x="396.22493"/>
     <use xlink:href="#HelveticaNeue-20" x="427.724915"/>
     <use xlink:href="#HelveticaNeue-73" x="455.524902"/>
     <use xlink:href="#HelveticaNeue-70" x="505.524887"/>
     <use xlink:href="#HelveticaNeue-6c" x="564.824875"/>
     <use xlink:href="#HelveticaNeue-69" x="587.024872"/>
     <use xlink:href="#HelveticaNeue-74" x="609.224869"/>
     <use xlink:href="#HelveticaNeue-20" x="640.724854"/>
     <use xlink:href="#HelveticaNeue-66" x="668.524841"/>
     <use xlink:href="#HelveticaNeue-6f" x="698.124832"/>
     <use xlink:href="#HelveticaNeue-72" x="755.524826"/>
     <use xlink:href="#HelveticaNeue-20" x="788.824814"/>
     <use xlink:href="#HelveticaNeue-42" x="816.624802"/>
     <use xlink:href="#HelveticaNeue-54" x="885.124786"/>
     <use xlink:href="#HelveticaNeue-43" x="942.52478"/>
     <use xlink:href="#HelveticaNeue-20" x="1014.724762"/>
     <use xlink:href="#HelveticaNeue-44" x="1042.52475"/>
     <use xlink:href="#HelveticaNeue-61" x="1112.924744"/>
     <use xlink:href="#HelveticaNeue-74" x="1166.624741"/>
     <use xlink:href="#HelveticaNeue-61" x="1198.124725"/>
    </g>
   </g>
   <g id="legend_1">
    <g id="patch_7">
     <path d="M 63.2275 71.34275 
L 130.124688 71.34275 
L 130.124688 36.734 
L 63.2275 36.734 
z
" style="fill: #eaeaf2; opacity: 0.8; stroke: #808080; stroke-linejoin: miter"/>
    </g>
    <g id="line2d_21">
     <path d="M 70.9275 45.138687 
L 75.3275 45.138687 
" style="fill: none; stroke: #000000; stroke-width: 6; stroke-linecap: round"/>
    </g>
    <g id="text_23">
     <!-- Training -->
     <g style="fill: #262626" transform="translate(87.4275 48.988687) scale(0.11 -0.11)">
      <defs>
       <path id="HelveticaNeue-67" d="M 3264 282 
L 3264 3309 
L 2752 3309 
L 2752 2835 
L 2746 2835 
Q 2598 3110 2336 3248 
Q 2074 3386 1760 3386 
Q 1331 3386 1036 3222 
Q 742 3059 563 2806 
Q 384 2554 307 2243 
Q 230 1933 230 1638 
Q 230 1299 323 995 
Q 416 691 601 464 
Q 787 237 1062 102 
Q 1338 -32 1709 -32 
Q 2029 -32 2313 112 
Q 2598 256 2739 563 
L 2752 563 
L 2752 346 
Q 2752 70 2697 -160 
Q 2643 -390 2521 -553 
Q 2400 -717 2214 -809 
Q 2029 -902 1760 -902 
Q 1626 -902 1478 -873 
Q 1331 -845 1206 -781 
Q 1082 -717 995 -614 
Q 909 -512 902 -365 
L 358 -365 
Q 371 -634 499 -819 
Q 627 -1005 822 -1120 
Q 1018 -1235 1258 -1286 
Q 1498 -1338 1728 -1338 
Q 2522 -1338 2893 -934 
Q 3264 -531 3264 282 
z
M 1741 442 
Q 1472 442 1293 554 
Q 1114 666 1005 848 
Q 896 1030 851 1254 
Q 806 1478 806 1702 
Q 806 1939 860 2156 
Q 915 2374 1033 2540 
Q 1152 2707 1337 2806 
Q 1523 2906 1786 2906 
Q 2042 2906 2221 2803 
Q 2400 2701 2512 2531 
Q 2624 2362 2675 2150 
Q 2726 1939 2726 1722 
Q 2726 1491 2672 1260 
Q 2618 1030 2502 848 
Q 2387 666 2198 554 
Q 2010 442 1741 442 
z
" transform="scale(0.015625)"/>
      </defs>
      <use xlink:href="#HelveticaNeue-54"/>
      <use xlink:href="#HelveticaNeue-72" x="48.149994"/>
      <use xlink:href="#HelveticaNeue-61" x="81.449982"/>
      <use xlink:href="#HelveticaNeue-69" x="135.149979"/>
      <use xlink:href="#HelveticaNeue-6e" x="157.349976"/>
      <use xlink:href="#HelveticaNeue-69" x="212.949966"/>
      <use xlink:href="#HelveticaNeue-6e" x="235.149963"/>
      <use xlink:href="#HelveticaNeue-67" x="290.749954"/>
     </g>
    </g>
    <g id="line2d_22">
     <path d="M 70.9275 60.793062 
L 75.3275 60.793062 
" style="fill: none; stroke: #ff0000; stroke-width: 6; stroke-linecap: round"/>
    </g>
    <g id="text_24">
     <!-- Testing -->
     <g style="fill: #262626" transform="translate(87.4275 64.643062) scale(0.11 -0.11)">
      <use xlink:href="#HelveticaNeue-54"/>
      <use xlink:href="#HelveticaNeue-65" x="46.274994"/>
      <use xlink:href="#HelveticaNeue-73" x="99.974991"/>
      <use xlink:href="#HelveticaNeue-74" x="149.974976"/>
      <use xlink:href="#HelveticaNeue-69" x="181.47496"/>
      <use xlink:href="#HelveticaNeue-6e" x="203.674957"/>
      <use xlink:href="#HelveticaNeue-67" x="259.274948"/>
     </g>
    </g>
   </g>
  </g>
 </g>
 <defs>
  <clipPath id="p13a1bad17e">
   <rect x="57.7275" y="31.234" width="558" height="332.64"/>
  </clipPath>
 </defs>
</svg>