<?xml version="1.0" encoding="utf-8" standalone="no"?>
<!DOCTYPE svg PUBLIC "-//W3C//DTD SVG 1.1//EN"
  "http://www.w3.org/Graphics/SVG/1.1/DTD/svg11.dtd">
<svg xmlns:xlink="http://www.w3.org/1999/xlink" width="630.358507pt" height="436.209416pt" viewBox="0 0 630.358507 436.209416" xmlns="http://www.w3.org/2000/svg" version="1.1">
 <metadata>
  <rdf:RDF xmlns:dc="http://purl.org/dc/elements/1.1/" xmlns:cc="http://creativecommons.org/ns#" xmlns:rdf="http://www.w3.org/1999/02/22-rdf-syntax-ns#">
   <cc:Work>
    <dc:type rdf:resource="http://purl.org/dc/dcmitype/StillImage"/>
    <dc:date>2023-11-09T19:18:37.833000</dc:date>
    <dc:format>image/svg+xml</dc:format>
    <dc:creator>
     <cc:Agent>
      <dc:title>Matplotlib v3.7.0, https://matplotlib.org/</dc:title>
     </cc:Agent>
    </dc:creator>
   </cc:Work>
  </rdf:RDF>
 </metadata>
 <defs>
  <style type="text/css">*{stroke-linejoin: round; stroke-linecap: butt}</style>
 </defs>
 <g id="figure_1">
  <g id="patch_1">
   <path d="M 0 436.209416 
L 630.358507 436.209416 
L 630.358507 -0 
L 0 -0 
z
" style="fill: #ffffff"/>
  </g>
  <g id="axes_1">
   <g id="patch_2">
    <path d="M 57.7275 363.874 
L 615.7275 363.874 
L 615.7275 31.234 
L 57.7275 31.234 
z
" style="fill: #eaeaf2"/>
   </g>
   <g id="line2d_1">
    <path d="M 83.091136 177.194961 
L 83.567449 155.382206 
L 84.043761 151.778295 
L 84.520074 145.222444 
L 84.996386 115.088925 
L 85.472698 113.483714 
L 85.949011 130.760734 
L 86.425323 152.28703 
L 86.901636 161.748709 
L 87.377948 155.527084 
L 87.854261 181.333943 
L 88.330573 171.870608 
L 88.806885 165.620976 
L 89.283198 175.304931 
L 89.75951 174.517969 
L 90.235823 212.866877 
L 90.712135 217.837276 
L 91.188448 213.123704 
L 91.66476 210.942263 
L 92.141072 189.674451 
L 92.617385 211.062461 
L 93.093697 222.071729 
L 93.57001 223.108942 
L 94.046322 215.025262 
L 94.998947 218.120439 
L 95.475259 213.686766 
L 95.951572 207.996916 
L 96.427884 216.062476 
L 96.904197 235.655942 
L 97.380509 233.765912 
L 97.856821 251.062016 
L 98.333134 256.65622 
L 98.809446 250.990068 
L 99.285759 265.772836 
L 99.762071 287.533571 
L 100.238383 274.383516 
L 100.714696 276.568253 
L 101.191008 265.960851 
L 101.667321 258.200014 
L 102.143633 260.094658 
L 102.619946 268.193652 
L 103.096258 255.078662 
L 103.57257 260.483051 
L 104.048883 245.726296 
L 104.525195 234.666464 
L 105.001508 233.555164 
L 105.47782 219.086862 
L 105.954133 228.321361 
L 106.430445 217.233055 
L 106.906757 214.295923 
L 107.859382 237.323713 
L 108.335695 232.448816 
L 108.812007 240.483587 
L 109.288319 242.92581 
L 109.764632 231.368787 
L 110.240944 225.459972 
L 110.717257 230.855116 
L 111.193569 221.749047 
L 111.669882 219.519854 
L 112.146194 212.880045 
L 112.622506 212.503035 
L 113.098819 211.503685 
L 114.051444 237.972871 
L 114.527756 247.366413 
L 115.004069 248.312417 
L 115.480381 256.075874 
L 115.956693 244.343345 
L 116.433006 250.4927 
L 116.909318 250.661791 
L 117.385631 265.891378 
L 118.338255 264.762955 
L 118.814568 271.701909 
L 119.29088 266.650847 
L 119.767193 259.950601 
L 120.243505 255.294347 
L 120.719818 255.034046 
L 121.19613 258.340132 
L 121.672442 255.851637 
L 123.10138 266.885937 
L 123.577692 273.082224 
L 124.054004 271.082872 
L 124.530317 284.069111 
L 125.006629 288.599596 
L 125.482942 287.232948 
L 125.959254 289.361702 
L 126.435567 285.417495 
L 126.911879 279.287891 
L 127.388191 289.203488 
L 127.864504 289.901049 
L 128.340816 292.784674 
L 128.817129 288.260941 
L 129.293441 286.409923 
L 129.769754 290.571784 
L 130.246066 289.517617 
L 130.722378 287.318723 
L 131.198691 272.156799 
L 131.675003 272.046328 
L 132.151316 270.559981 
L 132.627628 264.915068 
L 133.10394 269.367519 
L 133.580253 271.945408 
L 134.056565 267.642946 
L 134.532878 265.488018 
L 135.00919 256.407946 
L 135.485503 255.588876 
L 135.961815 257.121979 
L 136.438127 255.007711 
L 136.91444 242.386302 
L 137.390752 256.409425 
L 137.867065 249.235043 
L 138.343377 254.082946 
L 138.81969 248.132457 
L 139.296002 246.970126 
L 139.772314 249.909396 
L 140.248627 251.910396 
L 140.724939 249.985621 
L 141.201252 241.623039 
L 141.677564 242.332635 
L 142.153876 239.741402 
L 142.630189 243.089306 
L 143.106501 247.728614 
L 143.582814 250.003725 
L 144.059126 248.516075 
L 144.535439 253.146315 
L 145.011751 263.064878 
L 145.488063 262.021089 
L 145.964376 258.414701 
L 146.440688 258.532423 
L 146.917001 261.930699 
L 147.393313 264.261134 
L 147.869625 268.78059 
L 148.345938 266.201552 
L 148.82225 266.26395 
L 149.298563 261.883447 
L 149.774875 263.435312 
L 150.251188 269.645594 
L 150.7275 277.613368 
L 151.203812 277.127359 
L 152.156437 280.938048 
L 152.63275 280.734881 
L 153.109062 284.558247 
L 153.585375 279.01657 
L 154.061687 280.104324 
L 154.537999 278.661282 
L 155.014312 277.882873 
L 155.490624 276.203575 
L 155.966937 274.939166 
L 156.443249 278.327064 
L 156.919561 276.363115 
L 157.872186 275.630802 
L 158.348499 276.508652 
L 158.824811 278.038788 
L 159.301124 290.320054 
L 159.777436 288.329593 
L 160.253748 293.673055 
L 160.730061 297.500207 
L 161.206373 292.142091 
L 161.682686 295.743856 
L 162.158998 294.203181 
L 162.63531 295.041021 
L 163.111623 291.162999 
L 163.587935 290.584791 
L 164.064248 290.475969 
L 164.54056 291.246628 
L 165.016873 301.88301 
L 165.493185 300.585834 
L 165.969497 300.408849 
L 166.44581 299.158427 
L 166.922122 301.718702 
L 167.398435 300.673916 
L 167.874747 304.850593 
L 168.35106 299.666833 
L 168.827372 296.609519 
L 169.303684 296.908832 
L 169.779997 293.149174 
L 170.256309 294.541845 
L 170.732622 293.422972 
L 171.685246 292.17255 
L 172.161559 289.15261 
L 172.637871 290.519925 
L 173.114184 291.048902 
L 173.590496 297.828653 
L 174.066809 296.762468 
L 174.543121 299.493795 
L 175.019433 299.341674 
L 175.495746 298.714896 
L 175.972058 297.339847 
L 176.448371 291.048902 
L 176.924683 281.511641 
L 177.400996 280.692741 
L 177.877308 279.110906 
L 178.35362 280.96686 
L 178.829933 279.894082 
L 179.306245 279.90725 
L 179.782558 275.089646 
L 180.25887 263.348395 
L 181.211495 271.130615 
L 181.687807 267.616772 
L 182.640432 266.736783 
L 183.116745 267.362074 
L 183.593057 273.948216 
L 184.069369 276.508813 
L 184.545682 277.459761 
L 185.021994 279.645479 
L 185.498307 286.256316 
L 185.974619 285.669716 
L 186.450931 287.590704 
L 186.927244 290.861708 
L 187.403556 298.226258 
L 187.879869 293.905685 
L 188.356181 300.219846 
L 188.832494 298.392045 
L 189.308806 297.948184 
L 189.785118 298.361754 
L 190.261431 299.97289 
L 190.737743 298.181473 
L 191.214056 297.74996 
L 191.690368 293.701537 
L 192.166681 296.2842 
L 192.642993 294.929072 
L 193.119305 298.181313 
L 193.595618 295.214059 
L 194.07193 297.058814 
L 195.024555 291.407647 
L 195.500867 290.695921 
L 195.97718 291.616739 
L 196.929805 285.212028 
L 197.406117 286.020719 
L 197.88243 287.155565 
L 198.358742 286.178443 
L 198.835054 283.615539 
L 199.311367 282.307165 
L 199.787679 282.515598 
L 200.263992 280.842884 
L 200.740304 290.207935 
L 201.216617 294.548758 
L 201.692929 295.571156 
L 202.169241 299.540388 
L 202.645554 298.307588 
L 203.121866 297.832769 
L 203.598179 297.972711 
L 204.074491 297.468928 
L 204.550803 294.744016 
L 205.027116 294.81975 
L 205.503428 294.317768 
L 205.979741 294.746154 
L 206.456053 298.631259 
L 206.932366 297.147886 
L 207.408678 296.69941 
L 207.88499 294.705163 
L 208.361303 291.160852 
L 209.313928 291.561255 
L 209.79024 293.458199 
L 210.266552 295.910302 
L 210.742865 295.111322 
L 211.219177 292.119043 
L 212.171802 293.350364 
L 212.648115 292.961819 
L 213.600739 294.105388 
L 214.077052 294.986365 
L 214.553364 293.766403 
L 215.029677 293.012529 
L 215.505989 293.575092 
L 215.982302 293.334062 
L 216.458614 292.522734 
L 216.934926 292.680618 
L 217.411239 293.620866 
L 217.887551 299.042192 
L 218.840176 298.552397 
L 219.316488 298.471067 
L 219.792801 293.439596 
L 220.269113 293.446679 
L 220.745426 294.297518 
L 221.221738 295.412444 
L 221.698051 295.59848 
L 222.174363 295.206977 
L 222.650675 295.319586 
L 223.126988 295.240395 
L 223.6033 295.428409 
L 224.079613 295.097495 
L 224.555925 295.419357 
L 225.032238 295.444712 
L 225.984862 295.253072 
L 226.461175 297.784536 
L 226.937487 297.757533 
L 227.4138 298.031821 
L 227.890112 297.041201 
L 228.366424 296.865695 
L 228.842737 297.313182 
L 229.319049 297.068365 
L 230.271674 295.670927 
L 230.747987 294.532785 
L 231.700611 296.91212 
L 232.176924 296.523575 
L 232.653236 296.489828 
L 233.129549 297.148376 
L 233.605861 297.342315 
L 234.082173 307.568584 
L 235.034798 310.24888 
L 235.511111 310.598235 
L 235.987423 309.458783 
L 236.463736 321.84031 
L 236.940048 328.748812 
L 237.41636 326.27432 
L 237.892673 330.163541 
L 238.368985 330.473554 
L 238.845298 338.151401 
L 239.32161 336.024126 
L 239.797923 339.82461 
L 240.274235 339.139883 
L 240.750547 331.950183 
L 241.22686 331.597419 
L 241.703172 335.903965 
L 242.179485 332.653974 
L 242.655797 333.88536 
L 243.132109 337.931268 
L 243.608422 336.897957 
L 244.561047 344.072708 
L 245.037359 345.738252 
L 245.513672 344.813362 
L 245.989984 342.539401 
L 246.466296 344.376395 
L 246.942609 345.661681 
L 247.418921 344.63497 
L 247.895234 347.487685 
L 248.371546 348.659776 
L 248.847859 348.754 
L 249.324171 348.489307 
L 249.800483 343.665019 
L 250.276796 341.192263 
L 250.753108 340.370862 
L 251.229421 333.974865 
L 251.705733 337.891543 
L 252.182045 335.954771 
L 252.658358 336.205058 
L 253.13467 334.894236 
L 253.610983 339.225976 
L 254.087295 338.537679 
L 254.563608 341.870989 
L 255.03992 337.440849 
L 255.516232 339.145008 
L 255.992545 338.395186 
L 256.468857 340.424373 
L 257.421482 337.11996 
L 257.897794 338.876114 
L 258.374107 338.530766 
L 258.850419 338.73694 
L 259.326732 334.926613 
L 259.803044 335.772589 
L 260.755669 335.60716 
L 261.231981 341.474361 
L 261.708294 341.335392 
L 262.184606 341.76451 
L 262.660919 343.548318 
L 263.137231 341.027739 
L 263.613544 342.268723 
L 264.566168 341.480298 
L 265.042481 341.821501 
L 265.518793 340.65704 
L 265.995106 342.757063 
L 266.471418 343.168346 
L 266.94773 342.698395 
L 267.424043 343.018681 
L 267.900355 342.759503 
L 268.85298 342.733244 
L 269.329293 343.037734 
L 269.805605 344.906618 
L 270.281917 345.27431 
L 270.75823 344.647624 
L 271.234542 345.11501 
L 272.187167 344.073384 
L 272.66348 345.012595 
L 273.139792 345.092598 
L 273.616104 344.974004 
L 274.092417 345.839823 
L 274.568729 346.075191 
L 275.045042 341.674301 
L 275.521354 341.601476 
L 275.997666 341.288919 
L 276.473979 341.976403 
L 276.950291 341.892473 
L 277.902916 342.49583 
L 278.855541 342.283337 
L 279.331853 341.558134 
L 279.808166 337.575923 
L 280.284478 337.05929 
L 280.760791 336.191223 
L 281.237103 336.943654 
L 281.713415 336.097281 
L 282.189728 333.841749 
L 282.66604 339.309335 
L 283.142353 338.119523 
L 283.618665 338.586078 
L 284.094978 338.640582 
L 285.523915 338.4205 
L 286.000227 338.704322 
L 286.47654 340.113922 
L 286.952852 337.894321 
L 287.905477 337.645564 
L 288.381789 337.81601 
L 288.858102 336.792261 
L 289.334414 336.985115 
L 289.810727 337.748579 
L 290.763351 337.724048 
L 291.239664 337.433433 
L 291.715976 336.831817 
L 292.192289 335.386061 
L 292.668601 335.772906 
L 293.144914 335.653078 
L 293.621226 335.016215 
L 294.097538 334.748085 
L 294.573851 335.70544 
L 295.050163 335.793663 
L 295.526476 335.598433 
L 296.002788 335.823298 
L 296.479101 336.796265 
L 296.955413 336.433894 
L 297.431725 334.754837 
L 297.908038 335.050509 
L 298.38435 334.56866 
L 298.860663 334.432248 
L 299.336975 334.452924 
L 299.813287 333.583989 
L 300.2896 321.702217 
L 300.765912 320.168721 
L 301.242225 320.99558 
L 301.718537 319.120655 
L 302.19485 318.739747 
L 302.671162 316.449981 
L 303.147474 314.953858 
L 303.623787 316.350186 
L 304.100099 314.381238 
L 304.576412 318.662855 
L 305.052724 318.250418 
L 305.529036 318.134392 
L 306.005349 316.963234 
L 306.481661 318.61971 
L 306.957974 315.846379 
L 307.434286 315.57673 
L 307.910599 314.812028 
L 308.386911 314.722683 
L 308.863223 314.161703 
L 309.339536 314.546213 
L 309.815848 313.149531 
L 310.292161 310.301358 
L 310.768473 312.071134 
L 311.244786 316.258695 
L 311.721098 315.125457 
L 312.19741 315.307498 
L 312.673723 315.030115 
L 313.150035 315.652223 
L 313.626348 313.950304 
L 314.10266 313.094673 
L 314.578972 311.40572 
L 315.055285 307.075669 
L 315.531597 306.040465 
L 316.00791 306.624252 
L 316.484222 307.42935 
L 316.960535 306.067894 
L 317.436847 303.549671 
L 318.389472 297.023596 
L 318.865784 283.425853 
L 319.342097 287.252016 
L 319.818409 273.380628 
L 320.771034 266.955619 
L 321.247346 272.228265 
L 321.723659 281.135356 
L 322.199971 282.332061 
L 322.676284 267.078743 
L 323.152596 270.690557 
L 323.628908 270.937207 
L 324.105221 275.600737 
L 324.581533 272.278685 
L 325.057846 270.541354 
L 325.534158 269.468376 
L 326.010471 259.249816 
L 326.486783 257.067346 
L 326.963095 258.480202 
L 327.439408 259.475839 
L 327.91572 265.07374 
L 328.392033 260.875012 
L 328.868345 261.04764 
L 329.344657 258.101601 
L 330.297282 275.144616 
L 330.773595 273.227246 
L 331.249907 273.263598 
L 331.72622 269.609845 
L 332.202532 271.088668 
L 332.678844 275.46885 
L 333.155157 270.328018 
L 333.631469 271.523533 
L 334.107782 267.93209 
L 334.584094 266.531582 
L 335.060407 258.910381 
L 336.013031 253.960481 
L 336.489344 248.595547 
L 336.965656 252.523621 
L 337.441969 249.36656 
L 337.918281 245.190728 
L 338.870906 225.85359 
L 339.823531 220.759536 
L 340.299843 207.9209 
L 340.776156 187.747683 
L 341.252468 217.93265 
L 341.72878 197.772424 
L 342.205093 205.147521 
L 342.681405 223.952627 
L 343.157718 227.805472 
L 343.63403 224.207444 
L 344.110343 205.116266 
L 344.586655 217.395425 
L 345.062967 221.296954 
L 346.015592 213.519718 
L 346.491905 199.77069 
L 346.968217 195.031538 
L 347.444529 201.90184 
L 347.920842 215.037417 
L 348.397154 207.508166 
L 348.873467 214.482314 
L 349.349779 233.190358 
L 349.826092 222.669535 
L 350.302404 246.005986 
L 350.778716 242.447173 
L 351.255029 226.43326 
L 351.731341 228.668208 
L 352.207654 224.776069 
L 352.683966 227.542535 
L 353.160278 231.757227 
L 353.636591 239.039765 
L 354.112903 240.50243 
L 354.589216 238.857442 
L 355.065528 239.541313 
L 355.541841 246.005392 
L 356.018153 244.767607 
L 356.494465 245.322678 
L 356.970778 243.86929 
L 357.44709 235.996278 
L 357.923403 230.825999 
L 358.399715 228.874953 
L 358.876028 223.877366 
L 359.35234 221.433197 
L 359.828652 207.678285 
L 360.304965 213.069892 
L 360.781277 205.434028 
L 361.25759 205.03168 
L 361.733902 206.735191 
L 362.210214 215.113771 
L 362.686527 212.322272 
L 363.162839 214.643044 
L 363.639152 222.657348 
L 364.115464 236.55479 
L 364.591777 232.276831 
L 365.068089 231.243026 
L 365.544401 233.590664 
L 366.020714 231.712708 
L 366.497026 222.324392 
L 366.973339 224.840397 
L 367.449651 235.13322 
L 367.925964 235.248369 
L 368.402276 230.689418 
L 368.878588 234.772481 
L 369.354901 235.125518 
L 369.831213 231.300954 
L 370.307526 234.352014 
L 370.783838 241.449141 
L 371.26015 245.469951 
L 371.736463 244.021579 
L 372.212775 243.48667 
L 372.689088 241.39073 
L 373.1654 231.697064 
L 373.641713 227.140251 
L 374.118025 227.61847 
L 374.594337 227.930622 
L 375.07065 231.589359 
L 375.546962 228.890099 
L 376.023275 230.140987 
L 376.499587 231.891108 
L 376.975899 235.496643 
L 377.452212 234.469366 
L 377.928524 230.653822 
L 378.404837 231.470093 
L 378.881149 231.51122 
L 379.357462 231.681388 
L 379.833774 232.848977 
L 380.786399 234.142134 
L 381.262711 233.019852 
L 381.739024 234.415537 
L 382.215336 237.08142 
L 382.691649 236.247108 
L 383.167961 241.862358 
L 383.644273 260.116621 
L 384.120586 262.315731 
L 384.596898 268.374793 
L 385.073211 266.18713 
L 385.549523 266.284771 
L 386.025835 268.618164 
L 386.502148 265.495285 
L 387.454773 263.862516 
L 387.931085 266.053009 
L 388.88371 267.839184 
L 389.360022 270.528444 
L 389.836335 266.289578 
L 390.312647 266.566824 
L 390.78896 260.525352 
L 391.265272 260.677914 
L 391.741585 265.036134 
L 392.217897 264.79249 
L 392.694209 265.048498 
L 393.170522 264.164715 
L 394.123147 269.550976 
L 394.599459 268.622681 
L 395.075771 270.774547 
L 395.552084 270.52178 
L 396.028396 266.677215 
L 396.504709 266.320898 
L 396.981021 269.045931 
L 397.457334 278.323744 
L 397.933646 278.672496 
L 398.409958 259.45587 
L 398.886271 249.83658 
L 399.362583 244.786466 
L 399.838896 249.652585 
L 400.315208 246.828416 
L 400.79152 250.482716 
L 401.267833 250.583829 
L 402.220458 248.523679 
L 402.69677 249.99493 
L 403.173083 247.07661 
L 403.649395 248.230468 
L 404.125707 247.928317 
L 404.60202 249.464683 
L 405.078332 257.082122 
L 405.554645 256.938868 
L 406.030957 252.955568 
L 406.50727 257.857443 
L 406.983582 256.904622 
L 407.459894 257.026444 
L 407.936207 258.67558 
L 408.412519 262.233429 
L 408.888832 261.265881 
L 409.365144 260.817824 
L 409.841456 265.241448 
L 410.317769 266.939525 
L 410.794081 269.88451 
L 411.746706 281.914383 
L 412.223019 280.247939 
L 412.699331 286.008259 
L 413.175643 284.391246 
L 413.651956 283.201953 
L 414.128268 278.043997 
L 414.604581 279.17271 
L 415.080893 274.264258 
L 415.557206 277.418931 
L 416.033518 279.811723 
L 416.50983 281.49603 
L 416.986143 281.526369 
L 417.462455 282.647725 
L 417.938768 279.416345 
L 418.41508 277.791559 
L 419.367705 277.505936 
L 419.844017 280.19686 
L 420.32033 282.21827 
L 420.796642 283.217492 
L 421.749267 282.357143 
L 422.225579 284.744557 
L 422.701892 284.289699 
L 423.178204 287.908772 
L 423.654517 292.715603 
L 424.130829 282.239951 
L 424.607141 283.457582 
L 425.083454 283.194621 
L 425.559766 283.64997 
L 426.036079 278.374501 
L 426.512391 280.942188 
L 426.988704 281.487074 
L 427.941328 282.862871 
L 428.417641 282.02122 
L 428.893953 281.561852 
L 429.370266 279.838718 
L 430.322891 283.609791 
L 430.799203 283.501539 
L 431.275515 287.036364 
L 431.751828 281.119077 
L 432.22814 280.036218 
L 432.704453 280.025342 
L 433.657077 267.638461 
L 434.13339 269.018606 
L 434.609702 272.324379 
L 435.086015 267.591344 
L 435.562327 269.715436 
L 436.03864 267.164277 
L 436.514952 267.959471 
L 436.991264 256.70537 
L 437.467577 257.047056 
L 437.943889 258.417242 
L 438.420202 255.038034 
L 438.896514 254.81132 
L 439.372827 258.706032 
L 439.849139 259.50621 
L 440.325451 258.053255 
L 440.801764 259.123702 
L 441.278076 263.64069 
L 441.754389 262.99994 
L 442.230701 264.277308 
L 442.707013 260.507409 
L 443.183326 255.354445 
L 443.659638 247.96602 
L 444.135951 248.656836 
L 444.612263 245.489824 
L 445.088576 248.098726 
L 445.564888 247.401559 
L 446.517513 249.037286 
L 446.993825 250.890418 
L 447.470138 243.770508 
L 447.94645 241.854496 
L 448.899075 239.62667 
L 449.375387 235.485148 
L 449.8517 239.76674 
L 450.328012 233.977689 
L 450.804325 232.037963 
L 451.280637 233.876544 
L 451.756949 232.267442 
L 452.233262 239.226509 
L 452.709574 238.485497 
L 453.185887 242.507433 
L 453.662199 235.068249 
L 454.138512 243.441845 
L 454.614824 243.851974 
L 455.091136 242.568368 
L 455.567449 242.95131 
L 456.043761 238.648784 
L 456.996386 248.244005 
L 457.472698 256.824603 
L 457.949011 257.417763 
L 458.425323 259.262341 
L 458.901636 260.463307 
L 459.377948 261.073365 
L 459.854261 256.015454 
L 460.330573 257.363564 
L 460.806885 257.899294 
L 461.283198 252.573012 
L 461.75951 251.852178 
L 462.235823 255.352227 
L 462.712135 268.55345 
L 463.188448 271.590538 
L 463.66476 271.819631 
L 464.141072 271.791631 
L 464.617385 320.205499 
L 465.093697 310.443856 
L 465.57001 316.425792 
L 466.046322 313.265605 
L 466.522634 319.486169 
L 466.998947 316.009867 
L 467.475259 315.798982 
L 467.951572 300.113113 
L 468.427884 299.988229 
L 468.904197 300.213978 
L 469.380509 306.05549 
L 469.856821 296.40677 
L 470.333134 291.163264 
L 470.809446 292.048035 
L 471.285759 291.465592 
L 472.714696 304.544318 
L 473.191008 296.184067 
L 473.667321 296.039142 
L 474.619946 290.194856 
L 475.096258 291.186585 
L 475.57257 288.978141 
L 476.048883 290.235934 
L 476.525195 282.322623 
L 477.001508 283.892713 
L 477.47782 281.296648 
L 477.954133 281.82364 
L 478.430445 289.011631 
L 478.906757 289.117166 
L 479.38307 287.273086 
L 479.859382 289.348406 
L 480.335695 289.391374 
L 480.812007 292.689348 
L 481.288319 284.87412 
L 481.764632 285.213596 
L 482.240944 282.555029 
L 482.717257 283.678516 
L 483.193569 288.740551 
L 483.669882 288.767473 
L 484.146194 284.86748 
L 484.622506 279.72229 
L 485.098819 277.72728 
L 485.575131 277.413891 
L 486.527756 273.698608 
L 487.004069 273.509974 
L 487.480381 257.145388 
L 487.956693 259.491209 
L 488.433006 256.09618 
L 488.909318 254.057478 
L 489.385631 255.557782 
L 489.861943 255.307772 
L 490.338255 253.819189 
L 490.814568 249.444924 
L 491.29088 238.204215 
L 491.767193 239.996332 
L 492.243505 244.092 
L 492.719818 257.879792 
L 493.19613 260.425653 
L 493.672442 257.088762 
L 494.625067 241.789959 
L 495.10138 248.466394 
L 495.577692 247.662695 
L 496.054004 242.826883 
L 496.530317 241.907617 
L 497.006629 241.867069 
L 497.482942 245.259525 
L 497.959254 252.523637 
L 498.435567 250.863841 
L 498.911879 250.424096 
L 499.388191 257.321055 
L 499.864504 255.401939 
L 500.340816 256.585381 
L 501.293441 245.213928 
L 501.769754 246.640129 
L 502.246066 242.338326 
L 502.722378 246.279004 
L 503.198691 234.652171 
L 503.675003 245.147205 
L 504.627628 240.68829 
L 505.10394 242.912594 
L 505.580253 243.107747 
L 506.056565 241.376212 
L 506.532878 241.168165 
L 507.00919 240.769563 
L 507.485503 239.544753 
L 507.961815 248.572026 
L 508.438127 245.953267 
L 508.91444 246.044911 
L 509.390752 247.501772 
L 509.867065 246.44951 
L 510.343377 245.011862 
L 511.296002 247.089311 
L 511.772314 249.127885 
L 512.248627 248.398176 
L 512.724939 248.870864 
L 513.201252 243.189439 
L 513.677564 243.50323 
L 514.153876 248.706549 
L 514.630189 249.509926 
L 515.582814 253.12244 
L 516.059126 251.505845 
L 516.535439 250.727565 
L 517.011751 251.597859 
L 517.488063 250.110659 
L 517.964376 251.837949 
L 518.440688 252.432395 
L 518.917001 251.688489 
L 519.393313 252.652372 
L 519.869625 247.688034 
L 520.345938 249.716317 
L 520.82225 246.817789 
L 521.298563 249.293358 
L 521.774875 249.279531 
L 522.251188 249.91274 
L 522.7275 249.317523 
L 523.203812 249.858944 
L 523.680125 249.865536 
L 524.63275 251.692782 
L 525.109062 251.377255 
L 525.585375 251.251349 
L 526.061687 250.810495 
L 526.537999 251.165879 
L 527.014312 247.697697 
L 527.490624 245.220311 
L 527.966937 244.303134 
L 528.443249 245.030496 
L 528.919561 242.721943 
L 529.395874 238.967334 
L 529.872186 221.092588 
L 530.348499 222.377577 
L 530.824811 219.288253 
L 531.301124 219.111332 
L 531.777436 215.616863 
L 532.253748 208.436613 
L 532.730061 220.059636 
L 533.206373 216.886513 
L 533.682686 217.55257 
L 534.158998 208.643566 
L 534.63531 208.104364 
L 535.111623 211.039856 
L 535.587935 208.527935 
L 536.064248 209.817152 
L 536.54056 206.485358 
L 537.016873 214.183555 
L 537.969497 208.032512 
L 538.44581 208.283857 
L 538.922122 206.689723 
L 539.398435 206.243467 
L 539.874747 200.290213 
L 540.827372 208.458173 
L 541.303684 206.481065 
L 541.779997 211.187756 
L 542.256309 209.716955 
L 542.732622 209.996468 
L 543.208934 208.189609 
L 543.685246 214.91439 
L 544.161559 212.902055 
L 544.637871 215.618004 
L 545.114184 212.010764 
L 545.590496 212.597445 
L 546.066809 209.228301 
L 546.543121 209.733499 
L 547.019433 204.964652 
L 547.495746 214.125788 
L 547.972058 233.367535 
L 548.448371 228.979684 
L 548.924683 234.614324 
L 549.877308 231.321647 
L 550.35362 235.240781 
L 551.306245 231.427423 
L 552.25887 230.126259 
L 552.735182 232.07581 
L 553.211495 226.196916 
L 553.687807 224.285261 
L 554.16412 221.355477 
L 554.640432 221.782135 
L 555.116745 221.854646 
L 555.593057 219.389029 
L 556.069369 221.958605 
L 556.545682 229.795522 
L 557.021994 228.540985 
L 557.498307 233.352889 
L 557.974619 224.892521 
L 558.450931 226.001345 
L 558.927244 225.046338 
L 559.403556 224.642221 
L 559.879869 225.722523 
L 560.356181 223.500116 
L 560.832494 224.490398 
L 561.308806 227.207553 
L 561.785118 227.923354 
L 562.261431 228.362038 
L 563.214056 224.344717 
L 563.690368 227.455264 
L 564.166681 226.392326 
L 564.642993 222.330453 
L 565.119305 219.881107 
L 565.595618 216.063119 
L 566.07193 214.617271 
L 566.548243 211.798987 
L 567.024555 213.930442 
L 567.500867 213.87105 
L 567.97718 212.787034 
L 568.453492 215.638986 
L 568.929805 215.046646 
L 569.406117 212.984438 
L 569.88243 208.725644 
L 570.358742 205.856055 
L 570.835054 190.917637 
L 571.311367 188.576463 
L 571.787679 189.142033 
L 572.263992 186.235803 
L 572.740304 187.501676 
L 573.216617 186.776051 
L 573.692929 177.244047 
L 574.169241 183.548553 
L 574.645554 180.805738 
L 575.121866 179.017127 
L 575.598179 175.156838 
L 575.598179 175.156838 
" clip-path="url(#pef069ffa8c)" style="fill: none; stroke: #000000; stroke-width: 1.5; stroke-linecap: round"/>
   </g>
   <g id="line2d_2">
    <path d="M 576.550803 178.951819 
L 577.027116 172.369439 
L 577.503428 169.349893 
L 577.979741 145.541042 
L 578.456053 145.771003 
L 578.932366 157.824527 
L 579.408678 147.192043 
L 579.88499 149.616356 
L 580.361303 150.298169 
L 580.837615 143.540846 
L 581.313928 134.074151 
L 581.79024 133.391486 
L 582.266552 137.501978 
L 582.742865 139.354981 
L 583.219177 126.833947 
L 583.69549 111.534308 
L 584.171802 108.923171 
L 584.648115 108.70776 
L 585.124427 95.467242 
L 585.600739 95.122855 
L 586.077052 99.604777 
L 586.553364 99.701598 
L 587.029677 87.463405 
L 587.505989 93.642954 
L 587.982302 119.680273 
L 588.458614 120.375383 
L 588.934926 110.348793 
L 589.411239 102.77433 
L 589.887551 78.929095 
L 590.363864 92.476057 
" clip-path="url(#pef069ffa8c)" style="fill: none; stroke: #ff0000; stroke-width: 1.5; stroke-linecap: round"/>
   </g>
   <g id="line2d_3">
    <path d="M 576.550803 175.418197 
L 577.027116 175.520538 
L 577.503428 175.622832 
L 577.979741 175.725081 
L 578.456053 175.827283 
L 578.932366 175.92944 
L 579.408678 176.03155 
L 579.88499 176.133614 
L 580.361303 176.235632 
L 580.837615 176.337604 
L 581.313928 176.439529 
L 581.79024 176.541409 
L 582.266552 176.643243 
L 582.742865 176.745031 
L 583.219177 176.846772 
L 583.69549 176.948468 
L 584.171802 177.050118 
L 584.648115 177.151722 
L 585.124427 177.25328 
L 585.600739 177.354793 
L 586.077052 177.456259 
L 586.553364 177.55768 
L 587.029677 177.659055 
L 587.505989 177.760384 
L 587.982302 177.861667 
L 588.458614 177.962904 
L 588.934926 178.064096 
L 589.411239 178.165242 
L 589.887551 178.266343 
L 590.363864 178.367398 
" clip-path="url(#pef069ffa8c)" style="fill: none; stroke: #008000; stroke-width: 1.5; stroke-linecap: round"/>
   </g>
   <g id="line2d_4">
    <path d="M 576.550803 172.234542 
L 577.027116 169.824084 
L 577.503428 167.099067 
L 577.979741 164.622818 
L 578.456053 159.680036 
L 578.932366 156.150595 
L 579.408678 152.33859 
L 579.88499 148.561474 
L 580.361303 144.411239 
L 580.837615 139.819628 
L 581.313928 135.26309 
L 581.79024 130.647876 
L 582.266552 126.2171 
L 582.742865 121.411764 
L 583.219177 116.536258 
L 583.69549 111.611095 
L 584.171802 106.711378 
L 584.648115 101.849838 
L 585.124427 96.920685 
L 585.600739 91.977164 
L 586.077052 87.032137 
L 586.553364 82.180188 
L 587.029677 77.38227 
L 587.505989 72.640167 
L 587.982302 67.964074 
L 588.458614 63.377313 
L 588.934926 58.918347 
L 589.411239 54.589072 
L 589.887551 50.399116 
L 590.363864 46.354 
" clip-path="url(#pef069ffa8c)" style="fill: none; stroke: #ee82ee; stroke-width: 1.5; stroke-linecap: round"/>
   </g>
   <g id="patch_3">
    <path d="M 57.7275 363.874 
L 57.7275 31.234 
" style="fill: none; stroke: #808080; stroke-width: 1.25; stroke-linejoin: miter; stroke-linecap: square"/>
   </g>
   <g id="patch_4">
    <path d="M 615.7275 363.874 
L 615.7275 31.234 
" style="fill: none; stroke: #808080; stroke-width: 1.25; stroke-linejoin: miter; stroke-linecap: square"/>
   </g>
   <g id="patch_5">
    <path d="M 57.7275 363.874 
L 615.7275 363.874 
" style="fill: none; stroke: #808080; stroke-width: 1.25; stroke-linejoin: miter; stroke-linecap: square"/>
   </g>
   <g id="patch_6">
    <path d="M 57.7275 31.234 
L 615.7275 31.234 
" style="fill: none; stroke: #808080; stroke-width: 1.25; stroke-linejoin: miter; stroke-linecap: square"/>
   </g>
   <g id="matplotlib.axis_1">
    <g id="xtick_1">
     <g id="line2d_5">
      <path d="M 83.091136 363.874 
L 83.091136 31.234 
" clip-path="url(#pef069ffa8c)" style="fill: none; stroke: #ffffff; stroke-width: 0.5; stroke-linecap: round"/>
     </g>
     <g id="text_1">
      <!-- 2018-01 -->
      <g style="fill: #262626" transform="translate(70.616281 407.899372) rotate(-45) scale(0.11 -0.11)">
       <defs>
        <path id="HelveticaNeue-32" d="M 282 2931 
L 826 2931 
Q 819 3136 867 3337 
Q 915 3539 1024 3699 
Q 1133 3859 1302 3958 
Q 1472 4058 1709 4058 
Q 1888 4058 2048 4000 
Q 2208 3942 2326 3833 
Q 2445 3725 2515 3574 
Q 2586 3424 2586 3238 
Q 2586 3002 2512 2822 
Q 2438 2643 2294 2489 
Q 2150 2336 1932 2185 
Q 1715 2035 1427 1856 
Q 1190 1715 972 1555 
Q 755 1395 582 1184 
Q 410 973 298 688 
Q 186 403 154 0 
L 3117 0 
L 3117 480 
L 787 480 
Q 826 691 950 854 
Q 1075 1018 1251 1158 
Q 1427 1299 1638 1424 
Q 1850 1549 2061 1677 
Q 2272 1811 2470 1958 
Q 2669 2106 2822 2288 
Q 2976 2470 3069 2700 
Q 3162 2931 3162 3232 
Q 3162 3552 3050 3795 
Q 2938 4038 2746 4201 
Q 2554 4365 2294 4451 
Q 2035 4538 1741 4538 
Q 1382 4538 1100 4416 
Q 819 4294 630 4080 
Q 442 3866 352 3571 
Q 262 3277 282 2931 
z
" transform="scale(0.015625)"/>
        <path id="HelveticaNeue-30" d="M 845 2234 
Q 845 2400 848 2601 
Q 851 2803 880 3004 
Q 909 3206 963 3398 
Q 1018 3590 1123 3734 
Q 1229 3878 1389 3968 
Q 1549 4058 1779 4058 
Q 2010 4058 2170 3968 
Q 2330 3878 2435 3734 
Q 2541 3590 2595 3398 
Q 2650 3206 2678 3004 
Q 2707 2803 2710 2601 
Q 2714 2400 2714 2234 
Q 2714 1978 2698 1661 
Q 2682 1344 2595 1065 
Q 2509 787 2317 595 
Q 2125 403 1779 403 
Q 1434 403 1242 595 
Q 1050 787 963 1065 
Q 877 1344 861 1661 
Q 845 1978 845 2234 
z
M 269 2227 
Q 269 1978 281 1709 
Q 294 1440 345 1184 
Q 397 928 493 701 
Q 589 474 755 301 
Q 922 128 1174 29 
Q 1427 -70 1779 -70 
Q 2138 -70 2387 29 
Q 2637 128 2803 301 
Q 2970 474 3066 701 
Q 3162 928 3213 1184 
Q 3264 1440 3277 1709 
Q 3290 1978 3290 2227 
Q 3290 2477 3277 2745 
Q 3264 3014 3213 3270 
Q 3162 3526 3066 3756 
Q 2970 3987 2803 4160 
Q 2637 4333 2384 4435 
Q 2131 4538 1779 4538 
Q 1427 4538 1174 4435 
Q 922 4333 755 4160 
Q 589 3987 493 3756 
Q 397 3526 345 3270 
Q 294 3014 281 2745 
Q 269 2477 269 2227 
z
" transform="scale(0.015625)"/>
        <path id="HelveticaNeue-31" d="M 2278 0 
L 2278 4538 
L 1862 4538 
Q 1818 4282 1696 4115 
Q 1574 3949 1398 3853 
Q 1222 3757 1004 3721 
Q 787 3686 557 3686 
L 557 3251 
L 1734 3251 
L 1734 0 
L 2278 0 
z
" transform="scale(0.015625)"/>
        <path id="HelveticaNeue-38" d="M 992 3360 
Q 992 3533 1056 3661 
Q 1120 3789 1225 3878 
Q 1331 3968 1478 4013 
Q 1626 4058 1786 4058 
Q 2118 4058 2332 3882 
Q 2547 3706 2547 3360 
Q 2547 3014 2336 2822 
Q 2125 2630 1798 2630 
Q 1632 2630 1485 2675 
Q 1338 2720 1229 2809 
Q 1120 2899 1056 3036 
Q 992 3174 992 3360 
z
M 416 3379 
Q 416 3072 589 2813 
Q 762 2554 1050 2438 
Q 666 2304 461 2006 
Q 256 1709 256 1306 
Q 256 960 374 701 
Q 493 442 701 269 
Q 909 96 1190 13 
Q 1472 -70 1798 -70 
Q 2112 -70 2387 19 
Q 2662 109 2864 285 
Q 3066 461 3184 717 
Q 3302 973 3302 1306 
Q 3302 1728 3104 2019 
Q 2906 2310 2496 2438 
Q 2784 2566 2953 2819 
Q 3123 3072 3123 3379 
Q 3123 3597 3046 3805 
Q 2970 4013 2806 4176 
Q 2643 4339 2380 4438 
Q 2118 4538 1747 4538 
Q 1485 4538 1245 4461 
Q 1005 4384 819 4237 
Q 634 4090 525 3875 
Q 416 3661 416 3379 
z
M 832 1280 
Q 832 1478 905 1638 
Q 979 1798 1110 1913 
Q 1242 2029 1418 2089 
Q 1594 2150 1792 2150 
Q 1984 2150 2153 2083 
Q 2323 2016 2451 1901 
Q 2579 1786 2652 1629 
Q 2726 1472 2726 1286 
Q 2726 1094 2659 934 
Q 2592 774 2467 656 
Q 2342 538 2172 470 
Q 2003 403 1798 403 
Q 1376 403 1104 636 
Q 832 870 832 1280 
z
" transform="scale(0.015625)"/>
        <path id="HelveticaNeue-2d" d="M 320 2035 
L 320 1523 
L 2170 1523 
L 2170 2035 
L 320 2035 
z
" transform="scale(0.015625)"/>
       </defs>
       <use xlink:href="#HelveticaNeue-32"/>
       <use xlink:href="#HelveticaNeue-30" x="55.599991"/>
       <use xlink:href="#HelveticaNeue-31" x="111.199982"/>
       <use xlink:href="#HelveticaNeue-38" x="166.799973"/>
       <use xlink:href="#HelveticaNeue-2d" x="222.399963"/>
       <use xlink:href="#HelveticaNeue-30" x="261.299957"/>
       <use xlink:href="#HelveticaNeue-31" x="316.899948"/>
      </g>
     </g>
    </g>
    <g id="xtick_2">
     <g id="line2d_6">
      <path d="M 140.248627 363.874 
L 140.248627 31.234 
" clip-path="url(#pef069ffa8c)" style="fill: none; stroke: #ffffff; stroke-width: 0.5; stroke-linecap: round"/>
     </g>
     <g id="text_2">
      <!-- 2018-05 -->
      <g style="fill: #262626" transform="translate(127.773772 407.899372) rotate(-45) scale(0.11 -0.11)">
       <defs>
        <path id="HelveticaNeue-35" d="M 3008 3981 
L 3008 4461 
L 768 4461 
L 346 2106 
L 813 2080 
Q 973 2272 1181 2390 
Q 1389 2509 1658 2509 
Q 1888 2509 2077 2432 
Q 2266 2355 2400 2217 
Q 2534 2080 2608 1891 
Q 2682 1702 2682 1478 
Q 2682 1210 2605 1008 
Q 2528 806 2397 672 
Q 2266 538 2090 470 
Q 1914 403 1722 403 
Q 1517 403 1347 464 
Q 1178 525 1053 637 
Q 928 749 854 899 
Q 781 1050 768 1222 
L 224 1222 
Q 230 915 345 672 
Q 461 429 659 265 
Q 858 102 1117 16 
Q 1376 -70 1670 -70 
Q 2067 -70 2364 54 
Q 2662 179 2860 390 
Q 3059 602 3158 874 
Q 3258 1146 3258 1434 
Q 3258 1824 3142 2115 
Q 3027 2406 2828 2601 
Q 2630 2797 2361 2893 
Q 2093 2989 1792 2989 
Q 1562 2989 1328 2909 
Q 1094 2829 947 2662 
L 934 2675 
L 1178 3981 
L 3008 3981 
z
" transform="scale(0.015625)"/>
       </defs>
       <use xlink:href="#HelveticaNeue-32"/>
       <use xlink:href="#HelveticaNeue-30" x="55.599991"/>
       <use xlink:href="#HelveticaNeue-31" x="111.199982"/>
       <use xlink:href="#HelveticaNeue-38" x="166.799973"/>
       <use xlink:href="#HelveticaNeue-2d" x="222.399963"/>
       <use xlink:href="#HelveticaNeue-30" x="261.299957"/>
       <use xlink:href="#HelveticaNeue-35" x="316.899948"/>
      </g>
     </g>
    </g>
    <g id="xtick_3">
     <g id="line2d_7">
      <path d="M 198.835054 363.874 
L 198.835054 31.234 
" clip-path="url(#pef069ffa8c)" style="fill: none; stroke: #ffffff; stroke-width: 0.5; stroke-linecap: round"/>
     </g>
     <g id="text_3">
      <!-- 2018-09 -->
      <g style="fill: #262626" transform="translate(186.360199 407.899372) rotate(-45) scale(0.11 -0.11)">
       <defs>
        <path id="HelveticaNeue-39" d="M 858 1094 
L 314 1094 
Q 365 506 742 218 
Q 1120 -70 1690 -70 
Q 2515 -70 2889 560 
Q 3264 1190 3264 2368 
Q 3264 3014 3139 3433 
Q 3014 3853 2803 4096 
Q 2592 4339 2310 4438 
Q 2029 4538 1709 4538 
Q 1382 4538 1107 4429 
Q 832 4320 633 4125 
Q 435 3930 326 3658 
Q 218 3386 218 3059 
Q 218 2726 310 2444 
Q 403 2163 585 1964 
Q 768 1766 1037 1654 
Q 1306 1542 1651 1542 
Q 1984 1542 2265 1712 
Q 2547 1882 2701 2170 
L 2714 2157 
Q 2688 1267 2438 835 
Q 2189 403 1690 403 
Q 1363 403 1126 582 
Q 890 762 858 1094 
z
M 2618 3021 
Q 2618 2822 2554 2640 
Q 2490 2458 2368 2320 
Q 2246 2182 2073 2102 
Q 1901 2022 1690 2022 
Q 1491 2022 1328 2102 
Q 1165 2182 1046 2316 
Q 928 2451 861 2624 
Q 794 2797 794 2982 
Q 794 3194 842 3386 
Q 890 3578 995 3728 
Q 1101 3878 1270 3968 
Q 1440 4058 1683 4058 
Q 1914 4058 2086 3974 
Q 2259 3891 2377 3747 
Q 2496 3603 2557 3417 
Q 2618 3232 2618 3021 
z
" transform="scale(0.015625)"/>
       </defs>
       <use xlink:href="#HelveticaNeue-32"/>
       <use xlink:href="#HelveticaNeue-30" x="55.599991"/>
       <use xlink:href="#HelveticaNeue-31" x="111.199982"/>
       <use xlink:href="#HelveticaNeue-38" x="166.799973"/>
       <use xlink:href="#HelveticaNeue-2d" x="222.399963"/>
       <use xlink:href="#HelveticaNeue-30" x="261.299957"/>
       <use xlink:href="#HelveticaNeue-39" x="316.899948"/>
      </g>
     </g>
    </g>
    <g id="xtick_4">
     <g id="line2d_8">
      <path d="M 256.94517 363.874 
L 256.94517 31.234 
" clip-path="url(#pef069ffa8c)" style="fill: none; stroke: #ffffff; stroke-width: 0.5; stroke-linecap: round"/>
     </g>
     <g id="text_4">
      <!-- 2019-01 -->
      <g style="fill: #262626" transform="translate(244.470314 407.899372) rotate(-45) scale(0.11 -0.11)">
       <use xlink:href="#HelveticaNeue-32"/>
       <use xlink:href="#HelveticaNeue-30" x="55.599991"/>
       <use xlink:href="#HelveticaNeue-31" x="111.199982"/>
       <use xlink:href="#HelveticaNeue-39" x="166.799973"/>
       <use xlink:href="#HelveticaNeue-2d" x="222.399963"/>
       <use xlink:href="#HelveticaNeue-30" x="261.299957"/>
       <use xlink:href="#HelveticaNeue-31" x="316.899948"/>
      </g>
     </g>
    </g>
    <g id="xtick_5">
     <g id="line2d_9">
      <path d="M 314.10266 363.874 
L 314.10266 31.234 
" clip-path="url(#pef069ffa8c)" style="fill: none; stroke: #ffffff; stroke-width: 0.5; stroke-linecap: round"/>
     </g>
     <g id="text_5">
      <!-- 2019-05 -->
      <g style="fill: #262626" transform="translate(301.627805 407.899372) rotate(-45) scale(0.11 -0.11)">
       <use xlink:href="#HelveticaNeue-32"/>
       <use xlink:href="#HelveticaNeue-30" x="55.599991"/>
       <use xlink:href="#HelveticaNeue-31" x="111.199982"/>
       <use xlink:href="#HelveticaNeue-39" x="166.799973"/>
       <use xlink:href="#HelveticaNeue-2d" x="222.399963"/>
       <use xlink:href="#HelveticaNeue-30" x="261.299957"/>
       <use xlink:href="#HelveticaNeue-35" x="316.899948"/>
      </g>
     </g>
    </g>
    <g id="xtick_6">
     <g id="line2d_10">
      <path d="M 372.689088 363.874 
L 372.689088 31.234 
" clip-path="url(#pef069ffa8c)" style="fill: none; stroke: #ffffff; stroke-width: 0.5; stroke-linecap: round"/>
     </g>
     <g id="text_6">
      <!-- 2019-09 -->
      <g style="fill: #262626" transform="translate(360.214233 407.899372) rotate(-45) scale(0.11 -0.11)">
       <use xlink:href="#HelveticaNeue-32"/>
       <use xlink:href="#HelveticaNeue-30" x="55.599991"/>
       <use xlink:href="#HelveticaNeue-31" x="111.199982"/>
       <use xlink:href="#HelveticaNeue-39" x="166.799973"/>
       <use xlink:href="#HelveticaNeue-2d" x="222.399963"/>
       <use xlink:href="#HelveticaNeue-30" x="261.299957"/>
       <use xlink:href="#HelveticaNeue-39" x="316.899948"/>
      </g>
     </g>
    </g>
    <g id="xtick_7">
     <g id="line2d_11">
      <path d="M 430.799203 363.874 
L 430.799203 31.234 
" clip-path="url(#pef069ffa8c)" style="fill: none; stroke: #ffffff; stroke-width: 0.5; stroke-linecap: round"/>
     </g>
     <g id="text_7">
      <!-- 2020-01 -->
      <g style="fill: #262626" transform="translate(418.324348 407.899372) rotate(-45) scale(0.11 -0.11)">
       <use xlink:href="#HelveticaNeue-32"/>
       <use xlink:href="#HelveticaNeue-30" x="55.599991"/>
       <use xlink:href="#HelveticaNeue-32" x="111.199982"/>
       <use xlink:href="#HelveticaNeue-30" x="166.799973"/>
       <use xlink:href="#HelveticaNeue-2d" x="222.399963"/>
       <use xlink:href="#HelveticaNeue-30" x="261.299957"/>
       <use xlink:href="#HelveticaNeue-31" x="316.899948"/>
      </g>
     </g>
    </g>
    <g id="xtick_8">
     <g id="line2d_12">
      <path d="M 488.433006 363.874 
L 488.433006 31.234 
" clip-path="url(#pef069ffa8c)" style="fill: none; stroke: #ffffff; stroke-width: 0.5; stroke-linecap: round"/>
     </g>
     <g id="text_8">
      <!-- 2020-05 -->
      <g style="fill: #262626" transform="translate(475.958151 407.899372) rotate(-45) scale(0.11 -0.11)">
       <use xlink:href="#HelveticaNeue-32"/>
       <use xlink:href="#HelveticaNeue-30" x="55.599991"/>
       <use xlink:href="#HelveticaNeue-32" x="111.199982"/>
       <use xlink:href="#HelveticaNeue-30" x="166.799973"/>
       <use xlink:href="#HelveticaNeue-2d" x="222.399963"/>
       <use xlink:href="#HelveticaNeue-30" x="261.299957"/>
       <use xlink:href="#HelveticaNeue-35" x="316.899948"/>
      </g>
     </g>
    </g>
    <g id="xtick_9">
     <g id="line2d_13">
      <path d="M 547.019433 363.874 
L 547.019433 31.234 
" clip-path="url(#pef069ffa8c)" style="fill: none; stroke: #ffffff; stroke-width: 0.5; stroke-linecap: round"/>
     </g>
     <g id="text_9">
      <!-- 2020-09 -->
      <g style="fill: #262626" transform="translate(534.544578 407.899372) rotate(-45) scale(0.11 -0.11)">
       <use xlink:href="#HelveticaNeue-32"/>
       <use xlink:href="#HelveticaNeue-30" x="55.599991"/>
       <use xlink:href="#HelveticaNeue-32" x="111.199982"/>
       <use xlink:href="#HelveticaNeue-30" x="166.799973"/>
       <use xlink:href="#HelveticaNeue-2d" x="222.399963"/>
       <use xlink:href="#HelveticaNeue-30" x="261.299957"/>
       <use xlink:href="#HelveticaNeue-39" x="316.899948"/>
      </g>
     </g>
    </g>
    <g id="xtick_10">
     <g id="line2d_14">
      <path d="M 605.129549 363.874 
L 605.129549 31.234 
" clip-path="url(#pef069ffa8c)" style="fill: none; stroke: #ffffff; stroke-width: 0.5; stroke-linecap: round"/>
     </g>
     <g id="text_10">
      <!-- 2021-01 -->
      <g style="fill: #262626" transform="translate(592.654693 407.899372) rotate(-45) scale(0.11 -0.11)">
       <use xlink:href="#HelveticaNeue-32"/>
       <use xlink:href="#HelveticaNeue-30" x="55.599991"/>
       <use xlink:href="#HelveticaNeue-32" x="111.199982"/>
       <use xlink:href="#HelveticaNeue-31" x="166.799973"/>
       <use xlink:href="#HelveticaNeue-2d" x="222.399963"/>
       <use xlink:href="#HelveticaNeue-30" x="261.299957"/>
       <use xlink:href="#HelveticaNeue-31" x="316.899948"/>
      </g>
     </g>
    </g>
    <g id="text_11">
     <!-- Date -->
     <g style="fill: #262626" transform="translate(319.9825 425.856916) scale(0.16 -0.16)">
      <defs>
       <path id="HelveticaNeue-44" d="M 1107 512 
L 1107 4058 
L 2131 4058 
Q 2554 4058 2842 3939 
Q 3130 3821 3312 3593 
Q 3494 3366 3574 3043 
Q 3654 2720 3654 2310 
Q 3654 1888 3568 1590 
Q 3482 1293 3347 1094 
Q 3213 896 3043 781 
Q 2874 666 2701 605 
Q 2528 544 2374 528 
Q 2221 512 2118 512 
L 1107 512 
z
M 499 4570 
L 499 0 
L 2067 0 
Q 2637 0 3053 160 
Q 3469 320 3737 624 
Q 4006 928 4134 1373 
Q 4262 1818 4262 2394 
Q 4262 3494 3692 4032 
Q 3123 4570 2067 4570 
L 499 4570 
z
" transform="scale(0.015625)"/>
       <path id="HelveticaNeue-61" d="M 3341 13 
Q 3200 -70 2950 -70 
Q 2739 -70 2614 48 
Q 2490 166 2490 435 
Q 2266 166 1968 48 
Q 1670 -70 1325 -70 
Q 1101 -70 899 -19 
Q 698 32 550 141 
Q 403 250 316 426 
Q 230 602 230 851 
Q 230 1133 326 1312 
Q 422 1491 579 1603 
Q 736 1715 937 1772 
Q 1139 1830 1350 1869 
Q 1574 1914 1776 1936 
Q 1978 1958 2131 2000 
Q 2285 2042 2374 2122 
Q 2464 2202 2464 2355 
Q 2464 2534 2397 2643 
Q 2330 2752 2224 2809 
Q 2118 2867 1987 2886 
Q 1856 2906 1728 2906 
Q 1382 2906 1152 2774 
Q 922 2643 902 2278 
L 358 2278 
Q 371 2586 486 2797 
Q 602 3008 794 3139 
Q 986 3270 1232 3328 
Q 1478 3386 1760 3386 
Q 1984 3386 2205 3354 
Q 2426 3322 2605 3222 
Q 2784 3123 2893 2944 
Q 3002 2765 3002 2477 
L 3002 774 
Q 3002 582 3024 492 
Q 3046 403 3174 403 
Q 3245 403 3341 435 
L 3341 13 
z
M 2458 1709 
Q 2355 1632 2188 1597 
Q 2022 1562 1840 1539 
Q 1658 1517 1472 1488 
Q 1286 1459 1139 1395 
Q 992 1331 899 1212 
Q 806 1094 806 890 
Q 806 755 860 662 
Q 915 570 1001 512 
Q 1088 454 1203 428 
Q 1318 403 1446 403 
Q 1715 403 1907 476 
Q 2099 550 2220 662 
Q 2342 774 2400 905 
Q 2458 1037 2458 1152 
L 2458 1709 
z
" transform="scale(0.015625)"/>
       <path id="HelveticaNeue-74" d="M 1165 3309 
L 1165 4301 
L 621 4301 
L 621 3309 
L 58 3309 
L 58 2829 
L 621 2829 
L 621 723 
Q 621 493 665 352 
Q 710 211 803 134 
Q 896 58 1046 29 
Q 1197 0 1408 0 
L 1824 0 
L 1824 480 
L 1574 480 
Q 1446 480 1366 489 
Q 1286 499 1241 531 
Q 1197 563 1181 620 
Q 1165 678 1165 774 
L 1165 2829 
L 1824 2829 
L 1824 3309 
L 1165 3309 
z
" transform="scale(0.015625)"/>
       <path id="HelveticaNeue-65" d="M 2707 1971 
L 806 1971 
Q 819 2163 889 2332 
Q 960 2502 1081 2630 
Q 1203 2758 1372 2832 
Q 1542 2906 1754 2906 
Q 1958 2906 2128 2832 
Q 2298 2758 2422 2633 
Q 2547 2509 2620 2336 
Q 2694 2163 2707 1971 
z
M 3232 1050 
L 2694 1050 
Q 2624 723 2403 563 
Q 2182 403 1837 403 
Q 1568 403 1369 492 
Q 1171 582 1043 732 
Q 915 883 857 1078 
Q 800 1274 806 1491 
L 3283 1491 
Q 3296 1792 3229 2125 
Q 3162 2458 2986 2739 
Q 2810 3021 2518 3203 
Q 2227 3386 1786 3386 
Q 1446 3386 1161 3258 
Q 877 3130 669 2899 
Q 461 2669 345 2355 
Q 230 2042 230 1664 
Q 243 1286 342 966 
Q 442 646 640 416 
Q 838 186 1129 58 
Q 1421 -70 1818 -70 
Q 2381 -70 2752 211 
Q 3123 493 3232 1050 
z
" transform="scale(0.015625)"/>
      </defs>
      <use xlink:href="#HelveticaNeue-44"/>
      <use xlink:href="#HelveticaNeue-61" x="70.399994"/>
      <use xlink:href="#HelveticaNeue-74" x="124.099991"/>
      <use xlink:href="#HelveticaNeue-65" x="155.599976"/>
     </g>
    </g>
   </g>
   <g id="matplotlib.axis_2">
    <g id="ytick_1">
     <g id="line2d_15">
      <path d="M 57.7275 360.883829 
L 615.7275 360.883829 
" clip-path="url(#pef069ffa8c)" style="fill: none; stroke: #ffffff; stroke-width: 0.5; stroke-linecap: round"/>
     </g>
     <g id="text_12">
      <!-- $\mathdefault{0.25}$ -->
      <g style="fill: #262626" transform="translate(26.7775 364.811172) scale(0.11 -0.11)">
       <defs>
        <path id="HelveticaNeue-2e" d="M 531 710 
L 531 0 
L 1242 0 
L 1242 710 
L 531 710 
z
" transform="scale(0.015625)"/>
       </defs>
       <use xlink:href="#HelveticaNeue-30" transform="translate(0 0.09375)"/>
       <use xlink:href="#HelveticaNeue-2e" transform="translate(55.599991 0.09375)"/>
       <use xlink:href="#HelveticaNeue-32" transform="translate(83.399979 0.09375)"/>
       <use xlink:href="#HelveticaNeue-35" transform="translate(138.999969 0.09375)"/>
      </g>
     </g>
    </g>
    <g id="ytick_2">
     <g id="line2d_16">
      <path d="M 57.7275 319.724563 
L 615.7275 319.724563 
" clip-path="url(#pef069ffa8c)" style="fill: none; stroke: #ffffff; stroke-width: 0.5; stroke-linecap: round"/>
     </g>
     <g id="text_13">
      <!-- $\mathdefault{0.50}$ -->
      <g style="fill: #262626" transform="translate(26.7775 323.651907) scale(0.11 -0.11)">
       <use xlink:href="#HelveticaNeue-30" transform="translate(0 0.09375)"/>
       <use xlink:href="#HelveticaNeue-2e" transform="translate(55.599991 0.09375)"/>
       <use xlink:href="#HelveticaNeue-35" transform="translate(83.399979 0.09375)"/>
       <use xlink:href="#HelveticaNeue-30" transform="translate(138.999969 0.09375)"/>
      </g>
     </g>
    </g>
    <g id="ytick_3">
     <g id="line2d_17">
      <path d="M 57.7275 278.565297 
L 615.7275 278.565297 
" clip-path="url(#pef069ffa8c)" style="fill: none; stroke: #ffffff; stroke-width: 0.5; stroke-linecap: round"/>
     </g>
     <g id="text_14">
      <!-- $\mathdefault{0.75}$ -->
      <g style="fill: #262626" transform="translate(26.7775 282.492641) scale(0.11 -0.11)">
       <defs>
        <path id="HelveticaNeue-37" d="M 3258 3994 
L 3258 4461 
L 320 4461 
L 320 3949 
L 2701 3949 
Q 2342 3571 2032 3123 
Q 1722 2675 1485 2172 
Q 1248 1670 1097 1123 
Q 947 576 909 0 
L 1517 0 
Q 1549 531 1696 1094 
Q 1843 1658 2076 2189 
Q 2310 2720 2611 3187 
Q 2912 3654 3258 3994 
z
" transform="scale(0.015625)"/>
       </defs>
       <use xlink:href="#HelveticaNeue-30" transform="translate(0 0.09375)"/>
       <use xlink:href="#HelveticaNeue-2e" transform="translate(55.599991 0.09375)"/>
       <use xlink:href="#HelveticaNeue-37" transform="translate(83.399979 0.09375)"/>
       <use xlink:href="#HelveticaNeue-35" transform="translate(138.999969 0.09375)"/>
      </g>
     </g>
    </g>
    <g id="ytick_4">
     <g id="line2d_18">
      <path d="M 57.7275 237.406031 
L 615.7275 237.406031 
" clip-path="url(#pef069ffa8c)" style="fill: none; stroke: #ffffff; stroke-width: 0.5; stroke-linecap: round"/>
     </g>
     <g id="text_15">
      <!-- $\mathdefault{1.00}$ -->
      <g style="fill: #262626" transform="translate(26.7775 241.333375) scale(0.11 -0.11)">
       <use xlink:href="#HelveticaNeue-31" transform="translate(0 0.09375)"/>
       <use xlink:href="#HelveticaNeue-2e" transform="translate(55.599991 0.09375)"/>
       <use xlink:href="#HelveticaNeue-30" transform="translate(83.399979 0.09375)"/>
       <use xlink:href="#HelveticaNeue-30" transform="translate(138.999969 0.09375)"/>
      </g>
     </g>
    </g>
    <g id="ytick_5">
     <g id="line2d_19">
      <path d="M 57.7275 196.246765 
L 615.7275 196.246765 
" clip-path="url(#pef069ffa8c)" style="fill: none; stroke: #ffffff; stroke-width: 0.5; stroke-linecap: round"/>
     </g>
     <g id="text_16">
      <!-- $\mathdefault{1.25}$ -->
      <g style="fill: #262626" transform="translate(26.7775 200.174109) scale(0.11 -0.11)">
       <use xlink:href="#HelveticaNeue-31" transform="translate(0 0.09375)"/>
       <use xlink:href="#HelveticaNeue-2e" transform="translate(55.599991 0.09375)"/>
       <use xlink:href="#HelveticaNeue-32" transform="translate(83.399979 0.09375)"/>
       <use xlink:href="#HelveticaNeue-35" transform="translate(138.999969 0.09375)"/>
      </g>
     </g>
    </g>
    <g id="ytick_6">
     <g id="line2d_20">
      <path d="M 57.7275 155.0875 
L 615.7275 155.0875 
" clip-path="url(#pef069ffa8c)" style="fill: none; stroke: #ffffff; stroke-width: 0.5; stroke-linecap: round"/>
     </g>
     <g id="text_17">
      <!-- $\mathdefault{1.50}$ -->
      <g style="fill: #262626" transform="translate(26.7775 159.014843) scale(0.11 -0.11)">
       <use xlink:href="#HelveticaNeue-31" transform="translate(0 0.09375)"/>
       <use xlink:href="#HelveticaNeue-2e" transform="translate(55.599991 0.09375)"/>
       <use xlink:href="#HelveticaNeue-35" transform="translate(83.399979 0.09375)"/>
       <use xlink:href="#HelveticaNeue-30" transform="translate(138.999969 0.09375)"/>
      </g>
     </g>
    </g>
    <g id="ytick_7">
     <g id="line2d_21">
      <path d="M 57.7275 113.928234 
L 615.7275 113.928234 
" clip-path="url(#pef069ffa8c)" style="fill: none; stroke: #ffffff; stroke-width: 0.5; stroke-linecap: round"/>
     </g>
     <g id="text_18">
      <!-- $\mathdefault{1.75}$ -->
      <g style="fill: #262626" transform="translate(26.7775 117.855578) scale(0.11 -0.11)">
       <use xlink:href="#HelveticaNeue-31" transform="translate(0 0.09375)"/>
       <use xlink:href="#HelveticaNeue-2e" transform="translate(55.599991 0.09375)"/>
       <use xlink:href="#HelveticaNeue-37" transform="translate(83.399979 0.09375)"/>
       <use xlink:href="#HelveticaNeue-35" transform="translate(138.999969 0.09375)"/>
      </g>
     </g>
    </g>
    <g id="ytick_8">
     <g id="line2d_22">
      <path d="M 57.7275 72.768968 
L 615.7275 72.768968 
" clip-path="url(#pef069ffa8c)" style="fill: none; stroke: #ffffff; stroke-width: 0.5; stroke-linecap: round"/>
     </g>
     <g id="text_19">
      <!-- $\mathdefault{2.00}$ -->
      <g style="fill: #262626" transform="translate(26.7775 76.696312) scale(0.11 -0.11)">
       <use xlink:href="#HelveticaNeue-32" transform="translate(0 0.09375)"/>
       <use xlink:href="#HelveticaNeue-2e" transform="translate(55.599991 0.09375)"/>
       <use xlink:href="#HelveticaNeue-30" transform="translate(83.399979 0.09375)"/>
       <use xlink:href="#HelveticaNeue-30" transform="translate(138.999969 0.09375)"/>
      </g>
     </g>
    </g>
    <g id="ytick_9">
     <g id="line2d_23">
      <path d="M 57.7275 31.609702 
L 615.7275 31.609702 
" clip-path="url(#pef069ffa8c)" style="fill: none; stroke: #ffffff; stroke-width: 0.5; stroke-linecap: round"/>
     </g>
     <g id="text_20">
      <!-- $\mathdefault{2.25}$ -->
      <g style="fill: #262626" transform="translate(26.7775 35.537046) scale(0.11 -0.11)">
       <use xlink:href="#HelveticaNeue-32" transform="translate(0 0.09375)"/>
       <use xlink:href="#HelveticaNeue-2e" transform="translate(55.599991 0.09375)"/>
       <use xlink:href="#HelveticaNeue-32" transform="translate(83.399979 0.09375)"/>
       <use xlink:href="#HelveticaNeue-35" transform="translate(138.999969 0.09375)"/>
      </g>
     </g>
    </g>
    <g id="text_21">
     <!-- BTC Price -->
     <g style="fill: #262626" transform="translate(18.625 233.84275) rotate(-90) scale(0.16 -0.16)">
      <defs>
       <path id="HelveticaNeue-42" d="M 1107 2605 
L 1107 4058 
L 2323 4058 
Q 2522 4058 2698 4035 
Q 2874 4013 3008 3936 
Q 3142 3859 3219 3718 
Q 3296 3578 3296 3334 
Q 3296 2970 3069 2787 
Q 2842 2605 2323 2605 
L 1107 2605 
z
M 499 4570 
L 499 0 
L 2707 0 
Q 3046 0 3305 112 
Q 3565 224 3741 406 
Q 3917 589 4006 825 
Q 4096 1062 4096 1312 
Q 4096 1734 3872 2028 
Q 3648 2323 3226 2413 
L 3226 2426 
Q 3552 2554 3728 2819 
Q 3904 3085 3904 3450 
Q 3904 3795 3747 4032 
Q 3590 4269 3366 4403 
Q 3264 4467 3120 4499 
Q 2976 4531 2809 4547 
Q 2643 4563 2473 4566 
Q 2304 4570 2157 4570 
L 499 4570 
z
M 1107 512 
L 1107 2093 
L 2496 2093 
Q 2688 2093 2867 2057 
Q 3046 2022 3184 1936 
Q 3322 1850 3405 1702 
Q 3488 1555 3488 1331 
Q 3488 947 3261 729 
Q 3034 512 2630 512 
L 1107 512 
z
" transform="scale(0.015625)"/>
       <path id="HelveticaNeue-54" d="M 1536 4058 
L 1536 0 
L 2144 0 
L 2144 4058 
L 3667 4058 
L 3667 4570 
L 13 4570 
L 13 4058 
L 1536 4058 
z
" transform="scale(0.015625)"/>
       <path id="HelveticaNeue-43" d="M 3712 3194 
L 4320 3194 
Q 4269 3558 4102 3836 
Q 3936 4115 3686 4300 
Q 3437 4486 3117 4582 
Q 2797 4678 2438 4678 
Q 1914 4678 1507 4489 
Q 1101 4301 829 3974 
Q 557 3648 416 3209 
Q 275 2771 275 2272 
Q 275 1773 406 1337 
Q 538 902 800 582 
Q 1062 262 1459 80 
Q 1856 -102 2387 -102 
Q 3264 -102 3769 378 
Q 4275 858 4365 1722 
L 3757 1722 
Q 3738 1440 3642 1197 
Q 3546 954 3376 778 
Q 3206 602 2972 502 
Q 2739 403 2438 403 
Q 2029 403 1734 556 
Q 1440 710 1251 969 
Q 1062 1229 972 1577 
Q 883 1926 883 2317 
Q 883 2675 972 3008 
Q 1062 3341 1251 3600 
Q 1440 3859 1731 4012 
Q 2022 4166 2432 4166 
Q 2912 4166 3261 3923 
Q 3610 3680 3712 3194 
z
" transform="scale(0.015625)"/>
       <path id="HelveticaNeue-20" transform="scale(0.015625)"/>
       <path id="HelveticaNeue-50" d="M 1107 2381 
L 1107 4058 
L 2298 4058 
Q 2816 4058 3056 3843 
Q 3296 3629 3296 3219 
Q 3296 2810 3056 2592 
Q 2816 2374 2298 2381 
L 1107 2381 
z
M 499 4570 
L 499 0 
L 1107 0 
L 1107 1869 
L 2502 1869 
Q 3194 1862 3549 2220 
Q 3904 2579 3904 3219 
Q 3904 3859 3549 4214 
Q 3194 4570 2502 4570 
L 499 4570 
z
" transform="scale(0.015625)"/>
       <path id="HelveticaNeue-72" d="M 390 3309 
L 390 0 
L 934 0 
L 934 1472 
Q 934 1792 998 2038 
Q 1062 2285 1203 2457 
Q 1344 2630 1574 2720 
Q 1805 2810 2131 2810 
L 2131 3386 
Q 1690 3398 1402 3206 
Q 1114 3014 915 2611 
L 902 2611 
L 902 3309 
L 390 3309 
z
" transform="scale(0.015625)"/>
       <path id="HelveticaNeue-69" d="M 986 3904 
L 986 4570 
L 442 4570 
L 442 3904 
L 986 3904 
z
M 442 3309 
L 442 0 
L 986 0 
L 986 3309 
L 442 3309 
z
" transform="scale(0.015625)"/>
       <path id="HelveticaNeue-63" d="M 2656 2246 
L 3219 2246 
Q 3187 2541 3065 2755 
Q 2944 2970 2755 3110 
Q 2566 3251 2320 3318 
Q 2074 3386 1792 3386 
Q 1402 3386 1107 3248 
Q 813 3110 617 2870 
Q 422 2630 326 2307 
Q 230 1984 230 1613 
Q 230 1242 329 931 
Q 429 621 624 397 
Q 819 173 1110 51 
Q 1402 -70 1779 -70 
Q 2413 -70 2781 262 
Q 3149 595 3238 1210 
L 2682 1210 
Q 2630 826 2403 614 
Q 2176 403 1773 403 
Q 1517 403 1331 505 
Q 1146 608 1030 777 
Q 915 947 860 1164 
Q 806 1382 806 1613 
Q 806 1862 857 2096 
Q 909 2330 1027 2509 
Q 1146 2688 1344 2797 
Q 1542 2906 1837 2906 
Q 2182 2906 2387 2733 
Q 2592 2560 2656 2246 
z
" transform="scale(0.015625)"/>
      </defs>
      <use xlink:href="#HelveticaNeue-42"/>
      <use xlink:href="#HelveticaNeue-54" x="68.499985"/>
      <use xlink:href="#HelveticaNeue-43" x="125.899979"/>
      <use xlink:href="#HelveticaNeue-20" x="198.09996"/>
      <use xlink:href="#HelveticaNeue-50" x="225.899948"/>
      <use xlink:href="#HelveticaNeue-72" x="290.699936"/>
      <use xlink:href="#HelveticaNeue-69" x="323.999924"/>
      <use xlink:href="#HelveticaNeue-63" x="346.199921"/>
      <use xlink:href="#HelveticaNeue-65" x="399.899918"/>
     </g>
    </g>
    <g id="text_22">
     <!-- $\times\mathdefault{10^{4}}\mathdefault{}$ -->
     <g style="fill: #262626" transform="translate(57.7275 28.234) scale(0.11 -0.11)">
      <defs>
       <path id="DejaVuSans-d7" d="M 4488 3438 
L 3059 2003 
L 4488 575 
L 4116 197 
L 2681 1631 
L 1247 197 
L 878 575 
L 2303 2003 
L 878 3438 
L 1247 3816 
L 2681 2381 
L 4116 3816 
L 4488 3438 
z
" transform="scale(0.015625)"/>
       <path id="HelveticaNeue-34" d="M 2170 1542 
L 646 1542 
L 2157 3763 
L 2170 3763 
L 2170 1542 
z
M 2682 1542 
L 2682 4538 
L 2246 4538 
L 179 1587 
L 179 1062 
L 2170 1062 
L 2170 0 
L 2682 0 
L 2682 1062 
L 3296 1062 
L 3296 1542 
L 2682 1542 
z
" transform="scale(0.015625)"/>
      </defs>
      <use xlink:href="#DejaVuSans-d7" transform="translate(0 0.173438)"/>
      <use xlink:href="#HelveticaNeue-31" transform="translate(83.789062 0.173438)"/>
      <use xlink:href="#HelveticaNeue-30" transform="translate(139.389053 0.173438)"/>
      <use xlink:href="#HelveticaNeue-34" transform="translate(195.893849 36.365625) scale(0.7)"/>
     </g>
    </g>
   </g>
   <g id="text_23">
    <!-- Train/Test split for BTC Data -->
    <g style="fill: #262626" transform="translate(216.5505 21.234) scale(0.192 -0.192)">
     <defs>
      <path id="HelveticaNeue-6e" d="M 410 3309 
L 410 0 
L 954 0 
L 954 1869 
Q 954 2093 1014 2281 
Q 1075 2470 1196 2611 
Q 1318 2752 1500 2829 
Q 1683 2906 1933 2906 
Q 2246 2906 2425 2726 
Q 2605 2547 2605 2240 
L 2605 0 
L 3149 0 
L 3149 2176 
Q 3149 2445 3094 2665 
Q 3040 2886 2905 3046 
Q 2771 3206 2553 3296 
Q 2336 3386 2010 3386 
Q 1274 3386 934 2784 
L 922 2784 
L 922 3309 
L 410 3309 
z
" transform="scale(0.015625)"/>
      <path id="HelveticaNeue-2f" d="M 1779 4678 
L -109 -102 
L 352 -102 
L 2246 4678 
L 1779 4678 
z
" transform="scale(0.015625)"/>
      <path id="HelveticaNeue-73" d="M 742 1043 
L 198 1043 
Q 211 736 326 521 
Q 442 307 634 176 
Q 826 45 1075 -12 
Q 1325 -70 1600 -70 
Q 1850 -70 2102 -22 
Q 2355 26 2556 147 
Q 2758 269 2883 467 
Q 3008 666 3008 966 
Q 3008 1203 2915 1363 
Q 2822 1523 2672 1628 
Q 2522 1734 2326 1798 
Q 2131 1862 1926 1907 
Q 1734 1952 1542 1993 
Q 1350 2035 1196 2096 
Q 1043 2157 944 2249 
Q 845 2342 845 2483 
Q 845 2611 909 2691 
Q 973 2771 1075 2819 
Q 1178 2867 1302 2886 
Q 1427 2906 1549 2906 
Q 1683 2906 1814 2877 
Q 1946 2848 2054 2784 
Q 2163 2720 2233 2614 
Q 2304 2509 2317 2349 
L 2861 2349 
Q 2842 2650 2733 2851 
Q 2624 3053 2441 3171 
Q 2259 3290 2022 3338 
Q 1786 3386 1504 3386 
Q 1286 3386 1065 3331 
Q 845 3277 669 3165 
Q 493 3053 381 2873 
Q 269 2694 269 2445 
Q 269 2125 429 1945 
Q 589 1766 829 1667 
Q 1069 1568 1350 1513 
Q 1632 1459 1872 1392 
Q 2112 1325 2272 1216 
Q 2432 1107 2432 896 
Q 2432 742 2355 643 
Q 2278 544 2160 493 
Q 2042 442 1901 422 
Q 1760 403 1632 403 
Q 1466 403 1309 435 
Q 1152 467 1027 540 
Q 902 614 825 739 
Q 749 864 742 1043 
z
" transform="scale(0.015625)"/>
      <path id="HelveticaNeue-70" d="M 429 3309 
L 429 -1261 
L 973 -1261 
L 973 442 
L 986 442 
Q 1075 294 1206 195 
Q 1338 96 1485 38 
Q 1632 -19 1782 -44 
Q 1933 -70 2054 -70 
Q 2432 -70 2717 64 
Q 3002 198 3190 432 
Q 3379 666 3472 979 
Q 3565 1293 3565 1645 
Q 3565 1997 3469 2310 
Q 3373 2624 3184 2864 
Q 2995 3104 2710 3245 
Q 2426 3386 2042 3386 
Q 1696 3386 1408 3261 
Q 1120 3136 986 2861 
L 973 2861 
L 973 3309 
L 429 3309 
z
M 2989 1683 
Q 2989 1440 2937 1209 
Q 2886 979 2771 800 
Q 2656 621 2467 512 
Q 2278 403 1997 403 
Q 1715 403 1516 508 
Q 1318 614 1193 787 
Q 1069 960 1011 1187 
Q 954 1414 954 1658 
Q 954 1888 1008 2112 
Q 1062 2336 1184 2512 
Q 1306 2688 1498 2797 
Q 1690 2906 1965 2906 
Q 2227 2906 2422 2803 
Q 2618 2701 2742 2528 
Q 2867 2355 2928 2134 
Q 2989 1914 2989 1683 
z
" transform="scale(0.015625)"/>
      <path id="HelveticaNeue-6c" d="M 442 4570 
L 442 0 
L 986 0 
L 986 4570 
L 442 4570 
z
" transform="scale(0.015625)"/>
      <path id="HelveticaNeue-66" d="M 634 2829 
L 634 0 
L 1178 0 
L 1178 2829 
L 1818 2829 
L 1818 3309 
L 1178 3309 
L 1178 3770 
Q 1178 3987 1286 4064 
Q 1395 4141 1594 4141 
Q 1664 4141 1747 4131 
Q 1830 4122 1901 4096 
L 1901 4570 
Q 1824 4595 1725 4608 
Q 1626 4621 1549 4621 
Q 1101 4621 867 4413 
Q 634 4205 634 3802 
L 634 3309 
L 77 3309 
L 77 2829 
L 634 2829 
z
" transform="scale(0.015625)"/>
      <path id="HelveticaNeue-6f" d="M 806 1651 
Q 806 1952 886 2185 
Q 966 2419 1107 2579 
Q 1248 2739 1437 2822 
Q 1626 2906 1837 2906 
Q 2048 2906 2237 2822 
Q 2426 2739 2566 2579 
Q 2707 2419 2787 2185 
Q 2867 1952 2867 1651 
Q 2867 1350 2787 1116 
Q 2707 883 2566 726 
Q 2426 570 2237 486 
Q 2048 403 1837 403 
Q 1626 403 1437 486 
Q 1248 570 1107 726 
Q 966 883 886 1116 
Q 806 1350 806 1651 
z
M 230 1651 
Q 230 1286 332 972 
Q 435 659 640 425 
Q 845 192 1145 61 
Q 1446 -70 1837 -70 
Q 2234 -70 2531 61 
Q 2829 192 3033 425 
Q 3238 659 3340 972 
Q 3443 1286 3443 1651 
Q 3443 2016 3340 2333 
Q 3238 2650 3033 2883 
Q 2829 3117 2531 3251 
Q 2234 3386 1837 3386 
Q 1446 3386 1145 3251 
Q 845 3117 640 2883 
Q 435 2650 332 2333 
Q 230 2016 230 1651 
z
" transform="scale(0.015625)"/>
     </defs>
     <use xlink:href="#HelveticaNeue-54"/>
     <use xlink:href="#HelveticaNeue-72" x="48.149994"/>
     <use xlink:href="#HelveticaNeue-61" x="81.449982"/>
     <use xlink:href="#HelveticaNeue-69" x="135.149979"/>
     <use xlink:href="#HelveticaNeue-6e" x="157.349976"/>
     <use xlink:href="#HelveticaNeue-2f" x="212.949966"/>
     <use xlink:href="#HelveticaNeue-54" x="246.249954"/>
     <use xlink:href="#HelveticaNeue-65" x="292.524948"/>
     <use xlink:href="#HelveticaNeue-73" x="346.224945"/>
     <use xlink:href="#HelveticaNeue-74" x="396.22493"/>
     <use xlink:href="#HelveticaNeue-20" x="427.724915"/>
     <use xlink:href="#HelveticaNeue-73" x="455.524902"/>
     <use xlink:href="#HelveticaNeue-70" x="505.524887"/>
     <use xlink:href="#HelveticaNeue-6c" x="564.824875"/>
     <use xlink:href="#HelveticaNeue-69" x="587.024872"/>
     <use xlink:href="#HelveticaNeue-74" x="609.224869"/>
     <use xlink:href="#HelveticaNeue-20" x="640.724854"/>
     <use xlink:href="#HelveticaNeue-66" x="668.524841"/>
     <use xlink:href="#HelveticaNeue-6f" x="698.124832"/>
     <use xlink:href="#HelveticaNeue-72" x="755.524826"/>
     <use xlink:href="#HelveticaNeue-20" x="788.824814"/>
     <use xlink:href="#HelveticaNeue-42" x="816.624802"/>
     <use xlink:href="#HelveticaNeue-54" x="885.124786"/>
     <use xlink:href="#HelveticaNeue-43" x="942.52478"/>
     <use xlink:href="#HelveticaNeue-20" x="1014.724762"/>
     <use xlink:href="#HelveticaNeue-44" x="1042.52475"/>
     <use xlink:href="#HelveticaNeue-61" x="1112.924744"/>
     <use xlink:href="#HelveticaNeue-74" x="1166.624741"/>
     <use xlink:href="#HelveticaNeue-61" x="1198.124725"/>
    </g>
   </g>
   <g id="legend_1">
    <g id="patch_7">
     <path d="M 63.2275 102.386812 
L 184.320312 102.386812 
L 184.320312 36.734 
L 63.2275 36.734 
z
" style="fill: #eaeaf2; opacity: 0.8; stroke: #808080; stroke-linejoin: miter"/>
    </g>
    <g id="line2d_24">
     <path d="M 70.9275 45.138687 
L 75.3275 45.138687 
" style="fill: none; stroke: #000000; stroke-width: 6; stroke-linecap: round"/>
    </g>
    <g id="text_24">
     <!-- Training -->
     <g style="fill: #262626" transform="translate(87.4275 48.988687) scale(0.11 -0.11)">
      <defs>
       <path id="HelveticaNeue-67" d="M 3264 282 
L 3264 3309 
L 2752 3309 
L 2752 2835 
L 2746 2835 
Q 2598 3110 2336 3248 
Q 2074 3386 1760 3386 
Q 1331 3386 1036 3222 
Q 742 3059 563 2806 
Q 384 2554 307 2243 
Q 230 1933 230 1638 
Q 230 1299 323 995 
Q 416 691 601 464 
Q 787 237 1062 102 
Q 1338 -32 1709 -32 
Q 2029 -32 2313 112 
Q 2598 256 2739 563 
L 2752 563 
L 2752 346 
Q 2752 70 2697 -160 
Q 2643 -390 2521 -553 
Q 2400 -717 2214 -809 
Q 2029 -902 1760 -902 
Q 1626 -902 1478 -873 
Q 1331 -845 1206 -781 
Q 1082 -717 995 -614 
Q 909 -512 902 -365 
L 358 -365 
Q 371 -634 499 -819 
Q 627 -1005 822 -1120 
Q 1018 -1235 1258 -1286 
Q 1498 -1338 1728 -1338 
Q 2522 -1338 2893 -934 
Q 3264 -531 3264 282 
z
M 1741 442 
Q 1472 442 1293 554 
Q 1114 666 1005 848 
Q 896 1030 851 1254 
Q 806 1478 806 1702 
Q 806 1939 860 2156 
Q 915 2374 1033 2540 
Q 1152 2707 1337 2806 
Q 1523 2906 1786 2906 
Q 2042 2906 2221 2803 
Q 2400 2701 2512 2531 
Q 2624 2362 2675 2150 
Q 2726 1939 2726 1722 
Q 2726 1491 2672 1260 
Q 2618 1030 2502 848 
Q 2387 666 2198 554 
Q 2010 442 1741 442 
z
" transform="scale(0.015625)"/>
      </defs>
      <use xlink:href="#HelveticaNeue-54"/>
      <use xlink:href="#HelveticaNeue-72" x="48.149994"/>
      <use xlink:href="#HelveticaNeue-61" x="81.449982"/>
      <use xlink:href="#HelveticaNeue-69" x="135.149979"/>
      <use xlink:href="#HelveticaNeue-6e" x="157.349976"/>
      <use xlink:href="#HelveticaNeue-69" x="212.949966"/>
      <use xlink:href="#HelveticaNeue-6e" x="235.149963"/>
      <use xlink:href="#HelveticaNeue-67" x="290.749954"/>
     </g>
    </g>
    <g id="line2d_25">
     <path d="M 70.9275 60.793062 
L 75.3275 60.793062 
" style="fill: none; stroke: #ff0000; stroke-width: 6; stroke-linecap: round"/>
    </g>
    <g id="text_25">
     <!-- Testing -->
     <g style="fill: #262626" transform="translate(87.4275 64.643062) scale(0.11 -0.11)">
      <use xlink:href="#HelveticaNeue-54"/>
      <use xlink:href="#HelveticaNeue-65" x="46.274994"/>
      <use xlink:href="#HelveticaNeue-73" x="99.974991"/>
      <use xlink:href="#HelveticaNeue-74" x="149.974976"/>
      <use xlink:href="#HelveticaNeue-69" x="181.47496"/>
      <use xlink:href="#HelveticaNeue-6e" x="203.674957"/>
      <use xlink:href="#HelveticaNeue-67" x="259.274948"/>
     </g>
    </g>
    <g id="line2d_26">
     <path d="M 70.9275 76.447437 
L 75.3275 76.447437 
" style="fill: none; stroke: #008000; stroke-width: 6; stroke-linecap: round"/>
    </g>
    <g id="text_26">
     <!-- ARMA Predictions -->
     <g style="fill: #262626" transform="translate(87.4275 80.297437) scale(0.11 -0.11)">
      <defs>
       <path id="HelveticaNeue-41" d="M 1286 1888 
L 2061 4019 
L 2074 4019 
L 2835 1888 
L 1286 1888 
z
M 1741 4570 
L -38 0 
L 582 0 
L 1094 1376 
L 3027 1376 
L 3526 0 
L 4198 0 
L 2413 4570 
L 1741 4570 
z
" transform="scale(0.015625)"/>
       <path id="HelveticaNeue-52" d="M 499 4570 
L 499 0 
L 1107 0 
L 1107 1952 
L 2592 1952 
Q 2816 1952 2950 1885 
Q 3085 1818 3168 1706 
Q 3251 1594 3289 1443 
Q 3328 1293 3354 1126 
Q 3386 960 3392 787 
Q 3398 614 3404 464 
Q 3411 314 3433 192 
Q 3456 70 3520 0 
L 4198 0 
Q 4102 115 4054 265 
Q 4006 416 3980 582 
Q 3955 749 3948 921 
Q 3942 1094 3930 1261 
Q 3910 1427 3875 1580 
Q 3840 1734 3766 1859 
Q 3693 1984 3568 2073 
Q 3443 2163 3245 2202 
L 3245 2214 
Q 3661 2330 3849 2643 
Q 4038 2957 4038 3373 
Q 4038 3930 3670 4250 
Q 3302 4570 2650 4570 
L 499 4570 
z
M 2374 2464 
L 1107 2464 
L 1107 4058 
L 2618 4058 
Q 3046 4058 3238 3840 
Q 3430 3622 3430 3277 
Q 3430 3027 3344 2870 
Q 3258 2714 3114 2621 
Q 2970 2528 2778 2496 
Q 2586 2464 2374 2464 
z
" transform="scale(0.015625)"/>
       <path id="HelveticaNeue-4d" d="M 512 4570 
L 512 0 
L 1088 0 
L 1088 3802 
L 1101 3802 
L 2528 0 
L 3046 0 
L 4474 3802 
L 4486 3802 
L 4486 0 
L 5062 0 
L 5062 4570 
L 4230 4570 
L 2784 730 
L 1344 4570 
L 512 4570 
z
" transform="scale(0.015625)"/>
       <path id="HelveticaNeue-64" d="M 806 1626 
Q 806 1869 857 2099 
Q 909 2330 1024 2509 
Q 1139 2688 1331 2797 
Q 1523 2906 1798 2906 
Q 2080 2906 2278 2800 
Q 2477 2694 2601 2521 
Q 2726 2349 2784 2121 
Q 2842 1894 2842 1651 
Q 2842 1421 2787 1197 
Q 2733 973 2611 797 
Q 2490 621 2298 512 
Q 2106 403 1830 403 
Q 1568 403 1373 505 
Q 1178 608 1053 781 
Q 928 954 867 1174 
Q 806 1395 806 1626 
z
M 3366 0 
L 3366 4570 
L 2822 4570 
L 2822 2867 
L 2810 2867 
Q 2720 3014 2589 3113 
Q 2458 3213 2310 3273 
Q 2163 3334 2016 3360 
Q 1869 3386 1741 3386 
Q 1363 3386 1078 3248 
Q 794 3110 605 2876 
Q 416 2643 323 2329 
Q 230 2016 230 1664 
Q 230 1312 326 998 
Q 422 685 611 448 
Q 800 211 1085 70 
Q 1370 -70 1754 -70 
Q 2099 -70 2387 51 
Q 2675 173 2810 448 
L 2822 448 
L 2822 0 
L 3366 0 
z
" transform="scale(0.015625)"/>
      </defs>
      <use xlink:href="#HelveticaNeue-41"/>
      <use xlink:href="#HelveticaNeue-52" x="64.799988"/>
      <use xlink:href="#HelveticaNeue-4d" x="133.299973"/>
      <use xlink:href="#HelveticaNeue-41" x="220.399963"/>
      <use xlink:href="#HelveticaNeue-20" x="285.199951"/>
      <use xlink:href="#HelveticaNeue-50" x="312.999939"/>
      <use xlink:href="#HelveticaNeue-72" x="377.799927"/>
      <use xlink:href="#HelveticaNeue-65" x="409.349915"/>
      <use xlink:href="#HelveticaNeue-64" x="463.049911"/>
      <use xlink:href="#HelveticaNeue-69" x="522.349899"/>
      <use xlink:href="#HelveticaNeue-63" x="544.549896"/>
      <use xlink:href="#HelveticaNeue-74" x="598.249893"/>
      <use xlink:href="#HelveticaNeue-69" x="629.749878"/>
      <use xlink:href="#HelveticaNeue-6f" x="651.949875"/>
      <use xlink:href="#HelveticaNeue-6e" x="709.349869"/>
      <use xlink:href="#HelveticaNeue-73" x="764.94986"/>
     </g>
    </g>
    <g id="line2d_27">
     <path d="M 70.9275 91.969469 
L 75.3275 91.969469 
" style="fill: none; stroke: #ee82ee; stroke-width: 6; stroke-linecap: round"/>
    </g>
    <g id="text_27">
     <!-- ARIMA Predictions -->
     <g style="fill: #262626" transform="translate(87.4275 95.819469) scale(0.11 -0.11)">
      <defs>
       <path id="HelveticaNeue-49" d="M 525 4570 
L 525 0 
L 1133 0 
L 1133 4570 
L 525 4570 
z
" transform="scale(0.015625)"/>
      </defs>
      <use xlink:href="#HelveticaNeue-41"/>
      <use xlink:href="#HelveticaNeue-52" x="64.799988"/>
      <use xlink:href="#HelveticaNeue-49" x="133.299973"/>
      <use xlink:href="#HelveticaNeue-4d" x="159.199966"/>
      <use xlink:href="#HelveticaNeue-41" x="246.299957"/>
      <use xlink:href="#HelveticaNeue-20" x="311.099945"/>
      <use xlink:href="#HelveticaNeue-50" x="338.899933"/>
      <use xlink:href="#HelveticaNeue-72" x="403.699921"/>
      <use xlink:href="#HelveticaNeue-65" x="435.249908"/>
      <use xlink:href="#HelveticaNeue-64" x="488.949905"/>
      <use xlink:href="#HelveticaNeue-69" x="548.249893"/>
      <use xlink:href="#HelveticaNeue-63" x="570.44989"/>
      <use xlink:href="#HelveticaNeue-74" x="624.149887"/>
      <use xlink:href="#HelveticaNeue-69" x="655.649872"/>
      <use xlink:href="#HelveticaNeue-6f" x="677.849869"/>
      <use xlink:href="#HelveticaNeue-6e" x="735.249863"/>
      <use xlink:href="#HelveticaNeue-73" x="790.849854"/>
     </g>
    </g>
   </g>
  </g>
 </g>
 <defs>
  <clipPath id="pef069ffa8c">
   <rect x="57.7275" y="31.234" width="558" height="332.64"/>
  </clipPath>
 </defs>
</svg>